;TYPE=PLATED
;Layer: PTH_Through
;EasyEDA Pro v2.2.40.3, 2025-06-29 22:57:10
;Gerber Generator version 0.3
M48
METRIC,LZ,0000.00000
;Hole size 1 = 0.30500 METRIC
T01C0.30500
;Hole size 2 = 1.00000 METRIC
T02C1.00000
;Hole size 3 = 1.10002 METRIC
T03C1.10002
;Hole size 4 = 1.19888 METRIC
T04C1.19888
;Hole size 5 = 1.20000 METRIC
T05C1.20000
;Hole size 6 = 1.30002 METRIC
T06C1.30002
%
G05
G90
T01
X68.961Y-89.535
X68.58Y-88.392
X67.16454Y-88.392
X67.564Y-89.535
X81.915Y-102.616
X81.915Y-104.14
X80.01Y-104.267
X59.69Y-104.14
X63.881Y-102.997
X67.945Y-102.997
X79.121Y-75.057
X83.185Y-76.835
X80.01Y-74.422
X110.744Y-74.041
X111.506Y-79.883
X110.66961Y-83.13239
X108.966Y-73.533
X84.582Y-73.66
X125.603Y-75.565
X125.349Y-66.548
X112.014Y-65.151
X110.871Y-72.644
X80.391Y-73.025
X125.095Y-77.851
X124.206Y-67.183
X112.268Y-66.294
X111.633Y-72.009
X84.836Y-72.136
X124.714Y-80.264
X122.555Y-64.135
X110.49Y-64.643
X109.601Y-71.247
X81.153Y-72.009
X121.793Y-81.788
X121.285Y-63.246
X108.966Y-63.627
X108.458Y-70.104
X85.09Y-70.358
X137.541Y-75.184
X137.414Y-62.484
X81.788Y-69.85
X81.915Y-61.849
X135.763Y-61.849
X136.271Y-80.518
X137.16Y-78.02499
X136.525Y-60.833
X85.471Y-61.214
X107.061Y-69.088
X107.823Y-62.738
X85.979Y-59.69
X134.239Y-59.944
X135.636Y-83.058
X149.733Y-75.565
X149.352Y-59.563
X105.41Y-59.055
X105.537Y-68.453
X82.55Y-67.945
X87.757Y-59.563
X148.209Y-57.912
X148.971Y-78.105
X82.37207Y-58.293
X146.685Y-57.531
X148.336Y-80.264
X145.669Y-82.804
X144.653Y-56.896
X86.995Y-57.658
X117.094Y-109.601
X112.268Y-108.966
X113.03Y-85.598
X111.252Y-88.18499
X156.337Y-95.80499
X156.083Y-113.411
X151.257Y-113.284
X146.812Y-94.869
X146.177Y-95.758
X116.078Y-110.236
X111.379Y-109.728
X121.92Y-86.106
X122.174Y-88.138
X126.619Y-109.53013
X135.255Y-109.347
X135.763Y-85.598
X136.398Y-88.011
X135.89Y-110.236
X127.635Y-110.236
X126.238Y-110.83011
X140.97Y-110.744
X138.049Y-110.744
X137.033Y-96.139
X138.43Y-93.345
X138.938Y-111.506
X140.97Y-111.506
X141.0335Y-108.9025
X133.985Y-107.823
X133.985Y-103.251
X123.571Y-103.378
X123.571Y-95.758
X124.841Y-93.091
X125.095Y-104.267
X139.319Y-104.013
X111.125Y-111.379
X116.586Y-112.014
X132.588Y-110.998
X132.969Y-84.709
X131.826Y-88.011
X126.873Y-111.506
X131.064Y-111.76
X116.84Y-108.22991
X113.03Y-108.22991
X112.903Y-112.776
X110.998Y-112.776
X124.46Y-113.03
X127.508Y-108.712
X116.459Y-107.188
X151.003Y-108.10316
X141.605Y-113.157
X136.779Y-112.903
X151.638Y-106.1532
X137.033Y-105.156
X95.33529Y-107.48371
X94.742Y-113.538
X106.426Y-113.157
X105.791Y-111.887
X126.746Y-107.442
X151.892Y-107.442
X152.654Y-106.80319
X128.47139Y-105.664
X92.329Y-91.948
X109.601Y-92.71
X110.744Y-105.664
X110.109Y-95.758
X92.075Y-95.758
X109.855Y-104.521
X96.393Y-111.887
X99.85282Y-66.675
X143.256Y-103.632
X150.241Y-96.52
X150.368Y-90.932
X134.366Y-98.933
X134.239Y-90.424
X119.888Y-101.346
X119.888Y-90.297
X107.696Y-104.394
X109.093Y-90.932
X142.113Y-104.902
X77.597Y-63.246
X76.835Y-79.756
X84.836Y-81.915
X83.185Y-81.153
X74.295Y-80.518
X81.407Y-82.55
X75.76639Y-65.98739
X62.611Y-82.169
X64.77Y-78.994
X64.643Y-69.215
X65.278Y-66.548
X65.659Y-78.232
X66.548Y-77.597
X67.437Y-76.327
X72.517Y-76.708
X73.025Y-83.947
X108.331Y-106.553
T02
X63.373Y-98.044
X60.833Y-98.044
T03
X116.078Y-100.88499
X116.078Y-98.34499
X116.078Y-95.80499
X116.078Y-93.26499
X116.078Y-90.72499
X116.078Y-88.18499
X116.078Y-85.64499
X116.078Y-83.10499
X116.078Y-80.56499
X116.078Y-78.02499
X116.078Y-75.48499
X116.078Y-72.94499
X116.078Y-70.40499
X116.078Y-67.86499
X128.18533Y-100.88499
X128.18533Y-98.34499
X128.18533Y-95.80499
X128.18533Y-93.26499
X128.18533Y-90.72499
X128.18533Y-88.18499
X128.18533Y-85.64499
X128.18533Y-83.10499
X128.18533Y-80.56499
X128.18533Y-78.02499
X128.18533Y-75.48499
X128.18533Y-72.94499
X128.18533Y-70.40499
X128.18533Y-67.86499
X140.29267Y-100.88499
X140.29267Y-98.34499
X140.29267Y-95.80499
X140.29267Y-93.26499
X140.29267Y-90.72499
X140.29267Y-88.18499
X140.29267Y-85.64499
X140.29267Y-83.10499
X140.29267Y-80.56499
X140.29267Y-78.02499
X140.29267Y-75.48499
X140.29267Y-72.94499
X140.29267Y-70.40499
X140.29267Y-67.86499
X152.4Y-100.88499
X152.4Y-98.34499
X152.4Y-95.80499
X152.4Y-93.26499
X152.4Y-90.72499
X152.4Y-88.18499
X152.4Y-85.64499
X152.4Y-83.10499
X152.4Y-80.56499
X152.4Y-78.02499
X152.4Y-75.48499
X152.4Y-72.94499
X152.4Y-70.40499
X152.4Y-67.86499
X73.025Y-68.453
X73.025Y-65.913
X73.025Y-63.373
X73.025Y-60.833
T04
X87.122Y-112.014
X87.122Y-109.474
X87.122Y-106.934
X87.122Y-104.394
X87.122Y-101.854
X87.122Y-99.314
X87.122Y-96.774
X87.122Y-94.234
X87.122Y-91.694
X87.122Y-89.154
X87.122Y-86.614
X87.122Y-84.074
X87.122Y-81.534
X87.122Y-78.994
X101.727Y-78.994
X101.727Y-81.534
X101.727Y-84.074
X101.727Y-86.614
X101.727Y-89.154
X101.727Y-91.694
X101.727Y-94.234
X101.727Y-96.774
X101.727Y-99.314
X101.727Y-101.854
X101.727Y-104.394
X101.727Y-106.934
X101.727Y-109.474
X101.727Y-112.014
T05
X62.484Y-58.928
X62.484Y-61.468
X62.484Y-64.008
X62.484Y-66.548
X62.484Y-69.088
X62.484Y-71.628
T06
X91.19702Y-54.27398
X76.69682Y-54.27398
X91.79692Y-49.37415
X76.09693Y-49.37415
M30