G04 Layer: DrillDrawingLayer*
G04 EasyEDA Pro v2.2.40.3, 2025-06-29 22:57:10*
G04 Gerber Generator version 0.3*
G04 Scale: 100 percent, Rotated: No, Reflected: No*
G04 Dimensions in millimeters*
G04 Leading zeros omitted, absolute positions, 4 integers and 5 decimals*
G04 Generated by one-click*
%FSLAX45Y45*%
%MOMM*%
%AMIconRect*4,1,4,0.2,-0.2,-0.2,-0.2,-0.2,0.2,0.2,0.2,0.2,-0.2,0*4,0,4,0.166667,-0.166667,0.166667,0.166667,-0.166667,0.166667,-0.166667,-0.166667,0.166667,-0.166667,0*%
%AMIconTriangle*4,1,3,-0.242567,0.171767,0.242567,0.171767,0,-0.2706,-0.242567,0.171767,0*4,0,3,-0.189767,0.1386,0,-0.1953,0.190167,0.1386,-0.189767,0.1386,0*%
%AMIconStar6*4,1,12,0.0862,0.1492,0.213233,0.123367,0.172367,0,0.213233,-0.1229,0.0862,-0.148733,0,-0.245767,-0.085767,-0.148733,-0.213267,-0.1229,-0.171933,0,-0.213267,0.1229,-0.085767,0.1492,0,0.245767,0.0862,0.1492,0*4,0,12,-0.000333,0.195333,-0.064333,0.122667,-0.169667,0.097667,-0.138333,-0.005333,-0.169667,-0.098,-0.064333,-0.122667,-0.000333,-0.195667,0.064333,-0.122667,0.169667,-0.098,0.138667,0.005,0.169667,0.098,0.064333,0.122333,-0.000333,0.195333,0*%
%AMIconStar4*4,1,8,-0.222667,0.222667,0,0.144667,0.222667,0.222667,0.144667,0,0.222667,-0.222667,0,-0.144667,-0.217433,-0.222667,-0.144667,0,-0.222667,0.222667,0*4,0,8,0.166667,-0.166667,0.108,0,0.166667,0.166667,0,0.108,-0.166667,0.166667,-0.108,0,-0.166667,-0.166667,0,-0.108,0.166667,-0.166667,0*%
%AMIconPlus*4,1,12,0.124,-0.2,-0.124,-0.2,-0.124,-0.124,-0.2,-0.124,-0.2,0.124,-0.124,0.124,-0.124,0.2,0.124,0.2,0.124,0.124,0.2,0.124,0.2,-0.124,0.124,-0.124,0.124,-0.2,0*4,0,12,0.090667,-0.166667,0.090667,-0.090667,0.166667,-0.090667,0.166667,0.090667,0.090667,0.090667,0.090667,0.166667,-0.090667,0.166667,-0.090667,0.090667,-0.166667,0.090667,-0.166667,-0.090667,-0.090667,-0.090667,-0.090667,-0.166667,0.090667,-0.166667,0*%
%AMIconX*4,1,16,0.2,-0.2,0.054533,-0.2,0,-0.145467,-0.054533,-0.2,-0.2,-0.2,-0.2,-0.054533,-0.145467,0,-0.2,0.054533,-0.2,0.2,-0.054533,0.2,0,0.145467,0.054533,0.2,0.2,0.2,0.2,0.054533,0.145467,0,0.2,-0.054533,0.2,-0.2,0*4,0,16,0.1668,-0.1664,0.1668,-0.068467,0.097933,0.000067,0.1668,0.068467,0.1668,0.1665,0.068467,0.1665,0,0.097933,-0.068467,0.1665,-0.1668,0.1665,-0.1668,0.068467,-0.097933,0.000067,-0.1668,-0.068467,-0.1668,-0.1664,-0.068467,-0.1664,0,-0.097933,0.068467,-0.1664,0.1668,-0.1664,0*%
%ADD10IconRect*%
%ADD11C,0.44X0.373333*%
%ADD12IconTriangle*%
%ADD13IconStar6*%
%ADD14IconStar4*%
%ADD15IconPlus*%
%ADD16IconX*%
G75*


G04 Drill Drawing Start*
G54D10*
G01X6083300Y-9804400D03*
G01X6337300Y-9804400D03*
G54D11*
G01X7609693Y-4937415D03*
G01X7669682Y-5427398D03*
G01X9119702Y-5427398D03*
G01X9179692Y-4937415D03*
G54D12*
G01X6286500Y-5156200D03*
G01X8115300Y-10896600D03*
G01X10731500Y-8648700D03*
G01X14655800Y-9156700D03*
G01X15291032Y-5118100D03*
G54D13*
G01X6248400Y-5892800D03*
G01X6248400Y-7162800D03*
G01X6248400Y-6908800D03*
G01X6248400Y-6654800D03*
G01X6248400Y-6400800D03*
G01X6248400Y-6146800D03*
G54D14*
G01X8712200Y-11201400D03*
G01X8712200Y-10947400D03*
G01X8712200Y-10693400D03*
G01X8712200Y-10439400D03*
G01X8712200Y-10185400D03*
G01X8712200Y-9931400D03*
G01X8712200Y-9677400D03*
G01X8712200Y-9423400D03*
G01X8712200Y-9169400D03*
G01X8712200Y-8915400D03*
G01X8712200Y-8661400D03*
G01X8712200Y-8407400D03*
G01X8712200Y-8153400D03*
G01X8712200Y-7899400D03*
G01X10172700Y-11201400D03*
G01X10172700Y-10947400D03*
G01X10172700Y-10693400D03*
G01X10172700Y-10439400D03*
G01X10172700Y-10185400D03*
G01X10172700Y-9931400D03*
G01X10172700Y-9677400D03*
G01X10172700Y-9423400D03*
G01X10172700Y-9169400D03*
G01X10172700Y-8915400D03*
G01X10172700Y-8661400D03*
G01X10172700Y-8407400D03*
G01X10172700Y-8153400D03*
G01X10172700Y-7899400D03*
G54D15*
G01X7302500Y-6845300D03*
G01X7302500Y-6591300D03*
G01X7302500Y-6337300D03*
G01X7302500Y-6083300D03*
G01X11607800Y-10088499D03*
G01X11607800Y-9834499D03*
G01X11607800Y-9580499D03*
G01X11607800Y-9326499D03*
G01X11607800Y-9072499D03*
G01X11607800Y-8818499D03*
G01X11607800Y-8564499D03*
G01X11607800Y-8310499D03*
G01X11607800Y-8056499D03*
G01X11607800Y-7802499D03*
G01X11607800Y-7548499D03*
G01X11607800Y-7294499D03*
G01X11607800Y-7040499D03*
G01X11607800Y-6786499D03*
G01X12818533Y-10088499D03*
G01X12818533Y-9834499D03*
G01X12818533Y-9580499D03*
G01X12818533Y-9326499D03*
G01X12818533Y-9072499D03*
G01X12818533Y-8818499D03*
G01X12818533Y-8564499D03*
G01X12818533Y-8310499D03*
G01X12818533Y-8056499D03*
G01X12818533Y-7802499D03*
G01X12818533Y-7548499D03*
G01X12818533Y-7294499D03*
G01X12818533Y-7040499D03*
G01X12818533Y-6786499D03*
G01X14029267Y-10088499D03*
G01X14029267Y-9834499D03*
G01X14029267Y-9580499D03*
G01X14029267Y-9326499D03*
G01X14029267Y-9072499D03*
G01X14029267Y-8818499D03*
G01X14029267Y-8564499D03*
G01X14029267Y-8310499D03*
G01X14029267Y-8056499D03*
G01X14029267Y-7802499D03*
G01X14029267Y-7548499D03*
G01X14029267Y-7294499D03*
G01X14029267Y-7040499D03*
G01X14029267Y-6786499D03*
G01X15240000Y-10088499D03*
G01X15240000Y-9834499D03*
G01X15240000Y-9580499D03*
G01X15240000Y-9326499D03*
G01X15240000Y-9072499D03*
G01X15240000Y-8818499D03*
G01X15240000Y-8564499D03*
G01X15240000Y-8310499D03*
G01X15240000Y-8056499D03*
G01X15240000Y-7802499D03*
G01X15240000Y-7548499D03*
G01X15240000Y-7294499D03*
G01X15240000Y-7040499D03*
G01X15240000Y-6786499D03*
G54D16*
G01X5969000Y-10414000D03*
G01X6261100Y-8216900D03*
G01X6388100Y-10299700D03*
G01X6464300Y-6921500D03*
G01X6477000Y-7899400D03*
G01X6527800Y-6654800D03*
G01X6565900Y-7823200D03*
G01X6654800Y-7759700D03*
G01X6716454Y-8839200D03*
G01X6743700Y-7632700D03*
G01X6756400Y-8953500D03*
G01X6794500Y-10299700D03*
G01X6858000Y-8839200D03*
G01X6896100Y-8953500D03*
G01X7251700Y-7670800D03*
G01X7302500Y-8394700D03*
G01X7429500Y-8051800D03*
G01X7576639Y-6598739D03*
G01X7683500Y-7975600D03*
G01X7759700Y-6324600D03*
G01X7912100Y-7505700D03*
G01X8001000Y-10426700D03*
G01X8001000Y-7442200D03*
G01X8039100Y-7302500D03*
G01X8115300Y-7200900D03*
G01X8140700Y-8255000D03*
G01X8178800Y-6985000D03*
G01X8191500Y-10414000D03*
G01X8191500Y-10261600D03*
G01X8191500Y-6184900D03*
G01X8237207Y-5829300D03*
G01X8255000Y-6794500D03*
G01X8318500Y-8115300D03*
G01X8318500Y-7683500D03*
G01X8458200Y-7366000D03*
G01X8483600Y-8191500D03*
G01X8483600Y-7213600D03*
G01X8509000Y-7035800D03*
G01X8547100Y-6121400D03*
G01X8597900Y-5969000D03*
G01X8699500Y-5765800D03*
G01X8775700Y-5956300D03*
G01X9207500Y-9575800D03*
G01X9232900Y-9194800D03*
G01X9474200Y-11353800D03*
G01X9533529Y-10748371D03*
G01X9639300Y-11188700D03*
G01X9985282Y-6667500D03*
G01X10541000Y-5905500D03*
G01X10553700Y-6845300D03*
G01X10579100Y-11188700D03*
G01X10642600Y-11315700D03*
G01X10706100Y-6908800D03*
G01X10769600Y-10439400D03*
G01X10782300Y-6273800D03*
G01X10833100Y-10655300D03*
G01X10845800Y-7010400D03*
G01X10896600Y-7353300D03*
G01X10896600Y-6362700D03*
G01X10909300Y-9093200D03*
G01X10960100Y-9271000D03*
G01X10960100Y-7124700D03*
G01X10985500Y-10452100D03*
G01X11010900Y-9575800D03*
G01X11049000Y-6464300D03*
G01X11066961Y-8313239D03*
G01X11074400Y-10566400D03*
G01X11074400Y-7404100D03*
G01X11087100Y-7264400D03*
G01X11099800Y-11277600D03*
G01X11112500Y-11137900D03*
G01X11125200Y-8818499D03*
G01X11137900Y-10972800D03*
G01X11150600Y-7988300D03*
G01X11163300Y-7200900D03*
G01X11201400Y-6515100D03*
G01X11226800Y-10896600D03*
G01X11226800Y-6629400D03*
G01X11290300Y-11277600D03*
G01X11303000Y-10822991D03*
G01X11303000Y-8559800D03*
G01X11607800Y-11023600D03*
G01X11645900Y-10718800D03*
G01X11658600Y-11201400D03*
G01X11684000Y-10822991D03*
G01X11709400Y-10960100D03*
G01X11988800Y-10134600D03*
G01X11988800Y-9029700D03*
G01X12128500Y-6324600D03*
G01X12179300Y-8178800D03*
G01X12192000Y-8610600D03*
G01X12217400Y-8813800D03*
G01X12255500Y-6413500D03*
G01X12357100Y-10337800D03*
G01X12357100Y-9575800D03*
G01X12420600Y-6718300D03*
G01X12446000Y-11303000D03*
G01X12471400Y-8026400D03*
G01X12484100Y-9309100D03*
G01X12509500Y-10426700D03*
G01X12509500Y-7785100D03*
G01X12534900Y-6654800D03*
G01X12560300Y-7556500D03*
G01X12623800Y-11083011D03*
G01X12661900Y-10953013D03*
G01X12674600Y-10744200D03*
G01X12687300Y-11150600D03*
G01X12750800Y-10871200D03*
G01X12763500Y-11023600D03*
G01X12847139Y-10566400D03*
G01X13106400Y-11176000D03*
G01X13182600Y-8801100D03*
G01X13258800Y-11099800D03*
G01X13296900Y-8470900D03*
G01X13398500Y-10782300D03*
G01X13398500Y-10325100D03*
G01X13423900Y-9042400D03*
G01X13423900Y-5994400D03*
G01X13436600Y-9893300D03*
G01X13525500Y-10934700D03*
G01X13563600Y-8305800D03*
G01X13576300Y-8559800D03*
G01X13576300Y-6184900D03*
G01X13589000Y-11023600D03*
G01X13627100Y-8051800D03*
G01X13639800Y-8801100D03*
G01X13652500Y-6083300D03*
G01X13677900Y-11290300D03*
G01X13703300Y-10515600D03*
G01X13703300Y-9613900D03*
G01X13716000Y-7802499D03*
G01X13741400Y-6248400D03*
G01X13754100Y-7518400D03*
G01X13804900Y-11074400D03*
G01X13843000Y-9334500D03*
G01X13893800Y-11150600D03*
G01X13931900Y-10401300D03*
G01X14097000Y-11150600D03*
G01X14097000Y-11074400D03*
G01X14103350Y-10890250D03*
G01X14160500Y-11315700D03*
G01X14211300Y-10490200D03*
G01X14325600Y-10363200D03*
G01X14465300Y-5689600D03*
G01X14566900Y-8280400D03*
G01X14617700Y-9575800D03*
G01X14668500Y-5753100D03*
G01X14681200Y-9486900D03*
G01X14820900Y-5791200D03*
G01X14833600Y-8026400D03*
G01X14897100Y-7810500D03*
G01X14935200Y-5956300D03*
G01X14973300Y-7556500D03*
G01X15024100Y-9652000D03*
G01X15036800Y-9093200D03*
G01X15100300Y-10810316D03*
G01X15125700Y-11328400D03*
G01X15163800Y-10615320D03*
G01X15189200Y-10744200D03*
G01X15265400Y-10680319D03*
G01X15608300Y-11341100D03*
G01X15633700Y-9580499D03*
G04 Drill Drawing End*

M02*

