G04 Layer: TopPasteMaskLayer*
G04 EasyEDA Pro v2.2.40.3, 2025-06-29 22:57:10*
G04 Gerber Generator version 0.3*
G04 Scale: 100 percent, Rotated: No, Reflected: No*
G04 Dimensions in millimeters*
G04 Leading zeros omitted, absolute positions, 4 integers and 5 decimals*
G04 Generated by one-click*
%FSLAX45Y45*%
%MOMM*%
%ADD10R,3.49999X1.2*%
%ADD11R,1.2X3.49999*%
%ADD12R,1.9X2.49999*%
%ADD13R,1.0X1.25001*%
%ADD14R,1.07201X0.532*%
%ADD15R,1.6529X0.4*%
%ADD16R,1.65001X0.4*%
%ADD17O,1.73149X0.343*%
%ADD18R,1.03749X0.532*%
G75*


G04 PolygonModel Start*
G36*
G01X6596698Y-8927600D02*
G01X6596698Y-9055598D01*
G01X6591696Y-9060599D01*
G01X6476695Y-9060599D01*
G01X6471696Y-9055598D01*
G01X6471194Y-9014595D01*
G01X6516195Y-9014595D01*
G01X6516195Y-8969596D01*
G01X6472194Y-8969596D01*
G01X6471696Y-8927600D01*
G01X6476695Y-8922598D01*
G01X6591696Y-8922598D01*
G01X6596698Y-8927600D01*
G37*
G36*
G01X6255703Y-9055600D02*
G01X6255703Y-8927602D01*
G01X6260704Y-8922601D01*
G01X6375705Y-8922601D01*
G01X6380704Y-8927602D01*
G01X6381206Y-8968605D01*
G01X6336205Y-8968605D01*
G01X6336205Y-9013604D01*
G01X6380206Y-9013604D01*
G01X6380704Y-9055600D01*
G01X6375705Y-9060602D01*
G01X6260704Y-9060602D01*
G01X6255703Y-9055600D01*
G37*
G36*
G01X5955800Y-10573702D02*
G01X6083798Y-10573702D01*
G01X6088799Y-10578704D01*
G01X6088799Y-10693705D01*
G01X6083798Y-10698704D01*
G01X6042795Y-10699206D01*
G01X6042795Y-10654205D01*
G01X5997796Y-10654205D01*
G01X5997796Y-10698206D01*
G01X5955800Y-10698704D01*
G01X5950798Y-10693705D01*
G01X5950798Y-10578704D01*
G01X5955800Y-10573702D01*
G37*
G36*
G01X6083800Y-10914697D02*
G01X5955802Y-10914697D01*
G01X5950801Y-10909696D01*
G01X5950801Y-10794695D01*
G01X5955802Y-10789696D01*
G01X5996805Y-10789194D01*
G01X5996805Y-10834195D01*
G01X6041804Y-10834195D01*
G01X6041804Y-10790194D01*
G01X6083800Y-10789696D01*
G01X6088802Y-10794695D01*
G01X6088802Y-10909696D01*
G01X6083800Y-10914697D01*
G37*
G36*
G01X8804707Y-5432395D02*
G01X8834709Y-5432395D01*
G01X8834709Y-5622397D01*
G01X8804707Y-5622397D01*
G01X8804707Y-5432395D01*
G37*
G36*
G01X8754707Y-5432395D02*
G01X8784709Y-5432395D01*
G01X8784709Y-5622397D01*
G01X8754707Y-5622397D01*
G01X8754707Y-5432395D01*
G37*
G36*
G01X8704707Y-5432395D02*
G01X8734709Y-5432395D01*
G01X8734709Y-5622397D01*
G01X8704707Y-5622397D01*
G01X8704707Y-5432395D01*
G37*
G36*
G01X8654707Y-5432395D02*
G01X8684710Y-5432395D01*
G01X8684710Y-5622397D01*
G01X8654707Y-5622397D01*
G01X8654707Y-5432395D01*
G37*
G36*
G01X8604707Y-5432395D02*
G01X8634710Y-5432395D01*
G01X8634710Y-5622397D01*
G01X8604707Y-5622397D01*
G01X8604707Y-5432395D01*
G37*
G36*
G01X8554707Y-5432395D02*
G01X8584710Y-5432395D01*
G01X8584710Y-5622397D01*
G01X8554707Y-5622397D01*
G01X8554707Y-5432395D01*
G37*
G36*
G01X8504705Y-5432395D02*
G01X8534707Y-5432395D01*
G01X8534707Y-5622397D01*
G01X8504705Y-5622397D01*
G01X8504705Y-5432395D01*
G37*
G36*
G01X8454705Y-5432395D02*
G01X8484707Y-5432395D01*
G01X8484707Y-5622397D01*
G01X8454705Y-5622397D01*
G01X8454705Y-5432395D01*
G37*
G36*
G01X8404705Y-5432395D02*
G01X8434708Y-5432395D01*
G01X8434708Y-5622397D01*
G01X8404705Y-5622397D01*
G01X8404705Y-5432395D01*
G37*
G36*
G01X8354705Y-5432395D02*
G01X8384708Y-5432395D01*
G01X8384708Y-5622397D01*
G01X8354705Y-5622397D01*
G01X8354705Y-5432395D01*
G37*
G36*
G01X8304705Y-5432395D02*
G01X8334708Y-5432395D01*
G01X8334708Y-5622397D01*
G01X8304705Y-5622397D01*
G01X8304705Y-5432395D01*
G37*
G36*
G01X8254705Y-5432395D02*
G01X8284708Y-5432395D01*
G01X8284708Y-5622397D01*
G01X8254705Y-5622397D01*
G01X8254705Y-5432395D01*
G37*
G36*
G01X8204705Y-5432395D02*
G01X8234708Y-5432395D01*
G01X8234708Y-5622397D01*
G01X8204705Y-5622397D01*
G01X8204705Y-5432395D01*
G37*
G36*
G01X8154706Y-5432395D02*
G01X8184708Y-5432395D01*
G01X8184708Y-5622397D01*
G01X8154706Y-5622397D01*
G01X8154706Y-5432395D01*
G37*
G36*
G01X8104706Y-5432395D02*
G01X8134708Y-5432395D01*
G01X8134708Y-5622397D01*
G01X8104706Y-5622397D01*
G01X8104706Y-5432395D01*
G37*
G36*
G01X8054706Y-5432395D02*
G01X8084708Y-5432395D01*
G01X8084708Y-5622397D01*
G01X8054706Y-5622397D01*
G01X8054706Y-5432395D01*
G37*
G36*
G01X8004706Y-5432395D02*
G01X8034708Y-5432395D01*
G01X8034708Y-5622397D01*
G01X8004706Y-5622397D01*
G01X8004706Y-5432395D01*
G37*
G36*
G01X7954706Y-5432395D02*
G01X7984708Y-5432395D01*
G01X7984708Y-5622397D01*
G01X7954706Y-5622397D01*
G01X7954706Y-5432395D01*
G37*
G36*
G01X7904706Y-5432395D02*
G01X7934709Y-5432395D01*
G01X7934709Y-5622397D01*
G01X7904706Y-5622397D01*
G01X7904706Y-5432395D01*
G37*
G36*
G01X7666540Y-5527345D02*
G01X7669065Y-5527393D01*
G01X7671587Y-5527378D01*
G01X7674110Y-5527299D01*
G01X7676629Y-5527154D01*
G01X7679144Y-5526949D01*
G01X7681653Y-5526679D01*
G01X7684153Y-5526344D01*
G01X7686645Y-5525948D01*
G01X7689126Y-5525491D01*
G01X7691595Y-5524967D01*
G01X7694051Y-5524383D01*
G01X7696490Y-5523738D01*
G01X7698913Y-5523032D01*
G01X7701316Y-5522265D01*
G01X7703701Y-5521437D01*
G01X7706060Y-5520548D01*
G01X7708400Y-5519600D01*
G01X7710714Y-5518594D01*
G01X7713002Y-5517533D01*
G01X7715263Y-5516410D01*
G01X7717493Y-5515232D01*
G01X7719695Y-5513997D01*
G01X7721864Y-5512709D01*
G01X7724000Y-5511366D01*
G01X7726101Y-5509969D01*
G01X7728166Y-5508518D01*
G01X7730195Y-5507017D01*
G01X7732184Y-5505465D01*
G01X7734135Y-5503865D01*
G01X7736042Y-5502214D01*
G01X7737909Y-5500517D01*
G01X7739733Y-5498772D01*
G01X7741511Y-5496982D01*
G01X7743246Y-5495148D01*
G01X7744930Y-5493271D01*
G01X7746568Y-5491350D01*
G01X7748158Y-5489392D01*
G01X7749697Y-5487393D01*
G01X7751186Y-5485354D01*
G01X7752621Y-5483281D01*
G01X7754005Y-5481170D01*
G01X7755336Y-5479026D01*
G01X7756611Y-5476850D01*
G01X7757831Y-5474640D01*
G01X7758996Y-5472402D01*
G01X7760101Y-5470134D01*
G01X7761153Y-5467838D01*
G01X7762143Y-5465519D01*
G01X7763076Y-5463174D01*
G01X7763949Y-5460807D01*
G01X7764762Y-5458417D01*
G01X7765514Y-5456009D01*
G01X7766205Y-5453583D01*
G01X7766835Y-5451140D01*
G01X7767404Y-5448681D01*
G01X7767909Y-5446207D01*
G01X7768354Y-5443725D01*
G01X7768732Y-5441229D01*
G01X7769050Y-5438727D01*
G01X7769306Y-5436217D01*
G01X7769497Y-5433700D01*
G01X7769624Y-5431180D01*
G01X7769687Y-5428658D01*
G01X7769687Y-5426133D01*
G01X7769624Y-5423611D01*
G01X7769497Y-5421092D01*
G01X7769306Y-5418574D01*
G01X7769050Y-5416065D01*
G01X7768732Y-5413563D01*
G01X7768354Y-5411066D01*
G01X7767909Y-5408585D01*
G01X7767404Y-5406111D01*
G01X7766835Y-5403652D01*
G01X7766205Y-5401208D01*
G01X7765514Y-5398783D01*
G01X7764762Y-5396375D01*
G01X7763949Y-5393985D01*
G01X7763076Y-5391617D01*
G01X7762143Y-5389273D01*
G01X7761153Y-5386954D01*
G01X7760101Y-5384658D01*
G01X7758996Y-5382390D01*
G01X7757831Y-5380152D01*
G01X7756611Y-5377942D01*
G01X7755336Y-5375765D01*
G01X7754005Y-5373621D01*
G01X7752621Y-5371511D01*
G01X7751186Y-5369438D01*
G01X7749697Y-5367398D01*
G01X7748158Y-5365399D01*
G01X7746568Y-5363441D01*
G01X7744930Y-5361521D01*
G01X7743246Y-5359644D01*
G01X7741511Y-5357810D01*
G01X7739733Y-5356019D01*
G01X7737909Y-5354274D01*
G01X7736042Y-5352578D01*
G01X7734135Y-5350927D01*
G01X7732184Y-5349326D01*
G01X7730195Y-5347774D01*
G01X7728166Y-5346273D01*
G01X7726101Y-5344823D01*
G01X7724000Y-5343426D01*
G01X7721864Y-5342082D01*
G01X7719695Y-5340794D01*
G01X7717493Y-5339560D01*
G01X7715263Y-5338381D01*
G01X7713002Y-5337259D01*
G01X7710714Y-5336197D01*
G01X7708400Y-5335191D01*
G01X7706060Y-5334244D01*
G01X7703701Y-5333355D01*
G01X7701316Y-5332527D01*
G01X7698913Y-5331760D01*
G01X7696490Y-5331054D01*
G01X7694051Y-5330408D01*
G01X7691595Y-5329824D01*
G01X7689126Y-5329301D01*
G01X7686645Y-5328844D01*
G01X7684153Y-5328448D01*
G01X7681653Y-5328112D01*
G01X7679144Y-5327843D01*
G01X7676629Y-5327637D01*
G01X7674110Y-5327493D01*
G01X7671587Y-5327414D01*
G01X7669065Y-5327399D01*
G01X7666540Y-5327447D01*
G01X7664021Y-5327556D01*
G01X7661504Y-5327731D01*
G01X7658992Y-5327970D01*
G01X7656487Y-5328272D01*
G01X7653990Y-5328638D01*
G01X7651504Y-5329065D01*
G01X7649027Y-5329555D01*
G01X7646566Y-5330109D01*
G01X7644117Y-5330723D01*
G01X7641687Y-5331399D01*
G01X7639274Y-5332136D01*
G01X7636881Y-5332933D01*
G01X7634506Y-5333792D01*
G01X7632156Y-5334709D01*
G01X7629830Y-5335687D01*
G01X7627529Y-5336720D01*
G01X7625255Y-5337813D01*
G01X7623007Y-5338963D01*
G01X7620792Y-5340170D01*
G01X7618606Y-5341432D01*
G01X7616454Y-5342748D01*
G01X7614336Y-5344117D01*
G01X7612250Y-5345542D01*
G01X7610203Y-5347017D01*
G01X7608197Y-5348544D01*
G01X7606226Y-5350119D01*
G01X7604295Y-5351747D01*
G01X7602408Y-5353421D01*
G01X7600564Y-5355140D01*
G01X7598763Y-5356908D01*
G01X7597005Y-5358722D01*
G01X7595296Y-5360576D01*
G01X7593635Y-5362476D01*
G01X7592019Y-5364414D01*
G01X7590457Y-5366395D01*
G01X7588941Y-5368414D01*
G01X7587480Y-5370469D01*
G01X7586071Y-5372562D01*
G01X7584712Y-5374691D01*
G01X7583409Y-5376850D01*
G01X7582162Y-5379044D01*
G01X7580970Y-5381267D01*
G01X7579835Y-5383520D01*
G01X7578755Y-5385803D01*
G01X7577734Y-5388110D01*
G01X7576774Y-5390444D01*
G01X7575870Y-5392798D01*
G01X7575027Y-5395178D01*
G01X7574244Y-5397576D01*
G01X7573523Y-5399994D01*
G01X7572863Y-5402430D01*
G01X7572263Y-5404881D01*
G01X7571725Y-5407345D01*
G01X7571252Y-5409824D01*
G01X7570838Y-5412313D01*
G01X7570490Y-5414813D01*
G01X7570203Y-5417320D01*
G01X7569982Y-5419832D01*
G01X7569822Y-5422351D01*
G01X7569728Y-5424874D01*
G01X7569695Y-5427396D01*
G01X7569728Y-5429918D01*
G01X7569822Y-5432440D01*
G01X7569982Y-5434960D01*
G01X7570203Y-5437472D01*
G01X7570490Y-5439979D01*
G01X7570838Y-5442478D01*
G01X7571252Y-5444968D01*
G01X7571725Y-5447447D01*
G01X7572263Y-5449910D01*
G01X7572863Y-5452361D01*
G01X7573523Y-5454797D01*
G01X7574244Y-5457215D01*
G01X7575027Y-5459613D01*
G01X7575870Y-5461993D01*
G01X7576774Y-5464348D01*
G01X7577734Y-5466682D01*
G01X7578755Y-5468988D01*
G01X7579835Y-5471272D01*
G01X7580970Y-5473525D01*
G01X7582162Y-5475747D01*
G01X7583409Y-5477942D01*
G01X7584712Y-5480101D01*
G01X7586071Y-5482229D01*
G01X7587480Y-5484322D01*
G01X7588941Y-5486377D01*
G01X7590457Y-5488396D01*
G01X7592019Y-5490378D01*
G01X7593635Y-5492316D01*
G01X7595296Y-5494216D01*
G01X7597005Y-5496070D01*
G01X7598763Y-5497883D01*
G01X7600564Y-5499651D01*
G01X7602408Y-5501371D01*
G01X7604295Y-5503045D01*
G01X7606226Y-5504673D01*
G01X7608197Y-5506248D01*
G01X7610203Y-5507774D01*
G01X7612250Y-5509250D01*
G01X7614336Y-5510675D01*
G01X7616454Y-5512044D01*
G01X7618606Y-5513360D01*
G01X7620792Y-5514622D01*
G01X7623007Y-5515828D01*
G01X7625255Y-5516979D01*
G01X7627529Y-5518071D01*
G01X7629830Y-5519105D01*
G01X7632156Y-5520083D01*
G01X7634506Y-5521000D01*
G01X7636881Y-5521858D01*
G01X7639274Y-5522656D01*
G01X7641687Y-5523393D01*
G01X7644117Y-5524068D01*
G01X7646566Y-5524683D01*
G01X7649027Y-5525237D01*
G01X7651504Y-5525727D01*
G01X7653990Y-5526154D01*
G01X7656487Y-5526519D01*
G01X7658992Y-5526822D01*
G01X7661504Y-5527060D01*
G01X7664021Y-5527236D01*
G01X7666540Y-5527345D01*
G37*
G36*
G01X7606546Y-5037353D02*
G01X7609070Y-5037402D01*
G01X7611593Y-5037386D01*
G01X7614115Y-5037308D01*
G01X7616635Y-5037163D01*
G01X7619149Y-5036957D01*
G01X7621659Y-5036688D01*
G01X7624158Y-5036353D01*
G01X7626650Y-5035956D01*
G01X7629131Y-5035499D01*
G01X7631600Y-5034976D01*
G01X7634056Y-5034392D01*
G01X7636495Y-5033747D01*
G01X7638918Y-5033040D01*
G01X7641321Y-5032273D01*
G01X7643706Y-5031445D01*
G01X7646065Y-5030556D01*
G01X7648405Y-5029609D01*
G01X7650719Y-5028603D01*
G01X7653007Y-5027541D01*
G01X7655268Y-5026419D01*
G01X7657498Y-5025240D01*
G01X7659700Y-5024006D01*
G01X7661869Y-5022718D01*
G01X7664006Y-5021374D01*
G01X7666106Y-5019977D01*
G01X7668171Y-5018527D01*
G01X7670201Y-5017026D01*
G01X7672189Y-5015474D01*
G01X7674140Y-5013874D01*
G01X7676048Y-5012223D01*
G01X7677915Y-5010526D01*
G01X7679738Y-5008781D01*
G01X7681516Y-5006990D01*
G01X7683251Y-5005156D01*
G01X7684935Y-5003279D01*
G01X7686573Y-5001359D01*
G01X7688163Y-4999401D01*
G01X7689703Y-4997402D01*
G01X7691191Y-4995362D01*
G01X7692626Y-4993289D01*
G01X7694011Y-4991179D01*
G01X7695341Y-4989035D01*
G01X7696617Y-4986858D01*
G01X7697836Y-4984648D01*
G01X7699002Y-4982411D01*
G01X7700107Y-4980142D01*
G01X7701158Y-4977846D01*
G01X7702149Y-4975527D01*
G01X7703081Y-4973183D01*
G01X7703955Y-4970816D01*
G01X7704767Y-4968425D01*
G01X7705519Y-4966017D01*
G01X7706210Y-4963592D01*
G01X7706840Y-4961148D01*
G01X7707409Y-4958690D01*
G01X7707914Y-4956216D01*
G01X7708359Y-4953734D01*
G01X7708737Y-4951237D01*
G01X7709055Y-4948735D01*
G01X7709311Y-4946226D01*
G01X7709502Y-4943709D01*
G01X7709629Y-4941189D01*
G01X7709692Y-4938667D01*
G01X7709692Y-4936142D01*
G01X7709629Y-4933620D01*
G01X7709502Y-4931100D01*
G01X7709311Y-4928583D01*
G01X7709055Y-4926073D01*
G01X7708737Y-4923572D01*
G01X7708359Y-4921075D01*
G01X7707914Y-4918593D01*
G01X7707409Y-4916119D01*
G01X7706840Y-4913660D01*
G01X7706210Y-4911217D01*
G01X7705519Y-4908791D01*
G01X7704767Y-4906383D01*
G01X7703955Y-4903993D01*
G01X7703081Y-4901626D01*
G01X7702149Y-4899282D01*
G01X7701158Y-4896963D01*
G01X7700107Y-4894666D01*
G01X7699002Y-4892398D01*
G01X7697836Y-4890160D01*
G01X7696617Y-4887951D01*
G01X7695341Y-4885774D01*
G01X7694011Y-4883630D01*
G01X7692626Y-4881519D01*
G01X7691191Y-4879447D01*
G01X7689703Y-4877407D01*
G01X7688163Y-4875408D01*
G01X7686573Y-4873450D01*
G01X7684935Y-4871529D01*
G01X7683251Y-4869652D01*
G01X7681516Y-4867819D01*
G01X7679738Y-4866028D01*
G01X7677915Y-4864283D01*
G01X7676048Y-4862586D01*
G01X7674140Y-4860935D01*
G01X7672189Y-4859335D01*
G01X7670201Y-4857783D01*
G01X7668171Y-4856282D01*
G01X7666106Y-4854832D01*
G01X7664006Y-4853435D01*
G01X7661869Y-4852091D01*
G01X7659700Y-4850803D01*
G01X7657498Y-4849569D01*
G01X7655268Y-4848390D01*
G01X7653007Y-4847267D01*
G01X7650719Y-4846206D01*
G01X7648405Y-4845200D01*
G01X7646065Y-4844252D01*
G01X7643706Y-4843363D01*
G01X7641321Y-4842535D01*
G01X7638918Y-4841768D01*
G01X7636495Y-4841062D01*
G01X7634056Y-4840417D01*
G01X7631600Y-4839833D01*
G01X7629131Y-4839310D01*
G01X7626650Y-4838852D01*
G01X7624158Y-4838456D01*
G01X7621659Y-4838121D01*
G01X7619149Y-4837852D01*
G01X7616635Y-4837646D01*
G01X7614115Y-4837501D01*
G01X7611593Y-4837422D01*
G01X7609070Y-4837407D01*
G01X7606546Y-4837455D01*
G01X7604026Y-4837565D01*
G01X7601509Y-4837740D01*
G01X7598997Y-4837979D01*
G01X7596492Y-4838281D01*
G01X7593995Y-4838647D01*
G01X7591509Y-4839073D01*
G01X7589032Y-4839564D01*
G01X7586571Y-4840117D01*
G01X7584123Y-4840732D01*
G01X7581692Y-4841408D01*
G01X7579279Y-4842144D01*
G01X7576886Y-4842942D01*
G01X7574511Y-4843800D01*
G01X7572162Y-4844717D01*
G01X7569835Y-4845695D01*
G01X7567534Y-4846729D01*
G01X7565260Y-4847821D01*
G01X7563013Y-4848972D01*
G01X7560798Y-4850178D01*
G01X7558611Y-4851441D01*
G01X7556459Y-4852756D01*
G01X7554341Y-4854125D01*
G01X7552256Y-4855550D01*
G01X7550208Y-4857026D01*
G01X7548202Y-4858553D01*
G01X7546231Y-4860127D01*
G01X7544300Y-4861756D01*
G01X7542413Y-4863429D01*
G01X7540569Y-4865149D01*
G01X7538768Y-4866917D01*
G01X7537011Y-4868730D01*
G01X7535301Y-4870585D01*
G01X7533640Y-4872485D01*
G01X7532025Y-4874423D01*
G01X7530462Y-4876404D01*
G01X7528946Y-4878423D01*
G01X7527486Y-4880478D01*
G01X7526076Y-4882571D01*
G01X7524717Y-4884699D01*
G01X7523414Y-4886858D01*
G01X7522167Y-4889053D01*
G01X7520976Y-4891275D01*
G01X7519840Y-4893528D01*
G01X7518761Y-4895812D01*
G01X7517740Y-4898118D01*
G01X7516779Y-4900452D01*
G01X7515875Y-4902807D01*
G01X7515032Y-4905187D01*
G01X7514250Y-4907585D01*
G01X7513528Y-4910003D01*
G01X7512868Y-4912439D01*
G01X7512268Y-4914890D01*
G01X7511730Y-4917354D01*
G01X7511258Y-4919833D01*
G01X7510844Y-4922322D01*
G01X7510496Y-4924821D01*
G01X7510209Y-4927328D01*
G01X7509988Y-4929840D01*
G01X7509828Y-4932360D01*
G01X7509734Y-4934882D01*
G01X7509701Y-4937404D01*
G01X7509734Y-4939927D01*
G01X7509828Y-4942449D01*
G01X7509988Y-4944969D01*
G01X7510209Y-4947481D01*
G01X7510496Y-4949988D01*
G01X7510844Y-4952487D01*
G01X7511258Y-4954976D01*
G01X7511730Y-4957455D01*
G01X7512268Y-4959919D01*
G01X7512868Y-4962370D01*
G01X7513528Y-4964806D01*
G01X7514250Y-4967224D01*
G01X7515032Y-4969622D01*
G01X7515875Y-4972002D01*
G01X7516779Y-4974356D01*
G01X7517740Y-4976691D01*
G01X7518761Y-4978997D01*
G01X7519840Y-4981280D01*
G01X7520976Y-4983533D01*
G01X7522167Y-4985756D01*
G01X7523414Y-4987950D01*
G01X7524717Y-4990109D01*
G01X7526076Y-4992238D01*
G01X7527486Y-4994331D01*
G01X7528946Y-4996386D01*
G01X7530462Y-4998405D01*
G01X7532025Y-5000386D01*
G01X7533640Y-5002324D01*
G01X7535301Y-5004224D01*
G01X7537011Y-5006078D01*
G01X7538768Y-5007892D01*
G01X7540569Y-5009660D01*
G01X7542413Y-5011379D01*
G01X7544300Y-5013053D01*
G01X7546231Y-5014681D01*
G01X7548202Y-5016256D01*
G01X7550208Y-5017783D01*
G01X7552256Y-5019258D01*
G01X7554341Y-5020683D01*
G01X7556459Y-5022052D01*
G01X7558611Y-5023368D01*
G01X7560798Y-5024631D01*
G01X7563013Y-5025837D01*
G01X7565260Y-5026988D01*
G01X7567534Y-5028080D01*
G01X7569835Y-5029114D01*
G01X7572162Y-5030092D01*
G01X7574511Y-5031008D01*
G01X7576886Y-5031867D01*
G01X7579279Y-5032665D01*
G01X7581692Y-5033401D01*
G01X7584123Y-5034077D01*
G01X7586571Y-5034691D01*
G01X7589032Y-5035245D01*
G01X7591509Y-5035735D01*
G01X7593995Y-5036162D01*
G01X7596492Y-5036528D01*
G01X7598997Y-5036830D01*
G01X7601509Y-5037069D01*
G01X7604026Y-5037244D01*
G01X7606546Y-5037353D01*
G37*
G36*
G01X9176545Y-5037353D02*
G01X9179070Y-5037402D01*
G01X9181592Y-5037386D01*
G01X9184114Y-5037308D01*
G01X9186634Y-5037163D01*
G01X9189149Y-5036957D01*
G01X9191658Y-5036688D01*
G01X9194157Y-5036353D01*
G01X9196649Y-5035956D01*
G01X9199131Y-5035499D01*
G01X9201600Y-5034976D01*
G01X9204056Y-5034392D01*
G01X9206494Y-5033747D01*
G01X9208917Y-5033040D01*
G01X9211320Y-5032273D01*
G01X9213705Y-5031445D01*
G01X9216065Y-5030556D01*
G01X9218404Y-5029609D01*
G01X9220718Y-5028603D01*
G01X9223007Y-5027541D01*
G01X9225267Y-5026419D01*
G01X9227497Y-5025240D01*
G01X9229700Y-5024006D01*
G01X9231869Y-5022718D01*
G01X9234005Y-5021374D01*
G01X9236105Y-5019977D01*
G01X9238171Y-5018527D01*
G01X9240200Y-5017026D01*
G01X9242189Y-5015474D01*
G01X9244140Y-5013874D01*
G01X9246047Y-5012223D01*
G01X9247914Y-5010526D01*
G01X9249738Y-5008781D01*
G01X9251516Y-5006990D01*
G01X9253250Y-5005156D01*
G01X9254935Y-5003279D01*
G01X9256573Y-5001359D01*
G01X9258163Y-4999401D01*
G01X9259702Y-4997402D01*
G01X9261191Y-4995362D01*
G01X9262626Y-4993289D01*
G01X9264010Y-4991179D01*
G01X9265341Y-4989035D01*
G01X9266616Y-4986858D01*
G01X9267835Y-4984648D01*
G01X9269001Y-4982411D01*
G01X9270106Y-4980142D01*
G01X9271157Y-4977846D01*
G01X9272148Y-4975527D01*
G01X9273080Y-4973183D01*
G01X9273954Y-4970816D01*
G01X9274767Y-4968425D01*
G01X9275519Y-4966017D01*
G01X9276210Y-4963592D01*
G01X9276839Y-4961148D01*
G01X9277408Y-4958690D01*
G01X9277914Y-4956216D01*
G01X9278358Y-4953734D01*
G01X9278737Y-4951237D01*
G01X9279054Y-4948735D01*
G01X9279311Y-4946226D01*
G01X9279501Y-4943709D01*
G01X9279628Y-4941189D01*
G01X9279692Y-4938667D01*
G01X9279692Y-4936142D01*
G01X9279628Y-4933620D01*
G01X9279501Y-4931100D01*
G01X9279311Y-4928583D01*
G01X9279054Y-4926073D01*
G01X9278737Y-4923572D01*
G01X9278358Y-4921075D01*
G01X9277914Y-4918593D01*
G01X9277408Y-4916119D01*
G01X9276839Y-4913660D01*
G01X9276210Y-4911217D01*
G01X9275519Y-4908791D01*
G01X9274767Y-4906383D01*
G01X9273954Y-4903993D01*
G01X9273080Y-4901626D01*
G01X9272148Y-4899282D01*
G01X9271157Y-4896963D01*
G01X9270106Y-4894666D01*
G01X9269001Y-4892398D01*
G01X9267835Y-4890160D01*
G01X9266616Y-4887951D01*
G01X9265341Y-4885774D01*
G01X9264010Y-4883630D01*
G01X9262626Y-4881519D01*
G01X9261191Y-4879447D01*
G01X9259702Y-4877407D01*
G01X9258163Y-4875408D01*
G01X9256573Y-4873450D01*
G01X9254935Y-4871529D01*
G01X9253250Y-4869652D01*
G01X9251516Y-4867819D01*
G01X9249738Y-4866028D01*
G01X9247914Y-4864283D01*
G01X9246047Y-4862586D01*
G01X9244140Y-4860935D01*
G01X9242189Y-4859335D01*
G01X9240200Y-4857783D01*
G01X9238171Y-4856282D01*
G01X9236105Y-4854832D01*
G01X9234005Y-4853435D01*
G01X9231869Y-4852091D01*
G01X9229700Y-4850803D01*
G01X9227497Y-4849569D01*
G01X9225267Y-4848390D01*
G01X9223007Y-4847267D01*
G01X9220718Y-4846206D01*
G01X9218404Y-4845200D01*
G01X9216065Y-4844252D01*
G01X9213705Y-4843363D01*
G01X9211320Y-4842535D01*
G01X9208917Y-4841768D01*
G01X9206494Y-4841062D01*
G01X9204056Y-4840417D01*
G01X9201600Y-4839833D01*
G01X9199131Y-4839310D01*
G01X9196649Y-4838852D01*
G01X9194157Y-4838456D01*
G01X9191658Y-4838121D01*
G01X9189149Y-4837852D01*
G01X9186634Y-4837646D01*
G01X9184114Y-4837501D01*
G01X9181592Y-4837422D01*
G01X9179070Y-4837407D01*
G01X9176545Y-4837455D01*
G01X9174025Y-4837565D01*
G01X9171508Y-4837740D01*
G01X9168996Y-4837979D01*
G01X9166492Y-4838281D01*
G01X9163995Y-4838647D01*
G01X9161508Y-4839073D01*
G01X9159032Y-4839564D01*
G01X9156570Y-4840117D01*
G01X9154122Y-4840732D01*
G01X9151691Y-4841408D01*
G01X9149278Y-4842144D01*
G01X9146885Y-4842942D01*
G01X9144511Y-4843800D01*
G01X9142161Y-4844717D01*
G01X9139834Y-4845695D01*
G01X9137533Y-4846729D01*
G01X9135260Y-4847821D01*
G01X9133012Y-4848972D01*
G01X9130797Y-4850178D01*
G01X9128610Y-4851441D01*
G01X9126459Y-4852756D01*
G01X9124340Y-4854125D01*
G01X9122255Y-4855550D01*
G01X9120208Y-4857026D01*
G01X9118201Y-4858553D01*
G01X9116230Y-4860127D01*
G01X9114300Y-4861756D01*
G01X9112413Y-4863429D01*
G01X9110569Y-4865149D01*
G01X9108768Y-4866917D01*
G01X9107010Y-4868730D01*
G01X9105301Y-4870585D01*
G01X9103639Y-4872485D01*
G01X9102024Y-4874423D01*
G01X9100462Y-4876404D01*
G01X9098945Y-4878423D01*
G01X9097485Y-4880478D01*
G01X9096075Y-4882571D01*
G01X9094716Y-4884699D01*
G01X9093413Y-4886858D01*
G01X9092166Y-4889053D01*
G01X9090975Y-4891275D01*
G01X9089840Y-4893528D01*
G01X9088760Y-4895812D01*
G01X9087739Y-4898118D01*
G01X9086779Y-4900452D01*
G01X9085875Y-4902807D01*
G01X9085031Y-4905187D01*
G01X9084249Y-4907585D01*
G01X9083528Y-4910003D01*
G01X9082867Y-4912439D01*
G01X9082268Y-4914890D01*
G01X9081729Y-4917354D01*
G01X9081257Y-4919833D01*
G01X9080843Y-4922322D01*
G01X9080495Y-4924821D01*
G01X9080208Y-4927328D01*
G01X9079987Y-4929840D01*
G01X9079827Y-4932360D01*
G01X9079733Y-4934882D01*
G01X9079700Y-4937404D01*
G01X9079733Y-4939927D01*
G01X9079827Y-4942449D01*
G01X9079987Y-4944969D01*
G01X9080208Y-4947481D01*
G01X9080495Y-4949988D01*
G01X9080843Y-4952487D01*
G01X9081257Y-4954976D01*
G01X9081729Y-4957455D01*
G01X9082268Y-4959919D01*
G01X9082867Y-4962370D01*
G01X9083528Y-4964806D01*
G01X9084249Y-4967224D01*
G01X9085031Y-4969622D01*
G01X9085875Y-4972002D01*
G01X9086779Y-4974356D01*
G01X9087739Y-4976691D01*
G01X9088760Y-4978997D01*
G01X9089840Y-4981280D01*
G01X9090975Y-4983533D01*
G01X9092166Y-4985756D01*
G01X9093413Y-4987950D01*
G01X9094716Y-4990109D01*
G01X9096075Y-4992238D01*
G01X9097485Y-4994331D01*
G01X9098945Y-4996386D01*
G01X9100462Y-4998405D01*
G01X9102024Y-5000386D01*
G01X9103639Y-5002324D01*
G01X9105301Y-5004224D01*
G01X9107010Y-5006078D01*
G01X9108768Y-5007892D01*
G01X9110569Y-5009660D01*
G01X9112413Y-5011379D01*
G01X9114300Y-5013053D01*
G01X9116230Y-5014681D01*
G01X9118201Y-5016256D01*
G01X9120208Y-5017783D01*
G01X9122255Y-5019258D01*
G01X9124340Y-5020683D01*
G01X9126459Y-5022052D01*
G01X9128610Y-5023368D01*
G01X9130797Y-5024631D01*
G01X9133012Y-5025837D01*
G01X9135260Y-5026988D01*
G01X9137533Y-5028080D01*
G01X9139834Y-5029114D01*
G01X9142161Y-5030092D01*
G01X9144511Y-5031008D01*
G01X9146885Y-5031867D01*
G01X9149278Y-5032665D01*
G01X9151691Y-5033401D01*
G01X9154122Y-5034077D01*
G01X9156570Y-5034691D01*
G01X9159032Y-5035245D01*
G01X9161508Y-5035735D01*
G01X9163995Y-5036162D01*
G01X9166492Y-5036528D01*
G01X9168996Y-5036830D01*
G01X9171508Y-5037069D01*
G01X9174025Y-5037244D01*
G01X9176545Y-5037353D01*
G37*
G36*
G01X9116550Y-5527345D02*
G01X9119075Y-5527393D01*
G01X9121597Y-5527378D01*
G01X9124119Y-5527299D01*
G01X9126639Y-5527154D01*
G01X9129154Y-5526949D01*
G01X9131663Y-5526679D01*
G01X9134163Y-5526344D01*
G01X9136654Y-5525948D01*
G01X9139136Y-5525491D01*
G01X9141605Y-5524967D01*
G01X9144061Y-5524383D01*
G01X9146499Y-5523738D01*
G01X9148923Y-5523032D01*
G01X9151325Y-5522265D01*
G01X9153710Y-5521437D01*
G01X9156070Y-5520548D01*
G01X9158409Y-5519600D01*
G01X9160723Y-5518594D01*
G01X9163012Y-5517533D01*
G01X9165273Y-5516410D01*
G01X9167503Y-5515232D01*
G01X9169705Y-5513997D01*
G01X9171874Y-5512709D01*
G01X9174010Y-5511366D01*
G01X9176111Y-5509969D01*
G01X9178176Y-5508518D01*
G01X9180205Y-5507017D01*
G01X9182194Y-5505465D01*
G01X9184145Y-5503865D01*
G01X9186052Y-5502214D01*
G01X9187919Y-5500517D01*
G01X9189743Y-5498772D01*
G01X9191521Y-5496982D01*
G01X9193256Y-5495148D01*
G01X9194940Y-5493271D01*
G01X9196578Y-5491350D01*
G01X9198168Y-5489392D01*
G01X9199707Y-5487393D01*
G01X9201196Y-5485354D01*
G01X9202631Y-5483281D01*
G01X9204015Y-5481170D01*
G01X9205346Y-5479026D01*
G01X9206621Y-5476850D01*
G01X9207840Y-5474640D01*
G01X9209006Y-5472402D01*
G01X9210111Y-5470134D01*
G01X9211163Y-5467838D01*
G01X9212153Y-5465519D01*
G01X9213085Y-5463174D01*
G01X9213959Y-5460807D01*
G01X9214772Y-5458417D01*
G01X9215524Y-5456009D01*
G01X9216215Y-5453583D01*
G01X9216845Y-5451140D01*
G01X9217414Y-5448681D01*
G01X9217919Y-5446207D01*
G01X9218364Y-5443725D01*
G01X9218742Y-5441229D01*
G01X9219060Y-5438727D01*
G01X9219316Y-5436217D01*
G01X9219507Y-5433700D01*
G01X9219634Y-5431180D01*
G01X9219697Y-5428658D01*
G01X9219697Y-5426133D01*
G01X9219634Y-5423611D01*
G01X9219507Y-5421092D01*
G01X9219316Y-5418574D01*
G01X9219060Y-5416065D01*
G01X9218742Y-5413563D01*
G01X9218364Y-5411066D01*
G01X9217919Y-5408585D01*
G01X9217414Y-5406111D01*
G01X9216845Y-5403652D01*
G01X9216215Y-5401208D01*
G01X9215524Y-5398783D01*
G01X9214772Y-5396375D01*
G01X9213959Y-5393985D01*
G01X9213085Y-5391617D01*
G01X9212153Y-5389273D01*
G01X9211163Y-5386954D01*
G01X9210111Y-5384658D01*
G01X9209006Y-5382390D01*
G01X9207840Y-5380152D01*
G01X9206621Y-5377942D01*
G01X9205346Y-5375765D01*
G01X9204015Y-5373621D01*
G01X9202631Y-5371511D01*
G01X9201196Y-5369438D01*
G01X9199707Y-5367398D01*
G01X9198168Y-5365399D01*
G01X9196578Y-5363441D01*
G01X9194940Y-5361521D01*
G01X9193256Y-5359644D01*
G01X9191521Y-5357810D01*
G01X9189743Y-5356019D01*
G01X9187919Y-5354274D01*
G01X9186052Y-5352578D01*
G01X9184145Y-5350927D01*
G01X9182194Y-5349326D01*
G01X9180205Y-5347774D01*
G01X9178176Y-5346273D01*
G01X9176111Y-5344823D01*
G01X9174010Y-5343426D01*
G01X9171874Y-5342082D01*
G01X9169705Y-5340794D01*
G01X9167503Y-5339560D01*
G01X9165273Y-5338381D01*
G01X9163012Y-5337259D01*
G01X9160723Y-5336197D01*
G01X9158409Y-5335191D01*
G01X9156070Y-5334244D01*
G01X9153710Y-5333355D01*
G01X9151325Y-5332527D01*
G01X9148923Y-5331760D01*
G01X9146499Y-5331054D01*
G01X9144061Y-5330408D01*
G01X9141605Y-5329824D01*
G01X9139136Y-5329301D01*
G01X9136654Y-5328844D01*
G01X9134163Y-5328448D01*
G01X9131663Y-5328112D01*
G01X9129154Y-5327843D01*
G01X9126639Y-5327637D01*
G01X9124119Y-5327493D01*
G01X9121597Y-5327414D01*
G01X9119075Y-5327399D01*
G01X9116550Y-5327447D01*
G01X9114031Y-5327556D01*
G01X9111513Y-5327731D01*
G01X9109001Y-5327970D01*
G01X9106497Y-5328272D01*
G01X9104000Y-5328638D01*
G01X9101513Y-5329065D01*
G01X9099037Y-5329555D01*
G01X9096576Y-5330109D01*
G01X9094127Y-5330723D01*
G01X9091696Y-5331399D01*
G01X9089283Y-5332136D01*
G01X9086891Y-5332933D01*
G01X9084516Y-5333792D01*
G01X9082166Y-5334709D01*
G01X9079840Y-5335687D01*
G01X9077538Y-5336720D01*
G01X9075265Y-5337813D01*
G01X9073017Y-5338963D01*
G01X9070802Y-5340170D01*
G01X9068615Y-5341432D01*
G01X9066464Y-5342748D01*
G01X9064346Y-5344117D01*
G01X9062260Y-5345542D01*
G01X9060213Y-5347017D01*
G01X9058206Y-5348544D01*
G01X9056235Y-5350119D01*
G01X9054305Y-5351747D01*
G01X9052418Y-5353421D01*
G01X9050574Y-5355140D01*
G01X9048773Y-5356908D01*
G01X9047015Y-5358722D01*
G01X9045306Y-5360576D01*
G01X9043645Y-5362476D01*
G01X9042029Y-5364414D01*
G01X9040467Y-5366395D01*
G01X9038951Y-5368414D01*
G01X9037490Y-5370469D01*
G01X9036080Y-5372562D01*
G01X9034722Y-5374691D01*
G01X9033419Y-5376850D01*
G01X9032171Y-5379044D01*
G01X9030980Y-5381267D01*
G01X9029845Y-5383520D01*
G01X9028765Y-5385803D01*
G01X9027744Y-5388110D01*
G01X9026784Y-5390444D01*
G01X9025880Y-5392798D01*
G01X9025037Y-5395178D01*
G01X9024254Y-5397576D01*
G01X9023533Y-5399994D01*
G01X9022872Y-5402430D01*
G01X9022273Y-5404881D01*
G01X9021735Y-5407345D01*
G01X9021262Y-5409824D01*
G01X9020848Y-5412313D01*
G01X9020500Y-5414813D01*
G01X9020213Y-5417320D01*
G01X9019992Y-5419832D01*
G01X9019832Y-5422351D01*
G01X9019738Y-5424874D01*
G01X9019705Y-5427396D01*
G01X9019738Y-5429918D01*
G01X9019832Y-5432440D01*
G01X9019992Y-5434960D01*
G01X9020213Y-5437472D01*
G01X9020500Y-5439979D01*
G01X9020848Y-5442478D01*
G01X9021262Y-5444968D01*
G01X9021735Y-5447447D01*
G01X9022273Y-5449910D01*
G01X9022872Y-5452361D01*
G01X9023533Y-5454797D01*
G01X9024254Y-5457215D01*
G01X9025037Y-5459613D01*
G01X9025880Y-5461993D01*
G01X9026784Y-5464348D01*
G01X9027744Y-5466682D01*
G01X9028765Y-5468988D01*
G01X9029845Y-5471272D01*
G01X9030980Y-5473525D01*
G01X9032171Y-5475747D01*
G01X9033419Y-5477942D01*
G01X9034722Y-5480101D01*
G01X9036080Y-5482229D01*
G01X9037490Y-5484322D01*
G01X9038951Y-5486377D01*
G01X9040467Y-5488396D01*
G01X9042029Y-5490378D01*
G01X9043645Y-5492316D01*
G01X9045306Y-5494216D01*
G01X9047015Y-5496070D01*
G01X9048773Y-5497883D01*
G01X9050574Y-5499651D01*
G01X9052418Y-5501371D01*
G01X9054305Y-5503045D01*
G01X9056235Y-5504673D01*
G01X9058206Y-5506248D01*
G01X9060213Y-5507774D01*
G01X9062260Y-5509250D01*
G01X9064346Y-5510675D01*
G01X9066464Y-5512044D01*
G01X9068615Y-5513360D01*
G01X9070802Y-5514622D01*
G01X9073017Y-5515828D01*
G01X9075265Y-5516979D01*
G01X9077538Y-5518071D01*
G01X9079840Y-5519105D01*
G01X9082166Y-5520083D01*
G01X9084516Y-5521000D01*
G01X9086891Y-5521858D01*
G01X9089283Y-5522656D01*
G01X9091696Y-5523393D01*
G01X9094127Y-5524068D01*
G01X9096576Y-5524683D01*
G01X9099037Y-5525237D01*
G01X9101513Y-5525727D01*
G01X9104000Y-5526154D01*
G01X9106497Y-5526519D01*
G01X9109001Y-5526822D01*
G01X9111513Y-5527060D01*
G01X9114031Y-5527236D01*
G01X9116550Y-5527345D01*
G37*
G36*
G01X8063048Y-10336147D02*
G01X7935050Y-10336147D01*
G01X7930048Y-10331146D01*
G01X7930048Y-10216145D01*
G01X7935050Y-10211146D01*
G01X7976053Y-10210643D01*
G01X7976053Y-10255644D01*
G01X8021052Y-10255644D01*
G01X8021052Y-10211644D01*
G01X8063048Y-10211146D01*
G01X8068049Y-10216145D01*
G01X8068049Y-10331146D01*
G01X8063048Y-10336147D01*
G37*
G36*
G01X8063048Y-10121146D02*
G01X8021052Y-10121144D01*
G01X8021052Y-10076646D01*
G01X7976053Y-10076646D01*
G01X7976053Y-10120643D01*
G01X7935050Y-10121146D01*
G01X7930048Y-10116145D01*
G01X7930048Y-10001147D01*
G01X7935050Y-9996145D01*
G01X8063048Y-9996145D01*
G01X8068049Y-10001147D01*
G01X8068049Y-10116145D01*
G01X8063048Y-10121146D01*
G37*
G36*
G01X6583502Y-9308600D02*
G01X6583502Y-9436598D01*
G01X6578501Y-9441599D01*
G01X6463500Y-9441599D01*
G01X6458501Y-9436598D01*
G01X6457998Y-9395595D01*
G01X6502999Y-9395595D01*
G01X6502999Y-9350596D01*
G01X6458999Y-9350596D01*
G01X6458501Y-9308600D01*
G01X6463500Y-9303598D01*
G01X6578501Y-9303598D01*
G01X6583502Y-9308600D01*
G37*
G36*
G01X6368501Y-9308600D02*
G01X6368499Y-9350596D01*
G01X6324001Y-9350596D01*
G01X6324001Y-9395595D01*
G01X6367998Y-9395595D01*
G01X6368501Y-9436598D01*
G01X6363500Y-9441599D01*
G01X6248502Y-9441599D01*
G01X6243500Y-9436598D01*
G01X6243500Y-9308600D01*
G01X6248502Y-9303598D01*
G01X6363500Y-9303598D01*
G01X6368501Y-9308600D01*
G37*
G36*
G01X7835400Y-8935898D02*
G01X7963398Y-8935898D01*
G01X7968399Y-8940899D01*
G01X7968399Y-9055900D01*
G01X7963398Y-9060899D01*
G01X7922395Y-9061402D01*
G01X7922395Y-9016401D01*
G01X7877396Y-9016401D01*
G01X7877396Y-9060401D01*
G01X7835400Y-9060899D01*
G01X7830398Y-9055900D01*
G01X7830398Y-8940899D01*
G01X7835400Y-8935898D01*
G37*
G36*
G01X7835400Y-9150899D02*
G01X7877396Y-9150901D01*
G01X7877396Y-9195399D01*
G01X7922395Y-9195399D01*
G01X7922395Y-9151402D01*
G01X7963398Y-9150899D01*
G01X7968399Y-9155900D01*
G01X7968399Y-9270898D01*
G01X7963398Y-9275900D01*
G01X7835400Y-9275900D01*
G01X7830398Y-9270898D01*
G01X7830398Y-9155900D01*
G01X7835400Y-9150899D01*
G37*
G36*
G01X6885250Y-8227471D02*
G01X6816150Y-8227471D01*
G01X6806150Y-8217471D01*
G01X6806150Y-8193867D01*
G01X6796150Y-8183867D01*
G01X6724349Y-8183867D01*
G01X6714349Y-8193867D01*
G01X6714349Y-8217471D01*
G01X6704349Y-8227471D01*
G01X6635248Y-8227471D01*
G01X6625248Y-8217471D01*
G01X6625248Y-8109219D01*
G01X6635248Y-8099219D01*
G01X6885250Y-8099219D01*
G01X6895250Y-8109219D01*
G01X6895250Y-8217471D01*
G01X6885250Y-8227471D01*
G37*
G36*
G01X6885250Y-8577473D02*
G01X6816150Y-8577473D01*
G01X6806150Y-8587473D01*
G01X6806150Y-8611078D01*
G01X6796150Y-8621077D01*
G01X6724349Y-8621077D01*
G01X6714349Y-8611078D01*
G01X6714349Y-8587473D01*
G01X6704349Y-8577473D01*
G01X6635248Y-8577473D01*
G01X6625248Y-8587473D01*
G01X6625248Y-8695726D01*
G01X6635248Y-8705726D01*
G01X6885250Y-8705726D01*
G01X6895250Y-8695726D01*
G01X6895250Y-8587473D01*
G01X6885250Y-8577473D01*
G37*
G36*
G01X9126398Y-9081000D02*
G01X9126398Y-8953002D01*
G01X9131399Y-8948001D01*
G01X9246400Y-8948001D01*
G01X9251399Y-8953002D01*
G01X9251902Y-8994005D01*
G01X9206901Y-8994005D01*
G01X9206901Y-9039004D01*
G01X9250901Y-9039004D01*
G01X9251399Y-9081000D01*
G01X9246400Y-9086002D01*
G01X9131399Y-9086002D01*
G01X9126398Y-9081000D01*
G37*
G36*
G01X9341399Y-9081000D02*
G01X9341401Y-9039004D01*
G01X9385899Y-9039004D01*
G01X9385899Y-8994005D01*
G01X9341902Y-8994005D01*
G01X9341399Y-8953002D01*
G01X9346400Y-8948001D01*
G01X9461398Y-8948001D01*
G01X9466400Y-8953002D01*
G01X9466400Y-9081000D01*
G01X9461398Y-9086002D01*
G01X9346400Y-9086002D01*
G01X9341399Y-9081000D01*
G37*
G36*
G01X9139098Y-9487400D02*
G01X9139098Y-9359402D01*
G01X9144099Y-9354401D01*
G01X9259100Y-9354401D01*
G01X9264099Y-9359402D01*
G01X9264602Y-9400405D01*
G01X9219601Y-9400405D01*
G01X9219601Y-9445404D01*
G01X9263601Y-9445404D01*
G01X9264099Y-9487400D01*
G01X9259100Y-9492402D01*
G01X9144099Y-9492402D01*
G01X9139098Y-9487400D01*
G37*
G36*
G01X9354099Y-9487400D02*
G01X9354101Y-9445404D01*
G01X9398599Y-9445404D01*
G01X9398599Y-9400405D01*
G01X9354602Y-9400405D01*
G01X9354099Y-9359402D01*
G01X9359100Y-9354401D01*
G01X9474098Y-9354401D01*
G01X9479100Y-9359402D01*
G01X9479100Y-9487400D01*
G01X9474098Y-9492402D01*
G01X9359100Y-9492402D01*
G01X9354099Y-9487400D01*
G37*
G36*
G01X8065000Y-9910902D02*
G01X7937002Y-9910902D01*
G01X7932001Y-9905901D01*
G01X7932001Y-9790900D01*
G01X7937002Y-9785901D01*
G01X7978005Y-9785398D01*
G01X7978005Y-9830399D01*
G01X8023004Y-9830399D01*
G01X8023004Y-9786399D01*
G01X8065000Y-9785901D01*
G01X8070002Y-9790900D01*
G01X8070002Y-9905901D01*
G01X8065000Y-9910902D01*
G37*
G36*
G01X8065000Y-9695901D02*
G01X8023004Y-9695899D01*
G01X8023004Y-9651401D01*
G01X7978005Y-9651401D01*
G01X7978005Y-9695398D01*
G01X7937002Y-9695901D01*
G01X7932001Y-9690900D01*
G01X7932001Y-9575902D01*
G01X7937002Y-9570900D01*
G01X8065000Y-9570900D01*
G01X8070002Y-9575902D01*
G01X8070002Y-9690900D01*
G01X8065000Y-9695901D01*
G37*
G36*
G01X14491200Y-10241102D02*
G01X14363202Y-10241102D01*
G01X14358201Y-10236101D01*
G01X14358201Y-10121100D01*
G01X14363202Y-10116101D01*
G01X14404205Y-10115598D01*
G01X14404205Y-10160599D01*
G01X14449204Y-10160599D01*
G01X14449204Y-10116599D01*
G01X14491200Y-10116101D01*
G01X14496202Y-10121100D01*
G01X14496202Y-10236101D01*
G01X14491200Y-10241102D01*
G37*
G36*
G01X14491200Y-10026101D02*
G01X14449204Y-10026099D01*
G01X14449204Y-9981601D01*
G01X14404205Y-9981601D01*
G01X14404205Y-10025598D01*
G01X14363202Y-10026101D01*
G01X14358201Y-10021100D01*
G01X14358201Y-9906102D01*
G01X14363202Y-9901100D01*
G01X14491200Y-9901100D01*
G01X14496202Y-9906102D01*
G01X14496202Y-10021100D01*
G01X14491200Y-10026101D01*
G37*
G36*
G01X15431526Y-11170031D02*
G01X15303528Y-11170031D01*
G01X15298527Y-11165030D01*
G01X15298527Y-11050029D01*
G01X15303528Y-11045030D01*
G01X15344531Y-11044527D01*
G01X15344531Y-11089528D01*
G01X15389530Y-11089528D01*
G01X15389530Y-11045528D01*
G01X15431526Y-11045030D01*
G01X15436527Y-11050029D01*
G01X15436527Y-11165030D01*
G01X15431526Y-11170031D01*
G37*
G36*
G01X15303525Y-10829036D02*
G01X15431524Y-10829036D01*
G01X15436525Y-10834037D01*
G01X15436525Y-10949038D01*
G01X15431524Y-10954037D01*
G01X15390520Y-10954540D01*
G01X15390520Y-10909539D01*
G01X15345522Y-10909539D01*
G01X15345522Y-10953539D01*
G01X15303525Y-10954037D01*
G01X15298524Y-10949038D01*
G01X15298524Y-10834037D01*
G01X15303525Y-10829036D01*
G37*
G36*
G01X10553200Y-10548302D02*
G01X10681198Y-10548302D01*
G01X10686199Y-10553304D01*
G01X10686199Y-10668305D01*
G01X10681198Y-10673304D01*
G01X10640195Y-10673806D01*
G01X10640195Y-10628805D01*
G01X10595196Y-10628805D01*
G01X10595196Y-10672806D01*
G01X10553200Y-10673304D01*
G01X10548198Y-10668305D01*
G01X10548198Y-10553304D01*
G01X10553200Y-10548302D01*
G37*
G36*
G01X10681200Y-10889297D02*
G01X10553202Y-10889297D01*
G01X10548201Y-10884296D01*
G01X10548201Y-10769295D01*
G01X10553202Y-10764296D01*
G01X10594205Y-10763794D01*
G01X10594205Y-10808795D01*
G01X10639204Y-10808795D01*
G01X10639204Y-10764794D01*
G01X10681200Y-10764296D01*
G01X10686202Y-10769295D01*
G01X10686202Y-10884296D01*
G01X10681200Y-10889297D01*
G37*

G04 Pad Start*
G54D10*
G01X6893855Y-9366045D03*
G01X7427840Y-9366045D03*
G54D11*
G01X6616700Y-11074692D03*
G01X6616700Y-10540708D03*
G54D12*
G01X7670651Y-10826545D03*
G01X7260644Y-10826545D03*
G54D13*
G01X7699785Y-8694562D03*
G01X7479770Y-8694562D03*
G54D14*
G01X7593257Y-10273841D03*
G01X7593257Y-10178845D03*
G01X7593257Y-10083849D03*
G01X7363438Y-10083849D03*
G01X7363438Y-10178845D03*
G01X7363438Y-10273841D03*
G54D16*
G01X14315440Y-10940313D03*
G01X14315440Y-10875315D03*
G01X14315440Y-10810316D03*
G01X14315440Y-10745318D03*
G01X14315440Y-10680319D03*
G01X14315440Y-10615320D03*
G01X14315440Y-11005287D03*
G01X14315440Y-11330280D03*
G01X14315440Y-11265306D03*
G01X14315440Y-11200308D03*
G01X14315440Y-11135309D03*
G01X14315440Y-11070311D03*
G01X14919960Y-10875315D03*
G01X14919960Y-10810316D03*
G01X14919960Y-10745318D03*
G01X14919960Y-10680319D03*
G01X14919960Y-10615320D03*
G01X14919960Y-10940313D03*
G01X14919960Y-11330280D03*
G01X14919960Y-11265306D03*
G01X14919960Y-11200308D03*
G01X14919960Y-11135309D03*
G01X14919960Y-11070311D03*
G01X14919960Y-11005287D03*
G54D17*
G01X11892725Y-10757992D03*
G01X11892725Y-10822991D03*
G01X11892725Y-10887989D03*
G01X11892725Y-10953013D03*
G01X11892725Y-11018012D03*
G01X11892725Y-11083011D03*
G01X11892725Y-11148009D03*
G01X11892725Y-11213008D03*
G01X12465876Y-10757992D03*
G01X12465876Y-10822991D03*
G01X12465876Y-10887989D03*
G01X12465876Y-10953013D03*
G01X12465876Y-11018012D03*
G01X12465876Y-11083011D03*
G01X12465876Y-11148009D03*
G01X12465876Y-11213008D03*
G54D18*
G01X10968634Y-11283696D03*
G01X10968634Y-11093704D03*
G01X10748366Y-11188700D03*
G04 Pad End*

M02*

