G04 Layer: TopSilkscreenLayer*
G04 EasyEDA Pro v2.2.40.3, 2025-06-29 22:57:10*
G04 Gerber Generator version 0.3*
G04 Scale: 100 percent, Rotated: No, Reflected: No*
G04 Dimensions in millimeters*
G04 Leading zeros omitted, absolute positions, 4 integers and 5 decimals*
G04 Generated by one-click*
%FSLAX45Y45*%
%MOMM*%
%ADD10C,0.2032*%
%ADD11C,0.1524*%
%ADD12C,0.254*%
%ADD13C,0.203*%
%ADD14C,0.3*%
%ADD15C,0.1827*%
G75*


G04 Text Start*
G54D10*
G01X11859260Y-5720080D02*
G01X11877040Y-5711190D01*
G01X11903710Y-5684520D01*
G01X11903710Y-5871210D01*
G01X13049250Y-5716270D02*
G01X13049250Y-5707380D01*
G01X13058140Y-5689600D01*
G01X13067030Y-5680710D01*
G01X13084810Y-5671820D01*
G01X13120370Y-5671820D01*
G01X13138150Y-5680710D01*
G01X13147040Y-5689600D01*
G01X13155930Y-5707380D01*
G01X13155930Y-5725160D01*
G01X13147040Y-5742940D01*
G01X13129260Y-5769610D01*
G01X13040360Y-5858510D01*
G01X13164820Y-5858510D01*
G01X14201140Y-5671820D02*
G01X14298930Y-5671820D01*
G01X14245590Y-5742940D01*
G01X14272260Y-5742940D01*
G01X14290040Y-5751830D01*
G01X14298930Y-5760720D01*
G01X14307820Y-5787390D01*
G01X14307820Y-5805170D01*
G01X14298930Y-5831840D01*
G01X14281150Y-5849620D01*
G01X14254480Y-5858510D01*
G01X14227810Y-5858510D01*
G01X14201140Y-5849620D01*
G01X14192250Y-5840730D01*
G01X14183360Y-5822950D01*
G01X15478760Y-5671820D02*
G01X15389860Y-5796280D01*
G01X15523210Y-5796280D01*
G01X15478760Y-5671820D02*
G01X15478760Y-5858510D01*
G01X9503410Y-5049520D02*
G01X9476740Y-5058410D01*
G01X9467850Y-5076190D01*
G01X9467850Y-5093970D01*
G01X9476740Y-5111750D01*
G01X9494520Y-5120640D01*
G01X9530080Y-5129530D01*
G01X9556750Y-5138420D01*
G01X9574530Y-5156200D01*
G01X9583420Y-5173980D01*
G01X9583420Y-5200650D01*
G01X9574530Y-5218430D01*
G01X9565640Y-5227320D01*
G01X9538970Y-5236210D01*
G01X9503410Y-5236210D01*
G01X9476740Y-5227320D01*
G01X9467850Y-5218430D01*
G01X9458960Y-5200650D01*
G01X9458960Y-5173980D01*
G01X9467850Y-5156200D01*
G01X9485630Y-5138420D01*
G01X9512300Y-5129530D01*
G01X9547860Y-5120640D01*
G01X9565640Y-5111750D01*
G01X9574530Y-5093970D01*
G01X9574530Y-5076190D01*
G01X9565640Y-5058410D01*
G01X9538970Y-5049520D01*
G01X9503410Y-5049520D01*
G01X9646412Y-5156200D02*
G01X9806432Y-5156200D01*
G01X10002774Y-5093970D02*
G01X9993884Y-5076190D01*
G01X9976104Y-5058410D01*
G01X9958324Y-5049520D01*
G01X9922764Y-5049520D01*
G01X9904984Y-5058410D01*
G01X9887204Y-5076190D01*
G01X9878314Y-5093970D01*
G01X9869424Y-5120640D01*
G01X9869424Y-5165090D01*
G01X9878314Y-5191760D01*
G01X9887204Y-5209540D01*
G01X9904984Y-5227320D01*
G01X9922764Y-5236210D01*
G01X9958324Y-5236210D01*
G01X9976104Y-5227320D01*
G01X9993884Y-5209540D01*
G01X10002774Y-5191760D01*
G01X10065766Y-5049520D02*
G01X10065766Y-5236210D01*
G01X10190226Y-5049520D02*
G01X10190226Y-5236210D01*
G01X10065766Y-5138420D02*
G01X10190226Y-5138420D01*
G01X10523474Y-5049520D02*
G01X10505694Y-5049520D01*
G01X10487914Y-5058410D01*
G01X10479024Y-5085080D01*
G01X10479024Y-5236210D01*
G01X10452354Y-5111750D02*
G01X10514584Y-5111750D01*
G01X10586466Y-5049520D02*
G01X10586466Y-5236210D01*
G01X10693908Y-5111750D02*
G01X10676128Y-5120640D01*
G01X10658348Y-5138420D01*
G01X10649458Y-5165090D01*
G01X10649458Y-5182870D01*
G01X10658348Y-5209540D01*
G01X10676128Y-5227320D01*
G01X10693908Y-5236210D01*
G01X10720578Y-5236210D01*
G01X10738358Y-5227320D01*
G01X10756138Y-5209540D01*
G01X10765028Y-5182870D01*
G01X10765028Y-5165090D01*
G01X10756138Y-5138420D01*
G01X10738358Y-5120640D01*
G01X10720578Y-5111750D01*
G01X10693908Y-5111750D01*
G01X10934700Y-5111750D02*
G01X10934700Y-5236210D01*
G01X10934700Y-5138420D02*
G01X10916920Y-5120640D01*
G01X10899140Y-5111750D01*
G01X10872470Y-5111750D01*
G01X10854690Y-5120640D01*
G01X10836910Y-5138420D01*
G01X10828020Y-5165090D01*
G01X10828020Y-5182870D01*
G01X10836910Y-5209540D01*
G01X10854690Y-5227320D01*
G01X10872470Y-5236210D01*
G01X10899140Y-5236210D01*
G01X10916920Y-5227320D01*
G01X10934700Y-5209540D01*
G01X11024362Y-5049520D02*
G01X11024362Y-5200650D01*
G01X11033252Y-5227320D01*
G01X11051032Y-5236210D01*
G01X11068812Y-5236210D01*
G01X10997692Y-5111750D02*
G01X11059922Y-5111750D01*
G01X9467850Y-5398770D02*
G01X9467850Y-5389880D01*
G01X9476740Y-5372100D01*
G01X9485630Y-5363210D01*
G01X9503410Y-5354320D01*
G01X9538970Y-5354320D01*
G01X9556750Y-5363210D01*
G01X9565640Y-5372100D01*
G01X9574530Y-5389880D01*
G01X9574530Y-5407660D01*
G01X9565640Y-5425440D01*
G01X9547860Y-5452110D01*
G01X9458960Y-5541010D01*
G01X9583420Y-5541010D01*
G01X9699752Y-5354320D02*
G01X9673082Y-5363210D01*
G01X9655302Y-5389880D01*
G01X9646412Y-5434330D01*
G01X9646412Y-5461000D01*
G01X9655302Y-5505450D01*
G01X9673082Y-5532120D01*
G01X9699752Y-5541010D01*
G01X9717532Y-5541010D01*
G01X9744202Y-5532120D01*
G01X9761982Y-5505450D01*
G01X9770872Y-5461000D01*
G01X9770872Y-5434330D01*
G01X9761982Y-5389880D01*
G01X9744202Y-5363210D01*
G01X9717532Y-5354320D01*
G01X9699752Y-5354320D01*
G01X9833864Y-5354320D02*
G01X9904984Y-5541010D01*
G01X9976104Y-5354320D02*
G01X9904984Y-5541010D01*
G01X10199116Y-5318760D02*
G01X10039096Y-5603240D01*
G01X10270998Y-5398770D02*
G01X10270998Y-5389880D01*
G01X10279888Y-5372100D01*
G01X10288778Y-5363210D01*
G01X10306558Y-5354320D01*
G01X10342118Y-5354320D01*
G01X10359898Y-5363210D01*
G01X10368788Y-5372100D01*
G01X10377678Y-5389880D01*
G01X10377678Y-5407660D01*
G01X10368788Y-5425440D01*
G01X10351008Y-5452110D01*
G01X10262108Y-5541010D01*
G01X10386568Y-5541010D01*
G01X10502900Y-5354320D02*
G01X10476230Y-5363210D01*
G01X10458450Y-5389880D01*
G01X10449560Y-5434330D01*
G01X10449560Y-5461000D01*
G01X10458450Y-5505450D01*
G01X10476230Y-5532120D01*
G01X10502900Y-5541010D01*
G01X10520680Y-5541010D01*
G01X10547350Y-5532120D01*
G01X10565130Y-5505450D01*
G01X10574020Y-5461000D01*
G01X10574020Y-5434330D01*
G01X10565130Y-5389880D01*
G01X10547350Y-5363210D01*
G01X10520680Y-5354320D01*
G01X10502900Y-5354320D01*
G01X10637012Y-5416550D02*
G01X10637012Y-5541010D01*
G01X10637012Y-5452110D02*
G01X10663682Y-5425440D01*
G01X10681462Y-5416550D01*
G01X10708132Y-5416550D01*
G01X10725912Y-5425440D01*
G01X10734802Y-5452110D01*
G01X10734802Y-5541010D01*
G01X10734802Y-5452110D02*
G01X10761472Y-5425440D01*
G01X10779252Y-5416550D01*
G01X10805922Y-5416550D01*
G01X10823702Y-5425440D01*
G01X10832592Y-5452110D01*
G01X10832592Y-5541010D01*
G01X10966704Y-5354320D02*
G01X10895584Y-5541010D01*
G01X10966704Y-5354320D02*
G01X11037824Y-5541010D01*
G01X10922254Y-5478780D02*
G01X11011154Y-5478780D01*
G01X11541760Y-5011420D02*
G01X11612880Y-5100320D01*
G01X11612880Y-5198110D01*
G01X11684000Y-5011420D02*
G01X11612880Y-5100320D01*
G01X11746992Y-5011420D02*
G01X11746992Y-5198110D01*
G01X11746992Y-5198110D02*
G01X11853672Y-5198110D01*
G01X11595100Y-5316220D02*
G01X11568430Y-5325110D01*
G01X11550650Y-5351780D01*
G01X11541760Y-5396230D01*
G01X11541760Y-5422900D01*
G01X11550650Y-5467350D01*
G01X11568430Y-5494020D01*
G01X11595100Y-5502910D01*
G01X11612880Y-5502910D01*
G01X11639550Y-5494020D01*
G01X11657330Y-5467350D01*
G01X11666220Y-5422900D01*
G01X11666220Y-5396230D01*
G01X11657330Y-5351780D01*
G01X11639550Y-5325110D01*
G01X11612880Y-5316220D01*
G01X11595100Y-5316220D01*
G01X11835892Y-5342890D02*
G01X11827002Y-5325110D01*
G01X11800332Y-5316220D01*
G01X11782552Y-5316220D01*
G01X11755882Y-5325110D01*
G01X11738102Y-5351780D01*
G01X11729212Y-5396230D01*
G01X11729212Y-5440680D01*
G01X11738102Y-5476240D01*
G01X11755882Y-5494020D01*
G01X11782552Y-5502910D01*
G01X11791442Y-5502910D01*
G01X11818112Y-5494020D01*
G01X11835892Y-5476240D01*
G01X11844782Y-5449570D01*
G01X11844782Y-5440680D01*
G01X11835892Y-5414010D01*
G01X11818112Y-5396230D01*
G01X11791442Y-5387340D01*
G01X11782552Y-5387340D01*
G01X11755882Y-5396230D01*
G01X11738102Y-5414010D01*
G01X11729212Y-5440680D01*
G01X12067794Y-5280660D02*
G01X11907774Y-5565140D01*
G01X12139676Y-5360670D02*
G01X12139676Y-5351780D01*
G01X12148566Y-5334000D01*
G01X12157456Y-5325110D01*
G01X12175236Y-5316220D01*
G01X12210796Y-5316220D01*
G01X12228576Y-5325110D01*
G01X12237466Y-5334000D01*
G01X12246356Y-5351780D01*
G01X12246356Y-5369560D01*
G01X12237466Y-5387340D01*
G01X12219686Y-5414010D01*
G01X12130786Y-5502910D01*
G01X12255246Y-5502910D01*
G01X12371578Y-5316220D02*
G01X12344908Y-5325110D01*
G01X12327128Y-5351780D01*
G01X12318238Y-5396230D01*
G01X12318238Y-5422900D01*
G01X12327128Y-5467350D01*
G01X12344908Y-5494020D01*
G01X12371578Y-5502910D01*
G01X12389358Y-5502910D01*
G01X12416028Y-5494020D01*
G01X12433808Y-5467350D01*
G01X12442698Y-5422900D01*
G01X12442698Y-5396230D01*
G01X12433808Y-5351780D01*
G01X12416028Y-5325110D01*
G01X12389358Y-5316220D01*
G01X12371578Y-5316220D01*
G01X12514580Y-5360670D02*
G01X12514580Y-5351780D01*
G01X12523470Y-5334000D01*
G01X12532360Y-5325110D01*
G01X12550140Y-5316220D01*
G01X12585700Y-5316220D01*
G01X12603480Y-5325110D01*
G01X12612370Y-5334000D01*
G01X12621260Y-5351780D01*
G01X12621260Y-5369560D01*
G01X12612370Y-5387340D01*
G01X12594590Y-5414010D01*
G01X12505690Y-5502910D01*
G01X12630150Y-5502910D01*
G01X12799822Y-5316220D02*
G01X12710922Y-5316220D01*
G01X12702032Y-5396230D01*
G01X12710922Y-5387340D01*
G01X12737592Y-5378450D01*
G01X12764262Y-5378450D01*
G01X12790932Y-5387340D01*
G01X12808712Y-5405120D01*
G01X12817602Y-5431790D01*
G01X12817602Y-5449570D01*
G01X12808712Y-5476240D01*
G01X12790932Y-5494020D01*
G01X12764262Y-5502910D01*
G01X12737592Y-5502910D01*
G01X12710922Y-5494020D01*
G01X12702032Y-5485130D01*
G01X12693142Y-5467350D01*
G01X7777734Y-6032246D02*
G01X7770622Y-6017514D01*
G01X7755890Y-6003036D01*
G01X7741412Y-5995670D01*
G01X7712202Y-5995670D01*
G01X7697470Y-6003036D01*
G01X7682992Y-6017514D01*
G01X7675626Y-6032246D01*
G01X7668260Y-6054090D01*
G01X7668260Y-6090666D01*
G01X7675626Y-6112510D01*
G01X7682992Y-6127242D01*
G01X7697470Y-6141720D01*
G01X7712202Y-6149086D01*
G01X7741412Y-6149086D01*
G01X7755890Y-6141720D01*
G01X7770622Y-6127242D01*
G01X7777734Y-6112510D01*
G01X7777734Y-6090666D01*
G01X7741412Y-6090666D02*
G01X7777734Y-6090666D01*
G01X7833106Y-5995670D02*
G01X7833106Y-6149086D01*
G01X7833106Y-5995670D02*
G01X7935468Y-6149086D01*
G01X7935468Y-5995670D02*
G01X7935468Y-6149086D01*
G01X7990840Y-5995670D02*
G01X7990840Y-6149086D01*
G01X7990840Y-5995670D02*
G01X8041894Y-5995670D01*
G01X8063992Y-6003036D01*
G01X8078470Y-6017514D01*
G01X8085836Y-6032246D01*
G01X8093202Y-6054090D01*
G01X8093202Y-6090666D01*
G01X8085836Y-6112510D01*
G01X8078470Y-6127242D01*
G01X8063992Y-6141720D01*
G01X8041894Y-6149086D01*
G01X7990840Y-6149086D01*
G01X7770622Y-6271514D02*
G01X7755890Y-6257036D01*
G01X7734046Y-6249670D01*
G01X7704836Y-6249670D01*
G01X7682992Y-6257036D01*
G01X7668260Y-6271514D01*
G01X7668260Y-6286246D01*
G01X7675626Y-6300724D01*
G01X7682992Y-6308090D01*
G01X7697470Y-6315456D01*
G01X7741412Y-6329934D01*
G01X7755890Y-6337300D01*
G01X7763256Y-6344666D01*
G01X7770622Y-6359144D01*
G01X7770622Y-6381242D01*
G01X7755890Y-6395720D01*
G01X7734046Y-6403086D01*
G01X7704836Y-6403086D01*
G01X7682992Y-6395720D01*
G01X7668260Y-6381242D01*
G01X7825994Y-6249670D02*
G01X7825994Y-6403086D01*
G01X7825994Y-6249670D02*
G01X7877048Y-6249670D01*
G01X7899146Y-6257036D01*
G01X7913624Y-6271514D01*
G01X7920990Y-6286246D01*
G01X7928356Y-6308090D01*
G01X7928356Y-6344666D01*
G01X7920990Y-6366510D01*
G01X7913624Y-6381242D01*
G01X7899146Y-6395720D01*
G01X7877048Y-6403086D01*
G01X7825994Y-6403086D01*
G01X8042148Y-6249670D02*
G01X7983728Y-6403086D01*
G01X8042148Y-6249670D02*
G01X8100568Y-6403086D01*
G01X8005572Y-6352032D02*
G01X8078724Y-6352032D01*
G01X7770622Y-6525514D02*
G01X7755890Y-6511036D01*
G01X7734046Y-6503670D01*
G01X7704836Y-6503670D01*
G01X7682992Y-6511036D01*
G01X7668260Y-6525514D01*
G01X7668260Y-6540246D01*
G01X7675626Y-6554724D01*
G01X7682992Y-6562090D01*
G01X7697470Y-6569456D01*
G01X7741412Y-6583934D01*
G01X7755890Y-6591300D01*
G01X7763256Y-6598666D01*
G01X7770622Y-6613144D01*
G01X7770622Y-6635242D01*
G01X7755890Y-6649720D01*
G01X7734046Y-6657086D01*
G01X7704836Y-6657086D01*
G01X7682992Y-6649720D01*
G01X7668260Y-6635242D01*
G01X7935468Y-6540246D02*
G01X7928356Y-6525514D01*
G01X7913624Y-6511036D01*
G01X7899146Y-6503670D01*
G01X7869936Y-6503670D01*
G01X7855204Y-6511036D01*
G01X7840726Y-6525514D01*
G01X7833360Y-6540246D01*
G01X7825994Y-6562090D01*
G01X7825994Y-6598666D01*
G01X7833360Y-6620510D01*
G01X7840726Y-6635242D01*
G01X7855204Y-6649720D01*
G01X7869936Y-6657086D01*
G01X7899146Y-6657086D01*
G01X7913624Y-6649720D01*
G01X7928356Y-6635242D01*
G01X7935468Y-6620510D01*
G01X7990840Y-6503670D02*
G01X7990840Y-6657086D01*
G01X7990840Y-6657086D02*
G01X8078470Y-6657086D01*
G01X7682992Y-6757670D02*
G01X7763256Y-6757670D01*
G01X7719314Y-6816090D01*
G01X7741412Y-6816090D01*
G01X7755890Y-6823456D01*
G01X7763256Y-6830822D01*
G01X7770622Y-6852666D01*
G01X7770622Y-6867144D01*
G01X7763256Y-6889242D01*
G01X7748524Y-6903720D01*
G01X7726680Y-6911086D01*
G01X7704836Y-6911086D01*
G01X7682992Y-6903720D01*
G01X7675626Y-6896354D01*
G01X7668260Y-6881876D01*
G01X7825994Y-6757670D02*
G01X7884414Y-6911086D01*
G01X7942834Y-6757670D02*
G01X7884414Y-6911086D01*
G01X8012938Y-6757670D02*
G01X8093202Y-6757670D01*
G01X8049260Y-6816090D01*
G01X8071358Y-6816090D01*
G01X8085836Y-6823456D01*
G01X8093202Y-6830822D01*
G01X8100568Y-6852666D01*
G01X8100568Y-6867144D01*
G01X8093202Y-6889242D01*
G01X8078470Y-6903720D01*
G01X8056626Y-6911086D01*
G01X8034782Y-6911086D01*
G01X8012938Y-6903720D01*
G01X8005572Y-6896354D01*
G01X7998206Y-6881876D01*
G01X6647434Y-5854446D02*
G01X6640322Y-5839714D01*
G01X6625590Y-5825236D01*
G01X6611112Y-5817870D01*
G01X6581902Y-5817870D01*
G01X6567170Y-5825236D01*
G01X6552692Y-5839714D01*
G01X6545326Y-5854446D01*
G01X6537960Y-5876290D01*
G01X6537960Y-5912866D01*
G01X6545326Y-5934710D01*
G01X6552692Y-5949442D01*
G01X6567170Y-5963920D01*
G01X6581902Y-5971286D01*
G01X6611112Y-5971286D01*
G01X6625590Y-5963920D01*
G01X6640322Y-5949442D01*
G01X6647434Y-5934710D01*
G01X6647434Y-5912866D01*
G01X6611112Y-5912866D02*
G01X6647434Y-5912866D01*
G01X6702806Y-5817870D02*
G01X6702806Y-5971286D01*
G01X6702806Y-5817870D02*
G01X6805168Y-5971286D01*
G01X6805168Y-5817870D02*
G01X6805168Y-5971286D01*
G01X6860540Y-5817870D02*
G01X6860540Y-5971286D01*
G01X6860540Y-5817870D02*
G01X6911594Y-5817870D01*
G01X6933692Y-5825236D01*
G01X6948170Y-5839714D01*
G01X6955536Y-5854446D01*
G01X6962902Y-5876290D01*
G01X6962902Y-5912866D01*
G01X6955536Y-5934710D01*
G01X6948170Y-5949442D01*
G01X6933692Y-5963920D01*
G01X6911594Y-5971286D01*
G01X6860540Y-5971286D01*
G01X6647434Y-6108446D02*
G01X6640322Y-6093714D01*
G01X6625590Y-6079236D01*
G01X6611112Y-6071870D01*
G01X6581902Y-6071870D01*
G01X6567170Y-6079236D01*
G01X6552692Y-6093714D01*
G01X6545326Y-6108446D01*
G01X6537960Y-6130290D01*
G01X6537960Y-6166866D01*
G01X6545326Y-6188710D01*
G01X6552692Y-6203442D01*
G01X6567170Y-6217920D01*
G01X6581902Y-6225286D01*
G01X6611112Y-6225286D01*
G01X6625590Y-6217920D01*
G01X6640322Y-6203442D01*
G01X6647434Y-6188710D01*
G01X6805168Y-6093714D02*
G01X6790436Y-6079236D01*
G01X6768592Y-6071870D01*
G01X6739382Y-6071870D01*
G01X6717538Y-6079236D01*
G01X6702806Y-6093714D01*
G01X6702806Y-6108446D01*
G01X6710172Y-6122924D01*
G01X6717538Y-6130290D01*
G01X6732016Y-6137656D01*
G01X6775958Y-6152134D01*
G01X6790436Y-6159500D01*
G01X6797802Y-6166866D01*
G01X6805168Y-6181344D01*
G01X6805168Y-6203442D01*
G01X6790436Y-6217920D01*
G01X6768592Y-6225286D01*
G01X6739382Y-6225286D01*
G01X6717538Y-6217920D01*
G01X6702806Y-6203442D01*
G01X6537960Y-6325870D02*
G01X6537960Y-6479286D01*
G01X6537960Y-6325870D02*
G01X6596380Y-6479286D01*
G01X6654800Y-6325870D02*
G01X6596380Y-6479286D01*
G01X6654800Y-6325870D02*
G01X6654800Y-6479286D01*
G01X6710172Y-6325870D02*
G01X6710172Y-6479286D01*
G01X6867906Y-6347714D02*
G01X6853174Y-6333236D01*
G01X6831330Y-6325870D01*
G01X6802120Y-6325870D01*
G01X6780276Y-6333236D01*
G01X6765544Y-6347714D01*
G01X6765544Y-6362446D01*
G01X6772910Y-6376924D01*
G01X6780276Y-6384290D01*
G01X6794754Y-6391656D01*
G01X6838696Y-6406134D01*
G01X6853174Y-6413500D01*
G01X6860540Y-6420866D01*
G01X6867906Y-6435344D01*
G01X6867906Y-6457442D01*
G01X6853174Y-6471920D01*
G01X6831330Y-6479286D01*
G01X6802120Y-6479286D01*
G01X6780276Y-6471920D01*
G01X6765544Y-6457442D01*
G01X6967220Y-6325870D02*
G01X6952488Y-6333236D01*
G01X6938010Y-6347714D01*
G01X6930644Y-6362446D01*
G01X6923278Y-6384290D01*
G01X6923278Y-6420866D01*
G01X6930644Y-6442710D01*
G01X6938010Y-6457442D01*
G01X6952488Y-6471920D01*
G01X6967220Y-6479286D01*
G01X6996430Y-6479286D01*
G01X7010908Y-6471920D01*
G01X7025640Y-6457442D01*
G01X7032752Y-6442710D01*
G01X7040118Y-6420866D01*
G01X7040118Y-6384290D01*
G01X7032752Y-6362446D01*
G01X7025640Y-6347714D01*
G01X7010908Y-6333236D01*
G01X6996430Y-6325870D01*
G01X6967220Y-6325870D01*
G01X6537960Y-6579870D02*
G01X6537960Y-6733286D01*
G01X6537960Y-6579870D02*
G01X6596380Y-6733286D01*
G01X6654800Y-6579870D02*
G01X6596380Y-6733286D01*
G01X6654800Y-6579870D02*
G01X6654800Y-6733286D01*
G01X6754114Y-6579870D02*
G01X6739382Y-6587236D01*
G01X6724904Y-6601714D01*
G01X6717538Y-6616446D01*
G01X6710172Y-6638290D01*
G01X6710172Y-6674866D01*
G01X6717538Y-6696710D01*
G01X6724904Y-6711442D01*
G01X6739382Y-6725920D01*
G01X6754114Y-6733286D01*
G01X6783324Y-6733286D01*
G01X6797802Y-6725920D01*
G01X6812534Y-6711442D01*
G01X6819646Y-6696710D01*
G01X6827012Y-6674866D01*
G01X6827012Y-6638290D01*
G01X6819646Y-6616446D01*
G01X6812534Y-6601714D01*
G01X6797802Y-6587236D01*
G01X6783324Y-6579870D01*
G01X6754114Y-6579870D01*
G01X6984746Y-6601714D02*
G01X6970014Y-6587236D01*
G01X6948170Y-6579870D01*
G01X6918960Y-6579870D01*
G01X6897116Y-6587236D01*
G01X6882384Y-6601714D01*
G01X6882384Y-6616446D01*
G01X6889750Y-6630924D01*
G01X6897116Y-6638290D01*
G01X6911594Y-6645656D01*
G01X6955536Y-6660134D01*
G01X6970014Y-6667500D01*
G01X6977380Y-6674866D01*
G01X6984746Y-6689344D01*
G01X6984746Y-6711442D01*
G01X6970014Y-6725920D01*
G01X6948170Y-6733286D01*
G01X6918960Y-6733286D01*
G01X6897116Y-6725920D01*
G01X6882384Y-6711442D01*
G01X7040118Y-6579870D02*
G01X7040118Y-6733286D01*
G01X6640322Y-6855714D02*
G01X6625590Y-6841236D01*
G01X6603746Y-6833870D01*
G01X6574536Y-6833870D01*
G01X6552692Y-6841236D01*
G01X6537960Y-6855714D01*
G01X6537960Y-6870446D01*
G01X6545326Y-6884924D01*
G01X6552692Y-6892290D01*
G01X6567170Y-6899656D01*
G01X6611112Y-6914134D01*
G01X6625590Y-6921500D01*
G01X6632956Y-6928866D01*
G01X6640322Y-6943344D01*
G01X6640322Y-6965442D01*
G01X6625590Y-6979920D01*
G01X6603746Y-6987286D01*
G01X6574536Y-6987286D01*
G01X6552692Y-6979920D01*
G01X6537960Y-6965442D01*
G01X6805168Y-6870446D02*
G01X6798056Y-6855714D01*
G01X6783324Y-6841236D01*
G01X6768846Y-6833870D01*
G01X6739636Y-6833870D01*
G01X6724904Y-6841236D01*
G01X6710426Y-6855714D01*
G01X6703060Y-6870446D01*
G01X6695694Y-6892290D01*
G01X6695694Y-6928866D01*
G01X6703060Y-6950710D01*
G01X6710426Y-6965442D01*
G01X6724904Y-6979920D01*
G01X6739636Y-6987286D01*
G01X6768846Y-6987286D01*
G01X6783324Y-6979920D01*
G01X6798056Y-6965442D01*
G01X6805168Y-6950710D01*
G01X6860540Y-6833870D02*
G01X6860540Y-6987286D01*
G01X6962902Y-6833870D02*
G01X6860540Y-6936232D01*
G01X6897116Y-6899656D02*
G01X6962902Y-6987286D01*
G01X6552692Y-7087870D02*
G01X6632956Y-7087870D01*
G01X6589014Y-7146290D01*
G01X6611112Y-7146290D01*
G01X6625590Y-7153656D01*
G01X6632956Y-7161022D01*
G01X6640322Y-7182866D01*
G01X6640322Y-7197344D01*
G01X6632956Y-7219442D01*
G01X6618224Y-7233920D01*
G01X6596380Y-7241286D01*
G01X6574536Y-7241286D01*
G01X6552692Y-7233920D01*
G01X6545326Y-7226554D01*
G01X6537960Y-7212076D01*
G01X6695694Y-7087870D02*
G01X6754114Y-7241286D01*
G01X6812534Y-7087870D02*
G01X6754114Y-7241286D01*
G01X6882638Y-7087870D02*
G01X6962902Y-7087870D01*
G01X6918960Y-7146290D01*
G01X6941058Y-7146290D01*
G01X6955536Y-7153656D01*
G01X6962902Y-7161022D01*
G01X6970268Y-7182866D01*
G01X6970268Y-7197344D01*
G01X6962902Y-7219442D01*
G01X6948170Y-7233920D01*
G01X6926326Y-7241286D01*
G01X6904482Y-7241286D01*
G01X6882638Y-7233920D01*
G01X6875272Y-7226554D01*
G01X6867906Y-7212076D01*
G01X11943334Y-6756146D02*
G01X11936222Y-6741414D01*
G01X11921490Y-6726936D01*
G01X11907012Y-6719570D01*
G01X11877802Y-6719570D01*
G01X11863070Y-6726936D01*
G01X11848592Y-6741414D01*
G01X11841226Y-6756146D01*
G01X11833860Y-6777990D01*
G01X11833860Y-6814566D01*
G01X11841226Y-6836410D01*
G01X11848592Y-6851142D01*
G01X11863070Y-6865620D01*
G01X11877802Y-6872986D01*
G01X11907012Y-6872986D01*
G01X11921490Y-6865620D01*
G01X11936222Y-6851142D01*
G01X11943334Y-6836410D01*
G01X11943334Y-6814566D01*
G01X11907012Y-6814566D02*
G01X11943334Y-6814566D01*
G01X11998706Y-6719570D02*
G01X11998706Y-6872986D01*
G01X11998706Y-6719570D02*
G01X12101068Y-6872986D01*
G01X12101068Y-6719570D02*
G01X12101068Y-6872986D01*
G01X12156440Y-6719570D02*
G01X12156440Y-6872986D01*
G01X12156440Y-6719570D02*
G01X12207494Y-6719570D01*
G01X12229592Y-6726936D01*
G01X12244070Y-6741414D01*
G01X12251436Y-6756146D01*
G01X12258802Y-6777990D01*
G01X12258802Y-6814566D01*
G01X12251436Y-6836410D01*
G01X12244070Y-6851142D01*
G01X12229592Y-6865620D01*
G01X12207494Y-6872986D01*
G01X12156440Y-6872986D01*
G01X11841226Y-7010146D02*
G01X11841226Y-7002780D01*
G01X11848592Y-6988302D01*
G01X11855704Y-6980936D01*
G01X11870436Y-6973570D01*
G01X11899646Y-6973570D01*
G01X11914124Y-6980936D01*
G01X11921490Y-6988302D01*
G01X11928856Y-7002780D01*
G01X11928856Y-7017512D01*
G01X11921490Y-7031990D01*
G01X11907012Y-7053834D01*
G01X11833860Y-7126986D01*
G01X11936222Y-7126986D01*
G01X12035536Y-6973570D02*
G01X12013438Y-6980936D01*
G01X11998960Y-7002780D01*
G01X11991594Y-7039356D01*
G01X11991594Y-7061200D01*
G01X11998960Y-7097776D01*
G01X12013438Y-7119620D01*
G01X12035536Y-7126986D01*
G01X12050014Y-7126986D01*
G01X12071858Y-7119620D01*
G01X12086590Y-7097776D01*
G01X12093956Y-7061200D01*
G01X12093956Y-7039356D01*
G01X12086590Y-7002780D01*
G01X12071858Y-6980936D01*
G01X12050014Y-6973570D01*
G01X12035536Y-6973570D01*
G01X12149328Y-6973570D02*
G01X12207748Y-7126986D01*
G01X12266168Y-6973570D02*
G01X12207748Y-7126986D01*
G01X11921490Y-7227570D02*
G01X11848592Y-7227570D01*
G01X11841226Y-7293356D01*
G01X11848592Y-7285990D01*
G01X11870436Y-7278624D01*
G01X11892280Y-7278624D01*
G01X11914124Y-7285990D01*
G01X11928856Y-7300722D01*
G01X11936222Y-7322566D01*
G01X11936222Y-7337044D01*
G01X11928856Y-7359142D01*
G01X11914124Y-7373620D01*
G01X11892280Y-7380986D01*
G01X11870436Y-7380986D01*
G01X11848592Y-7373620D01*
G01X11841226Y-7366254D01*
G01X11833860Y-7351776D01*
G01X11991594Y-7227570D02*
G01X12050014Y-7380986D01*
G01X12108434Y-7227570D02*
G01X12050014Y-7380986D01*
G01X11877802Y-7481570D02*
G01X11863070Y-7488936D01*
G01X11848592Y-7503414D01*
G01X11841226Y-7518146D01*
G01X11833860Y-7539990D01*
G01X11833860Y-7576566D01*
G01X11841226Y-7598410D01*
G01X11848592Y-7613142D01*
G01X11863070Y-7627620D01*
G01X11877802Y-7634986D01*
G01X11907012Y-7634986D01*
G01X11921490Y-7627620D01*
G01X11936222Y-7613142D01*
G01X11943334Y-7598410D01*
G01X11950700Y-7576566D01*
G01X11950700Y-7539990D01*
G01X11943334Y-7518146D01*
G01X11936222Y-7503414D01*
G01X11921490Y-7488936D01*
G01X11907012Y-7481570D01*
G01X11877802Y-7481570D01*
G01X12006072Y-7481570D02*
G01X12006072Y-7591044D01*
G01X12013438Y-7613142D01*
G01X12027916Y-7627620D01*
G01X12050014Y-7634986D01*
G01X12064492Y-7634986D01*
G01X12086336Y-7627620D01*
G01X12101068Y-7613142D01*
G01X12108434Y-7591044D01*
G01X12108434Y-7481570D01*
G01X12214860Y-7481570D02*
G01X12214860Y-7634986D01*
G01X12163806Y-7481570D02*
G01X12266168Y-7481570D01*
G01X12321540Y-7510780D02*
G01X12336272Y-7503414D01*
G01X12358116Y-7481570D01*
G01X12358116Y-7634986D01*
G01X12413488Y-7481570D02*
G01X12413488Y-7634986D01*
G01X12413488Y-7481570D02*
G01X12479274Y-7481570D01*
G01X12501118Y-7488936D01*
G01X12508484Y-7496302D01*
G01X12515850Y-7510780D01*
G01X12515850Y-7532624D01*
G01X12508484Y-7547356D01*
G01X12501118Y-7554722D01*
G01X12479274Y-7561834D01*
G01X12413488Y-7561834D01*
G01X11877802Y-7735570D02*
G01X11863070Y-7742936D01*
G01X11848592Y-7757414D01*
G01X11841226Y-7772146D01*
G01X11833860Y-7793990D01*
G01X11833860Y-7830566D01*
G01X11841226Y-7852410D01*
G01X11848592Y-7867142D01*
G01X11863070Y-7881620D01*
G01X11877802Y-7888986D01*
G01X11907012Y-7888986D01*
G01X11921490Y-7881620D01*
G01X11936222Y-7867142D01*
G01X11943334Y-7852410D01*
G01X11950700Y-7830566D01*
G01X11950700Y-7793990D01*
G01X11943334Y-7772146D01*
G01X11936222Y-7757414D01*
G01X11921490Y-7742936D01*
G01X11907012Y-7735570D01*
G01X11877802Y-7735570D01*
G01X12006072Y-7735570D02*
G01X12006072Y-7845044D01*
G01X12013438Y-7867142D01*
G01X12027916Y-7881620D01*
G01X12050014Y-7888986D01*
G01X12064492Y-7888986D01*
G01X12086336Y-7881620D01*
G01X12101068Y-7867142D01*
G01X12108434Y-7845044D01*
G01X12108434Y-7735570D01*
G01X12214860Y-7735570D02*
G01X12214860Y-7888986D01*
G01X12163806Y-7735570D02*
G01X12266168Y-7735570D01*
G01X12321540Y-7764780D02*
G01X12336272Y-7757414D01*
G01X12358116Y-7735570D01*
G01X12358116Y-7888986D01*
G01X12413488Y-7735570D02*
G01X12413488Y-7888986D01*
G01X12413488Y-7735570D02*
G01X12515850Y-7888986D01*
G01X12515850Y-7735570D02*
G01X12515850Y-7888986D01*
G01X11877802Y-7989570D02*
G01X11863070Y-7996936D01*
G01X11848592Y-8011414D01*
G01X11841226Y-8026146D01*
G01X11833860Y-8047990D01*
G01X11833860Y-8084566D01*
G01X11841226Y-8106410D01*
G01X11848592Y-8121142D01*
G01X11863070Y-8135620D01*
G01X11877802Y-8142986D01*
G01X11907012Y-8142986D01*
G01X11921490Y-8135620D01*
G01X11936222Y-8121142D01*
G01X11943334Y-8106410D01*
G01X11950700Y-8084566D01*
G01X11950700Y-8047990D01*
G01X11943334Y-8026146D01*
G01X11936222Y-8011414D01*
G01X11921490Y-7996936D01*
G01X11907012Y-7989570D01*
G01X11877802Y-7989570D01*
G01X12006072Y-7989570D02*
G01X12006072Y-8099044D01*
G01X12013438Y-8121142D01*
G01X12027916Y-8135620D01*
G01X12050014Y-8142986D01*
G01X12064492Y-8142986D01*
G01X12086336Y-8135620D01*
G01X12101068Y-8121142D01*
G01X12108434Y-8099044D01*
G01X12108434Y-7989570D01*
G01X12214860Y-7989570D02*
G01X12214860Y-8142986D01*
G01X12163806Y-7989570D02*
G01X12266168Y-7989570D01*
G01X12328906Y-8026146D02*
G01X12328906Y-8018780D01*
G01X12336272Y-8004302D01*
G01X12343384Y-7996936D01*
G01X12358116Y-7989570D01*
G01X12387326Y-7989570D01*
G01X12401804Y-7996936D01*
G01X12409170Y-8004302D01*
G01X12416536Y-8018780D01*
G01X12416536Y-8033512D01*
G01X12409170Y-8047990D01*
G01X12394692Y-8069834D01*
G01X12321540Y-8142986D01*
G01X12423902Y-8142986D01*
G01X12479274Y-7989570D02*
G01X12479274Y-8142986D01*
G01X12479274Y-7989570D02*
G01X12545060Y-7989570D01*
G01X12566904Y-7996936D01*
G01X12574270Y-8004302D01*
G01X12581636Y-8018780D01*
G01X12581636Y-8040624D01*
G01X12574270Y-8055356D01*
G01X12566904Y-8062722D01*
G01X12545060Y-8069834D01*
G01X12479274Y-8069834D01*
G01X11877802Y-8243570D02*
G01X11863070Y-8250936D01*
G01X11848592Y-8265414D01*
G01X11841226Y-8280146D01*
G01X11833860Y-8301990D01*
G01X11833860Y-8338566D01*
G01X11841226Y-8360410D01*
G01X11848592Y-8375142D01*
G01X11863070Y-8389620D01*
G01X11877802Y-8396986D01*
G01X11907012Y-8396986D01*
G01X11921490Y-8389620D01*
G01X11936222Y-8375142D01*
G01X11943334Y-8360410D01*
G01X11950700Y-8338566D01*
G01X11950700Y-8301990D01*
G01X11943334Y-8280146D01*
G01X11936222Y-8265414D01*
G01X11921490Y-8250936D01*
G01X11907012Y-8243570D01*
G01X11877802Y-8243570D01*
G01X12006072Y-8243570D02*
G01X12006072Y-8353044D01*
G01X12013438Y-8375142D01*
G01X12027916Y-8389620D01*
G01X12050014Y-8396986D01*
G01X12064492Y-8396986D01*
G01X12086336Y-8389620D01*
G01X12101068Y-8375142D01*
G01X12108434Y-8353044D01*
G01X12108434Y-8243570D01*
G01X12214860Y-8243570D02*
G01X12214860Y-8396986D01*
G01X12163806Y-8243570D02*
G01X12266168Y-8243570D01*
G01X12328906Y-8280146D02*
G01X12328906Y-8272780D01*
G01X12336272Y-8258302D01*
G01X12343384Y-8250936D01*
G01X12358116Y-8243570D01*
G01X12387326Y-8243570D01*
G01X12401804Y-8250936D01*
G01X12409170Y-8258302D01*
G01X12416536Y-8272780D01*
G01X12416536Y-8287512D01*
G01X12409170Y-8301990D01*
G01X12394692Y-8323834D01*
G01X12321540Y-8396986D01*
G01X12423902Y-8396986D01*
G01X12479274Y-8243570D02*
G01X12479274Y-8396986D01*
G01X12479274Y-8243570D02*
G01X12581636Y-8396986D01*
G01X12581636Y-8243570D02*
G01X12581636Y-8396986D01*
G01X11833860Y-8497570D02*
G01X11833860Y-8650986D01*
G01X11991594Y-8519414D02*
G01X11976862Y-8504936D01*
G01X11955018Y-8497570D01*
G01X11925808Y-8497570D01*
G01X11903964Y-8504936D01*
G01X11889232Y-8519414D01*
G01X11889232Y-8534146D01*
G01X11896598Y-8548624D01*
G01X11903964Y-8555990D01*
G01X11918442Y-8563356D01*
G01X11962384Y-8577834D01*
G01X11976862Y-8585200D01*
G01X11984228Y-8592566D01*
G01X11991594Y-8607044D01*
G01X11991594Y-8629142D01*
G01X11976862Y-8643620D01*
G01X11955018Y-8650986D01*
G01X11925808Y-8650986D01*
G01X11903964Y-8643620D01*
G01X11889232Y-8629142D01*
G01X12046966Y-8497570D02*
G01X12046966Y-8650986D01*
G01X12046966Y-8497570D02*
G01X12141962Y-8497570D01*
G01X12046966Y-8570722D02*
G01X12105386Y-8570722D01*
G01X12046966Y-8650986D02*
G01X12141962Y-8650986D01*
G01X12248388Y-8497570D02*
G01X12248388Y-8650986D01*
G01X12197334Y-8497570D02*
G01X12299696Y-8497570D01*
G01X12355068Y-8526780D02*
G01X12369800Y-8519414D01*
G01X12391644Y-8497570D01*
G01X12391644Y-8650986D01*
G01X11833860Y-8751570D02*
G01X11833860Y-8904986D01*
G01X11991594Y-8773414D02*
G01X11976862Y-8758936D01*
G01X11955018Y-8751570D01*
G01X11925808Y-8751570D01*
G01X11903964Y-8758936D01*
G01X11889232Y-8773414D01*
G01X11889232Y-8788146D01*
G01X11896598Y-8802624D01*
G01X11903964Y-8809990D01*
G01X11918442Y-8817356D01*
G01X11962384Y-8831834D01*
G01X11976862Y-8839200D01*
G01X11984228Y-8846566D01*
G01X11991594Y-8861044D01*
G01X11991594Y-8883142D01*
G01X11976862Y-8897620D01*
G01X11955018Y-8904986D01*
G01X11925808Y-8904986D01*
G01X11903964Y-8897620D01*
G01X11889232Y-8883142D01*
G01X12046966Y-8751570D02*
G01X12046966Y-8904986D01*
G01X12046966Y-8751570D02*
G01X12141962Y-8751570D01*
G01X12046966Y-8824722D02*
G01X12105386Y-8824722D01*
G01X12046966Y-8904986D02*
G01X12141962Y-8904986D01*
G01X12248388Y-8751570D02*
G01X12248388Y-8904986D01*
G01X12197334Y-8751570D02*
G01X12299696Y-8751570D01*
G01X12362434Y-8788146D02*
G01X12362434Y-8780780D01*
G01X12369800Y-8766302D01*
G01X12376912Y-8758936D01*
G01X12391644Y-8751570D01*
G01X12420854Y-8751570D01*
G01X12435332Y-8758936D01*
G01X12442698Y-8766302D01*
G01X12450064Y-8780780D01*
G01X12450064Y-8795512D01*
G01X12442698Y-8809990D01*
G01X12428220Y-8831834D01*
G01X12355068Y-8904986D01*
G01X12457430Y-8904986D01*
G01X11936222Y-9027414D02*
G01X11921490Y-9012936D01*
G01X11899646Y-9005570D01*
G01X11870436Y-9005570D01*
G01X11848592Y-9012936D01*
G01X11833860Y-9027414D01*
G01X11833860Y-9042146D01*
G01X11841226Y-9056624D01*
G01X11848592Y-9063990D01*
G01X11863070Y-9071356D01*
G01X11907012Y-9085834D01*
G01X11921490Y-9093200D01*
G01X11928856Y-9100566D01*
G01X11936222Y-9115044D01*
G01X11936222Y-9137142D01*
G01X11921490Y-9151620D01*
G01X11899646Y-9158986D01*
G01X11870436Y-9158986D01*
G01X11848592Y-9151620D01*
G01X11833860Y-9137142D01*
G01X11991594Y-9005570D02*
G01X11991594Y-9158986D01*
G01X12093956Y-9005570D02*
G01X12093956Y-9158986D01*
G01X11991594Y-9078722D02*
G01X12093956Y-9078722D01*
G01X12149328Y-9005570D02*
G01X12149328Y-9158986D01*
G01X12149328Y-9005570D02*
G01X12200382Y-9005570D01*
G01X12222480Y-9012936D01*
G01X12236958Y-9027414D01*
G01X12244324Y-9042146D01*
G01X12251690Y-9063990D01*
G01X12251690Y-9100566D01*
G01X12244324Y-9122410D01*
G01X12236958Y-9137142D01*
G01X12222480Y-9151620D01*
G01X12200382Y-9158986D01*
G01X12149328Y-9158986D01*
G01X12307062Y-9005570D02*
G01X12307062Y-9158986D01*
G01X12307062Y-9005570D02*
G01X12409424Y-9158986D01*
G01X12409424Y-9005570D02*
G01X12409424Y-9158986D01*
G01X11936222Y-9281414D02*
G01X11921490Y-9266936D01*
G01X11899646Y-9259570D01*
G01X11870436Y-9259570D01*
G01X11848592Y-9266936D01*
G01X11833860Y-9281414D01*
G01X11833860Y-9296146D01*
G01X11841226Y-9310624D01*
G01X11848592Y-9317990D01*
G01X11863070Y-9325356D01*
G01X11907012Y-9339834D01*
G01X11921490Y-9347200D01*
G01X11928856Y-9354566D01*
G01X11936222Y-9369044D01*
G01X11936222Y-9391142D01*
G01X11921490Y-9405620D01*
G01X11899646Y-9412986D01*
G01X11870436Y-9412986D01*
G01X11848592Y-9405620D01*
G01X11833860Y-9391142D01*
G01X12101068Y-9296146D02*
G01X12093956Y-9281414D01*
G01X12079224Y-9266936D01*
G01X12064746Y-9259570D01*
G01X12035536Y-9259570D01*
G01X12020804Y-9266936D01*
G01X12006326Y-9281414D01*
G01X11998960Y-9296146D01*
G01X11991594Y-9317990D01*
G01X11991594Y-9354566D01*
G01X11998960Y-9376410D01*
G01X12006326Y-9391142D01*
G01X12020804Y-9405620D01*
G01X12035536Y-9412986D01*
G01X12064746Y-9412986D01*
G01X12079224Y-9405620D01*
G01X12093956Y-9391142D01*
G01X12101068Y-9376410D01*
G01X12156440Y-9259570D02*
G01X12156440Y-9412986D01*
G01X12156440Y-9412986D02*
G01X12244070Y-9412986D01*
G01X11936222Y-9535414D02*
G01X11921490Y-9520936D01*
G01X11899646Y-9513570D01*
G01X11870436Y-9513570D01*
G01X11848592Y-9520936D01*
G01X11833860Y-9535414D01*
G01X11833860Y-9550146D01*
G01X11841226Y-9564624D01*
G01X11848592Y-9571990D01*
G01X11863070Y-9579356D01*
G01X11907012Y-9593834D01*
G01X11921490Y-9601200D01*
G01X11928856Y-9608566D01*
G01X11936222Y-9623044D01*
G01X11936222Y-9645142D01*
G01X11921490Y-9659620D01*
G01X11899646Y-9666986D01*
G01X11870436Y-9666986D01*
G01X11848592Y-9659620D01*
G01X11833860Y-9645142D01*
G01X11991594Y-9513570D02*
G01X11991594Y-9666986D01*
G01X11991594Y-9513570D02*
G01X12042648Y-9513570D01*
G01X12064746Y-9520936D01*
G01X12079224Y-9535414D01*
G01X12086590Y-9550146D01*
G01X12093956Y-9571990D01*
G01X12093956Y-9608566D01*
G01X12086590Y-9630410D01*
G01X12079224Y-9645142D01*
G01X12064746Y-9659620D01*
G01X12042648Y-9666986D01*
G01X11991594Y-9666986D01*
G01X12207748Y-9513570D02*
G01X12149328Y-9666986D01*
G01X12207748Y-9513570D02*
G01X12266168Y-9666986D01*
G01X12171172Y-9615932D02*
G01X12244324Y-9615932D01*
G01X11841226Y-9804146D02*
G01X11841226Y-9796780D01*
G01X11848592Y-9782302D01*
G01X11855704Y-9774936D01*
G01X11870436Y-9767570D01*
G01X11899646Y-9767570D01*
G01X11914124Y-9774936D01*
G01X11921490Y-9782302D01*
G01X11928856Y-9796780D01*
G01X11928856Y-9811512D01*
G01X11921490Y-9825990D01*
G01X11907012Y-9847834D01*
G01X11833860Y-9920986D01*
G01X11936222Y-9920986D01*
G01X12035536Y-9767570D02*
G01X12013438Y-9774936D01*
G01X11998960Y-9796780D01*
G01X11991594Y-9833356D01*
G01X11991594Y-9855200D01*
G01X11998960Y-9891776D01*
G01X12013438Y-9913620D01*
G01X12035536Y-9920986D01*
G01X12050014Y-9920986D01*
G01X12071858Y-9913620D01*
G01X12086590Y-9891776D01*
G01X12093956Y-9855200D01*
G01X12093956Y-9833356D01*
G01X12086590Y-9796780D01*
G01X12071858Y-9774936D01*
G01X12050014Y-9767570D01*
G01X12035536Y-9767570D01*
G01X12149328Y-9767570D02*
G01X12207748Y-9920986D01*
G01X12266168Y-9767570D02*
G01X12207748Y-9920986D01*
G01X11943334Y-10058146D02*
G01X11936222Y-10043414D01*
G01X11921490Y-10028936D01*
G01X11907012Y-10021570D01*
G01X11877802Y-10021570D01*
G01X11863070Y-10028936D01*
G01X11848592Y-10043414D01*
G01X11841226Y-10058146D01*
G01X11833860Y-10079990D01*
G01X11833860Y-10116566D01*
G01X11841226Y-10138410D01*
G01X11848592Y-10153142D01*
G01X11863070Y-10167620D01*
G01X11877802Y-10174986D01*
G01X11907012Y-10174986D01*
G01X11921490Y-10167620D01*
G01X11936222Y-10153142D01*
G01X11943334Y-10138410D01*
G01X11943334Y-10116566D01*
G01X11907012Y-10116566D02*
G01X11943334Y-10116566D01*
G01X11998706Y-10021570D02*
G01X11998706Y-10174986D01*
G01X11998706Y-10021570D02*
G01X12101068Y-10174986D01*
G01X12101068Y-10021570D02*
G01X12101068Y-10174986D01*
G01X12156440Y-10021570D02*
G01X12156440Y-10174986D01*
G01X12156440Y-10021570D02*
G01X12207494Y-10021570D01*
G01X12229592Y-10028936D01*
G01X12244070Y-10043414D01*
G01X12251436Y-10058146D01*
G01X12258802Y-10079990D01*
G01X12258802Y-10116566D01*
G01X12251436Y-10138410D01*
G01X12244070Y-10153142D01*
G01X12229592Y-10167620D01*
G01X12207494Y-10174986D01*
G01X12156440Y-10174986D01*
G01X7396226Y-8178546D02*
G01X7396226Y-8171180D01*
G01X7403592Y-8156702D01*
G01X7410704Y-8149336D01*
G01X7425436Y-8141970D01*
G01X7454646Y-8141970D01*
G01X7469124Y-8149336D01*
G01X7476490Y-8156702D01*
G01X7483856Y-8171180D01*
G01X7483856Y-8185912D01*
G01X7476490Y-8200390D01*
G01X7462012Y-8222234D01*
G01X7388860Y-8295386D01*
G01X7491222Y-8295386D01*
G01X7590536Y-8141970D02*
G01X7568438Y-8149336D01*
G01X7553960Y-8171180D01*
G01X7546594Y-8207756D01*
G01X7546594Y-8229600D01*
G01X7553960Y-8266176D01*
G01X7568438Y-8288020D01*
G01X7590536Y-8295386D01*
G01X7605014Y-8295386D01*
G01X7626858Y-8288020D01*
G01X7641590Y-8266176D01*
G01X7648956Y-8229600D01*
G01X7648956Y-8207756D01*
G01X7641590Y-8171180D01*
G01X7626858Y-8149336D01*
G01X7605014Y-8141970D01*
G01X7590536Y-8141970D01*
G01X7704328Y-8141970D02*
G01X7762748Y-8295386D01*
G01X7821168Y-8141970D02*
G01X7762748Y-8295386D01*
G01X5877814Y-9310878D02*
G01X5863336Y-9325610D01*
G01X5855970Y-9347454D01*
G01X5855970Y-9376664D01*
G01X5863336Y-9398508D01*
G01X5877814Y-9413240D01*
G01X5892546Y-9413240D01*
G01X5907024Y-9405874D01*
G01X5914390Y-9398508D01*
G01X5921756Y-9384030D01*
G01X5936234Y-9340088D01*
G01X5943600Y-9325610D01*
G01X5950966Y-9318244D01*
G01X5965444Y-9310878D01*
G01X5987542Y-9310878D01*
G01X6002020Y-9325610D01*
G01X6009386Y-9347454D01*
G01X6009386Y-9376664D01*
G01X6002020Y-9398508D01*
G01X5987542Y-9413240D01*
G01X5855970Y-9255506D02*
G01X6009386Y-9255506D01*
G01X5855970Y-9153144D02*
G01X6009386Y-9153144D01*
G01X5929122Y-9255506D02*
G01X5929122Y-9153144D01*
G01X5855970Y-9097772D02*
G01X6009386Y-9097772D01*
G01X5855970Y-9097772D02*
G01X5855970Y-9046718D01*
G01X5863336Y-9024620D01*
G01X5877814Y-9010142D01*
G01X5892546Y-9002776D01*
G01X5914390Y-8995410D01*
G01X5950966Y-8995410D01*
G01X5972810Y-9002776D01*
G01X5987542Y-9010142D01*
G01X6002020Y-9024620D01*
G01X6009386Y-9046718D01*
G01X6009386Y-9097772D01*
G01X5855970Y-8940038D02*
G01X6009386Y-8940038D01*
G01X5855970Y-8940038D02*
G01X6009386Y-8837676D01*
G01X5855970Y-8837676D02*
G01X6009386Y-8837676D01*
G54D11*
G01X7548737Y-9802717D02*
G01X7551785Y-9809067D01*
G01X7558135Y-9815163D01*
G01X7564231Y-9818211D01*
G01X7576677Y-9818211D01*
G01X7582773Y-9815163D01*
G01X7589123Y-9809067D01*
G01X7592171Y-9802717D01*
G01X7595219Y-9793573D01*
G01X7595219Y-9778079D01*
G01X7592171Y-9768681D01*
G01X7589123Y-9762585D01*
G01X7582773Y-9756235D01*
G01X7576677Y-9753187D01*
G01X7564231Y-9753187D01*
G01X7558135Y-9756235D01*
G01X7551785Y-9762585D01*
G01X7548737Y-9768681D01*
G01X7481427Y-9818211D02*
G01X7512415Y-9818211D01*
G01X7515463Y-9790525D01*
G01X7512415Y-9793573D01*
G01X7503271Y-9796621D01*
G01X7493873Y-9796621D01*
G01X7484475Y-9793573D01*
G01X7478379Y-9787223D01*
G01X7475331Y-9778079D01*
G01X7475331Y-9771729D01*
G01X7478379Y-9762585D01*
G01X7484475Y-9756235D01*
G01X7493873Y-9753187D01*
G01X7503271Y-9753187D01*
G01X7512415Y-9756235D01*
G01X7515463Y-9759537D01*
G01X7518511Y-9765633D01*
G01X6576078Y-9181020D02*
G01X6579126Y-9187370D01*
G01X6585476Y-9193466D01*
G01X6591572Y-9196514D01*
G01X6604018Y-9196514D01*
G01X6610114Y-9193466D01*
G01X6616464Y-9187370D01*
G01X6619512Y-9181020D01*
G01X6622560Y-9171876D01*
G01X6622560Y-9156382D01*
G01X6619512Y-9146984D01*
G01X6616464Y-9140888D01*
G01X6610114Y-9134538D01*
G01X6604018Y-9131490D01*
G01X6591572Y-9131490D01*
G01X6585476Y-9134538D01*
G01X6579126Y-9140888D01*
G01X6576078Y-9146984D01*
G01X6502672Y-9196514D02*
G01X6533660Y-9131490D01*
G01X6545852Y-9196514D02*
G01X6502672Y-9196514D01*
G01X6209221Y-10594322D02*
G01X6215571Y-10591274D01*
G01X6221667Y-10584924D01*
G01X6224715Y-10578828D01*
G01X6224715Y-10566382D01*
G01X6221667Y-10560286D01*
G01X6215571Y-10553936D01*
G01X6209221Y-10550888D01*
G01X6200077Y-10547840D01*
G01X6184583Y-10547840D01*
G01X6175185Y-10550888D01*
G01X6169089Y-10553936D01*
G01X6162739Y-10560286D01*
G01X6159691Y-10566382D01*
G01X6159691Y-10578828D01*
G01X6162739Y-10584924D01*
G01X6169089Y-10591274D01*
G01X6175185Y-10594322D01*
G01X6212269Y-10624548D02*
G01X6215571Y-10630644D01*
G01X6224715Y-10639788D01*
G01X6159691Y-10639788D01*
G01X6212269Y-10670014D02*
G01X6215571Y-10676110D01*
G01X6224715Y-10685254D01*
G01X6159691Y-10685254D01*
G01X6180028Y-11195590D02*
G01X6173678Y-11198638D01*
G01X6167582Y-11204988D01*
G01X6164534Y-11211084D01*
G01X6164534Y-11223530D01*
G01X6167582Y-11229626D01*
G01X6173678Y-11235976D01*
G01X6180028Y-11239024D01*
G01X6189172Y-11242072D01*
G01X6204666Y-11242072D01*
G01X6214064Y-11239024D01*
G01X6220160Y-11235976D01*
G01X6226510Y-11229626D01*
G01X6229558Y-11223530D01*
G01X6229558Y-11211084D01*
G01X6226510Y-11204988D01*
G01X6220160Y-11198638D01*
G01X6214064Y-11195590D01*
G01X6176980Y-11165364D02*
G01X6173678Y-11159268D01*
G01X6164534Y-11150124D01*
G01X6229558Y-11150124D01*
G01X6186124Y-11079766D02*
G01X6195522Y-11082814D01*
G01X6201618Y-11089164D01*
G01X6204666Y-11098308D01*
G01X6204666Y-11101356D01*
G01X6201618Y-11110754D01*
G01X6195522Y-11116850D01*
G01X6186124Y-11119898D01*
G01X6183076Y-11119898D01*
G01X6173678Y-11116850D01*
G01X6167582Y-11110754D01*
G01X6164534Y-11101356D01*
G01X6164534Y-11098308D01*
G01X6167582Y-11089164D01*
G01X6173678Y-11082814D01*
G01X6186124Y-11079766D01*
G01X6201618Y-11079766D01*
G01X6217112Y-11082814D01*
G01X6226510Y-11089164D01*
G01X6229558Y-11098308D01*
G01X6229558Y-11104658D01*
G01X6226510Y-11113802D01*
G01X6220160Y-11116850D01*
G01X9225844Y-5714091D02*
G01X9228892Y-5720441D01*
G01X9235242Y-5726537D01*
G01X9241338Y-5729585D01*
G01X9253784Y-5729585D01*
G01X9259880Y-5726537D01*
G01X9266230Y-5720441D01*
G01X9269278Y-5714091D01*
G01X9272326Y-5704947D01*
G01X9272326Y-5689453D01*
G01X9269278Y-5680055D01*
G01X9266230Y-5673959D01*
G01X9259880Y-5667609D01*
G01X9253784Y-5664561D01*
G01X9241338Y-5664561D01*
G01X9235242Y-5667609D01*
G01X9228892Y-5673959D01*
G01X9225844Y-5680055D01*
G01X9195618Y-5729585D02*
G01X9195618Y-5664561D01*
G01X9195618Y-5729585D02*
G01X9152438Y-5664561D01*
G01X9152438Y-5729585D02*
G01X9152438Y-5664561D01*
G01X9122212Y-5717139D02*
G01X9116116Y-5720441D01*
G01X9106972Y-5729585D01*
G01X9106972Y-5664561D01*
G01X11854434Y-6654419D02*
G01X11789410Y-6654419D01*
G01X11854434Y-6697853D02*
G01X11789410Y-6697853D01*
G01X11823446Y-6654419D02*
G01X11823446Y-6697853D01*
G01X11838940Y-6731127D02*
G01X11841988Y-6731127D01*
G01X11848338Y-6734175D01*
G01X11851386Y-6737223D01*
G01X11854434Y-6743319D01*
G01X11854434Y-6755765D01*
G01X11851386Y-6762115D01*
G01X11848338Y-6765163D01*
G01X11841988Y-6768211D01*
G01X11835892Y-6768211D01*
G01X11829796Y-6765163D01*
G01X11820398Y-6758813D01*
G01X11789410Y-6728079D01*
G01X11789410Y-6771259D01*
G01X5951220Y-9557766D02*
G01X5951220Y-9622790D01*
G01X5994654Y-9557766D02*
G01X5994654Y-9622790D01*
G01X5951220Y-9588754D02*
G01X5994654Y-9588754D01*
G01X6030976Y-9557766D02*
G01X6065012Y-9557766D01*
G01X6046470Y-9582404D01*
G01X6055614Y-9582404D01*
G01X6061964Y-9585452D01*
G01X6065012Y-9588754D01*
G01X6068060Y-9597898D01*
G01X6068060Y-9604248D01*
G01X6065012Y-9613392D01*
G01X6058916Y-9619742D01*
G01X6049518Y-9622790D01*
G01X6040120Y-9622790D01*
G01X6030976Y-9619742D01*
G01X6027928Y-9616440D01*
G01X6024880Y-9610344D01*
G01X13065167Y-6654419D02*
G01X13000143Y-6654419D01*
G01X13065167Y-6697853D02*
G01X13000143Y-6697853D01*
G01X13034179Y-6654419D02*
G01X13034179Y-6697853D01*
G01X13065167Y-6758813D02*
G01X13021987Y-6728079D01*
G01X13021987Y-6774307D01*
G01X13065167Y-6758813D02*
G01X13000143Y-6758813D01*
G01X14275901Y-6654419D02*
G01X14210877Y-6654419D01*
G01X14275901Y-6697853D02*
G01X14210877Y-6697853D01*
G01X14244913Y-6654419D02*
G01X14244913Y-6697853D01*
G01X14275901Y-6765163D02*
G01X14275901Y-6734175D01*
G01X14248215Y-6731127D01*
G01X14251263Y-6734175D01*
G01X14254311Y-6743319D01*
G01X14254311Y-6752717D01*
G01X14251263Y-6762115D01*
G01X14244913Y-6768211D01*
G01X14235769Y-6771259D01*
G01X14229419Y-6771259D01*
G01X14220275Y-6768211D01*
G01X14213925Y-6762115D01*
G01X14210877Y-6752717D01*
G01X14210877Y-6743319D01*
G01X14213925Y-6734175D01*
G01X14217227Y-6731127D01*
G01X14223323Y-6728079D01*
G01X15486634Y-6654419D02*
G01X15421610Y-6654419D01*
G01X15486634Y-6697853D02*
G01X15421610Y-6697853D01*
G01X15455646Y-6654419D02*
G01X15455646Y-6697853D01*
G01X15477490Y-6765163D02*
G01X15483586Y-6762115D01*
G01X15486634Y-6752717D01*
G01X15486634Y-6746621D01*
G01X15483586Y-6737223D01*
G01X15474188Y-6731127D01*
G01X15458948Y-6728079D01*
G01X15443454Y-6728079D01*
G01X15431008Y-6731127D01*
G01X15424658Y-6737223D01*
G01X15421610Y-6746621D01*
G01X15421610Y-6749669D01*
G01X15424658Y-6758813D01*
G01X15431008Y-6765163D01*
G01X15440152Y-6768211D01*
G01X15443454Y-6768211D01*
G01X15452598Y-6765163D01*
G01X15458948Y-6758813D01*
G01X15461996Y-6749669D01*
G01X15461996Y-6746621D01*
G01X15458948Y-6737223D01*
G01X15452598Y-6731127D01*
G01X15443454Y-6728079D01*
G01X7758031Y-11206179D02*
G01X7758031Y-11141155D01*
G01X7758031Y-11141155D02*
G01X7720947Y-11141155D01*
G01X7687673Y-11190685D02*
G01X7687673Y-11193733D01*
G01X7684625Y-11200083D01*
G01X7681577Y-11203131D01*
G01X7675481Y-11206179D01*
G01X7663035Y-11206179D01*
G01X7656685Y-11203131D01*
G01X7653637Y-11200083D01*
G01X7650589Y-11193733D01*
G01X7650589Y-11187637D01*
G01X7653637Y-11181541D01*
G01X7659987Y-11172143D01*
G01X7690721Y-11141155D01*
G01X7647541Y-11141155D01*
G01X7374698Y-8478939D02*
G01X7374698Y-8543963D01*
G01X7374698Y-8543963D02*
G01X7411782Y-8543963D01*
G01X7442008Y-8478939D02*
G01X7442008Y-8543963D01*
G01X7442008Y-8478939D02*
G01X7482140Y-8478939D01*
G01X7442008Y-8509927D02*
G01X7466646Y-8509927D01*
G01X7442008Y-8543963D02*
G01X7482140Y-8543963D01*
G01X7512366Y-8478939D02*
G01X7512366Y-8543963D01*
G01X7512366Y-8478939D02*
G01X7533956Y-8478939D01*
G01X7543100Y-8481987D01*
G01X7549450Y-8488083D01*
G01X7552498Y-8494433D01*
G01X7555546Y-8503577D01*
G01X7555546Y-8519071D01*
G01X7552498Y-8528469D01*
G01X7549450Y-8534565D01*
G01X7543100Y-8540915D01*
G01X7533956Y-8543963D01*
G01X7512366Y-8543963D01*
G01X7591868Y-8478939D02*
G01X7625904Y-8478939D01*
G01X7607362Y-8503577D01*
G01X7616506Y-8503577D01*
G01X7622856Y-8506625D01*
G01X7625904Y-8509927D01*
G01X7628952Y-8519071D01*
G01X7628952Y-8525421D01*
G01X7625904Y-8534565D01*
G01X7619808Y-8540915D01*
G01X7610410Y-8543963D01*
G01X7601012Y-8543963D01*
G01X7591868Y-8540915D01*
G01X7588820Y-8537613D01*
G01X7585772Y-8531517D01*
G01X7792784Y-10342258D02*
G01X7857808Y-10342258D01*
G01X7792784Y-10342258D02*
G01X7792784Y-10314318D01*
G01X7795832Y-10305174D01*
G01X7798880Y-10302126D01*
G01X7805230Y-10298824D01*
G01X7811326Y-10298824D01*
G01X7817422Y-10302126D01*
G01X7820470Y-10305174D01*
G01X7823772Y-10314318D01*
G01X7823772Y-10342258D01*
G01X7823772Y-10320668D02*
G01X7857808Y-10298824D01*
G01X7805230Y-10268598D02*
G01X7801928Y-10262502D01*
G01X7792784Y-10253358D01*
G01X7857808Y-10253358D01*
G01X7801928Y-10186048D02*
G01X7795832Y-10189096D01*
G01X7792784Y-10198494D01*
G01X7792784Y-10204590D01*
G01X7795832Y-10213988D01*
G01X7805230Y-10220084D01*
G01X7820470Y-10223132D01*
G01X7835964Y-10223132D01*
G01X7848410Y-10220084D01*
G01X7854760Y-10213988D01*
G01X7857808Y-10204590D01*
G01X7857808Y-10201542D01*
G01X7854760Y-10192398D01*
G01X7848410Y-10186048D01*
G01X7839266Y-10183000D01*
G01X7835964Y-10183000D01*
G01X7826820Y-10186048D01*
G01X7820470Y-10192398D01*
G01X7817422Y-10201542D01*
G01X7817422Y-10204590D01*
G01X7820470Y-10213988D01*
G01X7826820Y-10220084D01*
G01X7835964Y-10223132D01*
G01X6589613Y-9578863D02*
G01X6589613Y-9513839D01*
G01X6589613Y-9578863D02*
G01X6561673Y-9578863D01*
G01X6552529Y-9575815D01*
G01X6549481Y-9572767D01*
G01X6546179Y-9566417D01*
G01X6546179Y-9560321D01*
G01X6549481Y-9554225D01*
G01X6552529Y-9551177D01*
G01X6561673Y-9547875D01*
G01X6589613Y-9547875D01*
G01X6568023Y-9547875D02*
G01X6546179Y-9513839D01*
G01X6512905Y-9563369D02*
G01X6512905Y-9566417D01*
G01X6509857Y-9572767D01*
G01X6506809Y-9575815D01*
G01X6500713Y-9578863D01*
G01X6488267Y-9578863D01*
G01X6481917Y-9575815D01*
G01X6478869Y-9572767D01*
G01X6475821Y-9566417D01*
G01X6475821Y-9560321D01*
G01X6478869Y-9554225D01*
G01X6485219Y-9544827D01*
G01X6515953Y-9513839D01*
G01X6472773Y-9513839D01*
G01X6424005Y-9578863D02*
G01X6433403Y-9575815D01*
G01X6439499Y-9566417D01*
G01X6442547Y-9551177D01*
G01X6442547Y-9541779D01*
G01X6439499Y-9526285D01*
G01X6433403Y-9516887D01*
G01X6424005Y-9513839D01*
G01X6417909Y-9513839D01*
G01X6408511Y-9516887D01*
G01X6402415Y-9526285D01*
G01X6399367Y-9541779D01*
G01X6399367Y-9551177D01*
G01X6402415Y-9566417D01*
G01X6408511Y-9575815D01*
G01X6417909Y-9578863D01*
G01X6424005Y-9578863D01*
G01X8105663Y-8929787D02*
G01X8040639Y-8929787D01*
G01X8105663Y-8929787D02*
G01X8105663Y-8957727D01*
G01X8102615Y-8966871D01*
G01X8099567Y-8969919D01*
G01X8093217Y-8973221D01*
G01X8087121Y-8973221D01*
G01X8081025Y-8969919D01*
G01X8077977Y-8966871D01*
G01X8074675Y-8957727D01*
G01X8074675Y-8929787D01*
G01X8074675Y-8951377D02*
G01X8040639Y-8973221D01*
G01X8105663Y-9009543D02*
G01X8105663Y-9043579D01*
G01X8081025Y-9025037D01*
G01X8081025Y-9034181D01*
G01X8077977Y-9040531D01*
G01X8074675Y-9043579D01*
G01X8065531Y-9046627D01*
G01X8059181Y-9046627D01*
G01X8050037Y-9043579D01*
G01X8043687Y-9037483D01*
G01X8040639Y-9028085D01*
G01X8040639Y-9018687D01*
G01X8043687Y-9009543D01*
G01X8046989Y-9006495D01*
G01X8053085Y-9003447D01*
G01X8105663Y-9082949D02*
G01X8105663Y-9116985D01*
G01X8081025Y-9098443D01*
G01X8081025Y-9107587D01*
G01X8077977Y-9113937D01*
G01X8074675Y-9116985D01*
G01X8065531Y-9120033D01*
G01X8059181Y-9120033D01*
G01X8050037Y-9116985D01*
G01X8043687Y-9110889D01*
G01X8040639Y-9101491D01*
G01X8040639Y-9092093D01*
G01X8043687Y-9082949D01*
G01X8046989Y-9079901D01*
G01X8053085Y-9076853D01*
G01X6487834Y-8728586D02*
G01X6552858Y-8728586D01*
G01X6487834Y-8728586D02*
G01X6487834Y-8700646D01*
G01X6490882Y-8691502D01*
G01X6493930Y-8688454D01*
G01X6500280Y-8685152D01*
G01X6506376Y-8685152D01*
G01X6512472Y-8688454D01*
G01X6515520Y-8691502D01*
G01X6518822Y-8700646D01*
G01X6518822Y-8728586D01*
G01X6518822Y-8706996D02*
G01X6552858Y-8685152D01*
G01X6487834Y-8648830D02*
G01X6487834Y-8614794D01*
G01X6512472Y-8633336D01*
G01X6512472Y-8624192D01*
G01X6515520Y-8617842D01*
G01X6518822Y-8614794D01*
G01X6527966Y-8611746D01*
G01X6534316Y-8611746D01*
G01X6543460Y-8614794D01*
G01X6549810Y-8620890D01*
G01X6552858Y-8630288D01*
G01X6552858Y-8639686D01*
G01X6549810Y-8648830D01*
G01X6546508Y-8651878D01*
G01X6540412Y-8654926D01*
G01X6487834Y-8550786D02*
G01X6531014Y-8581520D01*
G01X6531014Y-8535292D01*
G01X6487834Y-8550786D02*
G01X6552858Y-8550786D01*
G01X9120287Y-8810737D02*
G01X9120287Y-8875761D01*
G01X9120287Y-8810737D02*
G01X9148227Y-8810737D01*
G01X9157371Y-8813785D01*
G01X9160419Y-8816833D01*
G01X9163721Y-8823183D01*
G01X9163721Y-8829279D01*
G01X9160419Y-8835375D01*
G01X9157371Y-8838423D01*
G01X9148227Y-8841725D01*
G01X9120287Y-8841725D01*
G01X9141877Y-8841725D02*
G01X9163721Y-8875761D01*
G01X9224681Y-8810737D02*
G01X9193947Y-8853917D01*
G01X9240175Y-8853917D01*
G01X9224681Y-8810737D02*
G01X9224681Y-8875761D01*
G01X9307485Y-8819881D02*
G01X9304437Y-8813785D01*
G01X9295039Y-8810737D01*
G01X9288943Y-8810737D01*
G01X9279545Y-8813785D01*
G01X9273449Y-8823183D01*
G01X9270401Y-8838423D01*
G01X9270401Y-8853917D01*
G01X9273449Y-8866363D01*
G01X9279545Y-8872713D01*
G01X9288943Y-8875761D01*
G01X9291991Y-8875761D01*
G01X9301135Y-8872713D01*
G01X9307485Y-8866363D01*
G01X9310533Y-8857219D01*
G01X9310533Y-8853917D01*
G01X9307485Y-8844773D01*
G01X9301135Y-8838423D01*
G01X9291991Y-8835375D01*
G01X9288943Y-8835375D01*
G01X9279545Y-8838423D01*
G01X9273449Y-8844773D01*
G01X9270401Y-8853917D01*
G01X9132987Y-9217137D02*
G01X9132987Y-9282161D01*
G01X9132987Y-9217137D02*
G01X9160927Y-9217137D01*
G01X9170071Y-9220185D01*
G01X9173119Y-9223233D01*
G01X9176421Y-9229583D01*
G01X9176421Y-9235679D01*
G01X9173119Y-9241775D01*
G01X9170071Y-9244823D01*
G01X9160927Y-9248125D01*
G01X9132987Y-9248125D01*
G01X9154577Y-9248125D02*
G01X9176421Y-9282161D01*
G01X9237381Y-9217137D02*
G01X9206647Y-9260317D01*
G01X9252875Y-9260317D01*
G01X9237381Y-9217137D02*
G01X9237381Y-9282161D01*
G01X9326281Y-9217137D02*
G01X9295293Y-9282161D01*
G01X9283101Y-9217137D02*
G01X9326281Y-9217137D01*
G01X7202904Y-10368063D02*
G01X7249386Y-10368063D01*
G01X7258530Y-10365015D01*
G01X7264880Y-10358665D01*
G01X7267928Y-10349521D01*
G01X7267928Y-10343171D01*
G01X7264880Y-10334027D01*
G01X7258530Y-10327931D01*
G01X7249386Y-10324629D01*
G01X7202904Y-10324629D01*
G01X7215350Y-10294403D02*
G01X7212048Y-10288307D01*
G01X7202904Y-10279163D01*
G01X7267928Y-10279163D01*
G01X7202904Y-10242841D02*
G01X7202904Y-10208805D01*
G01X7227542Y-10227347D01*
G01X7227542Y-10218203D01*
G01X7230590Y-10211853D01*
G01X7233892Y-10208805D01*
G01X7243036Y-10205757D01*
G01X7249386Y-10205757D01*
G01X7258530Y-10208805D01*
G01X7264880Y-10214901D01*
G01X7267928Y-10224299D01*
G01X7267928Y-10233697D01*
G01X7264880Y-10242841D01*
G01X7261578Y-10245889D01*
G01X7255482Y-10248937D01*
G01X10330180Y-11448034D02*
G01X10330180Y-11401552D01*
G01X10327132Y-11392408D01*
G01X10320782Y-11386058D01*
G01X10311638Y-11383010D01*
G01X10305288Y-11383010D01*
G01X10296144Y-11386058D01*
G01X10290048Y-11392408D01*
G01X10286746Y-11401552D01*
G01X10286746Y-11448034D01*
G01X10256520Y-11435588D02*
G01X10250424Y-11438890D01*
G01X10241280Y-11448034D01*
G01X10241280Y-11383010D01*
G01X10173970Y-11438890D02*
G01X10177018Y-11444986D01*
G01X10186416Y-11448034D01*
G01X10192512Y-11448034D01*
G01X10201910Y-11444986D01*
G01X10208006Y-11435588D01*
G01X10211054Y-11420348D01*
G01X10211054Y-11404854D01*
G01X10208006Y-11392408D01*
G01X10201910Y-11386058D01*
G01X10192512Y-11383010D01*
G01X10189464Y-11383010D01*
G01X10180320Y-11386058D01*
G01X10173970Y-11392408D01*
G01X10170922Y-11401552D01*
G01X10170922Y-11404854D01*
G01X10173970Y-11413998D01*
G01X10180320Y-11420348D01*
G01X10189464Y-11423396D01*
G01X10192512Y-11423396D01*
G01X10201910Y-11420348D01*
G01X10208006Y-11413998D01*
G01X10211054Y-11404854D01*
G01X15109394Y-10572130D02*
G01X15062912Y-10572130D01*
G01X15053768Y-10575178D01*
G01X15047418Y-10581528D01*
G01X15044370Y-10590672D01*
G01X15044370Y-10597022D01*
G01X15047418Y-10606166D01*
G01X15053768Y-10612262D01*
G01X15062912Y-10615564D01*
G01X15109394Y-10615564D01*
G01X15096948Y-10645790D02*
G01X15100250Y-10651886D01*
G01X15109394Y-10661030D01*
G01X15044370Y-10661030D01*
G01X15109394Y-10706496D02*
G01X15106346Y-10697352D01*
G01X15100250Y-10694304D01*
G01X15093900Y-10694304D01*
G01X15087804Y-10697352D01*
G01X15084756Y-10703448D01*
G01X15081708Y-10715894D01*
G01X15078406Y-10725292D01*
G01X15072310Y-10731388D01*
G01X15066214Y-10734436D01*
G01X15056816Y-10734436D01*
G01X15050720Y-10731388D01*
G01X15047418Y-10728340D01*
G01X15044370Y-10718942D01*
G01X15044370Y-10706496D01*
G01X15047418Y-10697352D01*
G01X15050720Y-10694304D01*
G01X15056816Y-10691256D01*
G01X15066214Y-10691256D01*
G01X15072310Y-10694304D01*
G01X15078406Y-10700400D01*
G01X15081708Y-10709798D01*
G01X15084756Y-10721990D01*
G01X15087804Y-10728340D01*
G01X15093900Y-10731388D01*
G01X15100250Y-10731388D01*
G01X15106346Y-10728340D01*
G01X15109394Y-10718942D01*
G01X15109394Y-10706496D01*
G01X12659384Y-10673218D02*
G01X12612902Y-10673218D01*
G01X12603758Y-10676266D01*
G01X12597408Y-10682616D01*
G01X12594360Y-10691760D01*
G01X12594360Y-10698110D01*
G01X12597408Y-10707254D01*
G01X12603758Y-10713350D01*
G01X12612902Y-10716652D01*
G01X12659384Y-10716652D01*
G01X12646938Y-10746878D02*
G01X12650240Y-10752974D01*
G01X12659384Y-10762118D01*
G01X12594360Y-10762118D01*
G01X12637794Y-10832476D02*
G01X12628396Y-10829428D01*
G01X12622300Y-10823078D01*
G01X12619252Y-10813934D01*
G01X12619252Y-10810886D01*
G01X12622300Y-10801488D01*
G01X12628396Y-10795392D01*
G01X12637794Y-10792344D01*
G01X12640842Y-10792344D01*
G01X12650240Y-10795392D01*
G01X12656336Y-10801488D01*
G01X12659384Y-10810886D01*
G01X12659384Y-10813934D01*
G01X12656336Y-10823078D01*
G01X12650240Y-10829428D01*
G01X12637794Y-10832476D01*
G01X12622300Y-10832476D01*
G01X12606806Y-10829428D01*
G01X12597408Y-10823078D01*
G01X12594360Y-10813934D01*
G01X12594360Y-10807584D01*
G01X12597408Y-10798440D01*
G01X12603758Y-10795392D01*
G01X10704111Y-10921525D02*
G01X10704111Y-10968007D01*
G01X10707159Y-10977151D01*
G01X10713509Y-10983501D01*
G01X10722653Y-10986549D01*
G01X10729003Y-10986549D01*
G01X10738147Y-10983501D01*
G01X10744243Y-10977151D01*
G01X10747545Y-10968007D01*
G01X10747545Y-10921525D01*
G01X10793011Y-10921525D02*
G01X10783867Y-10924573D01*
G01X10780819Y-10930669D01*
G01X10780819Y-10937019D01*
G01X10783867Y-10943115D01*
G01X10789963Y-10946163D01*
G01X10802409Y-10949211D01*
G01X10811807Y-10952513D01*
G01X10817903Y-10958609D01*
G01X10820951Y-10964705D01*
G01X10820951Y-10974103D01*
G01X10817903Y-10980199D01*
G01X10814855Y-10983501D01*
G01X10805457Y-10986549D01*
G01X10793011Y-10986549D01*
G01X10783867Y-10983501D01*
G01X10780819Y-10980199D01*
G01X10777771Y-10974103D01*
G01X10777771Y-10964705D01*
G01X10780819Y-10958609D01*
G01X10786915Y-10952513D01*
G01X10796313Y-10949211D01*
G01X10808505Y-10946163D01*
G01X10814855Y-10943115D01*
G01X10817903Y-10937019D01*
G01X10817903Y-10930669D01*
G01X10814855Y-10924573D01*
G01X10805457Y-10921525D01*
G01X10793011Y-10921525D01*
G01X7794737Y-9917013D02*
G01X7859761Y-9917013D01*
G01X7794737Y-9917013D02*
G01X7794737Y-9889073D01*
G01X7797785Y-9879929D01*
G01X7800833Y-9876881D01*
G01X7807183Y-9873579D01*
G01X7813279Y-9873579D01*
G01X7819375Y-9876881D01*
G01X7822423Y-9879929D01*
G01X7825725Y-9889073D01*
G01X7825725Y-9917013D01*
G01X7825725Y-9895423D02*
G01X7859761Y-9873579D01*
G01X7794737Y-9812619D02*
G01X7837917Y-9843353D01*
G01X7837917Y-9797125D01*
G01X7794737Y-9812619D02*
G01X7859761Y-9812619D01*
G01X7794737Y-9751659D02*
G01X7797785Y-9760803D01*
G01X7803881Y-9763851D01*
G01X7810231Y-9763851D01*
G01X7816327Y-9760803D01*
G01X7819375Y-9754707D01*
G01X7822423Y-9742261D01*
G01X7825725Y-9732863D01*
G01X7831821Y-9726767D01*
G01X7837917Y-9723719D01*
G01X7847315Y-9723719D01*
G01X7853411Y-9726767D01*
G01X7856713Y-9729815D01*
G01X7859761Y-9739213D01*
G01X7859761Y-9751659D01*
G01X7856713Y-9760803D01*
G01X7853411Y-9763851D01*
G01X7847315Y-9766899D01*
G01X7837917Y-9766899D01*
G01X7831821Y-9763851D01*
G01X7825725Y-9757755D01*
G01X7822423Y-9748357D01*
G01X7819375Y-9736165D01*
G01X7816327Y-9729815D01*
G01X7810231Y-9726767D01*
G01X7803881Y-9726767D01*
G01X7797785Y-9729815D01*
G01X7794737Y-9739213D01*
G01X7794737Y-9751659D01*
G01X14220937Y-10247213D02*
G01X14285961Y-10247213D01*
G01X14220937Y-10247213D02*
G01X14220937Y-10219273D01*
G01X14223985Y-10210129D01*
G01X14227033Y-10207081D01*
G01X14233383Y-10203779D01*
G01X14239479Y-10203779D01*
G01X14245575Y-10207081D01*
G01X14248623Y-10210129D01*
G01X14251925Y-10219273D01*
G01X14251925Y-10247213D01*
G01X14251925Y-10225623D02*
G01X14285961Y-10203779D01*
G01X14220937Y-10142819D02*
G01X14264117Y-10173553D01*
G01X14264117Y-10127325D01*
G01X14220937Y-10142819D02*
G01X14285961Y-10142819D01*
G01X14242527Y-10056967D02*
G01X14251925Y-10060015D01*
G01X14258021Y-10066365D01*
G01X14261069Y-10075509D01*
G01X14261069Y-10078557D01*
G01X14258021Y-10087955D01*
G01X14251925Y-10094051D01*
G01X14242527Y-10097099D01*
G01X14239479Y-10097099D01*
G01X14230081Y-10094051D01*
G01X14223985Y-10087955D01*
G01X14220937Y-10078557D01*
G01X14220937Y-10075509D01*
G01X14223985Y-10066365D01*
G01X14230081Y-10060015D01*
G01X14242527Y-10056967D01*
G01X14258021Y-10056967D01*
G01X14273515Y-10060015D01*
G01X14282913Y-10066365D01*
G01X14285961Y-10075509D01*
G01X14285961Y-10081859D01*
G01X14282913Y-10091003D01*
G01X14276563Y-10094051D01*
G01X6004306Y-7292340D02*
G01X6069330Y-7292340D01*
G01X6004306Y-7248906D02*
G01X6069330Y-7248906D01*
G01X6035294Y-7292340D02*
G01X6035294Y-7248906D01*
G01X6004306Y-7175500D02*
G01X6069330Y-7206488D01*
G01X6004306Y-7218680D02*
G01X6004306Y-7175500D01*
G01X7055866Y-6977380D02*
G01X7120890Y-6977380D01*
G01X7055866Y-6933946D02*
G01X7120890Y-6933946D01*
G01X7086854Y-6977380D02*
G01X7086854Y-6933946D01*
G01X7055866Y-6888480D02*
G01X7058914Y-6897624D01*
G01X7065010Y-6900672D01*
G01X7071360Y-6900672D01*
G01X7077456Y-6897624D01*
G01X7080504Y-6891528D01*
G01X7083552Y-6879082D01*
G01X7086854Y-6869684D01*
G01X7092950Y-6863588D01*
G01X7099046Y-6860540D01*
G01X7108444Y-6860540D01*
G01X7114540Y-6863588D01*
G01X7117842Y-6866636D01*
G01X7120890Y-6876034D01*
G01X7120890Y-6888480D01*
G01X7117842Y-6897624D01*
G01X7114540Y-6900672D01*
G01X7108444Y-6903720D01*
G01X7099046Y-6903720D01*
G01X7092950Y-6900672D01*
G01X7086854Y-6894576D01*
G01X7083552Y-6885178D01*
G01X7080504Y-6872986D01*
G01X7077456Y-6866636D01*
G01X7071360Y-6863588D01*
G01X7065010Y-6863588D01*
G01X7058914Y-6866636D01*
G01X7055866Y-6876034D01*
G01X7055866Y-6888480D01*
G01X15178105Y-11149411D02*
G01X15171755Y-11152459D01*
G01X15165659Y-11158809D01*
G01X15162611Y-11164905D01*
G01X15162611Y-11177351D01*
G01X15165659Y-11183447D01*
G01X15171755Y-11189797D01*
G01X15178105Y-11192845D01*
G01X15187249Y-11195893D01*
G01X15202743Y-11195893D01*
G01X15212141Y-11192845D01*
G01X15218237Y-11189797D01*
G01X15224587Y-11183447D01*
G01X15227635Y-11177351D01*
G01X15227635Y-11164905D01*
G01X15224587Y-11158809D01*
G01X15218237Y-11152459D01*
G01X15212141Y-11149411D01*
G01X15178105Y-11116137D02*
G01X15175057Y-11116137D01*
G01X15168707Y-11113089D01*
G01X15165659Y-11110041D01*
G01X15162611Y-11103945D01*
G01X15162611Y-11091499D01*
G01X15165659Y-11085149D01*
G01X15168707Y-11082101D01*
G01X15175057Y-11079053D01*
G01X15181153Y-11079053D01*
G01X15187249Y-11082101D01*
G01X15196647Y-11088451D01*
G01X15227635Y-11119185D01*
G01X15227635Y-11076005D01*
G01X15162611Y-11027237D02*
G01X15165659Y-11036635D01*
G01X15175057Y-11042731D01*
G01X15190297Y-11045779D01*
G01X15199695Y-11045779D01*
G01X15215189Y-11042731D01*
G01X15224587Y-11036635D01*
G01X15227635Y-11027237D01*
G01X15227635Y-11021141D01*
G01X15224587Y-11011743D01*
G01X15215189Y-11005647D01*
G01X15199695Y-11002599D01*
G01X15190297Y-11002599D01*
G01X15175057Y-11005647D01*
G01X15165659Y-11011743D01*
G01X15162611Y-11021141D01*
G01X15162611Y-11027237D01*
G01X10806621Y-10568922D02*
G01X10812971Y-10565874D01*
G01X10819067Y-10559524D01*
G01X10822115Y-10553428D01*
G01X10822115Y-10540982D01*
G01X10819067Y-10534886D01*
G01X10812971Y-10528536D01*
G01X10806621Y-10525488D01*
G01X10797477Y-10522440D01*
G01X10781983Y-10522440D01*
G01X10772585Y-10525488D01*
G01X10766489Y-10528536D01*
G01X10760139Y-10534886D01*
G01X10757091Y-10540982D01*
G01X10757091Y-10553428D01*
G01X10760139Y-10559524D01*
G01X10766489Y-10565874D01*
G01X10772585Y-10568922D01*
G01X10806621Y-10602196D02*
G01X10809669Y-10602196D01*
G01X10816019Y-10605244D01*
G01X10819067Y-10608292D01*
G01X10822115Y-10614388D01*
G01X10822115Y-10626834D01*
G01X10819067Y-10633184D01*
G01X10816019Y-10636232D01*
G01X10809669Y-10639280D01*
G01X10803573Y-10639280D01*
G01X10797477Y-10636232D01*
G01X10788079Y-10629882D01*
G01X10757091Y-10599148D01*
G01X10757091Y-10642328D01*
G01X10809669Y-10672554D02*
G01X10812971Y-10678650D01*
G01X10822115Y-10687794D01*
G01X10757091Y-10687794D01*
G04 Text End*

G04 PolygonModel Start*
G01X6825291Y-9292116D02*
G01X6823289Y-9028474D01*
G01X6823289Y-9028474D02*
G01X7358975Y-9028474D01*
G01X7358975Y-9028474D02*
G01X7498421Y-9167920D01*
G01X7498421Y-9167920D02*
G01X7497083Y-9297460D01*
G01X6823909Y-9436807D02*
G01X6823238Y-9703657D01*
G01X6823238Y-9703657D02*
G01X7358858Y-9703657D01*
G01X7358858Y-9703657D02*
G01X7498472Y-9564043D01*
G01X7498472Y-9564043D02*
G01X7498472Y-9434620D01*
G36*
G01X7441355Y-9280239D02*
G01X7441355Y-9148240D01*
G01X7421556Y-9148240D01*
G01X7421556Y-9280239D01*
G01X7441355Y-9280239D01*
G37*
G36*
G01X7471055Y-9224140D02*
G01X7471055Y-9204341D01*
G01X7391855Y-9204341D01*
G01X7391855Y-9224140D01*
G01X7471055Y-9224140D01*
G37*
G36*
G01X6850655Y-9224140D02*
G01X6850655Y-9204341D01*
G01X6929855Y-9204341D01*
G01X6929855Y-9224140D01*
G01X6850655Y-9224140D01*
G37*
G01X6245080Y-9081960D02*
G01X6386081Y-9081960D01*
G01X6386081Y-8901239D02*
G01X6245080Y-8901239D01*
G01X6229840Y-8916479D02*
G01X6229840Y-9066720D01*
G01X6607320Y-9081960D02*
G01X6466319Y-9081960D01*
G01X6466319Y-8901239D02*
G01X6607320Y-8901239D01*
G01X6622560Y-8916479D02*
G01X6622560Y-9066720D01*
G01X6245080Y-8901239D02*
G03X6229840Y-8916479I0J-15240D01*
G01X6229840Y-9066720D02*
G03X6245080Y-9081960I15240J0D01*
G01X6607320Y-8901239D02*
G02X6622560Y-8916479I0J-15240D01*
G01X6622560Y-9066720D02*
G02X6607320Y-9081960I-15240J0D01*
G01X6110161Y-10925320D02*
G01X6110161Y-10784319D01*
G01X5929440Y-10784319D02*
G01X5929440Y-10925320D01*
G01X5944680Y-10940560D02*
G01X6094921Y-10940560D01*
G01X6110161Y-10563080D02*
G01X6110161Y-10704081D01*
G01X5929440Y-10704081D02*
G01X5929440Y-10563080D01*
G01X5944680Y-10547840D02*
G01X6094921Y-10547840D01*
G01X5929440Y-10925320D02*
G03X5944680Y-10940560I15240J0D01*
G01X6094921Y-10940560D02*
G03X6110161Y-10925320I0J15240D01*
G01X5929440Y-10563080D02*
G02X5944680Y-10547840I15240J0D01*
G01X6094921Y-10547840D02*
G02X6110161Y-10563080I0J-15240D01*
G01X6690634Y-10472146D02*
G01X6954271Y-10470137D01*
G01X6954271Y-10470137D02*
G01X6954271Y-11005825D01*
G01X6954271Y-11005825D02*
G01X6814825Y-11145271D01*
G01X6814825Y-11145271D02*
G01X6685283Y-11143938D01*
G01X6545936Y-10470756D02*
G01X6279088Y-10470086D01*
G01X6279088Y-10470086D02*
G01X6279088Y-11005706D01*
G01X6279088Y-11005706D02*
G01X6418702Y-11145319D01*
G01X6418702Y-11145319D02*
G01X6548125Y-11145319D01*
G36*
G01X6758605Y-10497505D02*
G01X6778404Y-10497505D01*
G01X6778404Y-10576705D01*
G01X6758605Y-10576705D01*
G01X6758605Y-10497505D01*
G37*
G36*
G01X6758605Y-11117905D02*
G01X6778404Y-11117905D01*
G01X6778404Y-11038705D01*
G01X6758605Y-11038705D01*
G01X6758605Y-11117905D01*
G37*
G36*
G01X6702506Y-11088205D02*
G01X6834505Y-11088205D01*
G01X6834505Y-11068406D01*
G01X6702506Y-11068406D01*
G01X6702506Y-11088205D01*
G37*
G54D12*
G01X7881592Y-5482399D02*
G01X7779809Y-5482399D01*
G01X9009591Y-5482399D02*
G01X8857823Y-5482399D01*
G01X7632708Y-4816452D02*
G01X7632708Y-4577395D01*
G01X7632708Y-5309984D02*
G01X7632708Y-5058336D01*
G01X9144709Y-5055418D02*
G01X9144709Y-5306850D01*
G01X9144709Y-4577395D02*
G01X9144709Y-4819371D01*
G01X9144709Y-4577395D02*
G01X7644707Y-4577395D01*
G01X11734800Y-10215499D02*
G01X11480800Y-10215499D01*
G01X11734800Y-6659499D02*
G01X11734800Y-10215499D01*
G01X11480800Y-6659499D02*
G01X11480800Y-10215499D01*
G01X11734800Y-6659499D02*
G01X11480800Y-6659499D01*
G01X12945533Y-10215499D02*
G01X12691533Y-10215499D01*
G01X12945533Y-6659499D02*
G01X12945533Y-10215499D01*
G01X12691533Y-6659499D02*
G01X12691533Y-10215499D01*
G01X12945533Y-6659499D02*
G01X12691533Y-6659499D01*
G01X14156267Y-10215499D02*
G01X13902267Y-10215499D01*
G01X14156267Y-6659499D02*
G01X14156267Y-10215499D01*
G01X13902267Y-6659499D02*
G01X13902267Y-10215499D01*
G01X14156267Y-6659499D02*
G01X13902267Y-6659499D01*
G01X15367000Y-10215499D02*
G01X15113000Y-10215499D01*
G01X15367000Y-6659499D02*
G01X15367000Y-10215499D01*
G01X15113000Y-6659499D02*
G01X15113000Y-10215499D01*
G01X15367000Y-6659499D02*
G01X15113000Y-6659499D01*
G01X7195648Y-10566548D02*
G01X7735647Y-10566546D01*
G01X7735647Y-11086545D02*
G01X7195648Y-11086542D01*
G01X7735647Y-11086545D02*
G01X7735647Y-10974660D01*
G01X7735647Y-10678430D02*
G01X7735647Y-10566546D01*
G01X7195648Y-10566548D02*
G01X7195648Y-10678430D01*
G01X7195648Y-10974660D02*
G01X7195648Y-11086542D01*
G01X7639775Y-8599571D02*
G01X7787784Y-8598573D01*
G01X7653783Y-8788573D02*
G01X7787784Y-8788573D01*
G01X7787784Y-8598573D02*
G01X7787784Y-8788575D01*
G01X7414772Y-8789573D02*
G01X7414772Y-8789568D01*
G01X7414772Y-8789568D02*
G01X7379778Y-8754575D01*
G01X7414772Y-8599571D02*
G01X7414772Y-8599576D01*
G01X7414772Y-8599576D02*
G01X7379778Y-8634570D01*
G01X7539775Y-8599571D02*
G01X7414772Y-8599571D01*
G01X7539775Y-8789573D02*
G01X7414772Y-8789573D01*
G01X7379778Y-8634570D02*
G01X7379778Y-8754575D01*
G01X7619783Y-8644572D02*
G01X7619783Y-8744572D01*
G01X7619783Y-8695078D02*
G01X7569783Y-8695078D01*
G54D11*
G01X8090757Y-10118525D02*
G01X8090757Y-9990032D01*
G01X8090757Y-9990032D02*
G01X7907338Y-9990032D01*
G01X7907338Y-9990032D02*
G01X7907338Y-10118525D01*
G01X8090757Y-10213765D02*
G01X8090757Y-10342258D01*
G01X8090757Y-10342258D02*
G01X7907338Y-10342258D01*
G01X7907338Y-10342258D02*
G01X7907338Y-10213765D01*
G01X6365880Y-9280891D02*
G01X6237387Y-9280891D01*
G01X6237387Y-9280891D02*
G01X6237387Y-9464309D01*
G01X6237387Y-9464309D02*
G01X6365880Y-9464309D01*
G01X6461120Y-9280891D02*
G01X6589613Y-9280891D01*
G01X6589613Y-9280891D02*
G01X6589613Y-9464309D01*
G01X6589613Y-9464309D02*
G01X6461120Y-9464309D01*
G01X7807691Y-9153520D02*
G01X7807691Y-9282013D01*
G01X7807691Y-9282013D02*
G01X7991109Y-9282013D01*
G01X7991109Y-9282013D02*
G01X7991109Y-9153520D01*
G01X7807691Y-9058280D02*
G01X7807691Y-8929787D01*
G01X7807691Y-8929787D02*
G01X7991109Y-8929787D01*
G01X7991109Y-8929787D02*
G01X7991109Y-9058280D01*
G01X6918110Y-8219851D02*
G01X6918110Y-8076359D01*
G01X6918110Y-8076359D02*
G01X6602388Y-8076359D01*
G01X6602388Y-8076359D02*
G01X6602388Y-8219851D01*
G01X6918110Y-8585093D02*
G01X6918110Y-8728586D01*
G01X6918110Y-8728586D02*
G01X6602388Y-8728586D01*
G01X6602388Y-8728586D02*
G01X6602388Y-8585093D01*
G01X9344020Y-9108709D02*
G01X9472513Y-9108709D01*
G01X9472513Y-9108709D02*
G01X9472513Y-8925291D01*
G01X9472513Y-8925291D02*
G01X9344020Y-8925291D01*
G01X9248780Y-9108709D02*
G01X9120287Y-9108709D01*
G01X9120287Y-9108709D02*
G01X9120287Y-8925291D01*
G01X9120287Y-8925291D02*
G01X9248780Y-8925291D01*
G01X9356720Y-9515109D02*
G01X9485213Y-9515109D01*
G01X9485213Y-9515109D02*
G01X9485213Y-9331691D01*
G01X9485213Y-9331691D02*
G01X9356720Y-9331691D01*
G01X9261480Y-9515109D02*
G01X9132987Y-9515109D01*
G01X9132987Y-9515109D02*
G01X9132987Y-9331691D01*
G01X9132987Y-9331691D02*
G01X9261480Y-9331691D01*
G01X7567268Y-10024926D02*
G01X7389427Y-10024926D01*
G01X7567268Y-10332764D02*
G01X7389427Y-10332764D01*
G54D12*
G01X14808200Y-11366500D02*
G01X14427200Y-11366500D01*
G01X14442440Y-10584180D02*
G01X14427200Y-10584180D01*
G01X14427200Y-10584180D02*
G01X14427200Y-11366500D01*
G01X14792960Y-10584180D02*
G01X14808200Y-10584180D01*
G01X14808200Y-10584180D02*
G01X14808200Y-11366500D01*
G01X14665960Y-10584180D02*
G01X14792960Y-10584180D01*
G01X14442440Y-10584180D02*
G01X14569440Y-10584180D01*
G01X14663420Y-10584180D02*
G02X14569440Y-10584180I-46990J0D01*
G36*
G01X14503400Y-10619900D02*
G02X14503400Y-10690700I0J-35400D01*
G02X14503400Y-10619900I0J35400D01*
G37*
G54D11*
G01X12002173Y-10727880D02*
G01X12356452Y-10727880D01*
G01X12356452Y-10727880D02*
G01X12356452Y-11243119D01*
G01X12356452Y-11243119D02*
G01X12002173Y-11243119D01*
G01X12002173Y-11243119D02*
G01X12002173Y-10727880D01*
G01X10944370Y-11036079D02*
G01X10772630Y-11036079D01*
G01X10772630Y-11036079D02*
G01X10772630Y-11139241D01*
G01X10944370Y-11341321D02*
G01X10772630Y-11341321D01*
G01X10772630Y-11341321D02*
G01X10772630Y-11238159D01*
G01X10944370Y-11143160D02*
G01X10944370Y-11234240D01*
G01X8092709Y-9693280D02*
G01X8092709Y-9564787D01*
G01X8092709Y-9564787D02*
G01X7909291Y-9564787D01*
G01X7909291Y-9564787D02*
G01X7909291Y-9693280D01*
G01X8092709Y-9788520D02*
G01X8092709Y-9917013D01*
G01X8092709Y-9917013D02*
G01X7909291Y-9917013D01*
G01X7909291Y-9917013D02*
G01X7909291Y-9788520D01*
G01X14518909Y-10023480D02*
G01X14518909Y-9894987D01*
G01X14518909Y-9894987D02*
G01X14335491Y-9894987D01*
G01X14335491Y-9894987D02*
G01X14335491Y-10023480D01*
G01X14518909Y-10118720D02*
G01X14518909Y-10247213D01*
G01X14518909Y-10247213D02*
G01X14335491Y-10247213D01*
G01X14335491Y-10247213D02*
G01X14335491Y-10118720D01*
G54D10*
G01X6121400Y-7099300D02*
G01X6121400Y-7289800D01*
G01X6121400Y-7289800D02*
G01X6375400Y-7289800D01*
G01X6375400Y-7289800D02*
G01X6375400Y-5765800D01*
G01X6375400Y-5765800D02*
G01X6121400Y-5765800D01*
G54D13*
G01X6121400Y-5765800D02*
G01X6121400Y-7099300D01*
G54D12*
G01X7175500Y-6715948D02*
G01X7175500Y-5956300D01*
G01X7175500Y-5956300D02*
G01X7429500Y-5956300D01*
G01X7429500Y-5956300D02*
G01X7429500Y-6972300D01*
G01X7429500Y-6972300D02*
G01X7175500Y-6972300D01*
G01X7175500Y-6972300D02*
G01X7175500Y-6715948D01*
G01X7175500Y-6715948D02*
G01X7429500Y-6715948D01*
G54D11*
G01X15277165Y-10818414D02*
G01X15277165Y-10959414D01*
G01X15457886Y-10959414D02*
G01X15457886Y-10818414D01*
G01X15442646Y-10803174D02*
G01X15292405Y-10803174D01*
G01X15277165Y-11180653D02*
G01X15277165Y-11039653D01*
G01X15457886Y-11039653D02*
G01X15457886Y-11180653D01*
G01X15442646Y-11195893D02*
G01X15292405Y-11195893D01*
G01X15457886Y-10818414D02*
G03X15442646Y-10803174I-15240J0D01*
G01X15292405Y-10803174D02*
G03X15277165Y-10818414I0J-15240D01*
G01X15457886Y-11180653D02*
G02X15442646Y-11195893I-15240J0D01*
G01X15292405Y-11195893D02*
G02X15277165Y-11180653I0J15240D01*
G01X10707561Y-10899920D02*
G01X10707561Y-10758919D01*
G01X10526840Y-10758919D02*
G01X10526840Y-10899920D01*
G01X10542080Y-10915160D02*
G01X10692321Y-10915160D01*
G01X10707561Y-10537680D02*
G01X10707561Y-10678681D01*
G01X10526840Y-10678681D02*
G01X10526840Y-10537680D01*
G01X10542080Y-10522440D02*
G01X10692321Y-10522440D01*
G01X10526840Y-10899920D02*
G03X10542080Y-10915160I15240J0D01*
G01X10692321Y-10915160D02*
G03X10707561Y-10899920I0J15240D01*
G01X10526840Y-10537680D02*
G02X10542080Y-10522440I15240J0D01*
G01X10692321Y-10522440D02*
G02X10707561Y-10537680I0J-15240D01*

G04 Rect Start*
G54D12*
G01X5956300Y-9931400D02*
G01X5956300Y-9677400D01*
G01X6464300Y-9677400D01*
G01X6464300Y-9931400D01*
G01X5956300Y-9931400D01*
G01X10325100Y-7772400D02*
G01X10325100Y-11328400D01*
G01X8547100Y-11328400D01*
G01X8547100Y-7772400D01*
G01X10325100Y-7772400D01*
G04 Rect End*

G04 Circle Start*
G54D14*
G01X7593486Y-10345672D02*
G03X7623509Y-10345672I15011J0D01*
G03X7593486Y-10345672I-15011J0D01*
G01X12037289Y-10782300D02*
G03X12067311Y-10782300I15011J0D01*
G03X12037289Y-10782300I-15011J0D01*
G01X11877713Y-10695610D02*
G03X11907736Y-10695610I15011J0D01*
G03X11877713Y-10695610I-15011J0D01*
G04 Circle End*

M02*

