G04 Layer: BottomSolderMaskLayer*
G04 EasyEDA Pro v2.2.40.3, 2025-06-29 22:57:10*
G04 Gerber Generator version 0.3*
G04 Scale: 100 percent, Rotated: No, Reflected: No*
G04 Dimensions in millimeters*
G04 Leading zeros omitted, absolute positions, 4 integers and 5 decimals*
G04 Generated by one-click*
%FSLAX45Y45*%
%MOMM*%
%AMRoundRect*1,1,$1,$2,$3*1,1,$1,$4,$5*1,1,$1,0-$2,0-$3*1,1,$1,0-$4,0-$5*20,1,$1,$2,$3,$4,$5,0*20,1,$1,$4,$5,0-$2,0-$3,0*20,1,$1,0-$2,0-$3,0-$4,0-$5,0*20,1,$1,0-$4,0-$5,$2,$3,0*4,1,4,$2,$3,$4,$5,0-$2,0-$3,0-$4,0-$5,$2,$3,0*%
%ADD10C,2.10002*%
%ADD11C,1.9016*%
%ADD12RoundRect,0.09645X-0.90257X-0.90257X-0.90257X0.90257*%
%ADD13RoundRect,0.09645X-0.90257X0.90257X0.90257X0.90257*%
%ADD14C,1.90246*%
%ADD15RoundRect,0.09618X-0.85271X-0.85271X-0.85271X0.85271*%
%ADD16C,1.8015*%
%ADD17C,1.8016*%
G75*


G04 Pad Start*
G54D10*
G01X9119705Y-5427396D03*
G01X7669695Y-5427396D03*
G01X9179700Y-4937404D03*
G01X7609700Y-4937404D03*
G54D11*
G01X11607800Y-10088499D03*
G01X11607800Y-9834499D03*
G01X11607800Y-9580499D03*
G01X11607800Y-9326499D03*
G01X11607800Y-9072499D03*
G01X11607800Y-8818499D03*
G01X11607800Y-8564499D03*
G01X11607800Y-8310499D03*
G01X11607800Y-8056499D03*
G01X11607800Y-7802499D03*
G01X11607800Y-7548499D03*
G01X11607800Y-7294499D03*
G01X11607800Y-7040499D03*
G54D12*
G01X11607800Y-6786499D03*
G54D11*
G01X6337300Y-9804400D03*
G54D13*
G01X6083300Y-9804400D03*
G54D11*
G01X12818533Y-10088499D03*
G01X12818533Y-9834499D03*
G01X12818533Y-9580499D03*
G01X12818533Y-9326499D03*
G01X12818533Y-9072499D03*
G01X12818533Y-8818499D03*
G01X12818533Y-8564499D03*
G01X12818533Y-8310499D03*
G01X12818533Y-8056499D03*
G01X12818533Y-7802499D03*
G01X12818533Y-7548499D03*
G01X12818533Y-7294499D03*
G01X12818533Y-7040499D03*
G54D12*
G01X12818533Y-6786499D03*
G54D11*
G01X14029267Y-10088499D03*
G01X14029267Y-9834499D03*
G01X14029267Y-9580499D03*
G01X14029267Y-9326499D03*
G01X14029267Y-9072499D03*
G01X14029267Y-8818499D03*
G01X14029267Y-8564499D03*
G01X14029267Y-8310499D03*
G01X14029267Y-8056499D03*
G01X14029267Y-7802499D03*
G01X14029267Y-7548499D03*
G01X14029267Y-7294499D03*
G01X14029267Y-7040499D03*
G54D12*
G01X14029267Y-6786499D03*
G54D11*
G01X15240000Y-10088499D03*
G01X15240000Y-9834499D03*
G01X15240000Y-9580499D03*
G01X15240000Y-9326499D03*
G01X15240000Y-9072499D03*
G01X15240000Y-8818499D03*
G01X15240000Y-8564499D03*
G01X15240000Y-8310499D03*
G01X15240000Y-8056499D03*
G01X15240000Y-7802499D03*
G01X15240000Y-7548499D03*
G01X15240000Y-7294499D03*
G01X15240000Y-7040499D03*
G54D12*
G01X15240000Y-6786499D03*
G54D14*
G01X8712200Y-11201400D03*
G01X8712200Y-10947400D03*
G01X8712200Y-10693400D03*
G01X8712200Y-10439400D03*
G01X8712200Y-10185400D03*
G01X8712200Y-9931400D03*
G01X8712200Y-9677400D03*
G01X8712200Y-9423400D03*
G01X8712200Y-9169400D03*
G01X8712200Y-8915400D03*
G01X8712200Y-8661400D03*
G01X8712200Y-8407400D03*
G01X8712200Y-8153400D03*
G01X8712200Y-7899400D03*
G01X10172700Y-7899400D03*
G01X10172700Y-8153400D03*
G01X10172700Y-8407400D03*
G01X10172700Y-8661400D03*
G01X10172700Y-8915400D03*
G01X10172700Y-9169400D03*
G01X10172700Y-9423400D03*
G01X10172700Y-9677400D03*
G01X10172700Y-9931400D03*
G01X10172700Y-10185400D03*
G01X10172700Y-10439400D03*
G01X10172700Y-10693400D03*
G01X10172700Y-10947400D03*
G01X10172700Y-11201400D03*
G54D11*
G01X6248400Y-5892800D03*
G01X6248400Y-6146800D03*
G01X6248400Y-6400800D03*
G01X6248400Y-6654800D03*
G01X6248400Y-6908800D03*
G54D12*
G01X6248400Y-7162800D03*
G54D15*
G01X7302500Y-6845300D03*
G54D17*
G01X7302500Y-6591300D03*
G01X7302500Y-6337300D03*
G01X7302500Y-6083300D03*
G04 Pad End*

M02*

