G04 Layer: TopSolderMaskLayer*
G04 EasyEDA Pro v2.2.40.3, 2025-06-29 22:57:10*
G04 Gerber Generator version 0.3*
G04 Scale: 100 percent, Rotated: No, Reflected: No*
G04 Dimensions in millimeters*
G04 Leading zeros omitted, absolute positions, 4 integers and 5 decimals*
G04 Generated by one-click*
%FSLAX45Y45*%
%MOMM*%
%AMRoundRect*1,1,$1,$2,$3*1,1,$1,$4,$5*1,1,$1,0-$2,0-$3*1,1,$1,0-$4,0-$5*20,1,$1,$2,$3,$4,$5,0*20,1,$1,$4,$5,0-$2,0-$3,0*20,1,$1,0-$2,0-$3,0-$4,0-$5,0*20,1,$1,0-$4,0-$5,$2,$3,0*4,1,4,$2,$3,$4,$5,0-$2,0-$3,0-$4,0-$5,$2,$3,0*%
%ADD10RoundRect,0.09424X-1.75367X0.60368X1.75367X0.60368*%
%ADD11RoundRect,0.09495X-0.70833X0.67833X0.70833X0.67833*%
%ADD12RoundRect,0.09495X-0.67833X-0.70833X-0.67833X0.70833*%
%ADD13RoundRect,0.09424X-0.60368X-1.75367X-0.60368X1.75367*%
%ADD14RoundRect,0.08002X-0.16X0.96X0.16X0.96*%
%ADD15C,2.10002*%
%ADD16C,1.9030*%
%ADD17C,1.9016*%
%ADD18RoundRect,0.09645X-0.90257X-0.90257X-0.90257X0.90257*%
%ADD19RoundRect,0.09645X-0.90257X0.90257X0.90257X0.90257*%
%ADD20RoundRect,0.09669X-0.95245X1.25245X0.95245X1.25245*%
%ADD21RoundRect,0.09302X-0.50429X0.62929X0.50429X0.62929*%
%ADD22RoundRect,0.09387X-0.69237X-0.57013X-0.69237X0.57013*%
%ADD23RoundRect,0.09387X-0.57013X0.69237X0.57013X0.69237*%
%ADD24RoundRect,0.09465X-1.35347X-0.64474X-1.35347X0.64474*%
%ADD25RoundRect,0.08756X-0.54302X-0.27302X-0.54302X0.27302*%
%ADD26C,1.90246*%
%ADD27RoundRect,0.08449X-0.83356X-0.20856X-0.83356X0.20856*%
%ADD28O,1.83309X0.4446*%
%ADD29RoundRect,0.08756X-0.52576X0.27302X0.52576X0.27302*%
%ADD30RoundRect,0.09618X-0.85271X-0.85271X-0.85271X0.85271*%
%ADD31C,1.8016*%
G75*


G04 Pad Start*
G54D10*
G01X6893855Y-9366045D03*
G01X7427840Y-9366045D03*
G54D11*
G01X6326200Y-8991600D03*
G01X6526200Y-8991600D03*
G54D12*
G01X6019800Y-10844200D03*
G01X6019800Y-10644200D03*
G54D13*
G01X6616700Y-11074692D03*
G01X6616700Y-10540708D03*
G54D14*
G01X8819706Y-5527396D03*
G01X8769718Y-5527396D03*
G01X8719706Y-5527396D03*
G01X8669719Y-5527396D03*
G01X8619706Y-5527396D03*
G01X8569719Y-5527396D03*
G01X8519706Y-5527396D03*
G01X8469694Y-5527396D03*
G01X8419706Y-5527396D03*
G01X8369694Y-5527396D03*
G01X8319707Y-5527396D03*
G01X8269694Y-5527396D03*
G01X8219707Y-5527396D03*
G01X8169694Y-5527396D03*
G01X8119707Y-5527396D03*
G01X8069694Y-5527396D03*
G01X8019707Y-5527396D03*
G01X7969695Y-5527396D03*
G01X7919707Y-5527396D03*
G54D15*
G01X9119705Y-5427396D03*
G01X7669695Y-5427396D03*
G01X9179700Y-4937404D03*
G01X7609700Y-4937404D03*
G54D17*
G01X11607800Y-10088499D03*
G01X11607800Y-9834499D03*
G01X11607800Y-9580499D03*
G01X11607800Y-9326499D03*
G01X11607800Y-9072499D03*
G01X11607800Y-8818499D03*
G01X11607800Y-8564499D03*
G01X11607800Y-8310499D03*
G01X11607800Y-8056499D03*
G01X11607800Y-7802499D03*
G01X11607800Y-7548499D03*
G01X11607800Y-7294499D03*
G01X11607800Y-7040499D03*
G54D18*
G01X11607800Y-6786499D03*
G54D17*
G01X6337300Y-9804400D03*
G54D19*
G01X6083300Y-9804400D03*
G54D17*
G01X12818533Y-10088499D03*
G01X12818533Y-9834499D03*
G01X12818533Y-9580499D03*
G01X12818533Y-9326499D03*
G01X12818533Y-9072499D03*
G01X12818533Y-8818499D03*
G01X12818533Y-8564499D03*
G01X12818533Y-8310499D03*
G01X12818533Y-8056499D03*
G01X12818533Y-7802499D03*
G01X12818533Y-7548499D03*
G01X12818533Y-7294499D03*
G01X12818533Y-7040499D03*
G54D18*
G01X12818533Y-6786499D03*
G54D17*
G01X14029267Y-10088499D03*
G01X14029267Y-9834499D03*
G01X14029267Y-9580499D03*
G01X14029267Y-9326499D03*
G01X14029267Y-9072499D03*
G01X14029267Y-8818499D03*
G01X14029267Y-8564499D03*
G01X14029267Y-8310499D03*
G01X14029267Y-8056499D03*
G01X14029267Y-7802499D03*
G01X14029267Y-7548499D03*
G01X14029267Y-7294499D03*
G01X14029267Y-7040499D03*
G54D18*
G01X14029267Y-6786499D03*
G54D17*
G01X15240000Y-10088499D03*
G01X15240000Y-9834499D03*
G01X15240000Y-9580499D03*
G01X15240000Y-9326499D03*
G01X15240000Y-9072499D03*
G01X15240000Y-8818499D03*
G01X15240000Y-8564499D03*
G01X15240000Y-8310499D03*
G01X15240000Y-8056499D03*
G01X15240000Y-7802499D03*
G01X15240000Y-7548499D03*
G01X15240000Y-7294499D03*
G01X15240000Y-7040499D03*
G54D18*
G01X15240000Y-6786499D03*
G54D20*
G01X7670651Y-10826545D03*
G01X7260644Y-10826545D03*
G54D21*
G01X7699785Y-8694562D03*
G01X7479770Y-8694562D03*
G54D22*
G01X7999048Y-10066145D03*
G01X7999048Y-10266145D03*
G54D23*
G01X6313500Y-9372600D03*
G01X6513500Y-9372600D03*
G54D22*
G01X7899400Y-9205900D03*
G01X7899400Y-9005900D03*
G54D24*
G01X6760249Y-8163357D03*
G01X6760249Y-8641588D03*
G54D23*
G01X9396400Y-9017000D03*
G01X9196400Y-9017000D03*
G01X9409100Y-9423400D03*
G01X9209100Y-9423400D03*
G54D25*
G01X7593257Y-10273841D03*
G01X7593257Y-10178845D03*
G01X7593257Y-10083849D03*
G01X7363438Y-10083849D03*
G01X7363438Y-10178845D03*
G01X7363438Y-10273841D03*
G54D26*
G01X8712200Y-11201400D03*
G01X8712200Y-10947400D03*
G01X8712200Y-10693400D03*
G01X8712200Y-10439400D03*
G01X8712200Y-10185400D03*
G01X8712200Y-9931400D03*
G01X8712200Y-9677400D03*
G01X8712200Y-9423400D03*
G01X8712200Y-9169400D03*
G01X8712200Y-8915400D03*
G01X8712200Y-8661400D03*
G01X8712200Y-8407400D03*
G01X8712200Y-8153400D03*
G01X8712200Y-7899400D03*
G01X10172700Y-7899400D03*
G01X10172700Y-8153400D03*
G01X10172700Y-8407400D03*
G01X10172700Y-8661400D03*
G01X10172700Y-8915400D03*
G01X10172700Y-9169400D03*
G01X10172700Y-9423400D03*
G01X10172700Y-9677400D03*
G01X10172700Y-9931400D03*
G01X10172700Y-10185400D03*
G01X10172700Y-10439400D03*
G01X10172700Y-10693400D03*
G01X10172700Y-10947400D03*
G01X10172700Y-11201400D03*
G54D27*
G01X14315440Y-10940313D03*
G01X14315440Y-10875315D03*
G01X14315440Y-10810316D03*
G01X14315440Y-10745318D03*
G01X14315440Y-10680319D03*
G01X14315440Y-10615320D03*
G01X14315440Y-11005287D03*
G01X14315440Y-11330280D03*
G01X14315440Y-11265306D03*
G01X14315440Y-11200308D03*
G01X14315440Y-11135309D03*
G01X14315440Y-11070311D03*
G01X14919960Y-10875315D03*
G01X14919960Y-10810316D03*
G01X14919960Y-10745318D03*
G01X14919960Y-10680319D03*
G01X14919960Y-10615320D03*
G01X14919960Y-10940313D03*
G01X14919960Y-11330280D03*
G01X14919960Y-11265306D03*
G01X14919960Y-11200308D03*
G01X14919960Y-11135309D03*
G01X14919960Y-11070311D03*
G01X14919960Y-11005287D03*
G54D28*
G01X11892725Y-10757992D03*
G01X11892725Y-10822991D03*
G01X11892725Y-10887989D03*
G01X11892725Y-10953013D03*
G01X11892725Y-11018012D03*
G01X11892725Y-11083011D03*
G01X11892725Y-11148009D03*
G01X11892725Y-11213008D03*
G01X12465876Y-10757992D03*
G01X12465876Y-10822991D03*
G01X12465876Y-10887989D03*
G01X12465876Y-10953013D03*
G01X12465876Y-11018012D03*
G01X12465876Y-11083011D03*
G01X12465876Y-11148009D03*
G01X12465876Y-11213008D03*
G54D29*
G01X10968634Y-11283696D03*
G01X10968634Y-11093704D03*
G01X10748366Y-11188700D03*
G54D22*
G01X8001000Y-9640900D03*
G01X8001000Y-9840900D03*
G01X14427200Y-9971100D03*
G01X14427200Y-10171100D03*
G54D17*
G01X6248400Y-5892800D03*
G01X6248400Y-6146800D03*
G01X6248400Y-6400800D03*
G01X6248400Y-6654800D03*
G01X6248400Y-6908800D03*
G54D18*
G01X6248400Y-7162800D03*
G54D30*
G01X7302500Y-6845300D03*
G54D31*
G01X7302500Y-6591300D03*
G01X7302500Y-6337300D03*
G01X7302500Y-6083300D03*
G54D12*
G01X15367526Y-10899534D03*
G01X15367526Y-11099533D03*
G01X10617200Y-10818800D03*
G01X10617200Y-10618800D03*
G04 Pad End*

M02*

