G04 EAGLE Gerber RS-274X export*
G75*
%MOMM*%
%FSLAX34Y34*%
%LPD*%
%INTop Copper*%
%IPPOS*%
%AMOC8*
5,1,8,0,0,1.08239X$1,22.5*%
G01*
G04 Define Apertures*
%ADD10R,1.260000X1.260000*%
%ADD11C,2.340000*%
%ADD12C,0.127000*%
%ADD13C,0.452400*%
%ADD14C,0.152400*%
D10*
X574000Y725700D03*
X574000Y700300D03*
X134000Y510300D03*
X134000Y535700D03*
X134000Y320300D03*
X134000Y345700D03*
X134000Y130300D03*
X134000Y155700D03*
X706000Y700300D03*
X706000Y725700D03*
X706000Y510300D03*
X706000Y535700D03*
X706000Y320300D03*
X706000Y345700D03*
X706000Y130300D03*
X706000Y155700D03*
X574000Y535700D03*
X574000Y510300D03*
X574000Y345700D03*
X574000Y320300D03*
X574000Y155700D03*
X574000Y130300D03*
X1146000Y725700D03*
X1146000Y700300D03*
X1146000Y530800D03*
X1146000Y505400D03*
X1146000Y346200D03*
X1146000Y320800D03*
X1146000Y155700D03*
X1146000Y130300D03*
X134000Y700300D03*
X134000Y725700D03*
D11*
X-31090Y343910D03*
X-31090Y488910D03*
X-80090Y337910D03*
X-80090Y494910D03*
D12*
X134620Y510540D02*
X134620Y534670D01*
X134000Y535700D01*
X134620Y510540D02*
X134000Y510300D01*
X134620Y345440D02*
X134620Y321310D01*
X134000Y320300D01*
X134620Y345440D02*
X134000Y345700D01*
X134620Y154940D02*
X134620Y130810D01*
X134000Y130300D01*
X134620Y154940D02*
X134000Y155700D01*
X53340Y403860D02*
X53340Y431800D01*
X71960Y450420D01*
X632460Y436880D02*
X704850Y509270D01*
X706000Y510300D01*
X706120Y510540D02*
X706120Y534670D01*
X706000Y535700D01*
X706120Y510540D02*
X706000Y510300D01*
D13*
X53340Y403860D03*
D12*
X71960Y450420D02*
X306181Y450420D01*
X319721Y436880D02*
X632460Y436880D01*
X319721Y436880D02*
X306181Y450420D01*
X290830Y394970D02*
X73660Y394970D01*
X290830Y394970D02*
X317500Y421640D01*
X629920Y421640D01*
X704850Y346710D01*
X706000Y345700D01*
X706120Y345440D02*
X706120Y321310D01*
X706000Y320300D01*
X706120Y345440D02*
X706000Y345700D01*
D13*
X73660Y394970D03*
D12*
X706120Y154940D02*
X706120Y130810D01*
X706000Y130300D01*
X706120Y154940D02*
X706000Y155700D01*
X574040Y510540D02*
X574040Y534670D01*
X574040Y510540D02*
X574000Y510300D01*
X574040Y534670D02*
X574000Y535700D01*
X289560Y389890D02*
X66000Y389890D01*
X289560Y389890D02*
X318770Y419100D01*
X500380Y419100D01*
X572770Y346710D01*
X574000Y345700D01*
X574040Y345440D02*
X574040Y321310D01*
X574000Y320300D01*
X574040Y345440D02*
X574000Y345700D01*
D13*
X34270Y449580D03*
D14*
X44000Y439850D01*
X44000Y396000D01*
X50110Y389890D01*
X66000Y389890D01*
D12*
X572770Y156210D02*
X574000Y155700D01*
X574040Y154940D02*
X574040Y130810D01*
X574000Y130300D01*
X574040Y154940D02*
X574000Y155700D01*
D13*
X-45290Y445770D03*
D12*
X207628Y217600D02*
X207755Y217473D01*
X207628Y217600D02*
X198000Y217600D01*
X511507Y217473D02*
X572770Y156210D01*
D14*
X198000Y217600D02*
X-13400Y429000D01*
X-33000Y429000D01*
D12*
X399926Y217473D02*
X511507Y217473D01*
X399926Y217473D02*
X389264Y228135D01*
X318736Y228135D01*
X308074Y217473D01*
X207755Y217473D01*
D14*
X-33000Y429000D02*
X-45290Y441290D01*
X-45290Y445770D01*
D12*
X1146810Y701040D02*
X1146810Y725170D01*
X1146000Y725700D01*
X1146810Y701040D02*
X1146000Y700300D01*
X1146810Y529590D02*
X1146810Y505460D01*
X1146810Y529590D02*
X1146000Y530800D01*
X1146810Y505460D02*
X1146000Y505400D01*
X1057910Y434340D02*
X84230Y434340D01*
X1057910Y434340D02*
X1145540Y346710D01*
X1146000Y346200D01*
X1146810Y345440D02*
X1146810Y321310D01*
X1146000Y320800D01*
X1146810Y345440D02*
X1146000Y346200D01*
D13*
X84230Y434340D03*
D12*
X209000Y231140D02*
X1070610Y231140D01*
X1145540Y156210D01*
X1146000Y155700D01*
X1146810Y154940D02*
X1146810Y130810D01*
X1146000Y130300D01*
X1146810Y154940D02*
X1146000Y155700D01*
D13*
X30890Y429260D03*
D14*
X33000Y427150D01*
X33000Y396000D01*
X197860Y231140D01*
X209000Y231140D01*
D12*
X15650Y424180D02*
X15650Y582070D01*
X133350Y699770D01*
X134000Y700300D01*
X134620Y701040D02*
X134620Y725170D01*
X134000Y725700D01*
X134620Y701040D02*
X134000Y700300D01*
D13*
X15650Y424180D03*
D12*
X574040Y701040D02*
X574040Y725170D01*
X574000Y725700D01*
X574040Y701040D02*
X574000Y700300D01*
M02*
