G04 EAGLE Gerber RS-274X export*
G75*
%MOMM*%
%FSLAX34Y34*%
%LPD*%
%INBottom Copper*%
%IPPOS*%
%AMOC8*
5,1,8,0,0,1.08239X$1,22.5*%
G01*
G04 Define Apertures*
%ADD10R,1.260000X1.260000*%
%ADD11R,1.900000X0.300000*%
%ADD12C,2.340000*%
%ADD13C,0.127000*%
%ADD14C,0.452400*%
D10*
X574000Y725700D03*
X574000Y700300D03*
X134000Y510300D03*
X134000Y535700D03*
X134000Y320300D03*
X134000Y345700D03*
X134000Y130300D03*
X134000Y155700D03*
X706000Y700300D03*
X706000Y725700D03*
X706000Y510300D03*
X706000Y535700D03*
X706000Y320300D03*
X706000Y345700D03*
X706000Y130300D03*
X706000Y155700D03*
X574000Y535700D03*
X574000Y510300D03*
X574000Y345700D03*
X574000Y320300D03*
X574000Y155700D03*
X574000Y130300D03*
X1146000Y725700D03*
X1146000Y700300D03*
X1146000Y530800D03*
X1146000Y505400D03*
X1146000Y346200D03*
X1146000Y320800D03*
X1146000Y155700D03*
X1146000Y130300D03*
X134000Y700300D03*
X134000Y725700D03*
D11*
X-21090Y463910D03*
X-21090Y458910D03*
X-21090Y453910D03*
X-21090Y448910D03*
X-21090Y443910D03*
X-21090Y438910D03*
X-21090Y433910D03*
X-21090Y428910D03*
X-21090Y423910D03*
X-21090Y418910D03*
X-21090Y413910D03*
X-21090Y408910D03*
X-21090Y403910D03*
X-21090Y398910D03*
X-21090Y393910D03*
X-21090Y388910D03*
X-21090Y383910D03*
X-21090Y378910D03*
X-21090Y373910D03*
D12*
X-31090Y343910D03*
X-31090Y488910D03*
X-80090Y337910D03*
X-80090Y494910D03*
D13*
X-20320Y419100D02*
X86340Y419100D01*
X133350Y466110D01*
X133350Y509270D01*
X-20320Y419100D02*
X-21090Y418910D01*
X133350Y509270D02*
X134000Y510300D01*
X67310Y412750D02*
X-20320Y412750D01*
X67310Y412750D02*
X133350Y346710D01*
X-20320Y412750D02*
X-21090Y413910D01*
X133350Y346710D02*
X134000Y345700D01*
X66040Y408940D02*
X-20320Y408940D01*
X66040Y408940D02*
X125730Y349250D01*
X125730Y163830D01*
X133350Y156210D01*
X-20320Y408940D02*
X-21090Y408910D01*
X133350Y156210D02*
X134000Y155700D01*
X-21590Y405130D02*
X-31750Y405130D01*
X62270Y627380D02*
X494030Y627380D01*
X565150Y698500D01*
X565150Y707390D01*
X566420Y708660D01*
X697230Y708660D01*
X704850Y701040D01*
X-21090Y403910D02*
X-21590Y405130D01*
X704850Y701040D02*
X706000Y700300D01*
X704850Y716280D02*
X704850Y725170D01*
X704850Y716280D02*
X697230Y708660D01*
X704850Y725170D02*
X706000Y725700D01*
X62270Y627380D02*
X-55695Y509415D01*
X-55695Y429075D01*
X-31750Y405130D01*
X-20320Y400050D02*
X49530Y400050D01*
X53340Y403860D01*
X-20320Y400050D02*
X-21090Y398910D01*
D14*
X53340Y403860D03*
D13*
X73660Y394970D02*
X-20320Y394970D01*
X-21090Y393910D01*
D14*
X73660Y394970D03*
D13*
X-11430Y388620D02*
X-20320Y388620D01*
X-11430Y388620D02*
X123190Y254000D01*
X123190Y151130D01*
X127000Y147320D01*
X140970Y147320D01*
X160020Y166370D01*
X160020Y173990D01*
X214630Y228600D01*
X632460Y228600D01*
X704850Y156210D01*
X-20320Y388620D02*
X-21090Y388910D01*
X704850Y156210D02*
X706000Y155700D01*
X59690Y459740D02*
X-20320Y459740D01*
X59690Y459740D02*
X127000Y527050D01*
X140970Y527050D01*
X160020Y546100D01*
X160020Y554990D01*
X213360Y608330D01*
X500380Y608330D01*
X572770Y535940D01*
X-20320Y459740D02*
X-21090Y458910D01*
X572770Y535940D02*
X574000Y535700D01*
X30460Y453390D02*
X-20320Y453390D01*
X30460Y453390D02*
X34270Y449580D01*
X-20320Y453390D02*
X-21090Y453910D01*
D14*
X34270Y449580D03*
D13*
X-21590Y448310D02*
X-42750Y448310D01*
X-45290Y445770D01*
X-21590Y448310D02*
X-21090Y448910D01*
D14*
X-45290Y445770D03*
D13*
X-20320Y444500D02*
X48260Y444500D01*
X125730Y521970D01*
X142240Y521970D01*
X160020Y504190D01*
X160020Y491490D01*
X214630Y436880D01*
X591820Y436880D01*
X782320Y627380D01*
X1073150Y627380D01*
X1145540Y699770D01*
X-20320Y444500D02*
X-21090Y443910D01*
X1145540Y699770D02*
X1146000Y700300D01*
X46990Y439420D02*
X-20320Y439420D01*
X46990Y439420D02*
X127000Y519430D01*
X140970Y519430D01*
X157480Y502920D01*
X157480Y490220D01*
X213360Y434340D01*
X1075690Y434340D01*
X1145540Y504190D01*
X-20320Y439420D02*
X-21090Y438910D01*
X1145540Y504190D02*
X1146000Y505400D01*
X84230Y434340D02*
X-20320Y434340D01*
X-21090Y433910D01*
D14*
X84230Y434340D03*
D13*
X30890Y429260D02*
X-20320Y429260D01*
X-21090Y428910D01*
D14*
X30890Y429260D03*
D13*
X15650Y424180D02*
X-20320Y424180D01*
X-21090Y423910D01*
D14*
X15650Y424180D03*
D13*
X46990Y464820D02*
X-20320Y464820D01*
X46990Y464820D02*
X207010Y624840D01*
X497840Y624840D01*
X572770Y699770D01*
X-20320Y464820D02*
X-21090Y463910D01*
X572770Y699770D02*
X574000Y700300D01*
M02*
