G04 EAGLE Gerber RS-274X export*
G75*
%MOMM*%
%FSLAX34Y34*%
%LPD*%
%IN*%
%IPPOS*%
%AMOC8*
5,1,8,0,0,1.08239X$1,22.5*%
G01*
G04 Define Apertures*
%ADD10C,0.254000*%
D10*
X-100000Y-100000D02*
X1378000Y-100000D01*
X1378000Y955000D01*
X-100000Y955000D01*
X-100000Y-100000D01*
X736000Y113000D02*
X1116000Y113000D01*
X1116000Y173000D01*
X736000Y173000D01*
X736000Y113000D01*
X164000Y113000D02*
X544000Y113000D01*
X544000Y173000D01*
X164000Y173000D01*
X164000Y113000D01*
X736000Y303000D02*
X1116000Y303000D01*
X1116000Y363000D01*
X736000Y363000D01*
X736000Y303000D01*
X164000Y303000D02*
X544000Y303000D01*
X544000Y363000D01*
X164000Y363000D01*
X164000Y303000D01*
X736000Y493000D02*
X1116000Y493000D01*
X1116000Y553000D01*
X736000Y553000D01*
X736000Y493000D01*
X164000Y493000D02*
X544000Y493000D01*
X544000Y553000D01*
X164000Y553000D01*
X164000Y493000D01*
X164000Y683000D02*
X544000Y683000D01*
X544000Y743000D01*
X164000Y743000D01*
X164000Y683000D01*
X736000Y683000D02*
X1116000Y683000D01*
X1116000Y743000D01*
X736000Y743000D01*
X736000Y683000D01*
M02*
