G04 EAGLE Gerber RS-274X export*
G75*
%MOMM*%
%FSLAX34Y34*%
%LPD*%
%INSilkscreen Bottom*%
%IPPOS*%
%AMOC8*
5,1,8,0,0,1.08239X$1,22.5*%
G01*
G04 Define Apertures*
%ADD10C,0.152400*%
%ADD11C,0.127000*%
%ADD12C,0.500000*%
G36*
X599400Y727901D02*
X587059Y727901D01*
X587059Y733095D01*
X587074Y733599D01*
X587120Y734074D01*
X587196Y734520D01*
X587302Y734936D01*
X587439Y735323D01*
X587606Y735681D01*
X587804Y736010D01*
X588031Y736309D01*
X588287Y736576D01*
X588567Y736807D01*
X588873Y737003D01*
X589203Y737163D01*
X589558Y737287D01*
X589938Y737376D01*
X590343Y737430D01*
X590773Y737448D01*
X591200Y737430D01*
X591604Y737376D01*
X591986Y737287D01*
X592345Y737162D01*
X592682Y737001D01*
X592996Y736805D01*
X593288Y736572D01*
X593558Y736305D01*
X593800Y736006D01*
X594010Y735682D01*
X594188Y735332D01*
X594333Y734957D01*
X594446Y734556D01*
X594527Y734129D01*
X594575Y733677D01*
X594592Y733200D01*
X594592Y729574D01*
X599400Y729574D01*
X599400Y727901D01*
G37*
%LPC*%
G36*
X593269Y729574D02*
X593269Y732963D01*
X593259Y733303D01*
X593230Y733620D01*
X593182Y733916D01*
X593114Y734189D01*
X593027Y734441D01*
X592920Y734671D01*
X592795Y734879D01*
X592649Y735065D01*
X592485Y735229D01*
X592301Y735372D01*
X592097Y735492D01*
X591875Y735591D01*
X591633Y735667D01*
X591371Y735722D01*
X591091Y735755D01*
X590790Y735766D01*
X590501Y735755D01*
X590230Y735721D01*
X589978Y735665D01*
X589744Y735586D01*
X589529Y735485D01*
X589333Y735362D01*
X589156Y735216D01*
X588997Y735048D01*
X588857Y734857D01*
X588736Y734644D01*
X588633Y734408D01*
X588549Y734150D01*
X588483Y733869D01*
X588437Y733566D01*
X588409Y733241D01*
X588399Y732893D01*
X588399Y729574D01*
X593269Y729574D01*
G37*
%LPD*%
G36*
X599400Y717827D02*
X598060Y717827D01*
X598060Y720971D01*
X588566Y720971D01*
X590554Y718186D01*
X589065Y718186D01*
X587059Y721103D01*
X587059Y722557D01*
X598060Y722557D01*
X598060Y725561D01*
X599400Y725561D01*
X599400Y717827D01*
G37*
G36*
X121300Y509040D02*
X108959Y509040D01*
X108959Y510985D01*
X119540Y517659D01*
X118059Y517580D01*
X117052Y517553D01*
X108959Y517553D01*
X108959Y519060D01*
X121300Y519060D01*
X121300Y517045D01*
X110790Y510442D01*
X111639Y510485D01*
X113102Y510529D01*
X121300Y510529D01*
X121300Y509040D01*
G37*
G36*
X121300Y498502D02*
X120188Y498502D01*
X119690Y498738D01*
X119223Y498998D01*
X118786Y499283D01*
X118379Y499593D01*
X117996Y499919D01*
X117632Y500253D01*
X117287Y500595D01*
X116960Y500946D01*
X116348Y501652D01*
X115782Y502352D01*
X115239Y503014D01*
X114696Y503608D01*
X114421Y503875D01*
X114140Y504115D01*
X113852Y504328D01*
X113557Y504515D01*
X113250Y504666D01*
X112922Y504774D01*
X112575Y504839D01*
X112209Y504861D01*
X111962Y504852D01*
X111729Y504824D01*
X111511Y504777D01*
X111307Y504712D01*
X111117Y504628D01*
X110941Y504526D01*
X110779Y504405D01*
X110632Y504265D01*
X110501Y504109D01*
X110387Y503938D01*
X110291Y503753D01*
X110212Y503554D01*
X110150Y503339D01*
X110107Y503111D01*
X110080Y502868D01*
X110072Y502610D01*
X110080Y502364D01*
X110106Y502128D01*
X110149Y501904D01*
X110208Y501691D01*
X110285Y501489D01*
X110379Y501299D01*
X110491Y501119D01*
X110619Y500950D01*
X110763Y500795D01*
X110920Y500658D01*
X111092Y500537D01*
X111277Y500432D01*
X111476Y500345D01*
X111689Y500274D01*
X111916Y500221D01*
X112156Y500184D01*
X112007Y498572D01*
X111647Y498630D01*
X111305Y498716D01*
X110982Y498831D01*
X110678Y498974D01*
X110393Y499145D01*
X110127Y499345D01*
X109880Y499573D01*
X109651Y499829D01*
X109446Y500109D01*
X109268Y500408D01*
X109117Y500727D01*
X108994Y501065D01*
X108898Y501422D01*
X108830Y501799D01*
X108789Y502195D01*
X108775Y502610D01*
X108789Y503063D01*
X108830Y503489D01*
X108899Y503888D01*
X108995Y504260D01*
X109119Y504605D01*
X109270Y504923D01*
X109449Y505214D01*
X109656Y505478D01*
X109887Y505713D01*
X110142Y505917D01*
X110420Y506089D01*
X110721Y506230D01*
X111045Y506340D01*
X111392Y506418D01*
X111763Y506465D01*
X112156Y506481D01*
X112515Y506461D01*
X112872Y506399D01*
X113228Y506296D01*
X113584Y506153D01*
X113938Y505969D01*
X114293Y505744D01*
X114648Y505480D01*
X115003Y505176D01*
X115406Y504778D01*
X115907Y504232D01*
X116505Y503539D01*
X117201Y502697D01*
X117603Y502220D01*
X117984Y501793D01*
X118345Y501418D01*
X118686Y501095D01*
X119013Y500818D01*
X119335Y500582D01*
X119650Y500389D01*
X119960Y500236D01*
X119960Y506674D01*
X121300Y506674D01*
X121300Y498502D01*
G37*
G36*
X121300Y319040D02*
X108959Y319040D01*
X108959Y320985D01*
X119540Y327659D01*
X118059Y327580D01*
X117052Y327553D01*
X108959Y327553D01*
X108959Y329060D01*
X121300Y329060D01*
X121300Y327045D01*
X110790Y320442D01*
X111639Y320485D01*
X113102Y320529D01*
X121300Y320529D01*
X121300Y319040D01*
G37*
G36*
X118129Y308283D02*
X117981Y309912D01*
X118246Y309960D01*
X118494Y310023D01*
X118725Y310103D01*
X118939Y310199D01*
X119135Y310310D01*
X119315Y310438D01*
X119477Y310582D01*
X119623Y310742D01*
X119751Y310918D01*
X119862Y311110D01*
X119956Y311319D01*
X120033Y311543D01*
X120093Y311783D01*
X120136Y312040D01*
X120162Y312312D01*
X120170Y312601D01*
X120161Y312891D01*
X120134Y313165D01*
X120088Y313422D01*
X120023Y313664D01*
X119941Y313890D01*
X119840Y314100D01*
X119721Y314293D01*
X119583Y314471D01*
X119428Y314630D01*
X119254Y314768D01*
X119063Y314885D01*
X118854Y314980D01*
X118627Y315054D01*
X118383Y315107D01*
X118121Y315139D01*
X117840Y315150D01*
X117596Y315138D01*
X117364Y315101D01*
X117147Y315041D01*
X116944Y314956D01*
X116754Y314847D01*
X116578Y314714D01*
X116416Y314556D01*
X116268Y314375D01*
X116136Y314170D01*
X116021Y313944D01*
X115924Y313697D01*
X115845Y313428D01*
X115783Y313137D01*
X115739Y312825D01*
X115712Y312492D01*
X115703Y312137D01*
X115703Y311244D01*
X114337Y311244D01*
X114337Y312102D01*
X114328Y312417D01*
X114302Y312714D01*
X114258Y312992D01*
X114196Y313253D01*
X114116Y313495D01*
X114019Y313719D01*
X113904Y313924D01*
X113772Y314112D01*
X113624Y314279D01*
X113463Y314424D01*
X113287Y314547D01*
X113099Y314647D01*
X112897Y314725D01*
X112681Y314781D01*
X112452Y314815D01*
X112209Y314826D01*
X111968Y314817D01*
X111740Y314789D01*
X111525Y314744D01*
X111323Y314680D01*
X111134Y314598D01*
X110958Y314498D01*
X110795Y314380D01*
X110645Y314243D01*
X110511Y314089D01*
X110394Y313917D01*
X110296Y313727D01*
X110215Y313520D01*
X110152Y313295D01*
X110107Y313052D01*
X110081Y312792D01*
X110072Y312514D01*
X110080Y312259D01*
X110105Y312017D01*
X110147Y311788D01*
X110205Y311571D01*
X110280Y311366D01*
X110372Y311174D01*
X110481Y310995D01*
X110606Y310828D01*
X110746Y310675D01*
X110900Y310539D01*
X111068Y310420D01*
X111250Y310318D01*
X111445Y310233D01*
X111654Y310165D01*
X111876Y310113D01*
X112112Y310079D01*
X111990Y308493D01*
X111621Y308551D01*
X111274Y308638D01*
X110947Y308752D01*
X110641Y308895D01*
X110356Y309066D01*
X110091Y309266D01*
X109848Y309494D01*
X109625Y309750D01*
X109426Y310030D01*
X109253Y310330D01*
X109107Y310648D01*
X108988Y310986D01*
X108895Y311344D01*
X108828Y311720D01*
X108789Y312116D01*
X108775Y312531D01*
X108789Y312982D01*
X108829Y313408D01*
X108897Y313807D01*
X108991Y314181D01*
X109112Y314529D01*
X109261Y314851D01*
X109436Y315147D01*
X109638Y315417D01*
X109864Y315658D01*
X110112Y315867D01*
X110381Y316044D01*
X110670Y316189D01*
X110982Y316301D01*
X111314Y316382D01*
X111667Y316430D01*
X112042Y316446D01*
X112331Y316436D01*
X112606Y316405D01*
X112867Y316353D01*
X113114Y316281D01*
X113347Y316188D01*
X113567Y316074D01*
X113773Y315940D01*
X113965Y315785D01*
X114142Y315610D01*
X114305Y315417D01*
X114453Y315205D01*
X114586Y314974D01*
X114703Y314724D01*
X114806Y314455D01*
X114894Y314168D01*
X114968Y313862D01*
X115003Y313862D01*
X115050Y314199D01*
X115116Y314516D01*
X115203Y314814D01*
X115309Y315093D01*
X115435Y315353D01*
X115581Y315593D01*
X115746Y315815D01*
X115931Y316017D01*
X116132Y316198D01*
X116346Y316354D01*
X116572Y316487D01*
X116811Y316595D01*
X117063Y316679D01*
X117327Y316740D01*
X117604Y316776D01*
X117893Y316788D01*
X118308Y316771D01*
X118699Y316720D01*
X119066Y316635D01*
X119408Y316516D01*
X119727Y316363D01*
X120021Y316177D01*
X120292Y315956D01*
X120538Y315702D01*
X120758Y315416D01*
X120948Y315101D01*
X121109Y314757D01*
X121241Y314383D01*
X121343Y313981D01*
X121417Y313550D01*
X121461Y313090D01*
X121475Y312601D01*
X121462Y312144D01*
X121422Y311711D01*
X121356Y311302D01*
X121264Y310916D01*
X121145Y310554D01*
X121000Y310216D01*
X120828Y309901D01*
X120630Y309610D01*
X120406Y309345D01*
X120157Y309108D01*
X119882Y308900D01*
X119582Y308720D01*
X119257Y308568D01*
X118906Y308445D01*
X118531Y308350D01*
X118129Y308283D01*
G37*
G36*
X121300Y129040D02*
X108959Y129040D01*
X108959Y130985D01*
X119540Y137659D01*
X118059Y137580D01*
X117052Y137553D01*
X108959Y137553D01*
X108959Y139060D01*
X121300Y139060D01*
X121300Y137045D01*
X110790Y130442D01*
X111639Y130485D01*
X113102Y130529D01*
X121300Y130529D01*
X121300Y129040D01*
G37*
G36*
X118506Y118012D02*
X117280Y118012D01*
X108959Y123661D01*
X108959Y125316D01*
X117262Y125316D01*
X117262Y127050D01*
X118506Y127050D01*
X118506Y125316D01*
X121300Y125316D01*
X121300Y123827D01*
X118506Y123827D01*
X118506Y118012D01*
G37*
%LPC*%
G36*
X117262Y119466D02*
X117262Y123827D01*
X110737Y123827D01*
X111201Y123582D01*
X111779Y123241D01*
X116439Y120079D01*
X117087Y119606D01*
X117262Y119466D01*
G37*
%LPD*%
G36*
X693300Y699040D02*
X680959Y699040D01*
X680959Y700985D01*
X691540Y707659D01*
X690059Y707580D01*
X689052Y707553D01*
X680959Y707553D01*
X680959Y709060D01*
X693300Y709060D01*
X693300Y707045D01*
X682790Y700442D01*
X683639Y700485D01*
X685102Y700529D01*
X693300Y700529D01*
X693300Y699040D01*
G37*
G36*
X690541Y688318D02*
X690357Y689912D01*
X690579Y689981D01*
X690786Y690062D01*
X690979Y690155D01*
X691158Y690260D01*
X691322Y690377D01*
X691473Y690507D01*
X691609Y690649D01*
X691730Y690803D01*
X691837Y690970D01*
X691930Y691149D01*
X692009Y691340D01*
X692073Y691543D01*
X692123Y691758D01*
X692159Y691986D01*
X692181Y692226D01*
X692188Y692479D01*
X692176Y692787D01*
X692140Y693079D01*
X692080Y693353D01*
X691996Y693611D01*
X691888Y693850D01*
X691757Y694073D01*
X691601Y694279D01*
X691421Y694467D01*
X691221Y694635D01*
X691002Y694781D01*
X690766Y694904D01*
X690512Y695005D01*
X690239Y695084D01*
X689949Y695140D01*
X689641Y695174D01*
X689315Y695185D01*
X689031Y695174D01*
X688760Y695140D01*
X688504Y695083D01*
X688262Y695004D01*
X688033Y694903D01*
X687819Y694778D01*
X687618Y694632D01*
X687432Y694462D01*
X687263Y694274D01*
X687118Y694070D01*
X686994Y693850D01*
X686893Y693614D01*
X686815Y693362D01*
X686758Y693095D01*
X686725Y692812D01*
X686714Y692514D01*
X686726Y692199D01*
X686764Y691896D01*
X686827Y691604D01*
X686915Y691322D01*
X687033Y691046D01*
X687187Y690771D01*
X687375Y690495D01*
X687598Y690219D01*
X687598Y688677D01*
X680959Y689089D01*
X680959Y696105D01*
X682299Y696105D01*
X682299Y690525D01*
X686214Y690289D01*
X686030Y690553D01*
X685870Y690832D01*
X685734Y691128D01*
X685623Y691438D01*
X685537Y691765D01*
X685475Y692107D01*
X685438Y692464D01*
X685426Y692838D01*
X685443Y693281D01*
X685493Y693702D01*
X685576Y694100D01*
X685693Y694474D01*
X685843Y694826D01*
X686027Y695154D01*
X686244Y695459D01*
X686495Y695741D01*
X686772Y695995D01*
X687069Y696214D01*
X687387Y696400D01*
X687725Y696552D01*
X688083Y696671D01*
X688462Y696755D01*
X688861Y696806D01*
X689280Y696823D01*
X689755Y696805D01*
X690204Y696750D01*
X690628Y696660D01*
X691025Y696533D01*
X691396Y696369D01*
X691742Y696170D01*
X692061Y695934D01*
X692354Y695662D01*
X692617Y695358D01*
X692845Y695026D01*
X693037Y694666D01*
X693195Y694277D01*
X693318Y693861D01*
X693405Y693416D01*
X693458Y692944D01*
X693475Y692443D01*
X693463Y692023D01*
X693428Y691622D01*
X693369Y691243D01*
X693287Y690884D01*
X693181Y690547D01*
X693052Y690230D01*
X692899Y689934D01*
X692722Y689658D01*
X692523Y689405D01*
X692303Y689177D01*
X692062Y688973D01*
X691800Y688793D01*
X691517Y688638D01*
X691213Y688507D01*
X690887Y688400D01*
X690541Y688318D01*
G37*
G36*
X687414Y498511D02*
X686636Y498529D01*
X685905Y498583D01*
X685219Y498672D01*
X684581Y498798D01*
X683989Y498959D01*
X683443Y499156D01*
X682944Y499389D01*
X682492Y499658D01*
X682090Y499960D01*
X681741Y500293D01*
X681446Y500656D01*
X681204Y501049D01*
X681017Y501472D01*
X680943Y501695D01*
X680883Y501926D01*
X680836Y502165D01*
X680802Y502410D01*
X680782Y502664D01*
X680775Y502925D01*
X680785Y503266D01*
X680815Y503591D01*
X680864Y503900D01*
X680932Y504193D01*
X681021Y504470D01*
X681129Y504730D01*
X681256Y504974D01*
X681404Y505202D01*
X681571Y505414D01*
X681757Y505610D01*
X681963Y505790D01*
X682189Y505953D01*
X682435Y506101D01*
X682700Y506232D01*
X682985Y506347D01*
X683289Y506446D01*
X683561Y504940D01*
X683207Y504806D01*
X682901Y504639D01*
X682643Y504436D01*
X682431Y504200D01*
X682266Y503928D01*
X682148Y503623D01*
X682078Y503282D01*
X682054Y502908D01*
X682074Y502580D01*
X682133Y502271D01*
X682231Y501982D01*
X682368Y501711D01*
X682545Y501459D01*
X682761Y501227D01*
X683016Y501013D01*
X683311Y500819D01*
X683643Y500645D01*
X684010Y500495D01*
X684412Y500368D01*
X684849Y500264D01*
X685322Y500183D01*
X685829Y500125D01*
X686372Y500090D01*
X686950Y500079D01*
X686575Y500315D01*
X686248Y500595D01*
X685969Y500919D01*
X685737Y501287D01*
X685555Y501691D01*
X685425Y502124D01*
X685380Y502351D01*
X685347Y502585D01*
X685327Y502826D01*
X685321Y503074D01*
X685338Y503490D01*
X685388Y503884D01*
X685471Y504256D01*
X685588Y504606D01*
X685738Y504934D01*
X685922Y505239D01*
X686139Y505523D01*
X686390Y505785D01*
X686668Y506020D01*
X686970Y506224D01*
X687294Y506396D01*
X687642Y506537D01*
X688013Y506647D01*
X688406Y506725D01*
X688823Y506772D01*
X689262Y506788D01*
X689738Y506771D01*
X690187Y506721D01*
X690611Y506639D01*
X691010Y506523D01*
X691382Y506374D01*
X691729Y506192D01*
X692050Y505976D01*
X692345Y505728D01*
X692610Y505450D01*
X692840Y505148D01*
X693034Y504820D01*
X693193Y504467D01*
X693316Y504088D01*
X693405Y503685D01*
X693458Y503256D01*
X693475Y502803D01*
X693469Y502546D01*
X693451Y502297D01*
X693378Y501822D01*
X693257Y501377D01*
X693088Y500963D01*
X692870Y500580D01*
X692603Y500228D01*
X692288Y499906D01*
X691925Y499614D01*
X691515Y499356D01*
X691062Y499132D01*
X690564Y498942D01*
X690022Y498787D01*
X689436Y498666D01*
X688806Y498580D01*
X688132Y498528D01*
X687414Y498511D01*
G37*
%LPC*%
G36*
X688956Y500236D02*
X689305Y500247D01*
X689637Y500280D01*
X689954Y500335D01*
X690254Y500413D01*
X690538Y500512D01*
X690807Y500633D01*
X691059Y500776D01*
X691294Y500941D01*
X691508Y501124D01*
X691693Y501319D01*
X691849Y501526D01*
X691977Y501746D01*
X692077Y501978D01*
X692148Y502223D01*
X692191Y502480D01*
X692205Y502750D01*
X692193Y503027D01*
X692157Y503289D01*
X692097Y503535D01*
X692014Y503766D01*
X691906Y503982D01*
X691774Y504182D01*
X691618Y504367D01*
X691439Y504537D01*
X691238Y504689D01*
X691020Y504820D01*
X690783Y504932D01*
X690529Y505023D01*
X690257Y505094D01*
X689967Y505144D01*
X689658Y505175D01*
X689332Y505185D01*
X689007Y505175D01*
X688701Y505144D01*
X688414Y505093D01*
X688146Y505021D01*
X687897Y504928D01*
X687667Y504815D01*
X687457Y504682D01*
X687265Y504528D01*
X687095Y504356D01*
X686947Y504167D01*
X686822Y503963D01*
X686720Y503742D01*
X686641Y503505D01*
X686584Y503252D01*
X686550Y502983D01*
X686538Y502697D01*
X686548Y502428D01*
X686579Y502172D01*
X686629Y501930D01*
X686699Y501700D01*
X686790Y501484D01*
X686901Y501281D01*
X687031Y501091D01*
X687182Y500915D01*
X687351Y500756D01*
X687534Y500618D01*
X687733Y500501D01*
X687947Y500406D01*
X688177Y500332D01*
X688421Y500279D01*
X688681Y500247D01*
X688956Y500236D01*
G37*
%LPD*%
G36*
X693300Y509040D02*
X680959Y509040D01*
X680959Y510985D01*
X691540Y517659D01*
X690059Y517580D01*
X689052Y517553D01*
X680959Y517553D01*
X680959Y519060D01*
X693300Y519060D01*
X693300Y517045D01*
X682790Y510442D01*
X683639Y510485D01*
X685102Y510529D01*
X693300Y510529D01*
X693300Y509040D01*
G37*
G36*
X693300Y319040D02*
X680959Y319040D01*
X680959Y320985D01*
X691540Y327659D01*
X690059Y327580D01*
X689052Y327553D01*
X680959Y327553D01*
X680959Y329060D01*
X693300Y329060D01*
X693300Y327045D01*
X682790Y320442D01*
X683639Y320485D01*
X685102Y320529D01*
X693300Y320529D01*
X693300Y319040D01*
G37*
G36*
X682299Y308520D02*
X680959Y308520D01*
X680959Y316674D01*
X682238Y316674D01*
X683605Y315797D01*
X684815Y315060D01*
X685869Y314462D01*
X686766Y314002D01*
X687582Y313637D01*
X688393Y313320D01*
X689198Y313052D01*
X689998Y312833D01*
X690802Y312663D01*
X691621Y312541D01*
X692453Y312468D01*
X692875Y312450D01*
X693300Y312443D01*
X693300Y310797D01*
X692705Y310813D01*
X692102Y310860D01*
X691491Y310938D01*
X690873Y311048D01*
X690247Y311189D01*
X689612Y311361D01*
X688971Y311565D01*
X688321Y311800D01*
X687655Y312071D01*
X686964Y312385D01*
X686249Y312741D01*
X685508Y313139D01*
X684743Y313578D01*
X683953Y314060D01*
X683139Y314584D01*
X682299Y315150D01*
X682299Y308520D01*
G37*
G36*
X689875Y118380D02*
X689579Y118390D01*
X689295Y118423D01*
X689023Y118477D01*
X688763Y118552D01*
X688515Y118650D01*
X688279Y118769D01*
X688055Y118909D01*
X687843Y119071D01*
X687648Y119250D01*
X687472Y119441D01*
X687317Y119645D01*
X687182Y119860D01*
X687068Y120087D01*
X686973Y120326D01*
X686899Y120577D01*
X686845Y120841D01*
X686810Y120841D01*
X686742Y120595D01*
X686657Y120364D01*
X686555Y120145D01*
X686436Y119940D01*
X686299Y119748D01*
X686145Y119569D01*
X685974Y119403D01*
X685785Y119251D01*
X685584Y119114D01*
X685374Y118996D01*
X685156Y118896D01*
X684929Y118814D01*
X684694Y118750D01*
X684450Y118705D01*
X684198Y118678D01*
X683937Y118669D01*
X683593Y118685D01*
X683265Y118735D01*
X682955Y118817D01*
X682661Y118932D01*
X682383Y119081D01*
X682122Y119262D01*
X681878Y119477D01*
X681651Y119724D01*
X681446Y119999D01*
X681268Y120297D01*
X681117Y120617D01*
X680994Y120960D01*
X680898Y121325D01*
X680830Y121714D01*
X680789Y122124D01*
X680775Y122557D01*
X680789Y123001D01*
X680829Y123420D01*
X680896Y123816D01*
X680990Y124188D01*
X681111Y124535D01*
X681258Y124859D01*
X681432Y125159D01*
X681634Y125435D01*
X681858Y125682D01*
X682101Y125896D01*
X682362Y126078D01*
X682643Y126226D01*
X682943Y126342D01*
X683261Y126424D01*
X683598Y126473D01*
X683955Y126490D01*
X684215Y126481D01*
X684468Y126453D01*
X684711Y126407D01*
X684947Y126343D01*
X685173Y126261D01*
X685392Y126160D01*
X685601Y126041D01*
X685803Y125903D01*
X685991Y125750D01*
X686160Y125583D01*
X686175Y125565D01*
X686311Y125403D01*
X686444Y125209D01*
X686559Y125002D01*
X686655Y124781D01*
X686733Y124548D01*
X686792Y124300D01*
X686827Y124300D01*
X686885Y124588D01*
X686962Y124859D01*
X687059Y125113D01*
X687175Y125351D01*
X687310Y125573D01*
X687464Y125778D01*
X687637Y125967D01*
X687793Y126106D01*
X687830Y126140D01*
X688039Y126294D01*
X688261Y126427D01*
X688495Y126540D01*
X688742Y126632D01*
X689002Y126704D01*
X689275Y126755D01*
X689560Y126786D01*
X689858Y126796D01*
X690273Y126780D01*
X690665Y126729D01*
X691033Y126644D01*
X691378Y126525D01*
X691699Y126372D01*
X691996Y126186D01*
X692270Y125965D01*
X692521Y125710D01*
X692744Y125424D01*
X692938Y125108D01*
X693102Y124763D01*
X693237Y124388D01*
X693341Y123983D01*
X693416Y123549D01*
X693460Y123086D01*
X693475Y122592D01*
X693461Y122111D01*
X693417Y121657D01*
X693343Y121229D01*
X693241Y120829D01*
X693109Y120455D01*
X692948Y120109D01*
X692758Y119789D01*
X692538Y119496D01*
X692291Y119234D01*
X692020Y119008D01*
X691724Y118816D01*
X691404Y118659D01*
X691059Y118537D01*
X690689Y118449D01*
X690294Y118397D01*
X689875Y118380D01*
G37*
%LPC*%
G36*
X689744Y120009D02*
X690053Y120019D01*
X690341Y120049D01*
X690610Y120100D01*
X690859Y120171D01*
X691088Y120263D01*
X691297Y120374D01*
X691486Y120507D01*
X691656Y120659D01*
X691805Y120832D01*
X691934Y121025D01*
X692044Y121238D01*
X692134Y121472D01*
X692203Y121726D01*
X692253Y122000D01*
X692283Y122295D01*
X692293Y122610D01*
X692283Y122922D01*
X692254Y123213D01*
X692206Y123483D01*
X692138Y123733D01*
X692052Y123963D01*
X691945Y124172D01*
X691820Y124360D01*
X691675Y124528D01*
X691510Y124676D01*
X691321Y124804D01*
X691109Y124912D01*
X690875Y125001D01*
X690618Y125070D01*
X690338Y125119D01*
X690035Y125149D01*
X689709Y125159D01*
X689431Y125148D01*
X689171Y125116D01*
X688928Y125063D01*
X688703Y124988D01*
X688495Y124892D01*
X688306Y124774D01*
X688134Y124636D01*
X687979Y124475D01*
X687843Y124296D01*
X687724Y124099D01*
X687624Y123885D01*
X687542Y123654D01*
X687479Y123406D01*
X687433Y123140D01*
X687406Y122857D01*
X687397Y122557D01*
X687407Y122266D01*
X687436Y121990D01*
X687485Y121731D01*
X687553Y121489D01*
X687641Y121263D01*
X687749Y121053D01*
X687876Y120860D01*
X688023Y120683D01*
X688187Y120525D01*
X688365Y120388D01*
X688559Y120272D01*
X688766Y120177D01*
X688989Y120103D01*
X689226Y120051D01*
X689478Y120019D01*
X689744Y120009D01*
G37*
G36*
X684042Y120280D02*
X684299Y120289D01*
X684541Y120318D01*
X684766Y120364D01*
X684976Y120430D01*
X685170Y120514D01*
X685349Y120618D01*
X685511Y120739D01*
X685658Y120880D01*
X685789Y121038D01*
X685902Y121211D01*
X685997Y121400D01*
X686075Y121604D01*
X686136Y121823D01*
X686180Y122058D01*
X686206Y122309D01*
X686214Y122575D01*
X686206Y122845D01*
X686182Y123098D01*
X686142Y123335D01*
X686086Y123555D01*
X686014Y123758D01*
X685926Y123945D01*
X685822Y124116D01*
X685702Y124270D01*
X685564Y124406D01*
X685406Y124524D01*
X685228Y124625D01*
X685031Y124706D01*
X684813Y124770D01*
X684576Y124816D01*
X684319Y124843D01*
X684042Y124852D01*
X683789Y124843D01*
X683552Y124816D01*
X683331Y124771D01*
X683126Y124709D01*
X682938Y124628D01*
X682767Y124529D01*
X682611Y124413D01*
X682472Y124278D01*
X682350Y124126D01*
X682243Y123956D01*
X682153Y123767D01*
X682080Y123561D01*
X682023Y123337D01*
X681982Y123095D01*
X681957Y122835D01*
X681949Y122557D01*
X681957Y122288D01*
X681982Y122034D01*
X682023Y121798D01*
X682080Y121577D01*
X682154Y121374D01*
X682245Y121187D01*
X682351Y121016D01*
X682474Y120863D01*
X682614Y120726D01*
X682770Y120608D01*
X682941Y120508D01*
X683129Y120426D01*
X683333Y120362D01*
X683553Y120317D01*
X683790Y120289D01*
X684042Y120280D01*
G37*
%LPD*%
G36*
X693300Y129040D02*
X680959Y129040D01*
X680959Y130985D01*
X691540Y137659D01*
X690059Y137580D01*
X689052Y137553D01*
X680959Y137553D01*
X680959Y139060D01*
X693300Y139060D01*
X693300Y137045D01*
X682790Y130442D01*
X683639Y130485D01*
X685102Y130529D01*
X693300Y130529D01*
X693300Y129040D01*
G37*
G36*
X599400Y537901D02*
X587059Y537901D01*
X587059Y543095D01*
X587074Y543599D01*
X587120Y544074D01*
X587196Y544520D01*
X587302Y544936D01*
X587439Y545323D01*
X587606Y545681D01*
X587804Y546010D01*
X588031Y546309D01*
X588287Y546576D01*
X588567Y546807D01*
X588873Y547003D01*
X589203Y547163D01*
X589558Y547287D01*
X589938Y547376D01*
X590343Y547430D01*
X590773Y547448D01*
X591200Y547430D01*
X591604Y547376D01*
X591986Y547287D01*
X592345Y547162D01*
X592682Y547001D01*
X592996Y546805D01*
X593288Y546572D01*
X593558Y546305D01*
X593800Y546006D01*
X594010Y545682D01*
X594188Y545332D01*
X594333Y544957D01*
X594446Y544556D01*
X594527Y544129D01*
X594575Y543677D01*
X594592Y543200D01*
X594592Y539574D01*
X599400Y539574D01*
X599400Y537901D01*
G37*
%LPC*%
G36*
X593269Y539574D02*
X593269Y542963D01*
X593259Y543303D01*
X593230Y543620D01*
X593182Y543916D01*
X593114Y544189D01*
X593027Y544441D01*
X592920Y544671D01*
X592795Y544879D01*
X592649Y545065D01*
X592485Y545229D01*
X592301Y545372D01*
X592097Y545492D01*
X591875Y545591D01*
X591633Y545667D01*
X591371Y545722D01*
X591091Y545755D01*
X590790Y545766D01*
X590501Y545755D01*
X590230Y545721D01*
X589978Y545665D01*
X589744Y545586D01*
X589529Y545485D01*
X589333Y545362D01*
X589156Y545216D01*
X588997Y545048D01*
X588857Y544857D01*
X588736Y544644D01*
X588633Y544408D01*
X588549Y544150D01*
X588483Y543869D01*
X588437Y543566D01*
X588409Y543241D01*
X588399Y542893D01*
X588399Y539574D01*
X593269Y539574D01*
G37*
%LPD*%
G36*
X599400Y527363D02*
X598288Y527363D01*
X597790Y527598D01*
X597323Y527859D01*
X596886Y528144D01*
X596479Y528453D01*
X596096Y528779D01*
X595732Y529113D01*
X595387Y529456D01*
X595060Y529806D01*
X594448Y530512D01*
X593882Y531212D01*
X593339Y531874D01*
X592796Y532469D01*
X592521Y532736D01*
X592240Y532976D01*
X591952Y533189D01*
X591657Y533375D01*
X591350Y533527D01*
X591022Y533635D01*
X590675Y533700D01*
X590309Y533721D01*
X590062Y533712D01*
X589829Y533684D01*
X589611Y533638D01*
X589407Y533573D01*
X589217Y533489D01*
X589041Y533386D01*
X588879Y533265D01*
X588732Y533126D01*
X588601Y532970D01*
X588487Y532799D01*
X588391Y532614D01*
X588312Y532414D01*
X588250Y532200D01*
X588207Y531971D01*
X588180Y531728D01*
X588172Y531470D01*
X588180Y531224D01*
X588206Y530989D01*
X588249Y530765D01*
X588308Y530552D01*
X588385Y530350D01*
X588479Y530159D01*
X588591Y529979D01*
X588719Y529811D01*
X588863Y529656D01*
X589020Y529518D01*
X589192Y529397D01*
X589377Y529293D01*
X589576Y529205D01*
X589789Y529135D01*
X590016Y529081D01*
X590256Y529044D01*
X590107Y527433D01*
X589747Y527491D01*
X589405Y527577D01*
X589082Y527692D01*
X588778Y527835D01*
X588493Y528006D01*
X588227Y528205D01*
X587980Y528433D01*
X587751Y528690D01*
X587546Y528970D01*
X587368Y529269D01*
X587217Y529588D01*
X587094Y529926D01*
X586998Y530283D01*
X586930Y530659D01*
X586889Y531055D01*
X586875Y531470D01*
X586889Y531923D01*
X586930Y532349D01*
X586999Y532748D01*
X587095Y533120D01*
X587219Y533465D01*
X587370Y533784D01*
X587549Y534075D01*
X587756Y534339D01*
X587987Y534574D01*
X588242Y534778D01*
X588520Y534950D01*
X588821Y535091D01*
X589145Y535201D01*
X589492Y535279D01*
X589863Y535326D01*
X590256Y535342D01*
X590615Y535321D01*
X590972Y535260D01*
X591328Y535157D01*
X591684Y535013D01*
X592038Y534829D01*
X592393Y534605D01*
X592748Y534341D01*
X593103Y534037D01*
X593506Y533639D01*
X594007Y533093D01*
X594605Y532399D01*
X595301Y531558D01*
X595703Y531080D01*
X596084Y530654D01*
X596445Y530279D01*
X596786Y529955D01*
X597113Y529678D01*
X597435Y529443D01*
X597750Y529249D01*
X598060Y529097D01*
X598060Y535534D01*
X599400Y535534D01*
X599400Y527363D01*
G37*
G36*
X599400Y347901D02*
X587059Y347901D01*
X587059Y353095D01*
X587074Y353599D01*
X587120Y354074D01*
X587196Y354520D01*
X587302Y354936D01*
X587439Y355323D01*
X587606Y355681D01*
X587804Y356010D01*
X588031Y356309D01*
X588287Y356576D01*
X588567Y356807D01*
X588873Y357003D01*
X589203Y357163D01*
X589558Y357287D01*
X589938Y357376D01*
X590343Y357430D01*
X590773Y357448D01*
X591200Y357430D01*
X591604Y357376D01*
X591986Y357287D01*
X592345Y357162D01*
X592682Y357001D01*
X592996Y356805D01*
X593288Y356572D01*
X593558Y356305D01*
X593800Y356006D01*
X594010Y355682D01*
X594188Y355332D01*
X594333Y354957D01*
X594446Y354556D01*
X594527Y354129D01*
X594575Y353677D01*
X594592Y353200D01*
X594592Y349574D01*
X599400Y349574D01*
X599400Y347901D01*
G37*
%LPC*%
G36*
X593269Y349574D02*
X593269Y352963D01*
X593259Y353303D01*
X593230Y353620D01*
X593182Y353916D01*
X593114Y354189D01*
X593027Y354441D01*
X592920Y354671D01*
X592795Y354879D01*
X592649Y355065D01*
X592485Y355229D01*
X592301Y355372D01*
X592097Y355492D01*
X591875Y355591D01*
X591633Y355667D01*
X591371Y355722D01*
X591091Y355755D01*
X590790Y355766D01*
X590501Y355755D01*
X590230Y355721D01*
X589978Y355665D01*
X589744Y355586D01*
X589529Y355485D01*
X589333Y355362D01*
X589156Y355216D01*
X588997Y355048D01*
X588857Y354857D01*
X588736Y354644D01*
X588633Y354408D01*
X588549Y354150D01*
X588483Y353869D01*
X588437Y353566D01*
X588409Y353241D01*
X588399Y352893D01*
X588399Y349574D01*
X593269Y349574D01*
G37*
%LPD*%
G36*
X596229Y337144D02*
X596081Y338773D01*
X596346Y338820D01*
X596594Y338884D01*
X596825Y338963D01*
X597039Y339059D01*
X597235Y339171D01*
X597415Y339299D01*
X597577Y339443D01*
X597723Y339603D01*
X597851Y339779D01*
X597962Y339971D01*
X598056Y340179D01*
X598133Y340404D01*
X598193Y340644D01*
X598236Y340900D01*
X598262Y341173D01*
X598270Y341462D01*
X598261Y341751D01*
X598234Y342025D01*
X598188Y342283D01*
X598123Y342525D01*
X598041Y342750D01*
X597940Y342960D01*
X597821Y343154D01*
X597683Y343332D01*
X597528Y343491D01*
X597354Y343629D01*
X597163Y343745D01*
X596954Y343841D01*
X596727Y343915D01*
X596483Y343968D01*
X596221Y344000D01*
X595940Y344010D01*
X595696Y343998D01*
X595464Y343962D01*
X595247Y343901D01*
X595044Y343817D01*
X594854Y343708D01*
X594678Y343574D01*
X594516Y343417D01*
X594368Y343235D01*
X594236Y343031D01*
X594121Y342805D01*
X594024Y342557D01*
X593945Y342288D01*
X593883Y341998D01*
X593839Y341686D01*
X593812Y341352D01*
X593803Y340997D01*
X593803Y340104D01*
X592437Y340104D01*
X592437Y340962D01*
X592428Y341277D01*
X592402Y341574D01*
X592358Y341853D01*
X592296Y342113D01*
X592216Y342355D01*
X592119Y342579D01*
X592004Y342785D01*
X591872Y342973D01*
X591724Y343140D01*
X591563Y343285D01*
X591387Y343408D01*
X591199Y343508D01*
X590997Y343586D01*
X590781Y343642D01*
X590552Y343675D01*
X590309Y343686D01*
X590068Y343677D01*
X589840Y343650D01*
X589625Y343604D01*
X589423Y343541D01*
X589234Y343459D01*
X589058Y343359D01*
X588895Y343240D01*
X588745Y343104D01*
X588611Y342949D01*
X588494Y342777D01*
X588396Y342588D01*
X588315Y342380D01*
X588252Y342155D01*
X588207Y341912D01*
X588181Y341652D01*
X588172Y341374D01*
X588180Y341120D01*
X588205Y340878D01*
X588247Y340648D01*
X588305Y340431D01*
X588380Y340227D01*
X588472Y340035D01*
X588581Y339855D01*
X588706Y339688D01*
X588846Y339536D01*
X589000Y339400D01*
X589168Y339281D01*
X589350Y339179D01*
X589545Y339094D01*
X589754Y339025D01*
X589976Y338974D01*
X590212Y338939D01*
X590090Y337354D01*
X589721Y337412D01*
X589374Y337498D01*
X589047Y337613D01*
X588741Y337756D01*
X588456Y337927D01*
X588191Y338127D01*
X587948Y338355D01*
X587725Y338611D01*
X587526Y338891D01*
X587353Y339190D01*
X587207Y339509D01*
X587088Y339847D01*
X586995Y340204D01*
X586928Y340581D01*
X586889Y340976D01*
X586875Y341392D01*
X586889Y341843D01*
X586929Y342268D01*
X586997Y342668D01*
X587091Y343042D01*
X587212Y343389D01*
X587361Y343711D01*
X587536Y344007D01*
X587738Y344278D01*
X587964Y344519D01*
X588212Y344728D01*
X588481Y344905D01*
X588770Y345049D01*
X589082Y345162D01*
X589414Y345242D01*
X589767Y345291D01*
X590142Y345307D01*
X590431Y345296D01*
X590706Y345265D01*
X590967Y345214D01*
X591214Y345141D01*
X591447Y345048D01*
X591667Y344935D01*
X591873Y344800D01*
X592065Y344645D01*
X592242Y344471D01*
X592405Y344277D01*
X592553Y344065D01*
X592686Y343834D01*
X592803Y343584D01*
X592906Y343316D01*
X592994Y343029D01*
X593068Y342723D01*
X593103Y342723D01*
X593150Y343059D01*
X593216Y343377D01*
X593303Y343675D01*
X593409Y343953D01*
X593535Y344213D01*
X593681Y344454D01*
X593846Y344675D01*
X594031Y344878D01*
X594232Y345058D01*
X594446Y345215D01*
X594672Y345347D01*
X594911Y345456D01*
X595163Y345540D01*
X595427Y345600D01*
X595704Y345636D01*
X595993Y345648D01*
X596408Y345631D01*
X596799Y345580D01*
X597166Y345496D01*
X597508Y345377D01*
X597827Y345224D01*
X598121Y345037D01*
X598392Y344817D01*
X598638Y344562D01*
X598858Y344276D01*
X599048Y343961D01*
X599209Y343617D01*
X599341Y343244D01*
X599443Y342842D01*
X599517Y342411D01*
X599561Y341951D01*
X599575Y341462D01*
X599562Y341005D01*
X599522Y340572D01*
X599456Y340162D01*
X599364Y339777D01*
X599245Y339415D01*
X599100Y339076D01*
X598928Y338762D01*
X598730Y338471D01*
X598506Y338206D01*
X598257Y337969D01*
X597982Y337761D01*
X597682Y337581D01*
X597357Y337429D01*
X597006Y337305D01*
X596631Y337210D01*
X596229Y337144D01*
G37*
G36*
X599400Y157901D02*
X587059Y157901D01*
X587059Y163095D01*
X587074Y163599D01*
X587120Y164074D01*
X587196Y164520D01*
X587302Y164936D01*
X587439Y165323D01*
X587606Y165681D01*
X587804Y166010D01*
X588031Y166309D01*
X588287Y166576D01*
X588567Y166807D01*
X588873Y167003D01*
X589203Y167163D01*
X589558Y167287D01*
X589938Y167376D01*
X590343Y167430D01*
X590773Y167448D01*
X591200Y167430D01*
X591604Y167376D01*
X591986Y167287D01*
X592345Y167162D01*
X592682Y167001D01*
X592996Y166805D01*
X593288Y166572D01*
X593558Y166305D01*
X593800Y166006D01*
X594010Y165682D01*
X594188Y165332D01*
X594333Y164957D01*
X594446Y164556D01*
X594527Y164129D01*
X594575Y163677D01*
X594592Y163200D01*
X594592Y159574D01*
X599400Y159574D01*
X599400Y157901D01*
G37*
%LPC*%
G36*
X593269Y159574D02*
X593269Y162963D01*
X593259Y163303D01*
X593230Y163620D01*
X593182Y163916D01*
X593114Y164189D01*
X593027Y164441D01*
X592920Y164671D01*
X592795Y164879D01*
X592649Y165065D01*
X592485Y165229D01*
X592301Y165372D01*
X592097Y165492D01*
X591875Y165591D01*
X591633Y165667D01*
X591371Y165722D01*
X591091Y165755D01*
X590790Y165766D01*
X590501Y165755D01*
X590230Y165721D01*
X589978Y165665D01*
X589744Y165586D01*
X589529Y165485D01*
X589333Y165362D01*
X589156Y165216D01*
X588997Y165048D01*
X588857Y164857D01*
X588736Y164644D01*
X588633Y164408D01*
X588549Y164150D01*
X588483Y163869D01*
X588437Y163566D01*
X588409Y163241D01*
X588399Y162893D01*
X588399Y159574D01*
X593269Y159574D01*
G37*
%LPD*%
G36*
X596606Y146872D02*
X595380Y146872D01*
X587059Y152521D01*
X587059Y154177D01*
X595362Y154177D01*
X595362Y155911D01*
X596606Y155911D01*
X596606Y154177D01*
X599400Y154177D01*
X599400Y152688D01*
X596606Y152688D01*
X596606Y146872D01*
G37*
%LPC*%
G36*
X595362Y148326D02*
X595362Y152688D01*
X588837Y152688D01*
X589301Y152443D01*
X589879Y152101D01*
X594539Y148939D01*
X595187Y148466D01*
X595362Y148326D01*
G37*
%LPD*%
G36*
X1171400Y727901D02*
X1159059Y727901D01*
X1159059Y733095D01*
X1159074Y733599D01*
X1159120Y734074D01*
X1159196Y734520D01*
X1159302Y734936D01*
X1159439Y735323D01*
X1159606Y735681D01*
X1159804Y736010D01*
X1160031Y736309D01*
X1160287Y736576D01*
X1160567Y736807D01*
X1160873Y737003D01*
X1161203Y737163D01*
X1161558Y737287D01*
X1161938Y737376D01*
X1162343Y737430D01*
X1162773Y737448D01*
X1163200Y737430D01*
X1163604Y737376D01*
X1163986Y737287D01*
X1164345Y737162D01*
X1164682Y737001D01*
X1164996Y736805D01*
X1165288Y736572D01*
X1165558Y736305D01*
X1165800Y736006D01*
X1166010Y735682D01*
X1166188Y735332D01*
X1166333Y734957D01*
X1166446Y734556D01*
X1166527Y734129D01*
X1166575Y733677D01*
X1166592Y733200D01*
X1166592Y729574D01*
X1171400Y729574D01*
X1171400Y727901D01*
G37*
%LPC*%
G36*
X1165269Y729574D02*
X1165269Y732963D01*
X1165259Y733303D01*
X1165230Y733620D01*
X1165182Y733916D01*
X1165114Y734189D01*
X1165027Y734441D01*
X1164920Y734671D01*
X1164795Y734879D01*
X1164649Y735065D01*
X1164485Y735229D01*
X1164301Y735372D01*
X1164097Y735492D01*
X1163875Y735591D01*
X1163633Y735667D01*
X1163371Y735722D01*
X1163091Y735755D01*
X1162790Y735766D01*
X1162501Y735755D01*
X1162230Y735721D01*
X1161978Y735665D01*
X1161744Y735586D01*
X1161529Y735485D01*
X1161333Y735362D01*
X1161156Y735216D01*
X1160997Y735048D01*
X1160857Y734857D01*
X1160736Y734644D01*
X1160633Y734408D01*
X1160549Y734150D01*
X1160483Y733869D01*
X1160437Y733566D01*
X1160409Y733241D01*
X1160399Y732893D01*
X1160399Y729574D01*
X1165269Y729574D01*
G37*
%LPD*%
G36*
X1168641Y717179D02*
X1168457Y718773D01*
X1168679Y718841D01*
X1168886Y718922D01*
X1169079Y719015D01*
X1169258Y719120D01*
X1169422Y719238D01*
X1169573Y719368D01*
X1169709Y719510D01*
X1169830Y719664D01*
X1169937Y719831D01*
X1170030Y720009D01*
X1170109Y720200D01*
X1170173Y720404D01*
X1170223Y720619D01*
X1170259Y720847D01*
X1170281Y721087D01*
X1170288Y721339D01*
X1170276Y721648D01*
X1170240Y721940D01*
X1170180Y722214D01*
X1170096Y722471D01*
X1169988Y722711D01*
X1169857Y722934D01*
X1169701Y723139D01*
X1169521Y723327D01*
X1169321Y723496D01*
X1169102Y723641D01*
X1168866Y723765D01*
X1168612Y723866D01*
X1168339Y723944D01*
X1168049Y724001D01*
X1167741Y724034D01*
X1167415Y724045D01*
X1167131Y724034D01*
X1166860Y724000D01*
X1166604Y723944D01*
X1166362Y723865D01*
X1166133Y723763D01*
X1165919Y723639D01*
X1165718Y723492D01*
X1165532Y723323D01*
X1165363Y723134D01*
X1165218Y722930D01*
X1165094Y722710D01*
X1164993Y722474D01*
X1164915Y722223D01*
X1164858Y721956D01*
X1164825Y721673D01*
X1164814Y721374D01*
X1164826Y721060D01*
X1164864Y720757D01*
X1164927Y720464D01*
X1165015Y720183D01*
X1165133Y719907D01*
X1165287Y719631D01*
X1165475Y719355D01*
X1165698Y719079D01*
X1165698Y717538D01*
X1159059Y717950D01*
X1159059Y724965D01*
X1160399Y724965D01*
X1160399Y719386D01*
X1164314Y719149D01*
X1164130Y719413D01*
X1163970Y719693D01*
X1163834Y719988D01*
X1163723Y720299D01*
X1163637Y720625D01*
X1163575Y720967D01*
X1163538Y721325D01*
X1163526Y721698D01*
X1163543Y722142D01*
X1163593Y722563D01*
X1163676Y722960D01*
X1163793Y723335D01*
X1163943Y723686D01*
X1164127Y724015D01*
X1164344Y724320D01*
X1164595Y724602D01*
X1164872Y724855D01*
X1165169Y725075D01*
X1165487Y725261D01*
X1165825Y725413D01*
X1166183Y725531D01*
X1166562Y725616D01*
X1166961Y725666D01*
X1167380Y725683D01*
X1167855Y725665D01*
X1168304Y725611D01*
X1168728Y725520D01*
X1169125Y725393D01*
X1169496Y725230D01*
X1169842Y725031D01*
X1170161Y724795D01*
X1170454Y724523D01*
X1170717Y724219D01*
X1170945Y723886D01*
X1171137Y723526D01*
X1171295Y723138D01*
X1171418Y722721D01*
X1171505Y722277D01*
X1171558Y721805D01*
X1171575Y721304D01*
X1171563Y720883D01*
X1171528Y720483D01*
X1171469Y720104D01*
X1171387Y719745D01*
X1171281Y719407D01*
X1171152Y719090D01*
X1170999Y718794D01*
X1170822Y718519D01*
X1170623Y718266D01*
X1170403Y718038D01*
X1170162Y717834D01*
X1169900Y717654D01*
X1169617Y717499D01*
X1169313Y717368D01*
X1168987Y717261D01*
X1168641Y717179D01*
G37*
G36*
X1171400Y533001D02*
X1159059Y533001D01*
X1159059Y538195D01*
X1159074Y538699D01*
X1159120Y539174D01*
X1159196Y539620D01*
X1159302Y540036D01*
X1159439Y540423D01*
X1159606Y540781D01*
X1159804Y541110D01*
X1160031Y541409D01*
X1160287Y541676D01*
X1160567Y541907D01*
X1160873Y542103D01*
X1161203Y542263D01*
X1161558Y542387D01*
X1161938Y542476D01*
X1162343Y542530D01*
X1162773Y542548D01*
X1163200Y542530D01*
X1163604Y542476D01*
X1163986Y542387D01*
X1164345Y542262D01*
X1164682Y542101D01*
X1164996Y541905D01*
X1165288Y541672D01*
X1165558Y541405D01*
X1165800Y541106D01*
X1166010Y540782D01*
X1166188Y540432D01*
X1166333Y540057D01*
X1166446Y539656D01*
X1166527Y539229D01*
X1166575Y538777D01*
X1166592Y538300D01*
X1166592Y534674D01*
X1171400Y534674D01*
X1171400Y533001D01*
G37*
%LPC*%
G36*
X1165269Y534674D02*
X1165269Y538063D01*
X1165259Y538403D01*
X1165230Y538720D01*
X1165182Y539016D01*
X1165114Y539289D01*
X1165027Y539541D01*
X1164920Y539771D01*
X1164795Y539979D01*
X1164649Y540165D01*
X1164485Y540329D01*
X1164301Y540472D01*
X1164097Y540592D01*
X1163875Y540691D01*
X1163633Y540767D01*
X1163371Y540822D01*
X1163091Y540855D01*
X1162790Y540866D01*
X1162501Y540855D01*
X1162230Y540821D01*
X1161978Y540765D01*
X1161744Y540686D01*
X1161529Y540585D01*
X1161333Y540462D01*
X1161156Y540316D01*
X1160997Y540148D01*
X1160857Y539957D01*
X1160736Y539744D01*
X1160633Y539508D01*
X1160549Y539250D01*
X1160483Y538969D01*
X1160437Y538666D01*
X1160409Y538341D01*
X1160399Y537993D01*
X1160399Y534674D01*
X1165269Y534674D01*
G37*
%LPD*%
G36*
X1165514Y522471D02*
X1164736Y522489D01*
X1164005Y522543D01*
X1163319Y522633D01*
X1162681Y522758D01*
X1162089Y522920D01*
X1161543Y523117D01*
X1161044Y523350D01*
X1160592Y523619D01*
X1160190Y523921D01*
X1159841Y524253D01*
X1159546Y524616D01*
X1159304Y525009D01*
X1159117Y525433D01*
X1159043Y525656D01*
X1158983Y525887D01*
X1158936Y526125D01*
X1158902Y526371D01*
X1158882Y526625D01*
X1158875Y526886D01*
X1158885Y527227D01*
X1158915Y527552D01*
X1158964Y527861D01*
X1159032Y528154D01*
X1159121Y528430D01*
X1159229Y528691D01*
X1159356Y528935D01*
X1159504Y529163D01*
X1159671Y529375D01*
X1159857Y529571D01*
X1160063Y529750D01*
X1160289Y529914D01*
X1160535Y530061D01*
X1160800Y530193D01*
X1161085Y530308D01*
X1161389Y530407D01*
X1161661Y528900D01*
X1161307Y528767D01*
X1161001Y528599D01*
X1160743Y528397D01*
X1160531Y528160D01*
X1160366Y527889D01*
X1160248Y527583D01*
X1160178Y527243D01*
X1160154Y526868D01*
X1160174Y526541D01*
X1160233Y526232D01*
X1160331Y525942D01*
X1160468Y525672D01*
X1160645Y525420D01*
X1160861Y525187D01*
X1161116Y524974D01*
X1161411Y524779D01*
X1161743Y524606D01*
X1162110Y524456D01*
X1162512Y524328D01*
X1162949Y524224D01*
X1163422Y524143D01*
X1163929Y524085D01*
X1164472Y524051D01*
X1165050Y524039D01*
X1164675Y524276D01*
X1164348Y524556D01*
X1164069Y524880D01*
X1163837Y525248D01*
X1163655Y525652D01*
X1163525Y526084D01*
X1163480Y526311D01*
X1163447Y526545D01*
X1163427Y526786D01*
X1163421Y527035D01*
X1163438Y527451D01*
X1163488Y527845D01*
X1163571Y528216D01*
X1163688Y528566D01*
X1163838Y528894D01*
X1164022Y529200D01*
X1164239Y529484D01*
X1164490Y529745D01*
X1164768Y529980D01*
X1165070Y530184D01*
X1165394Y530357D01*
X1165742Y530498D01*
X1166113Y530607D01*
X1166506Y530686D01*
X1166923Y530733D01*
X1167362Y530748D01*
X1167838Y530732D01*
X1168287Y530682D01*
X1168711Y530599D01*
X1169110Y530483D01*
X1169482Y530334D01*
X1169829Y530152D01*
X1170150Y529937D01*
X1170445Y529688D01*
X1170710Y529411D01*
X1170940Y529108D01*
X1171134Y528780D01*
X1171293Y528427D01*
X1171416Y528049D01*
X1171505Y527646D01*
X1171558Y527217D01*
X1171575Y526763D01*
X1171569Y526506D01*
X1171551Y526257D01*
X1171478Y525782D01*
X1171357Y525338D01*
X1171188Y524924D01*
X1170970Y524541D01*
X1170703Y524188D01*
X1170388Y523866D01*
X1170025Y523575D01*
X1169615Y523316D01*
X1169162Y523092D01*
X1168664Y522903D01*
X1168122Y522747D01*
X1167536Y522627D01*
X1166906Y522540D01*
X1166232Y522489D01*
X1165514Y522471D01*
G37*
%LPC*%
G36*
X1167056Y524197D02*
X1167405Y524208D01*
X1167737Y524241D01*
X1168054Y524296D01*
X1168354Y524373D01*
X1168638Y524472D01*
X1168907Y524593D01*
X1169159Y524737D01*
X1169394Y524902D01*
X1169608Y525084D01*
X1169793Y525279D01*
X1169949Y525487D01*
X1170077Y525707D01*
X1170177Y525939D01*
X1170248Y526184D01*
X1170291Y526441D01*
X1170305Y526711D01*
X1170293Y526988D01*
X1170257Y527249D01*
X1170197Y527496D01*
X1170114Y527727D01*
X1170006Y527942D01*
X1169874Y528143D01*
X1169718Y528328D01*
X1169539Y528497D01*
X1169338Y528649D01*
X1169120Y528781D01*
X1168883Y528892D01*
X1168629Y528983D01*
X1168357Y529054D01*
X1168067Y529105D01*
X1167758Y529135D01*
X1167432Y529145D01*
X1167107Y529135D01*
X1166801Y529104D01*
X1166514Y529053D01*
X1166246Y528981D01*
X1165997Y528889D01*
X1165767Y528776D01*
X1165557Y528643D01*
X1165365Y528489D01*
X1165195Y528316D01*
X1165047Y528128D01*
X1164922Y527923D01*
X1164820Y527702D01*
X1164741Y527466D01*
X1164684Y527213D01*
X1164650Y526943D01*
X1164638Y526658D01*
X1164648Y526389D01*
X1164679Y526133D01*
X1164729Y525890D01*
X1164799Y525661D01*
X1164890Y525444D01*
X1165001Y525242D01*
X1165131Y525052D01*
X1165282Y524876D01*
X1165451Y524717D01*
X1165634Y524579D01*
X1165833Y524462D01*
X1166047Y524367D01*
X1166277Y524292D01*
X1166521Y524239D01*
X1166781Y524207D01*
X1167056Y524197D01*
G37*
%LPD*%
G36*
X1171400Y348401D02*
X1159059Y348401D01*
X1159059Y353595D01*
X1159074Y354099D01*
X1159120Y354574D01*
X1159196Y355020D01*
X1159302Y355436D01*
X1159439Y355823D01*
X1159606Y356181D01*
X1159804Y356510D01*
X1160031Y356809D01*
X1160287Y357076D01*
X1160567Y357307D01*
X1160873Y357503D01*
X1161203Y357663D01*
X1161558Y357787D01*
X1161938Y357876D01*
X1162343Y357930D01*
X1162773Y357948D01*
X1163200Y357930D01*
X1163604Y357876D01*
X1163986Y357787D01*
X1164345Y357662D01*
X1164682Y357501D01*
X1164996Y357305D01*
X1165288Y357072D01*
X1165558Y356805D01*
X1165800Y356506D01*
X1166010Y356182D01*
X1166188Y355832D01*
X1166333Y355457D01*
X1166446Y355056D01*
X1166527Y354629D01*
X1166575Y354177D01*
X1166592Y353700D01*
X1166592Y350074D01*
X1171400Y350074D01*
X1171400Y348401D01*
G37*
%LPC*%
G36*
X1165269Y350074D02*
X1165269Y353463D01*
X1165259Y353803D01*
X1165230Y354120D01*
X1165182Y354416D01*
X1165114Y354689D01*
X1165027Y354941D01*
X1164920Y355171D01*
X1164795Y355379D01*
X1164649Y355565D01*
X1164485Y355729D01*
X1164301Y355872D01*
X1164097Y355992D01*
X1163875Y356091D01*
X1163633Y356167D01*
X1163371Y356222D01*
X1163091Y356255D01*
X1162790Y356266D01*
X1162501Y356255D01*
X1162230Y356221D01*
X1161978Y356165D01*
X1161744Y356086D01*
X1161529Y355985D01*
X1161333Y355862D01*
X1161156Y355716D01*
X1160997Y355548D01*
X1160857Y355357D01*
X1160736Y355144D01*
X1160633Y354908D01*
X1160549Y354650D01*
X1160483Y354369D01*
X1160437Y354066D01*
X1160409Y353741D01*
X1160399Y353393D01*
X1160399Y350074D01*
X1165269Y350074D01*
G37*
%LPD*%
G36*
X1160399Y337880D02*
X1159059Y337880D01*
X1159059Y346034D01*
X1160338Y346034D01*
X1161705Y345158D01*
X1162915Y344421D01*
X1163969Y343822D01*
X1164866Y343363D01*
X1165682Y342998D01*
X1166493Y342681D01*
X1167298Y342413D01*
X1168098Y342194D01*
X1168902Y342023D01*
X1169721Y341901D01*
X1170553Y341828D01*
X1170975Y341810D01*
X1171400Y341804D01*
X1171400Y340157D01*
X1170805Y340173D01*
X1170202Y340220D01*
X1169591Y340298D01*
X1168973Y340408D01*
X1168347Y340549D01*
X1167712Y340722D01*
X1167071Y340925D01*
X1166421Y341160D01*
X1165755Y341432D01*
X1165064Y341746D01*
X1164349Y342101D01*
X1163608Y342499D01*
X1162843Y342939D01*
X1162053Y343421D01*
X1161239Y343945D01*
X1160399Y344510D01*
X1160399Y337880D01*
G37*
G36*
X1167975Y147240D02*
X1167679Y147251D01*
X1167395Y147283D01*
X1167123Y147337D01*
X1166863Y147413D01*
X1166615Y147510D01*
X1166379Y147629D01*
X1166155Y147770D01*
X1165943Y147932D01*
X1165748Y148111D01*
X1165572Y148302D01*
X1165417Y148505D01*
X1165282Y148720D01*
X1165168Y148947D01*
X1165073Y149187D01*
X1164999Y149438D01*
X1164945Y149701D01*
X1164910Y149701D01*
X1164842Y149456D01*
X1164757Y149224D01*
X1164655Y149006D01*
X1164536Y148800D01*
X1164399Y148608D01*
X1164245Y148429D01*
X1164074Y148264D01*
X1163885Y148112D01*
X1163684Y147975D01*
X1163474Y147857D01*
X1163256Y147757D01*
X1163029Y147675D01*
X1162794Y147611D01*
X1162550Y147566D01*
X1162298Y147538D01*
X1162037Y147529D01*
X1161693Y147546D01*
X1161365Y147595D01*
X1161055Y147678D01*
X1160761Y147793D01*
X1160483Y147941D01*
X1160222Y148123D01*
X1159978Y148337D01*
X1159751Y148585D01*
X1159546Y148860D01*
X1159368Y149157D01*
X1159217Y149478D01*
X1159094Y149821D01*
X1158998Y150186D01*
X1158930Y150574D01*
X1158889Y150985D01*
X1158875Y151418D01*
X1158889Y151861D01*
X1158929Y152281D01*
X1158996Y152676D01*
X1159090Y153048D01*
X1159211Y153396D01*
X1159358Y153719D01*
X1159532Y154019D01*
X1159734Y154295D01*
X1159958Y154542D01*
X1160201Y154757D01*
X1160462Y154938D01*
X1160743Y155087D01*
X1161043Y155202D01*
X1161361Y155285D01*
X1161698Y155334D01*
X1162055Y155350D01*
X1162315Y155341D01*
X1162568Y155314D01*
X1162811Y155268D01*
X1163047Y155204D01*
X1163273Y155121D01*
X1163492Y155020D01*
X1163701Y154901D01*
X1163903Y154764D01*
X1164091Y154610D01*
X1164260Y154443D01*
X1164275Y154426D01*
X1164411Y154263D01*
X1164544Y154070D01*
X1164659Y153862D01*
X1164755Y153642D01*
X1164833Y153408D01*
X1164892Y153161D01*
X1164927Y153161D01*
X1164985Y153448D01*
X1165062Y153719D01*
X1165159Y153974D01*
X1165275Y154212D01*
X1165410Y154434D01*
X1165564Y154639D01*
X1165737Y154828D01*
X1165893Y154967D01*
X1165930Y155000D01*
X1166139Y155154D01*
X1166361Y155288D01*
X1166595Y155400D01*
X1166842Y155493D01*
X1167102Y155565D01*
X1167375Y155616D01*
X1167660Y155647D01*
X1167958Y155657D01*
X1168373Y155640D01*
X1168765Y155589D01*
X1169133Y155504D01*
X1169478Y155386D01*
X1169799Y155233D01*
X1170096Y155046D01*
X1170370Y154826D01*
X1170621Y154571D01*
X1170844Y154285D01*
X1171038Y153969D01*
X1171202Y153623D01*
X1171337Y153248D01*
X1171441Y152844D01*
X1171516Y152410D01*
X1171560Y151946D01*
X1171575Y151453D01*
X1171561Y150972D01*
X1171517Y150517D01*
X1171443Y150090D01*
X1171341Y149689D01*
X1171209Y149316D01*
X1171048Y148969D01*
X1170858Y148649D01*
X1170638Y148357D01*
X1170391Y148095D01*
X1170120Y147868D01*
X1169824Y147676D01*
X1169504Y147519D01*
X1169159Y147397D01*
X1168789Y147310D01*
X1168394Y147258D01*
X1167975Y147240D01*
G37*
%LPC*%
G36*
X1167844Y148869D02*
X1168153Y148879D01*
X1168441Y148910D01*
X1168710Y148961D01*
X1168959Y149032D01*
X1169188Y149123D01*
X1169397Y149235D01*
X1169586Y149367D01*
X1169756Y149519D01*
X1169905Y149692D01*
X1170034Y149885D01*
X1170144Y150099D01*
X1170234Y150332D01*
X1170303Y150586D01*
X1170353Y150861D01*
X1170383Y151155D01*
X1170393Y151470D01*
X1170383Y151782D01*
X1170354Y152073D01*
X1170306Y152344D01*
X1170238Y152594D01*
X1170152Y152823D01*
X1170045Y153032D01*
X1169920Y153221D01*
X1169775Y153389D01*
X1169610Y153536D01*
X1169421Y153664D01*
X1169209Y153773D01*
X1168975Y153862D01*
X1168718Y153931D01*
X1168438Y153980D01*
X1168135Y154009D01*
X1167809Y154019D01*
X1167531Y154009D01*
X1167271Y153976D01*
X1167028Y153923D01*
X1166803Y153848D01*
X1166595Y153752D01*
X1166406Y153635D01*
X1166234Y153496D01*
X1166079Y153336D01*
X1165943Y153157D01*
X1165824Y152960D01*
X1165724Y152746D01*
X1165642Y152515D01*
X1165579Y152267D01*
X1165533Y152001D01*
X1165506Y151718D01*
X1165497Y151418D01*
X1165507Y151126D01*
X1165536Y150851D01*
X1165585Y150592D01*
X1165653Y150349D01*
X1165741Y150123D01*
X1165849Y149914D01*
X1165976Y149720D01*
X1166123Y149544D01*
X1166287Y149386D01*
X1166465Y149249D01*
X1166659Y149133D01*
X1166866Y149038D01*
X1167089Y148964D01*
X1167326Y148911D01*
X1167578Y148880D01*
X1167844Y148869D01*
G37*
G36*
X1162142Y149141D02*
X1162399Y149150D01*
X1162641Y149178D01*
X1162866Y149225D01*
X1163076Y149291D01*
X1163270Y149375D01*
X1163449Y149478D01*
X1163611Y149600D01*
X1163758Y149741D01*
X1163889Y149898D01*
X1164002Y150072D01*
X1164097Y150260D01*
X1164175Y150464D01*
X1164236Y150684D01*
X1164280Y150919D01*
X1164306Y151169D01*
X1164314Y151435D01*
X1164306Y151705D01*
X1164282Y151958D01*
X1164242Y152195D01*
X1164186Y152415D01*
X1164114Y152619D01*
X1164026Y152806D01*
X1163922Y152976D01*
X1163802Y153130D01*
X1163664Y153267D01*
X1163506Y153385D01*
X1163328Y153485D01*
X1163131Y153567D01*
X1162913Y153631D01*
X1162676Y153676D01*
X1162419Y153704D01*
X1162142Y153713D01*
X1161889Y153704D01*
X1161652Y153677D01*
X1161431Y153632D01*
X1161226Y153569D01*
X1161038Y153489D01*
X1160867Y153390D01*
X1160711Y153273D01*
X1160572Y153139D01*
X1160450Y152987D01*
X1160343Y152816D01*
X1160253Y152628D01*
X1160180Y152422D01*
X1160123Y152198D01*
X1160082Y151956D01*
X1160057Y151696D01*
X1160049Y151418D01*
X1160057Y151148D01*
X1160082Y150895D01*
X1160123Y150658D01*
X1160180Y150438D01*
X1160254Y150234D01*
X1160345Y150047D01*
X1160451Y149877D01*
X1160574Y149723D01*
X1160714Y149587D01*
X1160870Y149468D01*
X1161041Y149368D01*
X1161229Y149286D01*
X1161433Y149223D01*
X1161653Y149177D01*
X1161890Y149150D01*
X1162142Y149141D01*
G37*
%LPD*%
G36*
X1171400Y157901D02*
X1159059Y157901D01*
X1159059Y163095D01*
X1159074Y163599D01*
X1159120Y164074D01*
X1159196Y164520D01*
X1159302Y164936D01*
X1159439Y165323D01*
X1159606Y165681D01*
X1159804Y166010D01*
X1160031Y166309D01*
X1160287Y166576D01*
X1160567Y166807D01*
X1160873Y167003D01*
X1161203Y167163D01*
X1161558Y167287D01*
X1161938Y167376D01*
X1162343Y167430D01*
X1162773Y167448D01*
X1163200Y167430D01*
X1163604Y167376D01*
X1163986Y167287D01*
X1164345Y167162D01*
X1164682Y167001D01*
X1164996Y166805D01*
X1165288Y166572D01*
X1165558Y166305D01*
X1165800Y166006D01*
X1166010Y165682D01*
X1166188Y165332D01*
X1166333Y164957D01*
X1166446Y164556D01*
X1166527Y164129D01*
X1166575Y163677D01*
X1166592Y163200D01*
X1166592Y159574D01*
X1171400Y159574D01*
X1171400Y157901D01*
G37*
%LPC*%
G36*
X1165269Y159574D02*
X1165269Y162963D01*
X1165259Y163303D01*
X1165230Y163620D01*
X1165182Y163916D01*
X1165114Y164189D01*
X1165027Y164441D01*
X1164920Y164671D01*
X1164795Y164879D01*
X1164649Y165065D01*
X1164485Y165229D01*
X1164301Y165372D01*
X1164097Y165492D01*
X1163875Y165591D01*
X1163633Y165667D01*
X1163371Y165722D01*
X1163091Y165755D01*
X1162790Y165766D01*
X1162501Y165755D01*
X1162230Y165721D01*
X1161978Y165665D01*
X1161744Y165586D01*
X1161529Y165485D01*
X1161333Y165362D01*
X1161156Y165216D01*
X1160997Y165048D01*
X1160857Y164857D01*
X1160736Y164644D01*
X1160633Y164408D01*
X1160549Y164150D01*
X1160483Y163869D01*
X1160437Y163566D01*
X1160409Y163241D01*
X1160399Y162893D01*
X1160399Y159574D01*
X1165269Y159574D01*
G37*
%LPD*%
G36*
X121300Y699040D02*
X108959Y699040D01*
X108959Y700985D01*
X119540Y707659D01*
X118059Y707580D01*
X117052Y707553D01*
X108959Y707553D01*
X108959Y709060D01*
X121300Y709060D01*
X121300Y707045D01*
X110790Y700442D01*
X111639Y700485D01*
X113102Y700529D01*
X121300Y700529D01*
X121300Y699040D01*
G37*
G36*
X121300Y688966D02*
X119960Y688966D01*
X119960Y692111D01*
X110466Y692111D01*
X112454Y689325D01*
X110965Y689325D01*
X108959Y692242D01*
X108959Y693696D01*
X119960Y693696D01*
X119960Y696700D01*
X121300Y696700D01*
X121300Y688966D01*
G37*
G36*
X-5100Y416273D02*
X-6440Y416273D01*
X-6440Y424007D01*
X-5100Y424007D01*
X-5100Y421003D01*
X5901Y421003D01*
X5901Y419549D01*
X3895Y416632D01*
X2406Y416632D01*
X4394Y419417D01*
X-5100Y419417D01*
X-5100Y416273D01*
G37*
G36*
X-3375Y406218D02*
X-3767Y406301D01*
X-4134Y406405D01*
X-4476Y406528D01*
X-4792Y406671D01*
X-5083Y406834D01*
X-5349Y407017D01*
X-5590Y407219D01*
X-5805Y407442D01*
X-5995Y407685D01*
X-6159Y407947D01*
X-6299Y408230D01*
X-6413Y408532D01*
X-6501Y408854D01*
X-6565Y409196D01*
X-6603Y409559D01*
X-6615Y409940D01*
X-6599Y410352D01*
X-6551Y410741D01*
X-6470Y411107D01*
X-6358Y411451D01*
X-6213Y411773D01*
X-6036Y412072D01*
X-5827Y412349D01*
X-5586Y412603D01*
X-5317Y412831D01*
X-5024Y413028D01*
X-4706Y413196D01*
X-4365Y413332D01*
X-4000Y413439D01*
X-3611Y413515D01*
X-3198Y413560D01*
X-2761Y413575D01*
X5901Y413575D01*
X5901Y409538D01*
X4534Y409538D01*
X4534Y411911D01*
X-2796Y411911D01*
X-3090Y411903D01*
X-3364Y411878D01*
X-3621Y411837D01*
X-3860Y411780D01*
X-4080Y411706D01*
X-4282Y411616D01*
X-4466Y411509D01*
X-4631Y411386D01*
X-4778Y411248D01*
X-4905Y411099D01*
X-5013Y410937D01*
X-5101Y410764D01*
X-5170Y410578D01*
X-5218Y410381D01*
X-5248Y410171D01*
X-5258Y409949D01*
X-5249Y409746D01*
X-5222Y409551D01*
X-5178Y409365D01*
X-5115Y409187D01*
X-5035Y409019D01*
X-4937Y408859D01*
X-4822Y408708D01*
X-4688Y408565D01*
X-4539Y408434D01*
X-4376Y408314D01*
X-4199Y408207D01*
X-4007Y408112D01*
X-3802Y408030D01*
X-3583Y407959D01*
X-3350Y407902D01*
X-3103Y407856D01*
X-3375Y406218D01*
G37*
D10*
X612100Y763800D02*
X612100Y662200D01*
X561300Y662200D01*
X561300Y763800D01*
X612100Y763800D01*
X95900Y573800D02*
X95900Y472200D01*
X95900Y573800D02*
X146700Y573800D01*
X146700Y472200D01*
X95900Y472200D01*
X95900Y383800D02*
X95900Y282200D01*
X95900Y383800D02*
X146700Y383800D01*
X146700Y282200D01*
X95900Y282200D01*
X95900Y193800D02*
X95900Y92200D01*
X95900Y193800D02*
X146700Y193800D01*
X146700Y92200D01*
X95900Y92200D01*
X667900Y662200D02*
X667900Y763800D01*
X718700Y763800D01*
X718700Y662200D01*
X667900Y662200D01*
X667900Y573800D02*
X667900Y472200D01*
X667900Y573800D02*
X718700Y573800D01*
X718700Y472200D01*
X667900Y472200D01*
X667900Y383800D02*
X667900Y282200D01*
X667900Y383800D02*
X718700Y383800D01*
X718700Y282200D01*
X667900Y282200D01*
X667900Y193800D02*
X667900Y92200D01*
X667900Y193800D02*
X718700Y193800D01*
X718700Y92200D01*
X667900Y92200D01*
X612100Y472200D02*
X612100Y573800D01*
X612100Y472200D02*
X561300Y472200D01*
X561300Y573800D01*
X612100Y573800D01*
X612100Y383800D02*
X612100Y282200D01*
X561300Y282200D01*
X561300Y383800D01*
X612100Y383800D01*
X612100Y193800D02*
X612100Y92200D01*
X561300Y92200D01*
X561300Y193800D01*
X612100Y193800D01*
X1184100Y662200D02*
X1184100Y763800D01*
X1184100Y662200D02*
X1133300Y662200D01*
X1133300Y763800D01*
X1184100Y763800D01*
X1184100Y568900D02*
X1184100Y467300D01*
X1133300Y467300D01*
X1133300Y568900D01*
X1184100Y568900D01*
X1184100Y384300D02*
X1184100Y282700D01*
X1133300Y282700D01*
X1133300Y384300D01*
X1184100Y384300D01*
X1184100Y193800D02*
X1184100Y92200D01*
X1133300Y92200D01*
X1133300Y193800D01*
X1184100Y193800D01*
X95900Y662200D02*
X95900Y763800D01*
X146700Y763800D01*
X146700Y662200D01*
X95900Y662200D01*
D11*
X-17090Y367910D02*
X-17090Y352910D01*
X-17090Y470910D02*
X-17090Y481910D01*
X-44790Y491410D02*
X-66690Y491410D01*
X-93790Y491410D02*
X-106090Y491410D01*
X-106090Y341410D01*
X-93790Y341410D01*
X-66690Y341410D02*
X-44790Y341410D01*
D12*
X-690Y463710D03*
M02*
