;TYPE=PLATED
;Layer: PTH_Through_Via
;EasyEDA Pro v2.2.40.3, 2025-06-29 22:56:56
;Gerber Generator version 0.3
M48
METRIC,LZ,0000.00000
;Hole size 1 = 0.30500 METRIC
T01C0.30500
%
G05
G90
T01
X93.54687Y-10.8154
X84.91087Y-11.1964
X94.94398Y-21.3564
X108.40587Y-20.0864
X106.93448Y-18.615
X104.21487Y-23.8964
X105.58887Y-23.8964
X105.58887Y-25.28187
X104.23975Y-25.28187
X95.68375Y-22.4994
X95.68375Y-23.89431
X58.89899Y-10.5614
X50.26299Y-10.9424
X60.29609Y-21.1024
X73.75799Y-19.8324
X72.2866Y-18.361
X69.56699Y-23.6424
X70.94099Y-23.6424
X70.94099Y-25.02787
X69.59186Y-25.02787
X61.03587Y-22.2454
X61.03587Y-23.64031
X109.728Y-30.48
X104.394Y-30.48
X102.87Y-37.59606
X100.711Y-37.59606
X102.87Y-38.862
X100.711Y-38.862
X113.792Y-36.29609
X113.792Y-45.466
X114.86061Y-39.751
X114.808Y-44.196
X115.697Y-33.02
X103.124Y-45.466
X107.061Y-35.56
X108.585Y-43.561
X114.1242Y-34.34613
X114.1242Y-30.48
X106.934Y-33.655
X109.855Y-33.655
X102.997Y-44.42274
X102.997Y-34.036
X102.997Y-35.24994
X43.59417Y-33.28038
X43.59417Y-34.48055
X43.561Y-44.58338
X43.561Y-46.10738
X76.2Y-44.45638
X76.2Y-46.48838
X75.31718Y-34.1608
X75.31718Y-36.1928
X61.35478Y-30.78607
X63.38678Y-30.78607
X39.624Y-26.797
X41.275Y-26.797
X42.98014Y-26.797
X41.529Y-24.765
X38.481Y-15.94814
X77.597Y-17.526
X106.553Y-15.24
X56.27729Y-26.01321
X56.28426Y-28.067
X77.07651Y-31.115
X115.68577Y-15.99197
X115.72713Y-23.21087
X93.853Y-50.673
X42.418Y-36.957
X67.691Y-32.766
X43.18Y-38.227
X69.342Y-44.069
X34.163Y-42.291
X39.94976Y-42.418
X83.185Y-42.291
X83.82Y-40.767
X44.323Y-41.91
X44.52439Y-39.37
X85.09Y-44.14339
X84.201Y-45.085
X117.475Y-42.799
X116.713Y-41.021
X114.681Y-46.228
X100.2665Y-41.4655
X111.379Y-24.892
X80.899Y-50.419
X76.327Y-23.495
X36.703Y-34.29
X78.42394Y-40.32394
X77.27761Y-41.91638
X39.243Y-38.354
X40.60231Y-38.354
X84.455Y-49.657
X107.45853Y-48.387
X107.45853Y-45.466
X76.94066Y-47.879
X77.12509Y-49.149
X77.132Y-50.165
X90.932Y-25.781
X83.896Y-28.524
X107.188Y-28.575
X82.20124Y-31.369
X83.42024Y-32.31061
X84.77648Y-33.02
X86.0264Y-33.782
X100.53139Y-32.56461
X100.711Y-30.48
X87.884Y-5.715
X56.769Y-12.954
X91.821Y-13.208
X103.886Y-41.91
X104.648Y-39.624
X109.9185Y-52.5145
X32.385Y-45.69314
X32.258Y-52.832
X74.93Y-50.292
X42.95067Y-47.47209
X93.345Y-48.133
X89.916Y-40.386
X93.218Y-39.497
X85.979Y-49.022
X87.63Y-50.673
X64.643Y-47.879
X67.056Y-48.641
X69.342Y-50.927
X71.755Y-51.943
X89.31524Y-34.925
X96.75745Y-36.05145
X94.742Y-54.483
X85.09Y-13.208
X54.356Y-52.832
X50.292Y-50.165
X50.165Y-54.356
X35.814Y-54.737
X30.48Y-54.483
X92.837Y-26.87139
X84.963Y-26.924
X56.515Y-5.461
X83.566Y-5.842
X83.566Y-21.463
X78.232Y-24.003
X76.327Y-37.465
X75.184Y-46.101
X97.155Y-21.844
X97.917Y-45.72
X96.52Y-47.371
X96.012Y-53.213
M30