G04 Layer: TopPasteMaskLayer*
G04 EasyEDA Pro v2.2.40.3, 2025-06-29 22:56:56*
G04 Gerber Generator version 0.3*
G04 Scale: 100 percent, Rotated: No, Reflected: No*
G04 Dimensions in millimeters*
G04 Leading zeros omitted, absolute positions, 4 integers and 5 decimals*
G04 Generated by one-click*
%FSLAX45Y45*%
%MOMM*%
%ADD10R,1.25001X1.0*%
%ADD11R,2.47X0.98001*%
%ADD12R,2.47X3.59999*%
%ADD13R,0.7X1.25001*%
%ADD14R,0.8X1.0*%
%ADD15R,0.6X1.1*%
%ADD16O,2.0829X0.36401*%
%ADD17O,2.08201X0.36401*%
%ADD18O,1.73149X0.343*%
%ADD19O,2.03799X0.57399*%
%ADD20R,1.2X3.49999*%
%ADD21R,0.98001X2.47*%
%ADD22R,3.59999X2.47*%
%ADD23O,0.55999X2.1*%
%ADD24R,1.0X1.25001*%
G75*


G04 PolygonModel Start*
G36*
G01X9356524Y-2275919D02*
G01X9356524Y-2403917D01*
G01X9351523Y-2408918D01*
G01X9236522Y-2408918D01*
G01X9231523Y-2403917D01*
G01X9231020Y-2362914D01*
G01X9276021Y-2362914D01*
G01X9276021Y-2317915D01*
G01X9232021Y-2317915D01*
G01X9231523Y-2275919D01*
G01X9236522Y-2270917D01*
G01X9351523Y-2270917D01*
G01X9356524Y-2275919D01*
G37*
G36*
G01X9015529Y-2403919D02*
G01X9015529Y-2275921D01*
G01X9020530Y-2270920D01*
G01X9135531Y-2270920D01*
G01X9140530Y-2275921D01*
G01X9141033Y-2316924D01*
G01X9096032Y-2316924D01*
G01X9096032Y-2361923D01*
G01X9140032Y-2361923D01*
G01X9140530Y-2403919D01*
G01X9135531Y-2408921D01*
G01X9020530Y-2408921D01*
G01X9015529Y-2403919D01*
G37*
G36*
G01X10175367Y-2144022D02*
G01X10303365Y-2144022D01*
G01X10308366Y-2149023D01*
G01X10308366Y-2264024D01*
G01X10303365Y-2269023D01*
G01X10262362Y-2269526D01*
G01X10262362Y-2224524D01*
G01X10217363Y-2224524D01*
G01X10217363Y-2268525D01*
G01X10175367Y-2269023D01*
G01X10170365Y-2264024D01*
G01X10170365Y-2149023D01*
G01X10175367Y-2144022D01*
G37*
G36*
G01X10303368Y-2485017D02*
G01X10175369Y-2485017D01*
G01X10170368Y-2480015D01*
G01X10170368Y-2365014D01*
G01X10175369Y-2360016D01*
G01X10216373Y-2359513D01*
G01X10216373Y-2404514D01*
G01X10261371Y-2404514D01*
G01X10261371Y-2360513D01*
G01X10303368Y-2360016D01*
G01X10308369Y-2365014D01*
G01X10308369Y-2480015D01*
G01X10303368Y-2485017D01*
G37*
G36*
G01X5891736Y-2250519D02*
G01X5891736Y-2378517D01*
G01X5886734Y-2383518D01*
G01X5771733Y-2383518D01*
G01X5766735Y-2378517D01*
G01X5766232Y-2337514D01*
G01X5811233Y-2337514D01*
G01X5811233Y-2292515D01*
G01X5767233Y-2292515D01*
G01X5766735Y-2250519D01*
G01X5771733Y-2245517D01*
G01X5886734Y-2245517D01*
G01X5891736Y-2250519D01*
G37*
G36*
G01X5550741Y-2378519D02*
G01X5550741Y-2250521D01*
G01X5555742Y-2245520D01*
G01X5670743Y-2245520D01*
G01X5675742Y-2250521D01*
G01X5676245Y-2291524D01*
G01X5631244Y-2291524D01*
G01X5631244Y-2336523D01*
G01X5675244Y-2336523D01*
G01X5675742Y-2378519D01*
G01X5670743Y-2383521D01*
G01X5555742Y-2383521D01*
G01X5550741Y-2378519D01*
G37*
G36*
G01X6710578Y-2118622D02*
G01X6838577Y-2118622D01*
G01X6843578Y-2123623D01*
G01X6843578Y-2238624D01*
G01X6838577Y-2243623D01*
G01X6797573Y-2244126D01*
G01X6797573Y-2199124D01*
G01X6752575Y-2199124D01*
G01X6752575Y-2243125D01*
G01X6710578Y-2243623D01*
G01X6705577Y-2238624D01*
G01X6705577Y-2123623D01*
G01X6710578Y-2118622D01*
G37*
G36*
G01X6838579Y-2459617D02*
G01X6710581Y-2459617D01*
G01X6705580Y-2454615D01*
G01X6705580Y-2339614D01*
G01X6710581Y-2334616D01*
G01X6751584Y-2334113D01*
G01X6751584Y-2379114D01*
G01X6796583Y-2379114D01*
G01X6796583Y-2335113D01*
G01X6838579Y-2334616D01*
G01X6843580Y-2339614D01*
G01X6843580Y-2454615D01*
G01X6838579Y-2459617D01*
G37*
G36*
G01X7254491Y-1259958D02*
G01X7254491Y-1387956D01*
G01X7249489Y-1392957D01*
G01X7134488Y-1392957D01*
G01X7129490Y-1387956D01*
G01X7128987Y-1346953D01*
G01X7173988Y-1346953D01*
G01X7173988Y-1301954D01*
G01X7129988Y-1301954D01*
G01X7129490Y-1259958D01*
G01X7134488Y-1254956D01*
G01X7249489Y-1254956D01*
G01X7254491Y-1259958D01*
G37*
G36*
G01X7039490Y-1259958D02*
G01X7039487Y-1301954D01*
G01X6994989Y-1301954D01*
G01X6994989Y-1346953D01*
G01X7038987Y-1346953D01*
G01X7039490Y-1387956D01*
G01X7034489Y-1392957D01*
G01X6919490Y-1392957D01*
G01X6914489Y-1387956D01*
G01X6914489Y-1259958D01*
G01X6919490Y-1254956D01*
G01X7034489Y-1254956D01*
G01X7039490Y-1259958D01*
G37*
G36*
G01X10979787Y-1711637D02*
G01X11107785Y-1711637D01*
G01X11112787Y-1716639D01*
G01X11112787Y-1831640D01*
G01X11107785Y-1836638D01*
G01X11066782Y-1837141D01*
G01X11066782Y-1792140D01*
G01X11021783Y-1792140D01*
G01X11021783Y-1836141D01*
G01X10979787Y-1836638D01*
G01X10974786Y-1831640D01*
G01X10974786Y-1716639D01*
G01X10979787Y-1711637D01*
G37*
G36*
G01X10979787Y-1926638D02*
G01X11021783Y-1926641D01*
G01X11021783Y-1971139D01*
G01X11066782Y-1971139D01*
G01X11066782Y-1927141D01*
G01X11107785Y-1926638D01*
G01X11112787Y-1931640D01*
G01X11112787Y-2046638D01*
G01X11107785Y-2051639D01*
G01X10979787Y-2051639D01*
G01X10974786Y-2046638D01*
G01X10974786Y-1931640D01*
G01X10979787Y-1926638D01*
G37*
G36*
G01X6392997Y-1399540D02*
G01X6392997Y-1271542D01*
G01X6397998Y-1266541D01*
G01X6512999Y-1266541D01*
G01X6517998Y-1271542D01*
G01X6518501Y-1312545D01*
G01X6473500Y-1312545D01*
G01X6473500Y-1357544D01*
G01X6517500Y-1357544D01*
G01X6517998Y-1399540D01*
G01X6512999Y-1404541D01*
G01X6397998Y-1404541D01*
G01X6392997Y-1399540D01*
G37*
G36*
G01X6607998Y-1399540D02*
G01X6608000Y-1357544D01*
G01X6652499Y-1357544D01*
G01X6652499Y-1312545D01*
G01X6608501Y-1312545D01*
G01X6607998Y-1271542D01*
G01X6612999Y-1266541D01*
G01X6727997Y-1266541D01*
G01X6732999Y-1271542D01*
G01X6732999Y-1399540D01*
G01X6727997Y-1404541D01*
G01X6612999Y-1404541D01*
G01X6607998Y-1399540D01*
G37*
G36*
G01X8834488Y-1188042D02*
G01X8706490Y-1188042D01*
G01X8701488Y-1183041D01*
G01X8701488Y-1068040D01*
G01X8706490Y-1063041D01*
G01X8747493Y-1062538D01*
G01X8747493Y-1107539D01*
G01X8792491Y-1107539D01*
G01X8792491Y-1063539D01*
G01X8834488Y-1063041D01*
G01X8839489Y-1068040D01*
G01X8839489Y-1183041D01*
G01X8834488Y-1188042D01*
G37*
G36*
G01X8834488Y-973041D02*
G01X8792491Y-973038D01*
G01X8792491Y-928540D01*
G01X8747493Y-928540D01*
G01X8747493Y-972538D01*
G01X8706490Y-973041D01*
G01X8701488Y-968040D01*
G01X8701488Y-853041D01*
G01X8706490Y-848040D01*
G01X8834488Y-848040D01*
G01X8839489Y-853041D01*
G01X8839489Y-968040D01*
G01X8834488Y-973041D01*
G37*
G36*
G01X7514999Y-1686237D02*
G01X7642997Y-1686237D01*
G01X7647998Y-1691239D01*
G01X7647998Y-1806240D01*
G01X7642997Y-1811238D01*
G01X7601994Y-1811741D01*
G01X7601994Y-1766740D01*
G01X7556995Y-1766740D01*
G01X7556995Y-1810741D01*
G01X7514999Y-1811238D01*
G01X7509997Y-1806240D01*
G01X7509997Y-1691239D01*
G01X7514999Y-1686237D01*
G37*
G36*
G01X7514999Y-1901238D02*
G01X7556995Y-1901241D01*
G01X7556995Y-1945739D01*
G01X7601994Y-1945739D01*
G01X7601994Y-1901741D01*
G01X7642997Y-1901238D01*
G01X7647998Y-1906240D01*
G01X7647998Y-2021238D01*
G01X7642997Y-2026239D01*
G01X7514999Y-2026239D01*
G01X7509997Y-2021238D01*
G01X7509997Y-1906240D01*
G01X7514999Y-1901238D01*
G37*
G36*
G01X9857785Y-1424940D02*
G01X9857785Y-1296942D01*
G01X9862786Y-1291941D01*
G01X9977788Y-1291941D01*
G01X9982786Y-1296942D01*
G01X9983289Y-1337945D01*
G01X9938288Y-1337945D01*
G01X9938288Y-1382944D01*
G01X9982288Y-1382944D01*
G01X9982786Y-1424940D01*
G01X9977788Y-1429941D01*
G01X9862786Y-1429941D01*
G01X9857785Y-1424940D01*
G37*
G36*
G01X10072786Y-1424940D02*
G01X10072789Y-1382944D01*
G01X10117287Y-1382944D01*
G01X10117287Y-1337945D01*
G01X10073289Y-1337945D01*
G01X10072786Y-1296942D01*
G01X10077787Y-1291941D01*
G01X10192786Y-1291941D01*
G01X10197787Y-1296942D01*
G01X10197787Y-1424940D01*
G01X10192786Y-1429941D01*
G01X10077787Y-1429941D01*
G01X10072786Y-1424940D01*
G37*
G36*
G01X5369699Y-1162642D02*
G01X5241701Y-1162642D01*
G01X5236700Y-1157641D01*
G01X5236700Y-1042640D01*
G01X5241701Y-1037641D01*
G01X5282704Y-1037138D01*
G01X5282704Y-1082139D01*
G01X5327703Y-1082139D01*
G01X5327703Y-1038139D01*
G01X5369699Y-1037641D01*
G01X5374701Y-1042640D01*
G01X5374701Y-1157641D01*
G01X5369699Y-1162642D01*
G37*
G36*
G01X5369699Y-947641D02*
G01X5327703Y-947638D01*
G01X5327703Y-903140D01*
G01X5282704Y-903140D01*
G01X5282704Y-947138D01*
G01X5241701Y-947641D01*
G01X5236700Y-942640D01*
G01X5236700Y-827641D01*
G01X5241701Y-822640D01*
G01X5369699Y-822640D01*
G01X5374701Y-827641D01*
G01X5374701Y-942640D01*
G01X5369699Y-947641D01*
G37*
G36*
G01X10719279Y-1285358D02*
G01X10719279Y-1413356D01*
G01X10714278Y-1418357D01*
G01X10599277Y-1418357D01*
G01X10594278Y-1413356D01*
G01X10593775Y-1372353D01*
G01X10638776Y-1372353D01*
G01X10638776Y-1327354D01*
G01X10594776Y-1327354D01*
G01X10594278Y-1285358D01*
G01X10599277Y-1280356D01*
G01X10714278Y-1280356D01*
G01X10719279Y-1285358D01*
G37*
G36*
G01X10504278Y-1285358D02*
G01X10504276Y-1327354D01*
G01X10459777Y-1327354D01*
G01X10459777Y-1372353D01*
G01X10503775Y-1372353D01*
G01X10504278Y-1413356D01*
G01X10499277Y-1418357D01*
G01X10384278Y-1418357D01*
G01X10379277Y-1413356D01*
G01X10379277Y-1285358D01*
G01X10384278Y-1280356D01*
G01X10499277Y-1280356D01*
G01X10504278Y-1285358D01*
G37*
G36*
G01X9138287Y-1648137D02*
G01X9266285Y-1648137D01*
G01X9271287Y-1653139D01*
G01X9271287Y-1768140D01*
G01X9266285Y-1773138D01*
G01X9225282Y-1773641D01*
G01X9225282Y-1728640D01*
G01X9180283Y-1728640D01*
G01X9180283Y-1772641D01*
G01X9138287Y-1773138D01*
G01X9133286Y-1768140D01*
G01X9133286Y-1653139D01*
G01X9138287Y-1648137D01*
G37*
G36*
G01X9138287Y-1863138D02*
G01X9180283Y-1863141D01*
G01X9180283Y-1907639D01*
G01X9225282Y-1907639D01*
G01X9225282Y-1863641D01*
G01X9266285Y-1863138D01*
G01X9271287Y-1868140D01*
G01X9271287Y-1983138D01*
G01X9266285Y-1988139D01*
G01X9138287Y-1988139D01*
G01X9133286Y-1983138D01*
G01X9133286Y-1868140D01*
G01X9138287Y-1863138D01*
G37*
G36*
G01X9003990Y-1385839D02*
G01X9003990Y-1513837D01*
G01X8998988Y-1518839D01*
G01X8883987Y-1518839D01*
G01X8878989Y-1513837D01*
G01X8878486Y-1472834D01*
G01X8923487Y-1472834D01*
G01X8923487Y-1427836D01*
G01X8879486Y-1427836D01*
G01X8878989Y-1385839D01*
G01X8883987Y-1380838D01*
G01X8998988Y-1380838D01*
G01X9003990Y-1385839D01*
G37*
G36*
G01X8788989Y-1385839D02*
G01X8788986Y-1427836D01*
G01X8744488Y-1427836D01*
G01X8744488Y-1472834D01*
G01X8788486Y-1472834D01*
G01X8788989Y-1513837D01*
G01X8783988Y-1518839D01*
G01X8668989Y-1518839D01*
G01X8663988Y-1513837D01*
G01X8663988Y-1385839D01*
G01X8668989Y-1380838D01*
G01X8783988Y-1380838D01*
G01X8788989Y-1385839D01*
G37*
G36*
G01X5539201Y-1360439D02*
G01X5539201Y-1488437D01*
G01X5534200Y-1493439D01*
G01X5419199Y-1493439D01*
G01X5414200Y-1488437D01*
G01X5413697Y-1447434D01*
G01X5458699Y-1447434D01*
G01X5458699Y-1402436D01*
G01X5414698Y-1402436D01*
G01X5414200Y-1360439D01*
G01X5419199Y-1355438D01*
G01X5534200Y-1355438D01*
G01X5539201Y-1360439D01*
G37*
G36*
G01X5324200Y-1360439D02*
G01X5324198Y-1402436D01*
G01X5279700Y-1402436D01*
G01X5279700Y-1447434D01*
G01X5323698Y-1447434D01*
G01X5324200Y-1488437D01*
G01X5319199Y-1493439D01*
G01X5204201Y-1493439D01*
G01X5199199Y-1488437D01*
G01X5199199Y-1360439D01*
G01X5204201Y-1355438D01*
G01X5319199Y-1355438D01*
G01X5324200Y-1360439D01*
G37*
G36*
G01X5673499Y-1622737D02*
G01X5801497Y-1622737D01*
G01X5806498Y-1627739D01*
G01X5806498Y-1742740D01*
G01X5801497Y-1747738D01*
G01X5760494Y-1748241D01*
G01X5760494Y-1703240D01*
G01X5715495Y-1703240D01*
G01X5715495Y-1747241D01*
G01X5673499Y-1747738D01*
G01X5668497Y-1742740D01*
G01X5668497Y-1627739D01*
G01X5673499Y-1622737D01*
G37*
G36*
G01X5673499Y-1837738D02*
G01X5715495Y-1837741D01*
G01X5715495Y-1882239D01*
G01X5760494Y-1882239D01*
G01X5760494Y-1838241D01*
G01X5801497Y-1837738D01*
G01X5806498Y-1842740D01*
G01X5806498Y-1957738D01*
G01X5801497Y-1962739D01*
G01X5673499Y-1962739D01*
G01X5668497Y-1957738D01*
G01X5668497Y-1842740D01*
G01X5673499Y-1837738D01*
G37*
G36*
G01X6033897Y-1170140D02*
G02X6033897Y-1142139I0J14000D01*
G01X6167897Y-1142139D01*
G02X6167897Y-1170140I0J-14000D01*
G01X6033897Y-1170140D01*
G37*
G36*
G01X6033897Y-1120127D02*
G02X6033897Y-1092126I0J14000D01*
G01X6167897Y-1092126D01*
G02X6167897Y-1120127I0J-14000D01*
G01X6033897Y-1120127D01*
G37*
G36*
G01X6033897Y-1070140D02*
G02X6033897Y-1042139I0J14000D01*
G01X6167897Y-1042139D01*
G02X6167897Y-1070140I0J-14000D01*
G01X6033897Y-1070140D01*
G37*
G36*
G01X6033897Y-1020127D02*
G02X6033897Y-992127I0J14000D01*
G01X6167897Y-992127D01*
G02X6167897Y-1020127I0J-14000D01*
G01X6033897Y-1020127D01*
G37*
G36*
G01X6033897Y-970140D02*
G02X6033897Y-942139I0J14000D01*
G01X6167897Y-942139D01*
G02X6167897Y-970140I0J-14000D01*
G01X6033897Y-970140D01*
G37*
G36*
G01X5611901Y-1170140D02*
G02X5611901Y-1142139I0J14000D01*
G01X5745901Y-1142139D01*
G02X5745901Y-1170140I0J-14000D01*
G01X5611901Y-1170140D01*
G37*
G36*
G01X5611901Y-1120127D02*
G02X5611901Y-1092126I0J14000D01*
G01X5745901Y-1092126D01*
G02X5745901Y-1120127I0J-14000D01*
G01X5611901Y-1120127D01*
G37*
G36*
G01X5611901Y-1070140D02*
G02X5611901Y-1042139I0J14000D01*
G01X5745901Y-1042139D01*
G02X5745901Y-1070140I0J-14000D01*
G01X5611901Y-1070140D01*
G37*
G36*
G01X5611901Y-1020127D02*
G02X5611901Y-992127I0J14000D01*
G01X5745901Y-992127D01*
G02X5745901Y-1020127I0J-14000D01*
G01X5611901Y-1020127D01*
G37*
G36*
G01X5611901Y-970140D02*
G02X5611901Y-942139I0J14000D01*
G01X5745901Y-942139D01*
G02X5745901Y-970140I0J-14000D01*
G01X5611901Y-970140D01*
G37*
G36*
G01X5816699Y-1140140D02*
G01X5816699Y-972139D01*
G01X5963099Y-972139D01*
G01X5963099Y-1140140D01*
G01X5816699Y-1140140D01*
G37*
G36*
G01X9498685Y-1195540D02*
G02X9498685Y-1167539I0J14000D01*
G01X9632685Y-1167539D01*
G02X9632685Y-1195540I0J-14000D01*
G01X9498685Y-1195540D01*
G37*
G36*
G01X9498685Y-1145527D02*
G02X9498685Y-1117526I0J14000D01*
G01X9632685Y-1117526D01*
G02X9632685Y-1145527I0J-14000D01*
G01X9498685Y-1145527D01*
G37*
G36*
G01X9498685Y-1095540D02*
G02X9498685Y-1067539I0J14000D01*
G01X9632685Y-1067539D01*
G02X9632685Y-1095540I0J-14000D01*
G01X9498685Y-1095540D01*
G37*
G36*
G01X9498685Y-1045527D02*
G02X9498685Y-1017527I0J14000D01*
G01X9632685Y-1017527D01*
G02X9632685Y-1045527I0J-14000D01*
G01X9498685Y-1045527D01*
G37*
G36*
G01X9498685Y-995540D02*
G02X9498685Y-967539I0J14000D01*
G01X9632685Y-967539D01*
G02X9632685Y-995540I0J-14000D01*
G01X9498685Y-995540D01*
G37*
G36*
G01X9076689Y-1195540D02*
G02X9076689Y-1167539I0J14000D01*
G01X9210690Y-1167539D01*
G02X9210690Y-1195540I0J-14000D01*
G01X9076689Y-1195540D01*
G37*
G36*
G01X9076689Y-1145527D02*
G02X9076689Y-1117526I0J14000D01*
G01X9210690Y-1117526D01*
G02X9210690Y-1145527I0J-14000D01*
G01X9076689Y-1145527D01*
G37*
G36*
G01X9076689Y-1095540D02*
G02X9076689Y-1067539I0J14000D01*
G01X9210690Y-1067539D01*
G02X9210690Y-1095540I0J-14000D01*
G01X9076689Y-1095540D01*
G37*
G36*
G01X9076689Y-1045527D02*
G02X9076689Y-1017527I0J14000D01*
G01X9210690Y-1017527D01*
G02X9210690Y-1045527I0J-14000D01*
G01X9076689Y-1045527D01*
G37*
G36*
G01X9076689Y-995540D02*
G02X9076689Y-967539I0J14000D01*
G01X9210690Y-967539D01*
G02X9210690Y-995540I0J-14000D01*
G01X9076689Y-995540D01*
G37*
G36*
G01X9281487Y-1165540D02*
G01X9281487Y-997539D01*
G01X9427888Y-997539D01*
G01X9427888Y-1165540D01*
G01X9281487Y-1165540D01*
G37*
G36*
G01X4882198Y-4457838D02*
G01X4882198Y-4585836D01*
G01X4877196Y-4590837D01*
G01X4762195Y-4590837D01*
G01X4757196Y-4585836D01*
G01X4756694Y-4544833D01*
G01X4801695Y-4544833D01*
G01X4801695Y-4499834D01*
G01X4757694Y-4499834D01*
G01X4757196Y-4457838D01*
G01X4762195Y-4452837D01*
G01X4877196Y-4452837D01*
G01X4882198Y-4457838D01*
G37*
G36*
G01X4541203Y-4585839D02*
G01X4541203Y-4457840D01*
G01X4546204Y-4452839D01*
G01X4661205Y-4452839D01*
G01X4666204Y-4457840D01*
G01X4666706Y-4498844D01*
G01X4621705Y-4498844D01*
G01X4621705Y-4543842D01*
G01X4665706Y-4543842D01*
G01X4666204Y-4585839D01*
G01X4661205Y-4590840D01*
G01X4546204Y-4590840D01*
G01X4541203Y-4585839D01*
G37*
G36*
G01X4851556Y-3322671D02*
G01X4851556Y-3450670D01*
G01X4846555Y-3455671D01*
G01X4731554Y-3455671D01*
G01X4726555Y-3450670D01*
G01X4726052Y-3409666D01*
G01X4771053Y-3409666D01*
G01X4771053Y-3364668D01*
G01X4727053Y-3364668D01*
G01X4726555Y-3322671D01*
G01X4731554Y-3317670D01*
G01X4846555Y-3317670D01*
G01X4851556Y-3322671D01*
G37*
G36*
G01X4510561Y-3450672D02*
G01X4510561Y-3322674D01*
G01X4515562Y-3317673D01*
G01X4630564Y-3317673D01*
G01X4635562Y-3322674D01*
G01X4636065Y-3363677D01*
G01X4591064Y-3363677D01*
G01X4591064Y-3408676D01*
G01X4635064Y-3408676D01*
G01X4635562Y-3450672D01*
G01X4630564Y-3455673D01*
G01X4515562Y-3455673D01*
G01X4510561Y-3450672D01*
G37*
G36*
G01X7050561Y-3581680D02*
G01X7050561Y-3453682D01*
G01X7055562Y-3448681D01*
G01X7170564Y-3448681D01*
G01X7175562Y-3453682D01*
G01X7176065Y-3494685D01*
G01X7131064Y-3494685D01*
G01X7131064Y-3539684D01*
G01X7175064Y-3539684D01*
G01X7175562Y-3581680D01*
G01X7170564Y-3586681D01*
G01X7055562Y-3586681D01*
G01X7050561Y-3581680D01*
G37*
G36*
G01X7391556Y-3453679D02*
G01X7391556Y-3581678D01*
G01X7386555Y-3586679D01*
G01X7271554Y-3586679D01*
G01X7266555Y-3581678D01*
G01X7266052Y-3540674D01*
G01X7311053Y-3540674D01*
G01X7311053Y-3495676D01*
G01X7267053Y-3495676D01*
G01X7266555Y-3453679D01*
G01X7271554Y-3448678D01*
G01X7386555Y-3448678D01*
G01X7391556Y-3453679D01*
G37*
G36*
G01X7114061Y-4609044D02*
G01X7114061Y-4481046D01*
G01X7119062Y-4476045D01*
G01X7234064Y-4476045D01*
G01X7239062Y-4481046D01*
G01X7239565Y-4522049D01*
G01X7194564Y-4522049D01*
G01X7194564Y-4567048D01*
G01X7238564Y-4567048D01*
G01X7239062Y-4609044D01*
G01X7234064Y-4614045D01*
G01X7119062Y-4614045D01*
G01X7114061Y-4609044D01*
G37*
G36*
G01X7455056Y-4481043D02*
G01X7455056Y-4609042D01*
G01X7450055Y-4614043D01*
G01X7335054Y-4614043D01*
G01X7330055Y-4609042D01*
G01X7329552Y-4568038D01*
G01X7374553Y-4568038D01*
G01X7374553Y-4523040D01*
G01X7330553Y-4523040D01*
G01X7330055Y-4481043D01*
G01X7335054Y-4476042D01*
G01X7450055Y-4476042D01*
G01X7455056Y-4481043D01*
G37*
G36*
G01X6211216Y-3214317D02*
G01X6211216Y-3342316D01*
G01X6206214Y-3347317D01*
G01X6091213Y-3347317D01*
G01X6086215Y-3342316D01*
G01X6085712Y-3301312D01*
G01X6130713Y-3301312D01*
G01X6130713Y-3256314D01*
G01X6086712Y-3256314D01*
G01X6086215Y-3214317D01*
G01X6091213Y-3209316D01*
G01X6206214Y-3209316D01*
G01X6211216Y-3214317D01*
G37*
G36*
G01X5870221Y-3342318D02*
G01X5870221Y-3214320D01*
G01X5875222Y-3209319D01*
G01X5990223Y-3209319D01*
G01X5995222Y-3214320D01*
G01X5995725Y-3255323D01*
G01X5950723Y-3255323D01*
G01X5950723Y-3300322D01*
G01X5994724Y-3300322D01*
G01X5995222Y-3342318D01*
G01X5990223Y-3347319D01*
G01X5875222Y-3347319D01*
G01X5870221Y-3342318D01*
G37*
G36*
G01X4862236Y-3677603D02*
G01X4862236Y-3805601D01*
G01X4857234Y-3810603D01*
G01X4742233Y-3810603D01*
G01X4737235Y-3805601D01*
G01X4736732Y-3764598D01*
G01X4781733Y-3764598D01*
G01X4781733Y-3719600D01*
G01X4737732Y-3719600D01*
G01X4737235Y-3677603D01*
G01X4742233Y-3672602D01*
G01X4857234Y-3672602D01*
G01X4862236Y-3677603D01*
G37*
G36*
G01X4647235Y-3677603D02*
G01X4647232Y-3719600D01*
G01X4602734Y-3719600D01*
G01X4602734Y-3764598D01*
G01X4646732Y-3764598D01*
G01X4647235Y-3805601D01*
G01X4642234Y-3810603D01*
G01X4527235Y-3810603D01*
G01X4522234Y-3805601D01*
G01X4522234Y-3677603D01*
G01X4527235Y-3672602D01*
G01X4642234Y-3672602D01*
G01X4647235Y-3677603D01*
G37*
G36*
G01X4849536Y-4072639D02*
G01X4849536Y-4200638D01*
G01X4844534Y-4205639D01*
G01X4729533Y-4205639D01*
G01X4724535Y-4200638D01*
G01X4724032Y-4159634D01*
G01X4769033Y-4159634D01*
G01X4769033Y-4114636D01*
G01X4725032Y-4114636D01*
G01X4724535Y-4072639D01*
G01X4729533Y-4067638D01*
G01X4844534Y-4067638D01*
G01X4849536Y-4072639D01*
G37*
G36*
G01X4634535Y-4072639D02*
G01X4634532Y-4114636D01*
G01X4590034Y-4114636D01*
G01X4590034Y-4159634D01*
G01X4634032Y-4159634D01*
G01X4634535Y-4200638D01*
G01X4629534Y-4205639D01*
G01X4514535Y-4205639D01*
G01X4509534Y-4200638D01*
G01X4509534Y-4072639D01*
G01X4514535Y-4067638D01*
G01X4629534Y-4067638D01*
G01X4634535Y-4072639D01*
G37*
G36*
G01X5377002Y-4457838D02*
G01X5377002Y-4585836D01*
G01X5372001Y-4590837D01*
G01X5257000Y-4590837D01*
G01X5252001Y-4585836D01*
G01X5251498Y-4544833D01*
G01X5296499Y-4544833D01*
G01X5296499Y-4499834D01*
G01X5252499Y-4499834D01*
G01X5252001Y-4457838D01*
G01X5257000Y-4452837D01*
G01X5372001Y-4452837D01*
G01X5377002Y-4457838D01*
G37*
G36*
G01X5162001Y-4457838D02*
G01X5161999Y-4499834D01*
G01X5117501Y-4499834D01*
G01X5117501Y-4544833D01*
G01X5161498Y-4544833D01*
G01X5162001Y-4585836D01*
G01X5157000Y-4590837D01*
G01X5042002Y-4590837D01*
G01X5037000Y-4585836D01*
G01X5037000Y-4457838D01*
G01X5042002Y-4452837D01*
G01X5157000Y-4452837D01*
G01X5162001Y-4457838D01*
G37*
G36*
G01X5364302Y-3327538D02*
G01X5364302Y-3455536D01*
G01X5359301Y-3460537D01*
G01X5244300Y-3460537D01*
G01X5239301Y-3455536D01*
G01X5238798Y-3414533D01*
G01X5283799Y-3414533D01*
G01X5283799Y-3369534D01*
G01X5239799Y-3369534D01*
G01X5239301Y-3327538D01*
G01X5244300Y-3322537D01*
G01X5359301Y-3322537D01*
G01X5364302Y-3327538D01*
G37*
G36*
G01X5149301Y-3327538D02*
G01X5149299Y-3369534D01*
G01X5104801Y-3369534D01*
G01X5104801Y-3414533D01*
G01X5148798Y-3414533D01*
G01X5149301Y-3455536D01*
G01X5144300Y-3460537D01*
G01X5029302Y-3460537D01*
G01X5024300Y-3455536D01*
G01X5024300Y-3327538D01*
G01X5029302Y-3322537D01*
G01X5144300Y-3322537D01*
G01X5149301Y-3327538D01*
G37*
G36*
G01X5344836Y-3684281D02*
G01X5344836Y-3812279D01*
G01X5339834Y-3817280D01*
G01X5224833Y-3817280D01*
G01X5219835Y-3812279D01*
G01X5219332Y-3771276D01*
G01X5264333Y-3771276D01*
G01X5264333Y-3726277D01*
G01X5220332Y-3726277D01*
G01X5219835Y-3684281D01*
G01X5224833Y-3679280D01*
G01X5339834Y-3679280D01*
G01X5344836Y-3684281D01*
G37*
G36*
G01X5129835Y-3684281D02*
G01X5129832Y-3726277D01*
G01X5085334Y-3726277D01*
G01X5085334Y-3771276D01*
G01X5129332Y-3771276D01*
G01X5129835Y-3812279D01*
G01X5124834Y-3817280D01*
G01X5009835Y-3817280D01*
G01X5004834Y-3812279D01*
G01X5004834Y-3684281D01*
G01X5009835Y-3679280D01*
G01X5124834Y-3679280D01*
G01X5129835Y-3684281D01*
G37*
G36*
G01X5370236Y-4079317D02*
G01X5370236Y-4207315D01*
G01X5365234Y-4212316D01*
G01X5250233Y-4212316D01*
G01X5245235Y-4207315D01*
G01X5244732Y-4166312D01*
G01X5289733Y-4166312D01*
G01X5289733Y-4121313D01*
G01X5245732Y-4121313D01*
G01X5245235Y-4079317D01*
G01X5250233Y-4074316D01*
G01X5365234Y-4074316D01*
G01X5370236Y-4079317D01*
G37*
G36*
G01X5155235Y-4079317D02*
G01X5155232Y-4121313D01*
G01X5110734Y-4121313D01*
G01X5110734Y-4166312D01*
G01X5154732Y-4166312D01*
G01X5155235Y-4207315D01*
G01X5150234Y-4212316D01*
G01X5035235Y-4212316D01*
G01X5030234Y-4207315D01*
G01X5030234Y-4079317D01*
G01X5035235Y-4074316D01*
G01X5150234Y-4074316D01*
G01X5155235Y-4079317D01*
G37*
G36*
G01X7094398Y-4255639D02*
G01X7094398Y-4127640D01*
G01X7099399Y-4122639D01*
G01X7214400Y-4122639D01*
G01X7219399Y-4127640D01*
G01X7219902Y-4168644D01*
G01X7174901Y-4168644D01*
G01X7174901Y-4213642D01*
G01X7218901Y-4213642D01*
G01X7219399Y-4255639D01*
G01X7214400Y-4260640D01*
G01X7099399Y-4260640D01*
G01X7094398Y-4255639D01*
G37*
G36*
G01X7309399Y-4255639D02*
G01X7309401Y-4213642D01*
G01X7353899Y-4213642D01*
G01X7353899Y-4168644D01*
G01X7309902Y-4168644D01*
G01X7309399Y-4127640D01*
G01X7314400Y-4122639D01*
G01X7429398Y-4122639D01*
G01X7434400Y-4127640D01*
G01X7434400Y-4255639D01*
G01X7429398Y-4260640D01*
G01X7314400Y-4260640D01*
G01X7309399Y-4255639D01*
G37*
G36*
G01X7047898Y-3936612D02*
G01X7047898Y-3808614D01*
G01X7052899Y-3803613D01*
G01X7167900Y-3803613D01*
G01X7172899Y-3808614D01*
G01X7173402Y-3849617D01*
G01X7128401Y-3849617D01*
G01X7128401Y-3894616D01*
G01X7172401Y-3894616D01*
G01X7172899Y-3936612D01*
G01X7167900Y-3941613D01*
G01X7052899Y-3941613D01*
G01X7047898Y-3936612D01*
G37*
G36*
G01X7262899Y-3936612D02*
G01X7262901Y-3894616D01*
G01X7307400Y-3894616D01*
G01X7307400Y-3849617D01*
G01X7263402Y-3849617D01*
G01X7262899Y-3808614D01*
G01X7267900Y-3803613D01*
G01X7382899Y-3803613D01*
G01X7387900Y-3808614D01*
G01X7387900Y-3936612D01*
G01X7382899Y-3941613D01*
G01X7267900Y-3941613D01*
G01X7262899Y-3936612D01*
G37*
G36*
G01X6504957Y-3588371D02*
G01X6504957Y-3460372D01*
G01X6509958Y-3455371D01*
G01X6624959Y-3455371D01*
G01X6629958Y-3460372D01*
G01X6630460Y-3501376D01*
G01X6585459Y-3501376D01*
G01X6585459Y-3546374D01*
G01X6629460Y-3546374D01*
G01X6629958Y-3588371D01*
G01X6624959Y-3593372D01*
G01X6509958Y-3593372D01*
G01X6504957Y-3588371D01*
G37*
G36*
G01X6719957Y-3588371D02*
G01X6719960Y-3546374D01*
G01X6764458Y-3546374D01*
G01X6764458Y-3501376D01*
G01X6720460Y-3501376D01*
G01X6719957Y-3460372D01*
G01X6724959Y-3455371D01*
G01X6839957Y-3455371D01*
G01X6844958Y-3460372D01*
G01X6844958Y-3588371D01*
G01X6839957Y-3593372D01*
G01X6724959Y-3593372D01*
G01X6719957Y-3588371D01*
G37*
G36*
G01X6543057Y-4615734D02*
G01X6543057Y-4487736D01*
G01X6548058Y-4482735D01*
G01X6663059Y-4482735D01*
G01X6668058Y-4487736D01*
G01X6668560Y-4528739D01*
G01X6623559Y-4528739D01*
G01X6623559Y-4573738D01*
G01X6667560Y-4573738D01*
G01X6668058Y-4615734D01*
G01X6663059Y-4620736D01*
G01X6548058Y-4620736D01*
G01X6543057Y-4615734D01*
G37*
G36*
G01X6758057Y-4615734D02*
G01X6758060Y-4573738D01*
G01X6802558Y-4573738D01*
G01X6802558Y-4528739D01*
G01X6758560Y-4528739D01*
G01X6758057Y-4487736D01*
G01X6763059Y-4482735D01*
G01X6878057Y-4482735D01*
G01X6883058Y-4487736D01*
G01X6883058Y-4615734D01*
G01X6878057Y-4620736D01*
G01X6763059Y-4620736D01*
G01X6758057Y-4615734D01*
G37*
G36*
G01X6527198Y-4246754D02*
G01X6527198Y-4118756D01*
G01X6532199Y-4113754D01*
G01X6647200Y-4113754D01*
G01X6652199Y-4118756D01*
G01X6652702Y-4159759D01*
G01X6607701Y-4159759D01*
G01X6607701Y-4204757D01*
G01X6651701Y-4204757D01*
G01X6652199Y-4246754D01*
G01X6647200Y-4251755D01*
G01X6532199Y-4251755D01*
G01X6527198Y-4246754D01*
G37*
G36*
G01X6742199Y-4246754D02*
G01X6742201Y-4204757D01*
G01X6786700Y-4204757D01*
G01X6786700Y-4159759D01*
G01X6742702Y-4159759D01*
G01X6742199Y-4118756D01*
G01X6747200Y-4113754D01*
G01X6862199Y-4113754D01*
G01X6867200Y-4118756D01*
G01X6867200Y-4246754D01*
G01X6862199Y-4251755D01*
G01X6747200Y-4251755D01*
G01X6742199Y-4246754D01*
G37*
G36*
G01X6514498Y-3930590D02*
G01X6514498Y-3802592D01*
G01X6519499Y-3797590D01*
G01X6634500Y-3797590D01*
G01X6639499Y-3802592D01*
G01X6640002Y-3843595D01*
G01X6595001Y-3843595D01*
G01X6595001Y-3888593D01*
G01X6639001Y-3888593D01*
G01X6639499Y-3930590D01*
G01X6634500Y-3935591D01*
G01X6519499Y-3935591D01*
G01X6514498Y-3930590D01*
G37*
G36*
G01X6729499Y-3930590D02*
G01X6729501Y-3888593D01*
G01X6774000Y-3888593D01*
G01X6774000Y-3843595D01*
G01X6730002Y-3843595D01*
G01X6729499Y-3802592D01*
G01X6734500Y-3797590D01*
G01X6849499Y-3797590D01*
G01X6854500Y-3802592D01*
G01X6854500Y-3930590D01*
G01X6849499Y-3935591D01*
G01X6734500Y-3935591D01*
G01X6729499Y-3930590D01*
G37*
G36*
G01X3505700Y-4107497D02*
G01X3377702Y-4107497D01*
G01X3372701Y-4102496D01*
G01X3372701Y-3987495D01*
G01X3377702Y-3982496D01*
G01X3418705Y-3981994D01*
G01X3418705Y-4026995D01*
G01X3463704Y-4026995D01*
G01X3463704Y-3982994D01*
G01X3505700Y-3982496D01*
G01X3510702Y-3987495D01*
G01X3510702Y-4102496D01*
G01X3505700Y-4107497D01*
G37*
G36*
G01X3377700Y-3766502D02*
G01X3505698Y-3766502D01*
G01X3510699Y-3771504D01*
G01X3510699Y-3886505D01*
G01X3505698Y-3891504D01*
G01X3464695Y-3892006D01*
G01X3464695Y-3847005D01*
G01X3419696Y-3847005D01*
G01X3419696Y-3891006D01*
G01X3377700Y-3891504D01*
G01X3372698Y-3886505D01*
G01X3372698Y-3771504D01*
G01X3377700Y-3766502D01*
G37*
G36*
G01X4882980Y-5168445D02*
G01X4754982Y-5168445D01*
G01X4749980Y-5163444D01*
G01X4749980Y-5048443D01*
G01X4754982Y-5043444D01*
G01X4795985Y-5042941D01*
G01X4795985Y-5087943D01*
G01X4840983Y-5087943D01*
G01X4840983Y-5043942D01*
G01X4882980Y-5043444D01*
G01X4887981Y-5048443D01*
G01X4887981Y-5163444D01*
G01X4882980Y-5168445D01*
G37*
G36*
G01X4882980Y-4953444D02*
G01X4840983Y-4953442D01*
G01X4840983Y-4908944D01*
G01X4795985Y-4908944D01*
G01X4795985Y-4952942D01*
G01X4754982Y-4953444D01*
G01X4749980Y-4948443D01*
G01X4749980Y-4833445D01*
G01X4754982Y-4828443D01*
G01X4882980Y-4828443D01*
G01X4887981Y-4833445D01*
G01X4887981Y-4948443D01*
G01X4882980Y-4953444D01*
G37*
G36*
G01X5287747Y-5168445D02*
G01X5159748Y-5168445D01*
G01X5154747Y-5163444D01*
G01X5154747Y-5048443D01*
G01X5159748Y-5043444D01*
G01X5200752Y-5042941D01*
G01X5200752Y-5087943D01*
G01X5245750Y-5087943D01*
G01X5245750Y-5043942D01*
G01X5287747Y-5043444D01*
G01X5292748Y-5048443D01*
G01X5292748Y-5163444D01*
G01X5287747Y-5168445D01*
G37*
G36*
G01X5287747Y-4953444D02*
G01X5245750Y-4953442D01*
G01X5245750Y-4908944D01*
G01X5200752Y-4908944D01*
G01X5200752Y-4952942D01*
G01X5159748Y-4953444D01*
G01X5154747Y-4948443D01*
G01X5154747Y-4833445D01*
G01X5159748Y-4828443D01*
G01X5287747Y-4828443D01*
G01X5292748Y-4833445D01*
G01X5292748Y-4948443D01*
G01X5287747Y-4953444D01*
G37*
G36*
G01X6755153Y-2554582D02*
G01X6755153Y-2682580D01*
G01X6750152Y-2687582D01*
G01X6635151Y-2687582D01*
G01X6630152Y-2682580D01*
G01X6629649Y-2641577D01*
G01X6674650Y-2641577D01*
G01X6674650Y-2596578D01*
G01X6630650Y-2596578D01*
G01X6630152Y-2554582D01*
G01X6635151Y-2549581D01*
G01X6750152Y-2549581D01*
G01X6755153Y-2554582D01*
G37*
G36*
G01X6540152Y-2554582D02*
G01X6540149Y-2596578D01*
G01X6495651Y-2596578D01*
G01X6495651Y-2641577D01*
G01X6539649Y-2641577D01*
G01X6540152Y-2682580D01*
G01X6535151Y-2687582D01*
G01X6420152Y-2687582D01*
G01X6415151Y-2682580D01*
G01X6415151Y-2554582D01*
G01X6420152Y-2549581D01*
G01X6535151Y-2549581D01*
G01X6540152Y-2554582D01*
G37*
G36*
G01X3149625Y-3932936D02*
G01X3277624Y-3932936D01*
G01X3282625Y-3937937D01*
G01X3282625Y-4052938D01*
G01X3277624Y-4057937D01*
G01X3236620Y-4058440D01*
G01X3236620Y-4013439D01*
G01X3191622Y-4013439D01*
G01X3191622Y-4057439D01*
G01X3149625Y-4057937D01*
G01X3144624Y-4052938D01*
G01X3144624Y-3937937D01*
G01X3149625Y-3932936D01*
G37*
G36*
G01X3277626Y-4273931D02*
G01X3149628Y-4273931D01*
G01X3144627Y-4268930D01*
G01X3144627Y-4153929D01*
G01X3149628Y-4148930D01*
G01X3190631Y-4148427D01*
G01X3190631Y-4193428D01*
G01X3235630Y-4193428D01*
G01X3235630Y-4149428D01*
G01X3277626Y-4148930D01*
G01X3282627Y-4153929D01*
G01X3282627Y-4268930D01*
G01X3277626Y-4273931D01*
G37*

G04 Pad Start*
G54D10*
G01X9483382Y-1694790D03*
G01X9483382Y-1914804D03*
G01X6018594Y-1669390D03*
G01X6018594Y-1889404D03*
G54D11*
G01X7536810Y-762643D03*
G01X7536810Y-992640D03*
G01X7536810Y-1222637D03*
G54D12*
G01X8103788Y-992640D03*
G54D13*
G01X6671203Y-1079939D03*
G01X6861195Y-1079939D03*
G01X6766199Y-879940D03*
G54D14*
G01X5337698Y-1804739D03*
G01X5432694Y-2034741D03*
G01X5527700Y-1804739D03*
G54D11*
G01X11001598Y-788043D03*
G01X11001598Y-1018040D03*
G01X11001598Y-1248037D03*
G54D12*
G01X11568577Y-1018040D03*
G54D13*
G01X10135991Y-1105339D03*
G01X10325983Y-1105339D03*
G01X10230987Y-905340D03*
G54D14*
G01X8802486Y-1830139D03*
G01X8897482Y-2060141D03*
G01X8992488Y-1830139D03*
G54D15*
G01X10452983Y-1986250D03*
G01X10262991Y-1986250D03*
G01X10262991Y-1726230D03*
G01X10357987Y-1726230D03*
G01X10452983Y-1726230D03*
G01X6988195Y-1960850D03*
G01X6798203Y-1960850D03*
G01X6798203Y-1700830D03*
G01X6893199Y-1700830D03*
G01X6988195Y-1700830D03*
G54D17*
G01X10484002Y-3174594D03*
G01X10484002Y-3239592D03*
G01X10484002Y-3304591D03*
G01X10484002Y-3369589D03*
G01X10484002Y-3434613D03*
G01X10484002Y-3499612D03*
G01X10484002Y-3564611D03*
G01X10484002Y-3629609D03*
G01X10484002Y-3694608D03*
G01X10484002Y-3759606D03*
G01X11182198Y-3174594D03*
G01X11182198Y-3239592D03*
G01X11182198Y-3304591D03*
G01X11182198Y-3369589D03*
G01X11182198Y-3434613D03*
G01X11182198Y-3499612D03*
G01X11182198Y-3564611D03*
G01X11182198Y-3629609D03*
G01X11182198Y-3694608D03*
G01X11182198Y-3759606D03*
G54D18*
G01X11106976Y-4685208D03*
G01X11106976Y-4620209D03*
G01X11106976Y-4555211D03*
G01X11106976Y-4490212D03*
G01X11106976Y-4425213D03*
G01X11106976Y-4360189D03*
G01X11106976Y-4295191D03*
G01X11106976Y-4230192D03*
G01X10533825Y-4685208D03*
G01X10533825Y-4620209D03*
G01X10533825Y-4555211D03*
G01X10533825Y-4490212D03*
G01X10533825Y-4425213D03*
G01X10533825Y-4360189D03*
G01X10533825Y-4295191D03*
G01X10533825Y-4230192D03*
G54D19*
G01X5692084Y-3734438D03*
G01X5692084Y-3861438D03*
G01X5692084Y-3988438D03*
G01X5692084Y-4115438D03*
G01X5692084Y-4242438D03*
G01X5692084Y-4369438D03*
G01X5692084Y-4496438D03*
G01X6245906Y-3734438D03*
G01X6245906Y-3861438D03*
G01X6245906Y-3988438D03*
G01X6245906Y-4115438D03*
G01X6245906Y-4242438D03*
G01X6245906Y-4369438D03*
G01X6245906Y-4496438D03*
G54D20*
G01X4572000Y-2464092D03*
G01X4572000Y-1930108D03*
G01X3746500Y-2476792D03*
G01X3746500Y-1942808D03*
G54D18*
G01X3994976Y-4812208D03*
G01X3994976Y-4747209D03*
G01X3994976Y-4682211D03*
G01X3994976Y-4617187D03*
G01X3994976Y-4552188D03*
G01X3994976Y-4487189D03*
G01X3994976Y-4422191D03*
G01X3994976Y-4357192D03*
G01X3421825Y-4812208D03*
G01X3421825Y-4747209D03*
G01X3421825Y-4682211D03*
G01X3421825Y-4617187D03*
G01X3421825Y-4552188D03*
G01X3421825Y-4487189D03*
G01X3421825Y-4422191D03*
G01X3421825Y-4357192D03*
G54D21*
G01X3859403Y-1375689D03*
G01X4089400Y-1375689D03*
G01X4319397Y-1375689D03*
G54D22*
G01X4089400Y-808711D03*
G54D23*
G01X8089900Y-4709109D03*
G01X8216900Y-4709109D03*
G01X8343900Y-4709109D03*
G01X8470900Y-4709109D03*
G01X8597900Y-4709109D03*
G01X8724900Y-4709109D03*
G01X8851900Y-4709109D03*
G01X8978900Y-4709109D03*
G01X9105900Y-4709109D03*
G01X8089900Y-3749091D03*
G01X8216900Y-3749091D03*
G01X8343900Y-3749091D03*
G01X8470900Y-3749091D03*
G01X8597900Y-3749091D03*
G01X8724900Y-3749091D03*
G01X8851900Y-3749091D03*
G01X8978900Y-3749091D03*
G01X9105900Y-3749091D03*
G54D24*
G01X5992548Y-2704462D03*
G01X6212563Y-2704462D03*
G04 Pad End*

M02*

