G04 Layer: TopSilkscreenLayer*
G04 EasyEDA Pro v2.2.40.3, 2025-06-29 22:56:56*
G04 Gerber Generator version 0.3*
G04 Scale: 100 percent, Rotated: No, Reflected: No*
G04 Dimensions in millimeters*
G04 Leading zeros omitted, absolute positions, 4 integers and 5 decimals*
G04 Generated by one-click*
%FSLAX45Y45*%
%MOMM*%
%ADD10C,0.203*%
%ADD11C,0.1524*%
%ADD12C,0.254*%
%ADD13C,0.15199*%
%ADD14C,0.1*%
%ADD15C,0.3000*%
%ADD16C,0.3*%
G75*


G04 Text Start*
G54D10*
G01X9239250Y-5589270D02*
G01X9239250Y-5580380D01*
G01X9248140Y-5562600D01*
G01X9257030Y-5553710D01*
G01X9274810Y-5544820D01*
G01X9310370Y-5544820D01*
G01X9328150Y-5553710D01*
G01X9337040Y-5562600D01*
G01X9345930Y-5580380D01*
G01X9345930Y-5598160D01*
G01X9337040Y-5615940D01*
G01X9319260Y-5642610D01*
G01X9230360Y-5731510D01*
G01X9354820Y-5731510D01*
G01X9417812Y-5651500D02*
G01X9577832Y-5651500D01*
G01X9774174Y-5589270D02*
G01X9765284Y-5571490D01*
G01X9747504Y-5553710D01*
G01X9729724Y-5544820D01*
G01X9694164Y-5544820D01*
G01X9676384Y-5553710D01*
G01X9658604Y-5571490D01*
G01X9649714Y-5589270D01*
G01X9640824Y-5615940D01*
G01X9640824Y-5660390D01*
G01X9649714Y-5687060D01*
G01X9658604Y-5704840D01*
G01X9676384Y-5722620D01*
G01X9694164Y-5731510D01*
G01X9729724Y-5731510D01*
G01X9747504Y-5722620D01*
G01X9765284Y-5704840D01*
G01X9774174Y-5687060D01*
G01X9837166Y-5544820D02*
G01X9837166Y-5731510D01*
G01X9961626Y-5544820D02*
G01X9961626Y-5731510D01*
G01X9837166Y-5633720D02*
G01X9961626Y-5633720D01*
G01X10232644Y-5589270D02*
G01X10232644Y-5580380D01*
G01X10241534Y-5562600D01*
G01X10250424Y-5553710D01*
G01X10268204Y-5544820D01*
G01X10303764Y-5544820D01*
G01X10321544Y-5553710D01*
G01X10330434Y-5562600D01*
G01X10339324Y-5580380D01*
G01X10339324Y-5598160D01*
G01X10330434Y-5615940D01*
G01X10312654Y-5642610D01*
G01X10223754Y-5731510D01*
G01X10348214Y-5731510D01*
G01X10464546Y-5544820D02*
G01X10437876Y-5553710D01*
G01X10420096Y-5580380D01*
G01X10411206Y-5624830D01*
G01X10411206Y-5651500D01*
G01X10420096Y-5695950D01*
G01X10437876Y-5722620D01*
G01X10464546Y-5731510D01*
G01X10482326Y-5731510D01*
G01X10508996Y-5722620D01*
G01X10526776Y-5695950D01*
G01X10535666Y-5651500D01*
G01X10535666Y-5624830D01*
G01X10526776Y-5580380D01*
G01X10508996Y-5553710D01*
G01X10482326Y-5544820D01*
G01X10464546Y-5544820D01*
G01X10598658Y-5607050D02*
G01X10598658Y-5731510D01*
G01X10598658Y-5642610D02*
G01X10625328Y-5615940D01*
G01X10643108Y-5607050D01*
G01X10669778Y-5607050D01*
G01X10687558Y-5615940D01*
G01X10696448Y-5642610D01*
G01X10696448Y-5731510D01*
G01X10696448Y-5642610D02*
G01X10723118Y-5615940D01*
G01X10740898Y-5607050D01*
G01X10767568Y-5607050D01*
G01X10785348Y-5615940D01*
G01X10794238Y-5642610D01*
G01X10794238Y-5731510D01*
G01X10928350Y-5544820D02*
G01X10857230Y-5731510D01*
G01X10928350Y-5544820D02*
G01X10999470Y-5731510D01*
G01X10883900Y-5669280D02*
G01X10972800Y-5669280D01*
G01X11222482Y-5509260D02*
G01X11062462Y-5793740D01*
G01X11294364Y-5589270D02*
G01X11294364Y-5580380D01*
G01X11303254Y-5562600D01*
G01X11312144Y-5553710D01*
G01X11329924Y-5544820D01*
G01X11365484Y-5544820D01*
G01X11383264Y-5553710D01*
G01X11392154Y-5562600D01*
G01X11401044Y-5580380D01*
G01X11401044Y-5598160D01*
G01X11392154Y-5615940D01*
G01X11374374Y-5642610D01*
G01X11285474Y-5731510D01*
G01X11409934Y-5731510D01*
G01X11526266Y-5544820D02*
G01X11499596Y-5553710D01*
G01X11481816Y-5580380D01*
G01X11472926Y-5624830D01*
G01X11472926Y-5651500D01*
G01X11481816Y-5695950D01*
G01X11499596Y-5722620D01*
G01X11526266Y-5731510D01*
G01X11544046Y-5731510D01*
G01X11570716Y-5722620D01*
G01X11588496Y-5695950D01*
G01X11597386Y-5651500D01*
G01X11597386Y-5624830D01*
G01X11588496Y-5580380D01*
G01X11570716Y-5553710D01*
G01X11544046Y-5544820D01*
G01X11526266Y-5544820D01*
G01X11660378Y-5544820D02*
G01X11731498Y-5731510D01*
G01X11802618Y-5544820D02*
G01X11731498Y-5731510D01*
G54D11*
G01X9335904Y-2529340D02*
G01X9338952Y-2535690D01*
G01X9345302Y-2541786D01*
G01X9351398Y-2544834D01*
G01X9363844Y-2544834D01*
G01X9369940Y-2541786D01*
G01X9376290Y-2535690D01*
G01X9379338Y-2529340D01*
G01X9382386Y-2520196D01*
G01X9382386Y-2504702D01*
G01X9379338Y-2495304D01*
G01X9376290Y-2489208D01*
G01X9369940Y-2482858D01*
G01X9363844Y-2479810D01*
G01X9351398Y-2479810D01*
G01X9345302Y-2482858D01*
G01X9338952Y-2489208D01*
G01X9335904Y-2495304D01*
G01X9305678Y-2532388D02*
G01X9299582Y-2535690D01*
G01X9290438Y-2544834D01*
G01X9290438Y-2479810D01*
G01X10428788Y-2164641D02*
G01X10435138Y-2161593D01*
G01X10441234Y-2155243D01*
G01X10444282Y-2149147D01*
G01X10444282Y-2136701D01*
G01X10441234Y-2130605D01*
G01X10435138Y-2124255D01*
G01X10428788Y-2121207D01*
G01X10419644Y-2118159D01*
G01X10404150Y-2118159D01*
G01X10394752Y-2121207D01*
G01X10388656Y-2124255D01*
G01X10382306Y-2130605D01*
G01X10379258Y-2136701D01*
G01X10379258Y-2149147D01*
G01X10382306Y-2155243D01*
G01X10388656Y-2161593D01*
G01X10394752Y-2164641D01*
G01X10428788Y-2197915D02*
G01X10431836Y-2197915D01*
G01X10438186Y-2200963D01*
G01X10441234Y-2204011D01*
G01X10444282Y-2210107D01*
G01X10444282Y-2222553D01*
G01X10441234Y-2228903D01*
G01X10438186Y-2231951D01*
G01X10431836Y-2234999D01*
G01X10425740Y-2234999D01*
G01X10419644Y-2231951D01*
G01X10410246Y-2225601D01*
G01X10379258Y-2194867D01*
G01X10379258Y-2238047D01*
G01X5871116Y-2503940D02*
G01X5874164Y-2510290D01*
G01X5880514Y-2516386D01*
G01X5886610Y-2519434D01*
G01X5899056Y-2519434D01*
G01X5905152Y-2516386D01*
G01X5911502Y-2510290D01*
G01X5914550Y-2503940D01*
G01X5917598Y-2494796D01*
G01X5917598Y-2479302D01*
G01X5914550Y-2469904D01*
G01X5911502Y-2463808D01*
G01X5905152Y-2457458D01*
G01X5899056Y-2454410D01*
G01X5886610Y-2454410D01*
G01X5880514Y-2457458D01*
G01X5874164Y-2463808D01*
G01X5871116Y-2469904D01*
G01X5797710Y-2519434D02*
G01X5828698Y-2454410D01*
G01X5840890Y-2519434D02*
G01X5797710Y-2519434D01*
G01X6963999Y-2139241D02*
G01X6970349Y-2136193D01*
G01X6976445Y-2129843D01*
G01X6979493Y-2123747D01*
G01X6979493Y-2111301D01*
G01X6976445Y-2105205D01*
G01X6970349Y-2098855D01*
G01X6963999Y-2095807D01*
G01X6954855Y-2092759D01*
G01X6939361Y-2092759D01*
G01X6929963Y-2095807D01*
G01X6923867Y-2098855D01*
G01X6917517Y-2105205D01*
G01X6914469Y-2111301D01*
G01X6914469Y-2123747D01*
G01X6917517Y-2129843D01*
G01X6923867Y-2136193D01*
G01X6929963Y-2139241D01*
G01X6979493Y-2184707D02*
G01X6976445Y-2175563D01*
G01X6970349Y-2172515D01*
G01X6963999Y-2172515D01*
G01X6957903Y-2175563D01*
G01X6954855Y-2181659D01*
G01X6951807Y-2194105D01*
G01X6948505Y-2203503D01*
G01X6942409Y-2209599D01*
G01X6936313Y-2212647D01*
G01X6926915Y-2212647D01*
G01X6920819Y-2209599D01*
G01X6917517Y-2206551D01*
G01X6914469Y-2197153D01*
G01X6914469Y-2184707D01*
G01X6917517Y-2175563D01*
G01X6920819Y-2172515D01*
G01X6926915Y-2169467D01*
G01X6936313Y-2169467D01*
G01X6942409Y-2172515D01*
G01X6948505Y-2178611D01*
G01X6951807Y-2188009D01*
G01X6954855Y-2200201D01*
G01X6957903Y-2206551D01*
G01X6963999Y-2209599D01*
G01X6970349Y-2209599D01*
G01X6976445Y-2206551D01*
G01X6979493Y-2197153D01*
G01X6979493Y-2184707D01*
G01X9267759Y-2019877D02*
G01X9332783Y-2019877D01*
G01X9332783Y-2019877D02*
G01X9332783Y-1982793D01*
G01X9267759Y-1952567D02*
G01X9332783Y-1952567D01*
G01X9267759Y-1952567D02*
G01X9267759Y-1912435D01*
G01X9298747Y-1952567D02*
G01X9298747Y-1927929D01*
G01X9332783Y-1952567D02*
G01X9332783Y-1912435D01*
G01X9267759Y-1882209D02*
G01X9332783Y-1882209D01*
G01X9267759Y-1882209D02*
G01X9267759Y-1860619D01*
G01X9270807Y-1851475D01*
G01X9276903Y-1845125D01*
G01X9283253Y-1842077D01*
G01X9292397Y-1839029D01*
G01X9307891Y-1839029D01*
G01X9317289Y-1842077D01*
G01X9323385Y-1845125D01*
G01X9329735Y-1851475D01*
G01X9332783Y-1860619D01*
G01X9332783Y-1882209D01*
G01X9280205Y-1808803D02*
G01X9276903Y-1802707D01*
G01X9267759Y-1793563D01*
G01X9332783Y-1793563D01*
G01X5802970Y-1994477D02*
G01X5867994Y-1994477D01*
G01X5867994Y-1994477D02*
G01X5867994Y-1957393D01*
G01X5802970Y-1927167D02*
G01X5867994Y-1927167D01*
G01X5802970Y-1927167D02*
G01X5802970Y-1887035D01*
G01X5833958Y-1927167D02*
G01X5833958Y-1902529D01*
G01X5867994Y-1927167D02*
G01X5867994Y-1887035D01*
G01X5802970Y-1856809D02*
G01X5867994Y-1856809D01*
G01X5802970Y-1856809D02*
G01X5802970Y-1835219D01*
G01X5806018Y-1826075D01*
G01X5812114Y-1819725D01*
G01X5818464Y-1816677D01*
G01X5827608Y-1813629D01*
G01X5843102Y-1813629D01*
G01X5852500Y-1816677D01*
G01X5858596Y-1819725D01*
G01X5864946Y-1826075D01*
G01X5867994Y-1835219D01*
G01X5867994Y-1856809D01*
G01X5802970Y-1746319D02*
G01X5802970Y-1777307D01*
G01X5830656Y-1780355D01*
G01X5827608Y-1777307D01*
G01X5824560Y-1768163D01*
G01X5824560Y-1758765D01*
G01X5827608Y-1749367D01*
G01X5833958Y-1743271D01*
G01X5843102Y-1740223D01*
G01X5849452Y-1740223D01*
G01X5858596Y-1743271D01*
G01X5864946Y-1749367D01*
G01X5867994Y-1758765D01*
G01X5867994Y-1768163D01*
G01X5864946Y-1777307D01*
G01X5861644Y-1780355D01*
G01X5855548Y-1783403D01*
G01X8201126Y-1439814D02*
G01X8207222Y-1436766D01*
G01X8213572Y-1430670D01*
G01X8216620Y-1424320D01*
G01X8219668Y-1415176D01*
G01X8219668Y-1399682D01*
G01X8216620Y-1390284D01*
G01X8213572Y-1384188D01*
G01X8207222Y-1377838D01*
G01X8201126Y-1374790D01*
G01X8188680Y-1374790D01*
G01X8182584Y-1377838D01*
G01X8176234Y-1384188D01*
G01X8173186Y-1390284D01*
G01X8170138Y-1399682D01*
G01X8170138Y-1415176D01*
G01X8173186Y-1424320D01*
G01X8176234Y-1430670D01*
G01X8182584Y-1436766D01*
G01X8188680Y-1439814D01*
G01X8201126Y-1439814D01*
G01X8191728Y-1387236D02*
G01X8173186Y-1368694D01*
G01X8139912Y-1427368D02*
G01X8133816Y-1430670D01*
G01X8124672Y-1439814D01*
G01X8124672Y-1374790D01*
G01X7033374Y-843601D02*
G01X7030326Y-837505D01*
G01X7024230Y-831155D01*
G01X7017880Y-828107D01*
G01X7008736Y-825059D01*
G01X6993242Y-825059D01*
G01X6983844Y-828107D01*
G01X6977748Y-831155D01*
G01X6971398Y-837505D01*
G01X6968350Y-843601D01*
G01X6968350Y-856047D01*
G01X6971398Y-862143D01*
G01X6977748Y-868493D01*
G01X6983844Y-871541D01*
G01X6993242Y-874589D01*
G01X7008736Y-874589D01*
G01X7017880Y-871541D01*
G01X7024230Y-868493D01*
G01X7030326Y-862143D01*
G01X7033374Y-856047D01*
G01X7033374Y-843601D01*
G01X6980796Y-852999D02*
G01X6962254Y-871541D01*
G01X7017880Y-907863D02*
G01X7020928Y-907863D01*
G01X7027278Y-910911D01*
G01X7030326Y-913959D01*
G01X7033374Y-920055D01*
G01X7033374Y-932501D01*
G01X7030326Y-938851D01*
G01X7027278Y-941899D01*
G01X7020928Y-944947D01*
G01X7014832Y-944947D01*
G01X7008736Y-941899D01*
G01X6999338Y-935549D01*
G01X6968350Y-904815D01*
G01X6968350Y-947995D01*
G01X5163065Y-2058579D02*
G01X5166113Y-2064675D01*
G01X5172209Y-2071025D01*
G01X5178559Y-2074073D01*
G01X5187703Y-2077121D01*
G01X5203197Y-2077121D01*
G01X5212595Y-2074073D01*
G01X5218691Y-2071025D01*
G01X5225041Y-2064675D01*
G01X5228089Y-2058579D01*
G01X5228089Y-2046133D01*
G01X5225041Y-2040037D01*
G01X5218691Y-2033687D01*
G01X5212595Y-2030639D01*
G01X5203197Y-2027591D01*
G01X5187703Y-2027591D01*
G01X5178559Y-2030639D01*
G01X5172209Y-2033687D01*
G01X5166113Y-2040037D01*
G01X5163065Y-2046133D01*
G01X5163065Y-2058579D01*
G01X5215643Y-2049181D02*
G01X5234185Y-2030639D01*
G01X5163065Y-1991269D02*
G01X5163065Y-1957233D01*
G01X5187703Y-1975775D01*
G01X5187703Y-1966631D01*
G01X5190751Y-1960281D01*
G01X5194053Y-1957233D01*
G01X5203197Y-1954185D01*
G01X5209547Y-1954185D01*
G01X5218691Y-1957233D01*
G01X5225041Y-1963329D01*
G01X5228089Y-1972727D01*
G01X5228089Y-1982125D01*
G01X5225041Y-1991269D01*
G01X5221739Y-1994317D01*
G01X5215643Y-1997365D01*
G01X11665915Y-1465214D02*
G01X11672011Y-1462166D01*
G01X11678361Y-1456070D01*
G01X11681409Y-1449720D01*
G01X11684457Y-1440576D01*
G01X11684457Y-1425082D01*
G01X11681409Y-1415684D01*
G01X11678361Y-1409588D01*
G01X11672011Y-1403238D01*
G01X11665915Y-1400190D01*
G01X11653469Y-1400190D01*
G01X11647373Y-1403238D01*
G01X11641023Y-1409588D01*
G01X11637975Y-1415684D01*
G01X11634927Y-1425082D01*
G01X11634927Y-1440576D01*
G01X11637975Y-1449720D01*
G01X11641023Y-1456070D01*
G01X11647373Y-1462166D01*
G01X11653469Y-1465214D01*
G01X11665915Y-1465214D01*
G01X11656517Y-1412636D02*
G01X11637975Y-1394094D01*
G01X11573967Y-1465214D02*
G01X11604701Y-1422034D01*
G01X11558473Y-1422034D01*
G01X11573967Y-1465214D02*
G01X11573967Y-1400190D01*
G01X10498163Y-869001D02*
G01X10495115Y-862905D01*
G01X10489019Y-856555D01*
G01X10482669Y-853507D01*
G01X10473525Y-850459D01*
G01X10458031Y-850459D01*
G01X10448633Y-853507D01*
G01X10442537Y-856555D01*
G01X10436187Y-862905D01*
G01X10433139Y-869001D01*
G01X10433139Y-881447D01*
G01X10436187Y-887543D01*
G01X10442537Y-893893D01*
G01X10448633Y-896941D01*
G01X10458031Y-899989D01*
G01X10473525Y-899989D01*
G01X10482669Y-896941D01*
G01X10489019Y-893893D01*
G01X10495115Y-887543D01*
G01X10498163Y-881447D01*
G01X10498163Y-869001D01*
G01X10445585Y-878399D02*
G01X10427043Y-896941D01*
G01X10498163Y-967299D02*
G01X10498163Y-936311D01*
G01X10470477Y-933263D01*
G01X10473525Y-936311D01*
G01X10476573Y-945455D01*
G01X10476573Y-954853D01*
G01X10473525Y-964251D01*
G01X10467175Y-970347D01*
G01X10458031Y-973395D01*
G01X10451681Y-973395D01*
G01X10442537Y-970347D01*
G01X10436187Y-964251D01*
G01X10433139Y-954853D01*
G01X10433139Y-945455D01*
G01X10436187Y-936311D01*
G01X10439489Y-933263D01*
G01X10445585Y-930215D01*
G01X8627854Y-2083979D02*
G01X8630902Y-2090075D01*
G01X8636998Y-2096425D01*
G01X8643348Y-2099473D01*
G01X8652492Y-2102521D01*
G01X8667986Y-2102521D01*
G01X8677384Y-2099473D01*
G01X8683480Y-2096425D01*
G01X8689830Y-2090075D01*
G01X8692878Y-2083979D01*
G01X8692878Y-2071533D01*
G01X8689830Y-2065437D01*
G01X8683480Y-2059087D01*
G01X8677384Y-2056039D01*
G01X8667986Y-2052991D01*
G01X8652492Y-2052991D01*
G01X8643348Y-2056039D01*
G01X8636998Y-2059087D01*
G01X8630902Y-2065437D01*
G01X8627854Y-2071533D01*
G01X8627854Y-2083979D01*
G01X8680432Y-2074581D02*
G01X8698974Y-2056039D01*
G01X8636998Y-1985681D02*
G01X8630902Y-1988729D01*
G01X8627854Y-1998127D01*
G01X8627854Y-2004223D01*
G01X8630902Y-2013621D01*
G01X8640300Y-2019717D01*
G01X8655540Y-2022765D01*
G01X8671034Y-2022765D01*
G01X8683480Y-2019717D01*
G01X8689830Y-2013621D01*
G01X8692878Y-2004223D01*
G01X8692878Y-2001175D01*
G01X8689830Y-1992031D01*
G01X8683480Y-1985681D01*
G01X8674336Y-1982633D01*
G01X8671034Y-1982633D01*
G01X8661890Y-1985681D01*
G01X8655540Y-1992031D01*
G01X8652492Y-2001175D01*
G01X8652492Y-2004223D01*
G01X8655540Y-2013621D01*
G01X8661890Y-2019717D01*
G01X8671034Y-2022765D01*
G01X7260602Y-1530221D02*
G01X7260602Y-1465197D01*
G01X7260602Y-1530221D02*
G01X7232662Y-1530221D01*
G01X7223518Y-1527173D01*
G01X7220470Y-1524125D01*
G01X7217168Y-1517775D01*
G01X7217168Y-1511679D01*
G01X7220470Y-1505583D01*
G01X7223518Y-1502535D01*
G01X7232662Y-1499233D01*
G01X7260602Y-1499233D01*
G01X7239012Y-1499233D02*
G01X7217168Y-1465197D01*
G01X7186942Y-1517775D02*
G01X7180846Y-1521077D01*
G01X7171702Y-1530221D01*
G01X7171702Y-1465197D01*
G01X11250051Y-1705526D02*
G01X11185027Y-1705526D01*
G01X11250051Y-1705526D02*
G01X11250051Y-1733466D01*
G01X11247003Y-1742610D01*
G01X11243955Y-1745658D01*
G01X11237605Y-1748960D01*
G01X11231509Y-1748960D01*
G01X11225413Y-1745658D01*
G01X11222365Y-1742610D01*
G01X11219063Y-1733466D01*
G01X11219063Y-1705526D01*
G01X11219063Y-1727116D02*
G01X11185027Y-1748960D01*
G01X11234557Y-1782234D02*
G01X11237605Y-1782234D01*
G01X11243955Y-1785282D01*
G01X11247003Y-1788330D01*
G01X11250051Y-1794426D01*
G01X11250051Y-1806872D01*
G01X11247003Y-1813222D01*
G01X11243955Y-1816270D01*
G01X11237605Y-1819318D01*
G01X11231509Y-1819318D01*
G01X11225413Y-1816270D01*
G01X11216015Y-1809920D01*
G01X11185027Y-1779186D01*
G01X11185027Y-1822366D01*
G01X6386886Y-1129276D02*
G01X6386886Y-1194300D01*
G01X6386886Y-1129276D02*
G01X6414826Y-1129276D01*
G01X6423970Y-1132324D01*
G01X6427018Y-1135372D01*
G01X6430320Y-1141722D01*
G01X6430320Y-1147818D01*
G01X6427018Y-1153914D01*
G01X6423970Y-1156962D01*
G01X6414826Y-1160264D01*
G01X6386886Y-1160264D01*
G01X6408476Y-1160264D02*
G01X6430320Y-1194300D01*
G01X6466642Y-1129276D02*
G01X6500678Y-1129276D01*
G01X6482136Y-1153914D01*
G01X6491280Y-1153914D01*
G01X6497630Y-1156962D01*
G01X6500678Y-1160264D01*
G01X6503726Y-1169408D01*
G01X6503726Y-1175758D01*
G01X6500678Y-1184902D01*
G01X6494582Y-1191252D01*
G01X6485184Y-1194300D01*
G01X6475786Y-1194300D01*
G01X6466642Y-1191252D01*
G01X6463594Y-1187950D01*
G01X6460546Y-1181854D01*
G01X8564224Y-1194153D02*
G01X8629248Y-1194153D01*
G01X8564224Y-1194153D02*
G01X8564224Y-1166213D01*
G01X8567272Y-1157069D01*
G01X8570320Y-1154021D01*
G01X8576670Y-1150719D01*
G01X8582766Y-1150719D01*
G01X8588862Y-1154021D01*
G01X8591910Y-1157069D01*
G01X8595212Y-1166213D01*
G01X8595212Y-1194153D01*
G01X8595212Y-1172563D02*
G01X8629248Y-1150719D01*
G01X8564224Y-1089759D02*
G01X8607404Y-1120493D01*
G01X8607404Y-1074265D01*
G01X8564224Y-1089759D02*
G01X8629248Y-1089759D01*
G01X7785262Y-1680126D02*
G01X7720238Y-1680126D01*
G01X7785262Y-1680126D02*
G01X7785262Y-1708066D01*
G01X7782214Y-1717210D01*
G01X7779166Y-1720258D01*
G01X7772816Y-1723560D01*
G01X7766720Y-1723560D01*
G01X7760624Y-1720258D01*
G01X7757576Y-1717210D01*
G01X7754274Y-1708066D01*
G01X7754274Y-1680126D01*
G01X7754274Y-1701716D02*
G01X7720238Y-1723560D01*
G01X7785262Y-1790870D02*
G01X7785262Y-1759882D01*
G01X7757576Y-1756834D01*
G01X7760624Y-1759882D01*
G01X7763672Y-1769026D01*
G01X7763672Y-1778424D01*
G01X7760624Y-1787822D01*
G01X7754274Y-1793918D01*
G01X7745130Y-1796966D01*
G01X7738780Y-1796966D01*
G01X7729636Y-1793918D01*
G01X7723286Y-1787822D01*
G01X7720238Y-1778424D01*
G01X7720238Y-1769026D01*
G01X7723286Y-1759882D01*
G01X7726588Y-1756834D01*
G01X7732684Y-1753786D01*
G01X9851674Y-1154676D02*
G01X9851674Y-1219700D01*
G01X9851674Y-1154676D02*
G01X9879614Y-1154676D01*
G01X9888758Y-1157724D01*
G01X9891806Y-1160772D01*
G01X9895108Y-1167122D01*
G01X9895108Y-1173218D01*
G01X9891806Y-1179314D01*
G01X9888758Y-1182362D01*
G01X9879614Y-1185664D01*
G01X9851674Y-1185664D01*
G01X9873264Y-1185664D02*
G01X9895108Y-1219700D01*
G01X9962418Y-1163820D02*
G01X9959370Y-1157724D01*
G01X9949972Y-1154676D01*
G01X9943876Y-1154676D01*
G01X9934478Y-1157724D01*
G01X9928382Y-1167122D01*
G01X9925334Y-1182362D01*
G01X9925334Y-1197856D01*
G01X9928382Y-1210302D01*
G01X9934478Y-1216652D01*
G01X9943876Y-1219700D01*
G01X9946924Y-1219700D01*
G01X9956068Y-1216652D01*
G01X9962418Y-1210302D01*
G01X9965466Y-1201158D01*
G01X9965466Y-1197856D01*
G01X9962418Y-1188712D01*
G01X9956068Y-1182362D01*
G01X9946924Y-1179314D01*
G01X9943876Y-1179314D01*
G01X9934478Y-1182362D01*
G01X9928382Y-1188712D01*
G01X9925334Y-1197856D01*
G01X5099436Y-1168753D02*
G01X5164460Y-1168753D01*
G01X5099436Y-1168753D02*
G01X5099436Y-1140813D01*
G01X5102484Y-1131669D01*
G01X5105532Y-1128621D01*
G01X5111882Y-1125319D01*
G01X5117978Y-1125319D01*
G01X5124074Y-1128621D01*
G01X5127122Y-1131669D01*
G01X5130424Y-1140813D01*
G01X5130424Y-1168753D01*
G01X5130424Y-1147163D02*
G01X5164460Y-1125319D01*
G01X5099436Y-1051913D02*
G01X5164460Y-1082901D01*
G01X5099436Y-1095093D02*
G01X5099436Y-1051913D01*
G01X10725390Y-1555621D02*
G01X10725390Y-1490597D01*
G01X10725390Y-1555621D02*
G01X10697450Y-1555621D01*
G01X10688306Y-1552573D01*
G01X10685258Y-1549525D01*
G01X10681956Y-1543175D01*
G01X10681956Y-1537079D01*
G01X10685258Y-1530983D01*
G01X10688306Y-1527935D01*
G01X10697450Y-1524633D01*
G01X10725390Y-1524633D01*
G01X10703800Y-1524633D02*
G01X10681956Y-1490597D01*
G01X10636490Y-1555621D02*
G01X10645634Y-1552573D01*
G01X10648682Y-1546477D01*
G01X10648682Y-1540127D01*
G01X10645634Y-1534031D01*
G01X10639538Y-1530983D01*
G01X10627092Y-1527935D01*
G01X10617694Y-1524633D01*
G01X10611598Y-1518537D01*
G01X10608550Y-1512441D01*
G01X10608550Y-1503043D01*
G01X10611598Y-1496947D01*
G01X10614646Y-1493645D01*
G01X10624044Y-1490597D01*
G01X10636490Y-1490597D01*
G01X10645634Y-1493645D01*
G01X10648682Y-1496947D01*
G01X10651730Y-1503043D01*
G01X10651730Y-1512441D01*
G01X10648682Y-1518537D01*
G01X10642586Y-1524633D01*
G01X10633188Y-1527935D01*
G01X10620996Y-1530983D01*
G01X10614646Y-1534031D01*
G01X10611598Y-1540127D01*
G01X10611598Y-1546477D01*
G01X10614646Y-1552573D01*
G01X10624044Y-1555621D01*
G01X10636490Y-1555621D01*
G01X9408551Y-1642026D02*
G01X9343527Y-1642026D01*
G01X9408551Y-1642026D02*
G01X9408551Y-1669966D01*
G01X9405503Y-1679110D01*
G01X9402455Y-1682158D01*
G01X9396105Y-1685460D01*
G01X9390009Y-1685460D01*
G01X9383913Y-1682158D01*
G01X9380865Y-1679110D01*
G01X9377563Y-1669966D01*
G01X9377563Y-1642026D01*
G01X9377563Y-1663616D02*
G01X9343527Y-1685460D01*
G01X9386961Y-1755818D02*
G01X9377563Y-1752770D01*
G01X9371467Y-1746420D01*
G01X9368419Y-1737276D01*
G01X9368419Y-1734228D01*
G01X9371467Y-1724830D01*
G01X9377563Y-1718734D01*
G01X9386961Y-1715686D01*
G01X9390009Y-1715686D01*
G01X9399407Y-1718734D01*
G01X9405503Y-1724830D01*
G01X9408551Y-1734228D01*
G01X9408551Y-1737276D01*
G01X9405503Y-1746420D01*
G01X9399407Y-1752770D01*
G01X9386961Y-1755818D01*
G01X9371467Y-1755818D01*
G01X9355973Y-1752770D01*
G01X9346575Y-1746420D01*
G01X9343527Y-1737276D01*
G01X9343527Y-1730926D01*
G01X9346575Y-1721782D01*
G01X9352925Y-1718734D01*
G01X9010101Y-1656103D02*
G01X9010101Y-1591079D01*
G01X9010101Y-1656103D02*
G01X8982161Y-1656103D01*
G01X8973017Y-1653055D01*
G01X8969969Y-1650007D01*
G01X8966667Y-1643657D01*
G01X8966667Y-1637561D01*
G01X8969969Y-1631465D01*
G01X8973017Y-1628417D01*
G01X8982161Y-1625115D01*
G01X9010101Y-1625115D01*
G01X8988511Y-1625115D02*
G01X8966667Y-1591079D01*
G01X8936441Y-1643657D02*
G01X8930345Y-1646959D01*
G01X8921201Y-1656103D01*
G01X8921201Y-1591079D01*
G01X8872433Y-1656103D02*
G01X8881831Y-1653055D01*
G01X8887927Y-1643657D01*
G01X8890975Y-1628417D01*
G01X8890975Y-1619019D01*
G01X8887927Y-1603525D01*
G01X8881831Y-1594127D01*
G01X8872433Y-1591079D01*
G01X8866337Y-1591079D01*
G01X8856939Y-1594127D01*
G01X8850843Y-1603525D01*
G01X8847795Y-1619019D01*
G01X8847795Y-1628417D01*
G01X8850843Y-1643657D01*
G01X8856939Y-1653055D01*
G01X8866337Y-1656103D01*
G01X8872433Y-1656103D01*
G01X5545313Y-1630703D02*
G01X5545313Y-1565679D01*
G01X5545313Y-1630703D02*
G01X5517373Y-1630703D01*
G01X5508229Y-1627655D01*
G01X5505181Y-1624607D01*
G01X5501879Y-1618257D01*
G01X5501879Y-1612161D01*
G01X5505181Y-1606065D01*
G01X5508229Y-1603017D01*
G01X5517373Y-1599715D01*
G01X5545313Y-1599715D01*
G01X5523723Y-1599715D02*
G01X5501879Y-1565679D01*
G01X5468605Y-1615209D02*
G01X5468605Y-1618257D01*
G01X5465557Y-1624607D01*
G01X5462509Y-1627655D01*
G01X5456413Y-1630703D01*
G01X5443967Y-1630703D01*
G01X5437617Y-1627655D01*
G01X5434569Y-1624607D01*
G01X5431521Y-1618257D01*
G01X5431521Y-1612161D01*
G01X5434569Y-1606065D01*
G01X5440919Y-1596667D01*
G01X5471653Y-1565679D01*
G01X5428473Y-1565679D01*
G01X5358115Y-1609113D02*
G01X5361163Y-1599715D01*
G01X5367513Y-1593619D01*
G01X5376657Y-1590571D01*
G01X5379705Y-1590571D01*
G01X5389103Y-1593619D01*
G01X5395199Y-1599715D01*
G01X5398247Y-1609113D01*
G01X5398247Y-1612161D01*
G01X5395199Y-1621559D01*
G01X5389103Y-1627655D01*
G01X5379705Y-1630703D01*
G01X5376657Y-1630703D01*
G01X5367513Y-1627655D01*
G01X5361163Y-1621559D01*
G01X5358115Y-1609113D01*
G01X5358115Y-1593619D01*
G01X5361163Y-1578125D01*
G01X5367513Y-1568727D01*
G01X5376657Y-1565679D01*
G01X5383007Y-1565679D01*
G01X5392151Y-1568727D01*
G01X5395199Y-1575077D01*
G01X5943762Y-1616626D02*
G01X5878738Y-1616626D01*
G01X5943762Y-1616626D02*
G01X5943762Y-1644566D01*
G01X5940714Y-1653710D01*
G01X5937666Y-1656758D01*
G01X5931316Y-1660060D01*
G01X5925220Y-1660060D01*
G01X5919124Y-1656758D01*
G01X5916076Y-1653710D01*
G01X5912774Y-1644566D01*
G01X5912774Y-1616626D01*
G01X5912774Y-1638216D02*
G01X5878738Y-1660060D01*
G01X5943762Y-1696382D02*
G01X5943762Y-1730418D01*
G01X5919124Y-1711876D01*
G01X5919124Y-1721020D01*
G01X5916076Y-1727370D01*
G01X5912774Y-1730418D01*
G01X5903630Y-1733466D01*
G01X5897280Y-1733466D01*
G01X5888136Y-1730418D01*
G01X5881786Y-1724322D01*
G01X5878738Y-1714924D01*
G01X5878738Y-1705526D01*
G01X5881786Y-1696382D01*
G01X5885088Y-1693334D01*
G01X5891184Y-1690286D01*
G01X5943762Y-1782234D02*
G01X5940714Y-1772836D01*
G01X5931316Y-1766740D01*
G01X5916076Y-1763692D01*
G01X5906678Y-1763692D01*
G01X5891184Y-1766740D01*
G01X5881786Y-1772836D01*
G01X5878738Y-1782234D01*
G01X5878738Y-1788330D01*
G01X5881786Y-1797728D01*
G01X5891184Y-1803824D01*
G01X5906678Y-1806872D01*
G01X5916076Y-1806872D01*
G01X5931316Y-1803824D01*
G01X5940714Y-1797728D01*
G01X5943762Y-1788330D01*
G01X5943762Y-1782234D01*
G01X5933333Y-1241560D02*
G01X5886851Y-1241560D01*
G01X5877707Y-1244608D01*
G01X5871357Y-1250958D01*
G01X5868309Y-1260102D01*
G01X5868309Y-1266452D01*
G01X5871357Y-1275596D01*
G01X5877707Y-1281692D01*
G01X5886851Y-1284994D01*
G01X5933333Y-1284994D01*
G01X5920887Y-1315220D02*
G01X5924189Y-1321316D01*
G01X5933333Y-1330460D01*
G01X5868309Y-1330460D01*
G01X9398121Y-1266960D02*
G01X9351639Y-1266960D01*
G01X9342495Y-1270008D01*
G01X9336145Y-1276358D01*
G01X9333097Y-1285502D01*
G01X9333097Y-1291852D01*
G01X9336145Y-1300996D01*
G01X9342495Y-1307092D01*
G01X9351639Y-1310394D01*
G01X9398121Y-1310394D01*
G01X9398121Y-1346716D02*
G01X9398121Y-1380752D01*
G01X9373483Y-1362210D01*
G01X9373483Y-1371354D01*
G01X9370435Y-1377704D01*
G01X9367133Y-1380752D01*
G01X9357989Y-1383800D01*
G01X9351639Y-1383800D01*
G01X9342495Y-1380752D01*
G01X9336145Y-1374656D01*
G01X9333097Y-1365258D01*
G01X9333097Y-1355860D01*
G01X9336145Y-1346716D01*
G01X9339447Y-1343668D01*
G01X9345543Y-1340620D01*
G01X10091058Y-2033629D02*
G01X10137540Y-2033629D01*
G01X10146684Y-2030581D01*
G01X10153034Y-2024231D01*
G01X10156082Y-2015087D01*
G01X10156082Y-2008737D01*
G01X10153034Y-1999593D01*
G01X10146684Y-1993497D01*
G01X10137540Y-1990195D01*
G01X10091058Y-1990195D01*
G01X10091058Y-1929235D02*
G01X10134238Y-1959969D01*
G01X10134238Y-1913741D01*
G01X10091058Y-1929235D02*
G01X10156082Y-1929235D01*
G01X6626269Y-2008229D02*
G01X6672751Y-2008229D01*
G01X6681895Y-2005181D01*
G01X6688245Y-1998831D01*
G01X6691293Y-1989687D01*
G01X6691293Y-1983337D01*
G01X6688245Y-1974193D01*
G01X6681895Y-1968097D01*
G01X6672751Y-1964795D01*
G01X6626269Y-1964795D01*
G01X6635413Y-1897485D02*
G01X6629317Y-1900533D01*
G01X6626269Y-1909931D01*
G01X6626269Y-1916027D01*
G01X6629317Y-1925425D01*
G01X6638715Y-1931521D01*
G01X6653955Y-1934569D01*
G01X6669449Y-1934569D01*
G01X6681895Y-1931521D01*
G01X6688245Y-1925425D01*
G01X6691293Y-1916027D01*
G01X6691293Y-1912979D01*
G01X6688245Y-1903835D01*
G01X6681895Y-1897485D01*
G01X6672751Y-1894437D01*
G01X6669449Y-1894437D01*
G01X6660305Y-1897485D01*
G01X6653955Y-1903835D01*
G01X6650907Y-1912979D01*
G01X6650907Y-1916027D01*
G01X6653955Y-1925425D01*
G01X6660305Y-1931521D01*
G01X6669449Y-1934569D01*
G01X11393232Y-3088778D02*
G01X11346750Y-3088778D01*
G01X11337606Y-3091826D01*
G01X11331256Y-3098176D01*
G01X11328208Y-3107320D01*
G01X11328208Y-3113670D01*
G01X11331256Y-3122814D01*
G01X11337606Y-3128910D01*
G01X11346750Y-3132212D01*
G01X11393232Y-3132212D01*
G01X11377738Y-3165486D02*
G01X11380786Y-3165486D01*
G01X11387136Y-3168534D01*
G01X11390184Y-3171582D01*
G01X11393232Y-3177678D01*
G01X11393232Y-3190124D01*
G01X11390184Y-3196474D01*
G01X11387136Y-3199522D01*
G01X11380786Y-3202570D01*
G01X11374690Y-3202570D01*
G01X11368594Y-3199522D01*
G01X11359196Y-3193172D01*
G01X11328208Y-3162438D01*
G01X11328208Y-3205618D01*
G01X11300484Y-4145418D02*
G01X11254002Y-4145418D01*
G01X11244858Y-4148466D01*
G01X11238508Y-4154816D01*
G01X11235460Y-4163960D01*
G01X11235460Y-4170310D01*
G01X11238508Y-4179454D01*
G01X11244858Y-4185550D01*
G01X11254002Y-4188852D01*
G01X11300484Y-4188852D01*
G01X11284990Y-4222126D02*
G01X11288038Y-4222126D01*
G01X11294388Y-4225174D01*
G01X11297436Y-4228222D01*
G01X11300484Y-4234318D01*
G01X11300484Y-4246764D01*
G01X11297436Y-4253114D01*
G01X11294388Y-4256162D01*
G01X11288038Y-4259210D01*
G01X11281942Y-4259210D01*
G01X11275846Y-4256162D01*
G01X11266448Y-4249812D01*
G01X11235460Y-4219078D01*
G01X11235460Y-4262258D01*
G01X11300484Y-4329568D02*
G01X11300484Y-4298580D01*
G01X11272798Y-4295532D01*
G01X11275846Y-4298580D01*
G01X11278894Y-4307724D01*
G01X11278894Y-4317122D01*
G01X11275846Y-4326520D01*
G01X11269496Y-4332616D01*
G01X11260352Y-4335664D01*
G01X11254002Y-4335664D01*
G01X11244858Y-4332616D01*
G01X11238508Y-4326520D01*
G01X11235460Y-4317122D01*
G01X11235460Y-4307724D01*
G01X11238508Y-4298580D01*
G01X11241810Y-4295532D01*
G01X11247906Y-4292484D01*
G01X4861578Y-4711259D02*
G01X4864626Y-4717609D01*
G01X4870976Y-4723705D01*
G01X4877072Y-4726753D01*
G01X4889518Y-4726753D01*
G01X4895614Y-4723705D01*
G01X4901964Y-4717609D01*
G01X4905012Y-4711259D01*
G01X4908060Y-4702115D01*
G01X4908060Y-4686621D01*
G01X4905012Y-4677223D01*
G01X4901964Y-4671127D01*
G01X4895614Y-4664777D01*
G01X4889518Y-4661729D01*
G01X4877072Y-4661729D01*
G01X4870976Y-4664777D01*
G01X4864626Y-4671127D01*
G01X4861578Y-4677223D01*
G01X4791220Y-4705163D02*
G01X4794268Y-4695765D01*
G01X4800618Y-4689669D01*
G01X4809762Y-4686621D01*
G01X4812810Y-4686621D01*
G01X4822208Y-4689669D01*
G01X4828304Y-4695765D01*
G01X4831352Y-4705163D01*
G01X4831352Y-4708211D01*
G01X4828304Y-4717609D01*
G01X4822208Y-4723705D01*
G01X4812810Y-4726753D01*
G01X4809762Y-4726753D01*
G01X4800618Y-4723705D01*
G01X4794268Y-4717609D01*
G01X4791220Y-4705163D01*
G01X4791220Y-4689669D01*
G01X4794268Y-4674175D01*
G01X4800618Y-4664777D01*
G01X4809762Y-4661729D01*
G01X4816112Y-4661729D01*
G01X4825256Y-4664777D01*
G01X4828304Y-4671127D01*
G01X4830936Y-3576092D02*
G01X4833984Y-3582442D01*
G01X4840334Y-3588538D01*
G01X4846430Y-3591586D01*
G01X4858876Y-3591586D01*
G01X4864972Y-3588538D01*
G01X4871322Y-3582442D01*
G01X4874370Y-3576092D01*
G01X4877418Y-3566948D01*
G01X4877418Y-3551454D01*
G01X4874370Y-3542056D01*
G01X4871322Y-3535960D01*
G01X4864972Y-3529610D01*
G01X4858876Y-3526562D01*
G01X4846430Y-3526562D01*
G01X4840334Y-3529610D01*
G01X4833984Y-3535960D01*
G01X4830936Y-3542056D01*
G01X4800710Y-3579140D02*
G01X4794614Y-3582442D01*
G01X4785470Y-3591586D01*
G01X4785470Y-3526562D01*
G01X4736702Y-3591586D02*
G01X4746100Y-3588538D01*
G01X4752196Y-3579140D01*
G01X4755244Y-3563900D01*
G01X4755244Y-3554502D01*
G01X4752196Y-3539008D01*
G01X4746100Y-3529610D01*
G01X4736702Y-3526562D01*
G01X4730606Y-3526562D01*
G01X4721208Y-3529610D01*
G01X4715112Y-3539008D01*
G01X4712064Y-3554502D01*
G01X4712064Y-3563900D01*
G01X4715112Y-3579140D01*
G01X4721208Y-3588538D01*
G01X4730606Y-3591586D01*
G01X4736702Y-3591586D01*
G01X7071181Y-3328259D02*
G01X7068133Y-3321909D01*
G01X7061783Y-3315813D01*
G01X7055687Y-3312765D01*
G01X7043241Y-3312765D01*
G01X7037145Y-3315813D01*
G01X7030795Y-3321909D01*
G01X7027747Y-3328259D01*
G01X7024699Y-3337403D01*
G01X7024699Y-3352897D01*
G01X7027747Y-3362295D01*
G01X7030795Y-3368391D01*
G01X7037145Y-3374741D01*
G01X7043241Y-3377789D01*
G01X7055687Y-3377789D01*
G01X7061783Y-3374741D01*
G01X7068133Y-3368391D01*
G01X7071181Y-3362295D01*
G01X7101407Y-3325211D02*
G01X7107503Y-3321909D01*
G01X7116647Y-3312765D01*
G01X7116647Y-3377789D01*
G01X7146873Y-3325211D02*
G01X7152969Y-3321909D01*
G01X7162113Y-3312765D01*
G01X7162113Y-3377789D01*
G01X7134681Y-4355623D02*
G01X7131633Y-4349273D01*
G01X7125283Y-4343177D01*
G01X7119187Y-4340129D01*
G01X7106741Y-4340129D01*
G01X7100645Y-4343177D01*
G01X7094295Y-4349273D01*
G01X7091247Y-4355623D01*
G01X7088199Y-4364767D01*
G01X7088199Y-4380261D01*
G01X7091247Y-4389659D01*
G01X7094295Y-4395755D01*
G01X7100645Y-4402105D01*
G01X7106741Y-4405153D01*
G01X7119187Y-4405153D01*
G01X7125283Y-4402105D01*
G01X7131633Y-4395755D01*
G01X7134681Y-4389659D01*
G01X7164907Y-4352575D02*
G01X7171003Y-4349273D01*
G01X7180147Y-4340129D01*
G01X7180147Y-4405153D01*
G01X7213421Y-4355623D02*
G01X7213421Y-4352575D01*
G01X7216469Y-4346225D01*
G01X7219517Y-4343177D01*
G01X7225613Y-4340129D01*
G01X7238059Y-4340129D01*
G01X7244409Y-4343177D01*
G01X7247457Y-4346225D01*
G01X7250505Y-4352575D01*
G01X7250505Y-4358671D01*
G01X7247457Y-4364767D01*
G01X7241107Y-4374165D01*
G01X7210373Y-4405153D01*
G01X7253553Y-4405153D01*
G01X6190596Y-3467738D02*
G01X6193644Y-3474088D01*
G01X6199994Y-3480184D01*
G01X6206090Y-3483232D01*
G01X6218536Y-3483232D01*
G01X6224632Y-3480184D01*
G01X6230982Y-3474088D01*
G01X6234030Y-3467738D01*
G01X6237078Y-3458594D01*
G01X6237078Y-3443100D01*
G01X6234030Y-3433702D01*
G01X6230982Y-3427606D01*
G01X6224632Y-3421256D01*
G01X6218536Y-3418208D01*
G01X6206090Y-3418208D01*
G01X6199994Y-3421256D01*
G01X6193644Y-3427606D01*
G01X6190596Y-3433702D01*
G01X6160370Y-3470786D02*
G01X6154274Y-3474088D01*
G01X6145130Y-3483232D01*
G01X6145130Y-3418208D01*
G01X6108808Y-3483232D02*
G01X6074772Y-3483232D01*
G01X6093314Y-3458594D01*
G01X6084170Y-3458594D01*
G01X6077820Y-3455546D01*
G01X6074772Y-3452244D01*
G01X6071724Y-3443100D01*
G01X6071724Y-3436750D01*
G01X6074772Y-3427606D01*
G01X6080868Y-3421256D01*
G01X6090266Y-3418208D01*
G01X6099664Y-3418208D01*
G01X6108808Y-3421256D01*
G01X6111856Y-3424558D01*
G01X6114904Y-3430654D01*
G01X4868347Y-3947867D02*
G01X4868347Y-3882843D01*
G01X4868347Y-3947867D02*
G01X4840407Y-3947867D01*
G01X4831263Y-3944819D01*
G01X4828215Y-3941771D01*
G01X4824913Y-3935421D01*
G01X4824913Y-3929325D01*
G01X4828215Y-3923229D01*
G01X4831263Y-3920181D01*
G01X4840407Y-3916879D01*
G01X4868347Y-3916879D01*
G01X4846757Y-3916879D02*
G01X4824913Y-3882843D01*
G01X4791639Y-3932373D02*
G01X4791639Y-3935421D01*
G01X4788591Y-3941771D01*
G01X4785543Y-3944819D01*
G01X4779447Y-3947867D01*
G01X4767001Y-3947867D01*
G01X4760651Y-3944819D01*
G01X4757603Y-3941771D01*
G01X4754555Y-3935421D01*
G01X4754555Y-3929325D01*
G01X4757603Y-3923229D01*
G01X4763953Y-3913831D01*
G01X4794687Y-3882843D01*
G01X4751507Y-3882843D01*
G01X4715185Y-3947867D02*
G01X4681149Y-3947867D01*
G01X4699691Y-3923229D01*
G01X4690547Y-3923229D01*
G01X4684197Y-3920181D01*
G01X4681149Y-3916879D01*
G01X4678101Y-3907735D01*
G01X4678101Y-3901385D01*
G01X4681149Y-3892241D01*
G01X4687245Y-3885891D01*
G01X4696643Y-3882843D01*
G01X4706041Y-3882843D01*
G01X4715185Y-3885891D01*
G01X4718233Y-3889193D01*
G01X4721281Y-3895289D01*
G01X4855647Y-4342903D02*
G01X4855647Y-4277879D01*
G01X4855647Y-4342903D02*
G01X4827707Y-4342903D01*
G01X4818563Y-4339855D01*
G01X4815515Y-4336807D01*
G01X4812213Y-4330457D01*
G01X4812213Y-4324361D01*
G01X4815515Y-4318265D01*
G01X4818563Y-4315217D01*
G01X4827707Y-4311915D01*
G01X4855647Y-4311915D01*
G01X4834057Y-4311915D02*
G01X4812213Y-4277879D01*
G01X4778939Y-4327409D02*
G01X4778939Y-4330457D01*
G01X4775891Y-4336807D01*
G01X4772843Y-4339855D01*
G01X4766747Y-4342903D01*
G01X4754301Y-4342903D01*
G01X4747951Y-4339855D01*
G01X4744903Y-4336807D01*
G01X4741855Y-4330457D01*
G01X4741855Y-4324361D01*
G01X4744903Y-4318265D01*
G01X4751253Y-4308867D01*
G01X4781987Y-4277879D01*
G01X4738807Y-4277879D01*
G01X4677847Y-4342903D02*
G01X4708581Y-4299723D01*
G01X4662353Y-4299723D01*
G01X4677847Y-4342903D02*
G01X4677847Y-4277879D01*
G01X5383113Y-4728102D02*
G01X5383113Y-4663078D01*
G01X5383113Y-4728102D02*
G01X5355173Y-4728102D01*
G01X5346029Y-4725054D01*
G01X5342981Y-4722006D01*
G01X5339679Y-4715656D01*
G01X5339679Y-4709560D01*
G01X5342981Y-4703464D01*
G01X5346029Y-4700416D01*
G01X5355173Y-4697114D01*
G01X5383113Y-4697114D01*
G01X5361523Y-4697114D02*
G01X5339679Y-4663078D01*
G01X5306405Y-4712608D02*
G01X5306405Y-4715656D01*
G01X5303357Y-4722006D01*
G01X5300309Y-4725054D01*
G01X5294213Y-4728102D01*
G01X5281767Y-4728102D01*
G01X5275417Y-4725054D01*
G01X5272369Y-4722006D01*
G01X5269321Y-4715656D01*
G01X5269321Y-4709560D01*
G01X5272369Y-4703464D01*
G01X5278719Y-4694066D01*
G01X5309453Y-4663078D01*
G01X5266273Y-4663078D01*
G01X5198963Y-4728102D02*
G01X5229951Y-4728102D01*
G01X5232999Y-4700416D01*
G01X5229951Y-4703464D01*
G01X5220807Y-4706512D01*
G01X5211409Y-4706512D01*
G01X5202011Y-4703464D01*
G01X5195915Y-4697114D01*
G01X5192867Y-4687970D01*
G01X5192867Y-4681620D01*
G01X5195915Y-4672476D01*
G01X5202011Y-4666126D01*
G01X5211409Y-4663078D01*
G01X5220807Y-4663078D01*
G01X5229951Y-4666126D01*
G01X5232999Y-4669428D01*
G01X5236047Y-4675524D01*
G01X5370413Y-3597802D02*
G01X5370413Y-3532778D01*
G01X5370413Y-3597802D02*
G01X5342473Y-3597802D01*
G01X5333329Y-3594754D01*
G01X5330281Y-3591706D01*
G01X5326979Y-3585356D01*
G01X5326979Y-3579260D01*
G01X5330281Y-3573164D01*
G01X5333329Y-3570116D01*
G01X5342473Y-3566814D01*
G01X5370413Y-3566814D01*
G01X5348823Y-3566814D02*
G01X5326979Y-3532778D01*
G01X5293705Y-3582308D02*
G01X5293705Y-3585356D01*
G01X5290657Y-3591706D01*
G01X5287609Y-3594754D01*
G01X5281513Y-3597802D01*
G01X5269067Y-3597802D01*
G01X5262717Y-3594754D01*
G01X5259669Y-3591706D01*
G01X5256621Y-3585356D01*
G01X5256621Y-3579260D01*
G01X5259669Y-3573164D01*
G01X5266019Y-3563766D01*
G01X5296753Y-3532778D01*
G01X5253573Y-3532778D01*
G01X5186263Y-3588658D02*
G01X5189311Y-3594754D01*
G01X5198709Y-3597802D01*
G01X5204805Y-3597802D01*
G01X5214203Y-3594754D01*
G01X5220299Y-3585356D01*
G01X5223347Y-3570116D01*
G01X5223347Y-3554622D01*
G01X5220299Y-3542176D01*
G01X5214203Y-3535826D01*
G01X5204805Y-3532778D01*
G01X5201757Y-3532778D01*
G01X5192613Y-3535826D01*
G01X5186263Y-3542176D01*
G01X5183215Y-3551320D01*
G01X5183215Y-3554622D01*
G01X5186263Y-3563766D01*
G01X5192613Y-3570116D01*
G01X5201757Y-3573164D01*
G01X5204805Y-3573164D01*
G01X5214203Y-3570116D01*
G01X5220299Y-3563766D01*
G01X5223347Y-3554622D01*
G01X5350947Y-3954545D02*
G01X5350947Y-3889521D01*
G01X5350947Y-3954545D02*
G01X5323007Y-3954545D01*
G01X5313863Y-3951497D01*
G01X5310815Y-3948449D01*
G01X5307513Y-3942099D01*
G01X5307513Y-3936003D01*
G01X5310815Y-3929907D01*
G01X5313863Y-3926859D01*
G01X5323007Y-3923557D01*
G01X5350947Y-3923557D01*
G01X5329357Y-3923557D02*
G01X5307513Y-3889521D01*
G01X5271191Y-3954545D02*
G01X5237155Y-3954545D01*
G01X5255697Y-3929907D01*
G01X5246553Y-3929907D01*
G01X5240203Y-3926859D01*
G01X5237155Y-3923557D01*
G01X5234107Y-3914413D01*
G01X5234107Y-3908063D01*
G01X5237155Y-3898919D01*
G01X5243251Y-3892569D01*
G01X5252649Y-3889521D01*
G01X5262047Y-3889521D01*
G01X5271191Y-3892569D01*
G01X5274239Y-3895871D01*
G01X5277287Y-3901967D01*
G01X5188641Y-3954545D02*
G01X5197785Y-3951497D01*
G01X5200833Y-3945401D01*
G01X5200833Y-3939051D01*
G01X5197785Y-3932955D01*
G01X5191689Y-3929907D01*
G01X5179243Y-3926859D01*
G01X5169845Y-3923557D01*
G01X5163749Y-3917461D01*
G01X5160701Y-3911365D01*
G01X5160701Y-3901967D01*
G01X5163749Y-3895871D01*
G01X5166797Y-3892569D01*
G01X5176195Y-3889521D01*
G01X5188641Y-3889521D01*
G01X5197785Y-3892569D01*
G01X5200833Y-3895871D01*
G01X5203881Y-3901967D01*
G01X5203881Y-3911365D01*
G01X5200833Y-3917461D01*
G01X5194737Y-3923557D01*
G01X5185339Y-3926859D01*
G01X5173147Y-3929907D01*
G01X5166797Y-3932955D01*
G01X5163749Y-3939051D01*
G01X5163749Y-3945401D01*
G01X5166797Y-3951497D01*
G01X5176195Y-3954545D01*
G01X5188641Y-3954545D01*
G01X5376347Y-4349581D02*
G01X5376347Y-4284557D01*
G01X5376347Y-4349581D02*
G01X5348407Y-4349581D01*
G01X5339263Y-4346533D01*
G01X5336215Y-4343485D01*
G01X5332913Y-4337135D01*
G01X5332913Y-4331039D01*
G01X5336215Y-4324943D01*
G01X5339263Y-4321895D01*
G01X5348407Y-4318593D01*
G01X5376347Y-4318593D01*
G01X5354757Y-4318593D02*
G01X5332913Y-4284557D01*
G01X5296591Y-4349581D02*
G01X5262555Y-4349581D01*
G01X5281097Y-4324943D01*
G01X5271953Y-4324943D01*
G01X5265603Y-4321895D01*
G01X5262555Y-4318593D01*
G01X5259507Y-4309449D01*
G01X5259507Y-4303099D01*
G01X5262555Y-4293955D01*
G01X5268651Y-4287605D01*
G01X5278049Y-4284557D01*
G01X5287447Y-4284557D01*
G01X5296591Y-4287605D01*
G01X5299639Y-4290907D01*
G01X5302687Y-4297003D01*
G01X5189149Y-4327991D02*
G01X5192197Y-4318593D01*
G01X5198547Y-4312497D01*
G01X5207691Y-4309449D01*
G01X5210739Y-4309449D01*
G01X5220137Y-4312497D01*
G01X5226233Y-4318593D01*
G01X5229281Y-4327991D01*
G01X5229281Y-4331039D01*
G01X5226233Y-4340437D01*
G01X5220137Y-4346533D01*
G01X5210739Y-4349581D01*
G01X5207691Y-4349581D01*
G01X5198547Y-4346533D01*
G01X5192197Y-4340437D01*
G01X5189149Y-4327991D01*
G01X5189149Y-4312497D01*
G01X5192197Y-4297003D01*
G01X5198547Y-4287605D01*
G01X5207691Y-4284557D01*
G01X5214041Y-4284557D01*
G01X5223185Y-4287605D01*
G01X5226233Y-4293955D01*
G01X7088287Y-3985375D02*
G01X7088287Y-4050399D01*
G01X7088287Y-3985375D02*
G01X7116227Y-3985375D01*
G01X7125371Y-3988423D01*
G01X7128419Y-3991471D01*
G01X7131721Y-3997821D01*
G01X7131721Y-4003917D01*
G01X7128419Y-4010013D01*
G01X7125371Y-4013061D01*
G01X7116227Y-4016363D01*
G01X7088287Y-4016363D01*
G01X7109877Y-4016363D02*
G01X7131721Y-4050399D01*
G01X7192681Y-3985375D02*
G01X7161947Y-4028555D01*
G01X7208175Y-4028555D01*
G01X7192681Y-3985375D02*
G01X7192681Y-4050399D01*
G01X7256943Y-3985375D02*
G01X7247545Y-3988423D01*
G01X7241449Y-3997821D01*
G01X7238401Y-4013061D01*
G01X7238401Y-4022459D01*
G01X7241449Y-4037953D01*
G01X7247545Y-4047351D01*
G01X7256943Y-4050399D01*
G01X7263039Y-4050399D01*
G01X7272437Y-4047351D01*
G01X7278533Y-4037953D01*
G01X7281581Y-4022459D01*
G01X7281581Y-4013061D01*
G01X7278533Y-3997821D01*
G01X7272437Y-3988423D01*
G01X7263039Y-3985375D01*
G01X7256943Y-3985375D01*
G01X7041787Y-3666349D02*
G01X7041787Y-3731373D01*
G01X7041787Y-3666349D02*
G01X7069727Y-3666349D01*
G01X7078871Y-3669397D01*
G01X7081919Y-3672445D01*
G01X7085221Y-3678795D01*
G01X7085221Y-3684891D01*
G01X7081919Y-3690987D01*
G01X7078871Y-3694035D01*
G01X7069727Y-3697337D01*
G01X7041787Y-3697337D01*
G01X7063377Y-3697337D02*
G01X7085221Y-3731373D01*
G01X7146181Y-3666349D02*
G01X7115447Y-3709529D01*
G01X7161675Y-3709529D01*
G01X7146181Y-3666349D02*
G01X7146181Y-3731373D01*
G01X7191901Y-3678795D02*
G01X7197997Y-3675493D01*
G01X7207141Y-3666349D01*
G01X7207141Y-3731373D01*
G01X6498845Y-3318107D02*
G01X6498845Y-3383131D01*
G01X6498845Y-3318107D02*
G01X6526785Y-3318107D01*
G01X6535929Y-3321155D01*
G01X6538977Y-3324203D01*
G01X6542279Y-3330553D01*
G01X6542279Y-3336649D01*
G01X6538977Y-3342745D01*
G01X6535929Y-3345793D01*
G01X6526785Y-3349095D01*
G01X6498845Y-3349095D01*
G01X6520435Y-3349095D02*
G01X6542279Y-3383131D01*
G01X6603239Y-3318107D02*
G01X6572505Y-3361287D01*
G01X6618733Y-3361287D01*
G01X6603239Y-3318107D02*
G01X6603239Y-3383131D01*
G01X6652007Y-3333601D02*
G01X6652007Y-3330553D01*
G01X6655055Y-3324203D01*
G01X6658103Y-3321155D01*
G01X6664199Y-3318107D01*
G01X6676645Y-3318107D01*
G01X6682995Y-3321155D01*
G01X6686043Y-3324203D01*
G01X6689091Y-3330553D01*
G01X6689091Y-3336649D01*
G01X6686043Y-3342745D01*
G01X6679693Y-3352143D01*
G01X6648959Y-3383131D01*
G01X6692139Y-3383131D01*
G01X6536945Y-4345471D02*
G01X6536945Y-4410495D01*
G01X6536945Y-4345471D02*
G01X6564885Y-4345471D01*
G01X6574029Y-4348519D01*
G01X6577077Y-4351567D01*
G01X6580379Y-4357917D01*
G01X6580379Y-4364013D01*
G01X6577077Y-4370109D01*
G01X6574029Y-4373157D01*
G01X6564885Y-4376459D01*
G01X6536945Y-4376459D01*
G01X6558535Y-4376459D02*
G01X6580379Y-4410495D01*
G01X6641339Y-4345471D02*
G01X6610605Y-4388651D01*
G01X6656833Y-4388651D01*
G01X6641339Y-4345471D02*
G01X6641339Y-4410495D01*
G01X6693155Y-4345471D02*
G01X6727191Y-4345471D01*
G01X6708649Y-4370109D01*
G01X6717793Y-4370109D01*
G01X6724143Y-4373157D01*
G01X6727191Y-4376459D01*
G01X6730239Y-4385603D01*
G01X6730239Y-4391953D01*
G01X6727191Y-4401097D01*
G01X6721095Y-4407447D01*
G01X6711697Y-4410495D01*
G01X6702299Y-4410495D01*
G01X6693155Y-4407447D01*
G01X6690107Y-4404145D01*
G01X6687059Y-4398049D01*
G01X6521087Y-3976490D02*
G01X6521087Y-4041514D01*
G01X6521087Y-3976490D02*
G01X6549027Y-3976490D01*
G01X6558171Y-3979538D01*
G01X6561219Y-3982586D01*
G01X6564521Y-3988936D01*
G01X6564521Y-3995032D01*
G01X6561219Y-4001128D01*
G01X6558171Y-4004176D01*
G01X6549027Y-4007478D01*
G01X6521087Y-4007478D01*
G01X6542677Y-4007478D02*
G01X6564521Y-4041514D01*
G01X6625481Y-3976490D02*
G01X6594747Y-4019670D01*
G01X6640975Y-4019670D01*
G01X6625481Y-3976490D02*
G01X6625481Y-4041514D01*
G01X6701935Y-3976490D02*
G01X6671201Y-4019670D01*
G01X6717429Y-4019670D01*
G01X6701935Y-3976490D02*
G01X6701935Y-4041514D01*
G01X6508387Y-3660326D02*
G01X6508387Y-3725350D01*
G01X6508387Y-3660326D02*
G01X6536327Y-3660326D01*
G01X6545471Y-3663374D01*
G01X6548519Y-3666422D01*
G01X6551821Y-3672772D01*
G01X6551821Y-3678868D01*
G01X6548519Y-3684964D01*
G01X6545471Y-3688012D01*
G01X6536327Y-3691314D01*
G01X6508387Y-3691314D01*
G01X6529977Y-3691314D02*
G01X6551821Y-3725350D01*
G01X6612781Y-3660326D02*
G01X6582047Y-3703506D01*
G01X6628275Y-3703506D01*
G01X6612781Y-3660326D02*
G01X6612781Y-3725350D01*
G01X6695585Y-3660326D02*
G01X6664597Y-3660326D01*
G01X6661549Y-3688012D01*
G01X6664597Y-3684964D01*
G01X6673741Y-3681916D01*
G01X6683139Y-3681916D01*
G01X6692537Y-3684964D01*
G01X6698633Y-3691314D01*
G01X6701681Y-3700458D01*
G01X6701681Y-3706808D01*
G01X6698633Y-3715952D01*
G01X6692537Y-3722302D01*
G01X6683139Y-3725350D01*
G01X6673741Y-3725350D01*
G01X6664597Y-3722302D01*
G01X6661549Y-3719000D01*
G01X6658501Y-3712904D01*
G01X6454739Y-3638108D02*
G01X6408257Y-3638108D01*
G01X6399113Y-3641156D01*
G01X6392763Y-3647506D01*
G01X6389715Y-3656650D01*
G01X6389715Y-3663000D01*
G01X6392763Y-3672144D01*
G01X6399113Y-3678240D01*
G01X6408257Y-3681542D01*
G01X6454739Y-3681542D01*
G01X6439245Y-3714816D02*
G01X6442293Y-3714816D01*
G01X6448643Y-3717864D01*
G01X6451691Y-3720912D01*
G01X6454739Y-3727008D01*
G01X6454739Y-3739454D01*
G01X6451691Y-3745804D01*
G01X6448643Y-3748852D01*
G01X6442293Y-3751900D01*
G01X6436197Y-3751900D01*
G01X6430101Y-3748852D01*
G01X6420703Y-3742502D01*
G01X6389715Y-3711768D01*
G01X6389715Y-3754948D01*
G01X6442293Y-3785174D02*
G01X6445595Y-3791270D01*
G01X6454739Y-3800414D01*
G01X6389715Y-3800414D01*
G01X4183172Y-1821910D02*
G01X4189522Y-1818862D01*
G01X4195618Y-1812512D01*
G01X4198666Y-1806416D01*
G01X4198666Y-1793970D01*
G01X4195618Y-1787874D01*
G01X4189522Y-1781524D01*
G01X4183172Y-1778476D01*
G01X4174028Y-1775428D01*
G01X4158534Y-1775428D01*
G01X4149136Y-1778476D01*
G01X4143040Y-1781524D01*
G01X4136690Y-1787874D01*
G01X4133642Y-1793970D01*
G01X4133642Y-1806416D01*
G01X4136690Y-1812512D01*
G01X4143040Y-1818862D01*
G01X4149136Y-1821910D01*
G01X4186220Y-1852136D02*
G01X4189522Y-1858232D01*
G01X4198666Y-1867376D01*
G01X4133642Y-1867376D01*
G01X4198666Y-1934686D02*
G01X4198666Y-1903698D01*
G01X4170980Y-1900650D01*
G01X4174028Y-1903698D01*
G01X4177076Y-1912842D01*
G01X4177076Y-1922240D01*
G01X4174028Y-1931638D01*
G01X4167678Y-1937734D01*
G01X4158534Y-1940782D01*
G01X4152184Y-1940782D01*
G01X4143040Y-1937734D01*
G01X4136690Y-1931638D01*
G01X4133642Y-1922240D01*
G01X4133642Y-1912842D01*
G01X4136690Y-1903698D01*
G01X4139992Y-1900650D01*
G01X4146088Y-1897602D01*
G01X3228316Y-4896982D02*
G01X3274798Y-4896982D01*
G01X3283942Y-4893934D01*
G01X3290292Y-4887584D01*
G01X3293340Y-4878440D01*
G01X3293340Y-4872090D01*
G01X3290292Y-4862946D01*
G01X3283942Y-4856850D01*
G01X3274798Y-4853548D01*
G01X3228316Y-4853548D01*
G01X3228316Y-4786238D02*
G01X3228316Y-4817226D01*
G01X3256002Y-4820274D01*
G01X3252954Y-4817226D01*
G01X3249906Y-4808082D01*
G01X3249906Y-4798684D01*
G01X3252954Y-4789286D01*
G01X3259304Y-4783190D01*
G01X3268448Y-4780142D01*
G01X3274798Y-4780142D01*
G01X3283942Y-4783190D01*
G01X3290292Y-4789286D01*
G01X3293340Y-4798684D01*
G01X3293340Y-4808082D01*
G01X3290292Y-4817226D01*
G01X3286990Y-4820274D01*
G01X3280894Y-4823322D01*
G01X4536575Y-692831D02*
G01X4490093Y-692831D01*
G01X4480949Y-695879D01*
G01X4474599Y-702229D01*
G01X4471551Y-711373D01*
G01X4471551Y-717723D01*
G01X4474599Y-726867D01*
G01X4480949Y-732963D01*
G01X4490093Y-736265D01*
G01X4536575Y-736265D01*
G01X4521081Y-769539D02*
G01X4524129Y-769539D01*
G01X4530479Y-772587D01*
G01X4533527Y-775635D01*
G01X4536575Y-781731D01*
G01X4536575Y-794177D01*
G01X4533527Y-800527D01*
G01X4530479Y-803575D01*
G01X4524129Y-806623D01*
G01X4518033Y-806623D01*
G01X4511937Y-803575D01*
G01X4502539Y-797225D01*
G01X4471551Y-766491D01*
G01X4471551Y-809671D01*
G01X4527431Y-876981D02*
G01X4533527Y-873933D01*
G01X4536575Y-864535D01*
G01X4536575Y-858439D01*
G01X4533527Y-849041D01*
G01X4524129Y-842945D01*
G01X4508889Y-839897D01*
G01X4493395Y-839897D01*
G01X4480949Y-842945D01*
G01X4474599Y-849041D01*
G01X4471551Y-858439D01*
G01X4471551Y-861487D01*
G01X4474599Y-870631D01*
G01X4480949Y-876981D01*
G01X4490093Y-880029D01*
G01X4493395Y-880029D01*
G01X4502539Y-876981D01*
G01X4508889Y-870631D01*
G01X4511937Y-861487D01*
G01X4511937Y-858439D01*
G01X4508889Y-849041D01*
G01X4502539Y-842945D01*
G01X4493395Y-839897D01*
G01X8008620Y-3537157D02*
G01X8008620Y-3583639D01*
G01X8011668Y-3592783D01*
G01X8018018Y-3599133D01*
G01X8027162Y-3602181D01*
G01X8033512Y-3602181D01*
G01X8042656Y-3599133D01*
G01X8048752Y-3592783D01*
G01X8052054Y-3583639D01*
G01X8052054Y-3537157D01*
G01X8085328Y-3552651D02*
G01X8085328Y-3549603D01*
G01X8088376Y-3543253D01*
G01X8091424Y-3540205D01*
G01X8097520Y-3537157D01*
G01X8109966Y-3537157D01*
G01X8116316Y-3540205D01*
G01X8119364Y-3543253D01*
G01X8122412Y-3549603D01*
G01X8122412Y-3555699D01*
G01X8119364Y-3561795D01*
G01X8113014Y-3571193D01*
G01X8082280Y-3602181D01*
G01X8125460Y-3602181D01*
G01X8170926Y-3537157D02*
G01X8161782Y-3540205D01*
G01X8158734Y-3546301D01*
G01X8158734Y-3552651D01*
G01X8161782Y-3558747D01*
G01X8167878Y-3561795D01*
G01X8180324Y-3564843D01*
G01X8189722Y-3568145D01*
G01X8195818Y-3574241D01*
G01X8198866Y-3580337D01*
G01X8198866Y-3589735D01*
G01X8195818Y-3595831D01*
G01X8192770Y-3599133D01*
G01X8183372Y-3602181D01*
G01X8170926Y-3602181D01*
G01X8161782Y-3599133D01*
G01X8158734Y-3595831D01*
G01X8155686Y-3589735D01*
G01X8155686Y-3580337D01*
G01X8158734Y-3574241D01*
G01X8164830Y-3568145D01*
G01X8174228Y-3564843D01*
G01X8186420Y-3561795D01*
G01X8192770Y-3558747D01*
G01X8195818Y-3552651D01*
G01X8195818Y-3546301D01*
G01X8192770Y-3540205D01*
G01X8183372Y-3537157D01*
G01X8170926Y-3537157D01*
G01X3252280Y-4086878D02*
G01X3245930Y-4089926D01*
G01X3239834Y-4096276D01*
G01X3236786Y-4102372D01*
G01X3236786Y-4114818D01*
G01X3239834Y-4120914D01*
G01X3245930Y-4127264D01*
G01X3252280Y-4130312D01*
G01X3261424Y-4133360D01*
G01X3276918Y-4133360D01*
G01X3286316Y-4130312D01*
G01X3292412Y-4127264D01*
G01X3298762Y-4120914D01*
G01X3301810Y-4114818D01*
G01X3301810Y-4102372D01*
G01X3298762Y-4096276D01*
G01X3292412Y-4089926D01*
G01X3286316Y-4086878D01*
G01X3249232Y-4056652D02*
G01X3245930Y-4050556D01*
G01X3236786Y-4041412D01*
G01X3301810Y-4041412D01*
G01X3245930Y-3974102D02*
G01X3239834Y-3977150D01*
G01X3236786Y-3986548D01*
G01X3236786Y-3992644D01*
G01X3239834Y-4002042D01*
G01X3249232Y-4008138D01*
G01X3264472Y-4011186D01*
G01X3279966Y-4011186D01*
G01X3292412Y-4008138D01*
G01X3298762Y-4002042D01*
G01X3301810Y-3992644D01*
G01X3301810Y-3989596D01*
G01X3298762Y-3980452D01*
G01X3292412Y-3974102D01*
G01X3283268Y-3971054D01*
G01X3279966Y-3971054D01*
G01X3270822Y-3974102D01*
G01X3264472Y-3980452D01*
G01X3261424Y-3989596D01*
G01X3261424Y-3992644D01*
G01X3264472Y-4002042D01*
G01X3270822Y-4008138D01*
G01X3279966Y-4011186D01*
G01X4612716Y-5174557D02*
G01X4677740Y-5174557D01*
G01X4612716Y-5174557D02*
G01X4612716Y-5146617D01*
G01X4615764Y-5137473D01*
G01X4618812Y-5134425D01*
G01X4625162Y-5131123D01*
G01X4631258Y-5131123D01*
G01X4637354Y-5134425D01*
G01X4640402Y-5137473D01*
G01X4643704Y-5146617D01*
G01X4643704Y-5174557D01*
G01X4643704Y-5152967D02*
G01X4677740Y-5131123D01*
G01X4612716Y-5070163D02*
G01X4655896Y-5100897D01*
G01X4655896Y-5054669D01*
G01X4612716Y-5070163D02*
G01X4677740Y-5070163D01*
G01X4621860Y-4987359D02*
G01X4615764Y-4990407D01*
G01X4612716Y-4999805D01*
G01X4612716Y-5005901D01*
G01X4615764Y-5015299D01*
G01X4625162Y-5021395D01*
G01X4640402Y-5024443D01*
G01X4655896Y-5024443D01*
G01X4668342Y-5021395D01*
G01X4674692Y-5015299D01*
G01X4677740Y-5005901D01*
G01X4677740Y-5002853D01*
G01X4674692Y-4993709D01*
G01X4668342Y-4987359D01*
G01X4659198Y-4984311D01*
G01X4655896Y-4984311D01*
G01X4646752Y-4987359D01*
G01X4640402Y-4993709D01*
G01X4637354Y-5002853D01*
G01X4637354Y-5005901D01*
G01X4640402Y-5015299D01*
G01X4646752Y-5021395D01*
G01X4655896Y-5024443D01*
G01X5017483Y-5174557D02*
G01X5082507Y-5174557D01*
G01X5017483Y-5174557D02*
G01X5017483Y-5146617D01*
G01X5020531Y-5137473D01*
G01X5023579Y-5134425D01*
G01X5029929Y-5131123D01*
G01X5036025Y-5131123D01*
G01X5042121Y-5134425D01*
G01X5045169Y-5137473D01*
G01X5048471Y-5146617D01*
G01X5048471Y-5174557D01*
G01X5048471Y-5152967D02*
G01X5082507Y-5131123D01*
G01X5017483Y-5070163D02*
G01X5060663Y-5100897D01*
G01X5060663Y-5054669D01*
G01X5017483Y-5070163D02*
G01X5082507Y-5070163D01*
G01X5017483Y-4981263D02*
G01X5082507Y-5012251D01*
G01X5017483Y-5024443D02*
G01X5017483Y-4981263D01*
G01X6317635Y-2920086D02*
G01X6317635Y-2855062D01*
G01X6317635Y-2855062D02*
G01X6280551Y-2855062D01*
G01X6250325Y-2920086D02*
G01X6250325Y-2855062D01*
G01X6250325Y-2920086D02*
G01X6210193Y-2920086D01*
G01X6250325Y-2889098D02*
G01X6225687Y-2889098D01*
G01X6250325Y-2855062D02*
G01X6210193Y-2855062D01*
G01X6179967Y-2920086D02*
G01X6179967Y-2855062D01*
G01X6179967Y-2920086D02*
G01X6158377Y-2920086D01*
G01X6149233Y-2917038D01*
G01X6142883Y-2910942D01*
G01X6139835Y-2904592D01*
G01X6136787Y-2895448D01*
G01X6136787Y-2879954D01*
G01X6139835Y-2870556D01*
G01X6142883Y-2864460D01*
G01X6149233Y-2858110D01*
G01X6158377Y-2855062D01*
G01X6179967Y-2855062D01*
G01X6069477Y-2910942D02*
G01X6072525Y-2917038D01*
G01X6081923Y-2920086D01*
G01X6088019Y-2920086D01*
G01X6097417Y-2917038D01*
G01X6103513Y-2907640D01*
G01X6106561Y-2892400D01*
G01X6106561Y-2876906D01*
G01X6103513Y-2864460D01*
G01X6097417Y-2858110D01*
G01X6088019Y-2855062D01*
G01X6084971Y-2855062D01*
G01X6075827Y-2858110D01*
G01X6069477Y-2864460D01*
G01X6066429Y-2873604D01*
G01X6066429Y-2876906D01*
G01X6069477Y-2886050D01*
G01X6075827Y-2892400D01*
G01X6084971Y-2895448D01*
G01X6088019Y-2895448D01*
G01X6097417Y-2892400D01*
G01X6103513Y-2886050D01*
G01X6106561Y-2876906D01*
G01X6761264Y-2824846D02*
G01X6761264Y-2759822D01*
G01X6761264Y-2824846D02*
G01X6733324Y-2824846D01*
G01X6724180Y-2821798D01*
G01X6721132Y-2818750D01*
G01X6717830Y-2812400D01*
G01X6717830Y-2806304D01*
G01X6721132Y-2800208D01*
G01X6724180Y-2797160D01*
G01X6733324Y-2793858D01*
G01X6761264Y-2793858D01*
G01X6739674Y-2793858D02*
G01X6717830Y-2759822D01*
G01X6656870Y-2824846D02*
G01X6687604Y-2781666D01*
G01X6641376Y-2781666D01*
G01X6656870Y-2824846D02*
G01X6656870Y-2759822D01*
G01X6595910Y-2824846D02*
G01X6605054Y-2821798D01*
G01X6608102Y-2815702D01*
G01X6608102Y-2809352D01*
G01X6605054Y-2803256D01*
G01X6598958Y-2800208D01*
G01X6586512Y-2797160D01*
G01X6577114Y-2793858D01*
G01X6571018Y-2787762D01*
G01X6567970Y-2781666D01*
G01X6567970Y-2772268D01*
G01X6571018Y-2766172D01*
G01X6574066Y-2762870D01*
G01X6583464Y-2759822D01*
G01X6595910Y-2759822D01*
G01X6605054Y-2762870D01*
G01X6608102Y-2766172D01*
G01X6611150Y-2772268D01*
G01X6611150Y-2781666D01*
G01X6608102Y-2787762D01*
G01X6602006Y-2793858D01*
G01X6592608Y-2797160D01*
G01X6580416Y-2800208D01*
G01X6574066Y-2803256D01*
G01X6571018Y-2809352D01*
G01X6571018Y-2815702D01*
G01X6574066Y-2821798D01*
G01X6583464Y-2824846D01*
G01X6595910Y-2824846D01*
G01X5582920Y-5455666D02*
G01X5582920Y-5520690D01*
G01X5626354Y-5455666D02*
G01X5626354Y-5520690D01*
G01X5582920Y-5486654D02*
G01X5626354Y-5486654D01*
G01X5659628Y-5471160D02*
G01X5659628Y-5468112D01*
G01X5662676Y-5461762D01*
G01X5665724Y-5458714D01*
G01X5671820Y-5455666D01*
G01X5684266Y-5455666D01*
G01X5690616Y-5458714D01*
G01X5693664Y-5461762D01*
G01X5696712Y-5468112D01*
G01X5696712Y-5474208D01*
G01X5693664Y-5480304D01*
G01X5687314Y-5489702D01*
G01X5656580Y-5520690D01*
G01X5699760Y-5520690D01*
G01X3403046Y-3953556D02*
G01X3409396Y-3950508D01*
G01X3415492Y-3944158D01*
G01X3418540Y-3938062D01*
G01X3418540Y-3925616D01*
G01X3415492Y-3919520D01*
G01X3409396Y-3913170D01*
G01X3403046Y-3910122D01*
G01X3393902Y-3907074D01*
G01X3378408Y-3907074D01*
G01X3369010Y-3910122D01*
G01X3362914Y-3913170D01*
G01X3356564Y-3919520D01*
G01X3353516Y-3925616D01*
G01X3353516Y-3938062D01*
G01X3356564Y-3944158D01*
G01X3362914Y-3950508D01*
G01X3369010Y-3953556D01*
G01X3406094Y-3983782D02*
G01X3409396Y-3989878D01*
G01X3418540Y-3999022D01*
G01X3353516Y-3999022D01*
G01X3418540Y-4072428D02*
G01X3353516Y-4041440D01*
G01X3418540Y-4029248D02*
G01X3418540Y-4072428D01*
G04 Text End*

G04 PolygonModel Start*
G01X9004907Y-2430280D02*
G01X9145907Y-2430280D01*
G01X9145907Y-2249559D02*
G01X9004907Y-2249559D01*
G01X8989667Y-2264799D02*
G01X8989667Y-2415040D01*
G01X9367146Y-2430280D02*
G01X9226146Y-2430280D01*
G01X9226146Y-2249559D02*
G01X9367146Y-2249559D01*
G01X9382386Y-2264799D02*
G01X9382386Y-2415040D01*
G01X9004907Y-2249559D02*
G03X8989667Y-2264799I0J-15240D01*
G01X8989667Y-2415040D02*
G03X9004907Y-2430280I15240J0D01*
G01X9367146Y-2249559D02*
G02X9382386Y-2264799I0J-15240D01*
G01X9382386Y-2415040D02*
G02X9367146Y-2430280I-15240J0D01*
G01X10329728Y-2495639D02*
G01X10329728Y-2354638D01*
G01X10149007Y-2354638D02*
G01X10149007Y-2495639D01*
G01X10164247Y-2510879D02*
G01X10314488Y-2510879D01*
G01X10329728Y-2133399D02*
G01X10329728Y-2274400D01*
G01X10149007Y-2274400D02*
G01X10149007Y-2133399D01*
G01X10164247Y-2118159D02*
G01X10314488Y-2118159D01*
G01X10149007Y-2495639D02*
G03X10164247Y-2510879I15240J0D01*
G01X10314488Y-2510879D02*
G03X10329728Y-2495639I0J15240D01*
G01X10149007Y-2133399D02*
G02X10164247Y-2118159I15240J0D01*
G01X10314488Y-2118159D02*
G02X10329728Y-2133399I0J-15240D01*
G01X5540118Y-2404880D02*
G01X5681119Y-2404880D01*
G01X5681119Y-2224159D02*
G01X5540118Y-2224159D01*
G01X5524878Y-2239399D02*
G01X5524878Y-2389640D01*
G01X5902358Y-2404880D02*
G01X5761358Y-2404880D01*
G01X5761358Y-2224159D02*
G01X5902358Y-2224159D01*
G01X5917598Y-2239399D02*
G01X5917598Y-2389640D01*
G01X5540118Y-2224159D02*
G03X5524878Y-2239399I0J-15240D01*
G01X5524878Y-2389640D02*
G03X5540118Y-2404880I15240J0D01*
G01X5902358Y-2224159D02*
G02X5917598Y-2239399I0J-15240D01*
G01X5917598Y-2389640D02*
G02X5902358Y-2404880I-15240J0D01*
G01X6864939Y-2470239D02*
G01X6864939Y-2329238D01*
G01X6684218Y-2329238D02*
G01X6684218Y-2470239D01*
G01X6699458Y-2485479D02*
G01X6849699Y-2485479D01*
G01X6864939Y-2107999D02*
G01X6864939Y-2249000D01*
G01X6684218Y-2249000D02*
G01X6684218Y-2107999D01*
G01X6699458Y-2092759D02*
G01X6849699Y-2092759D01*
G01X6684218Y-2470239D02*
G03X6699458Y-2485479I15240J0D01*
G01X6849699Y-2485479D02*
G03X6864939Y-2470239I0J15240D01*
G01X6684218Y-2107999D02*
G02X6699458Y-2092759I15240J0D01*
G01X6849699Y-2092759D02*
G02X6864939Y-2107999I0J-15240D01*
G54D12*
G01X9388391Y-1754800D02*
G01X9387393Y-1606791D01*
G01X9577392Y-1740792D02*
G01X9577392Y-1606791D01*
G01X9387393Y-1606791D02*
G01X9577395Y-1606791D01*
G01X9578393Y-1979803D02*
G01X9578388Y-1979803D01*
G01X9578388Y-1979803D02*
G01X9543394Y-2014797D01*
G01X9388391Y-1979803D02*
G01X9388396Y-1979803D01*
G01X9388396Y-1979803D02*
G01X9423390Y-2014797D01*
G01X9388391Y-1854799D02*
G01X9388391Y-1979803D01*
G01X9578393Y-1854799D02*
G01X9578393Y-1979803D01*
G01X9423390Y-2014797D02*
G01X9543394Y-2014797D01*
G01X9433392Y-1774792D02*
G01X9533392Y-1774792D01*
G01X9483897Y-1774792D02*
G01X9483897Y-1824792D01*
G01X5923603Y-1729400D02*
G01X5922604Y-1581391D01*
G01X6112604Y-1715392D02*
G01X6112604Y-1581391D01*
G01X5922604Y-1581391D02*
G01X6112607Y-1581391D01*
G01X6113605Y-1954403D02*
G01X6113600Y-1954403D01*
G01X6113600Y-1954403D02*
G01X6078606Y-1989397D01*
G01X5923603Y-1954403D02*
G01X5923608Y-1954403D01*
G01X5923608Y-1954403D02*
G01X5958601Y-1989397D01*
G01X5923603Y-1829399D02*
G01X5923603Y-1954403D01*
G01X6113605Y-1829399D02*
G01X6113605Y-1954403D01*
G01X5958601Y-1989397D02*
G01X6078606Y-1989397D01*
G01X5968604Y-1749392D02*
G01X6068604Y-1749392D01*
G01X6019109Y-1749392D02*
G01X6019109Y-1799392D01*
G54D11*
G01X7957439Y-660019D02*
G01X7957439Y-1325260D01*
G01X7957439Y-1325260D02*
G01X7683159Y-1325260D01*
G01X7683159Y-1325260D02*
G01X7683159Y-660019D01*
G01X7683159Y-660019D02*
G01X7957439Y-660019D01*
G01X6918820Y-1052561D02*
G01X6918820Y-907318D01*
G01X6918820Y-907318D02*
G01X6815658Y-907318D01*
G01X6613578Y-1052561D02*
G01X6613578Y-907318D01*
G01X6613578Y-907318D02*
G01X6716740Y-907318D01*
G01X6811739Y-1052561D02*
G01X6720659Y-1052561D01*
G54D12*
G01X5369100Y-1989739D02*
G01X5282699Y-1989739D01*
G01X5282699Y-1989739D02*
G01X5282699Y-1889737D01*
G01X5464096Y-1849740D02*
G01X5401302Y-1849740D01*
G01X5582699Y-1989739D02*
G01X5496298Y-1989739D01*
G01X5582699Y-1989739D02*
G01X5582699Y-1889737D01*
G54D11*
G01X11422227Y-685419D02*
G01X11422227Y-1350660D01*
G01X11422227Y-1350660D02*
G01X11147948Y-1350660D01*
G01X11147948Y-1350660D02*
G01X11147948Y-685419D01*
G01X11147948Y-685419D02*
G01X11422227Y-685419D01*
G01X10383608Y-1077961D02*
G01X10383608Y-932718D01*
G01X10383608Y-932718D02*
G01X10280446Y-932718D01*
G01X10078366Y-1077961D02*
G01X10078366Y-932718D01*
G01X10078366Y-932718D02*
G01X10181529Y-932718D01*
G01X10276527Y-1077961D02*
G01X10185448Y-1077961D01*
G54D12*
G01X8833888Y-2015139D02*
G01X8747488Y-2015139D01*
G01X8747488Y-2015139D02*
G01X8747488Y-1915137D01*
G01X8928884Y-1875140D02*
G01X8866090Y-1875140D01*
G01X9047487Y-2015139D02*
G01X8961086Y-2015139D01*
G01X9047487Y-2015139D02*
G01X9047487Y-1915137D01*
G54D11*
G01X7036869Y-1232249D02*
G01X6908375Y-1232249D01*
G01X6908375Y-1232249D02*
G01X6908375Y-1415667D01*
G01X6908375Y-1415667D02*
G01X7036869Y-1415667D01*
G01X7132108Y-1232249D02*
G01X7260602Y-1232249D01*
G01X7260602Y-1232249D02*
G01X7260602Y-1415667D01*
G01X7260602Y-1415667D02*
G01X7132108Y-1415667D01*
G01X10952078Y-1929260D02*
G01X10952078Y-2057753D01*
G01X10952078Y-2057753D02*
G01X11135497Y-2057753D01*
G01X11135497Y-2057753D02*
G01X11135497Y-1929260D01*
G01X10952078Y-1834020D02*
G01X10952078Y-1705526D01*
G01X10952078Y-1705526D02*
G01X11135497Y-1705526D01*
G01X11135497Y-1705526D02*
G01X11135497Y-1834020D01*
G01X6610619Y-1427249D02*
G01X6739113Y-1427249D01*
G01X6739113Y-1427249D02*
G01X6739113Y-1243830D01*
G01X6739113Y-1243830D02*
G01X6610619Y-1243830D01*
G01X6515379Y-1427249D02*
G01X6386886Y-1427249D01*
G01X6386886Y-1427249D02*
G01X6386886Y-1243830D01*
G01X6386886Y-1243830D02*
G01X6515379Y-1243830D01*
G01X8862197Y-970420D02*
G01X8862197Y-841926D01*
G01X8862197Y-841926D02*
G01X8678778Y-841926D01*
G01X8678778Y-841926D02*
G01X8678778Y-970420D01*
G01X8862197Y-1065660D02*
G01X8862197Y-1194153D01*
G01X8862197Y-1194153D02*
G01X8678778Y-1194153D01*
G01X8678778Y-1194153D02*
G01X8678778Y-1065660D01*
G01X7487290Y-1903860D02*
G01X7487290Y-2032353D01*
G01X7487290Y-2032353D02*
G01X7670708Y-2032353D01*
G01X7670708Y-2032353D02*
G01X7670708Y-1903860D01*
G01X7487290Y-1808620D02*
G01X7487290Y-1680126D01*
G01X7487290Y-1680126D02*
G01X7670708Y-1680126D01*
G01X7670708Y-1680126D02*
G01X7670708Y-1808620D01*
G01X10075407Y-1452649D02*
G01X10203901Y-1452649D01*
G01X10203901Y-1452649D02*
G01X10203901Y-1269230D01*
G01X10203901Y-1269230D02*
G01X10075407Y-1269230D01*
G01X9980167Y-1452649D02*
G01X9851674Y-1452649D01*
G01X9851674Y-1452649D02*
G01X9851674Y-1269230D01*
G01X9851674Y-1269230D02*
G01X9980167Y-1269230D01*
G01X5397408Y-945020D02*
G01X5397408Y-816526D01*
G01X5397408Y-816526D02*
G01X5213990Y-816526D01*
G01X5213990Y-816526D02*
G01X5213990Y-945020D01*
G01X5397408Y-1040260D02*
G01X5397408Y-1168753D01*
G01X5397408Y-1168753D02*
G01X5213990Y-1168753D01*
G01X5213990Y-1168753D02*
G01X5213990Y-1040260D01*
G01X10501657Y-1257649D02*
G01X10373163Y-1257649D01*
G01X10373163Y-1257649D02*
G01X10373163Y-1441067D01*
G01X10373163Y-1441067D02*
G01X10501657Y-1441067D01*
G01X10596897Y-1257649D02*
G01X10725390Y-1257649D01*
G01X10725390Y-1257649D02*
G01X10725390Y-1441067D01*
G01X10725390Y-1441067D02*
G01X10596897Y-1441067D01*
G01X9110578Y-1865760D02*
G01X9110578Y-1994253D01*
G01X9110578Y-1994253D02*
G01X9293997Y-1994253D01*
G01X9293997Y-1994253D02*
G01X9293997Y-1865760D01*
G01X9110578Y-1770520D02*
G01X9110578Y-1642026D01*
G01X9110578Y-1642026D02*
G01X9293997Y-1642026D01*
G01X9293997Y-1642026D02*
G01X9293997Y-1770520D01*
G01X8786367Y-1358130D02*
G01X8657874Y-1358130D01*
G01X8657874Y-1358130D02*
G01X8657874Y-1541549D01*
G01X8657874Y-1541549D02*
G01X8786367Y-1541549D01*
G01X8881607Y-1358130D02*
G01X9010101Y-1358130D01*
G01X9010101Y-1358130D02*
G01X9010101Y-1541549D01*
G01X9010101Y-1541549D02*
G01X8881607Y-1541549D01*
G01X5321579Y-1332730D02*
G01X5193086Y-1332730D01*
G01X5193086Y-1332730D02*
G01X5193086Y-1516149D01*
G01X5193086Y-1516149D02*
G01X5321579Y-1516149D01*
G01X5416819Y-1332730D02*
G01X5545313Y-1332730D01*
G01X5545313Y-1332730D02*
G01X5545313Y-1516149D01*
G01X5545313Y-1516149D02*
G01X5416819Y-1516149D01*
G01X5645790Y-1840360D02*
G01X5645790Y-1968853D01*
G01X5645790Y-1968853D02*
G01X5829208Y-1968853D01*
G01X5829208Y-1968853D02*
G01X5829208Y-1840360D01*
G01X5645790Y-1745120D02*
G01X5645790Y-1616626D01*
G01X5645790Y-1616626D02*
G01X5829208Y-1616626D01*
G01X5829208Y-1616626D02*
G01X5829208Y-1745120D01*
G54D13*
G01X5737499Y-1208540D02*
G01X5847499Y-1208540D01*
G01X6042299Y-1208540D02*
G01X5932299Y-1208540D01*
G01X6042299Y-1208540D02*
G01X6042299Y-1188154D01*
G01X5737499Y-1188154D02*
G01X5737499Y-1208540D01*
G01X6042299Y-924126D02*
G01X6042299Y-903740D01*
G01X6042299Y-903740D02*
G01X5737499Y-903740D01*
G01X5737499Y-903740D02*
G01X5737499Y-924126D01*
G01X5932299Y-1208540D02*
G03X5847481Y-1208540I-42409J-19736D01*
G01X9202287Y-1233940D02*
G01X9312287Y-1233940D01*
G01X9507087Y-1233940D02*
G01X9397088Y-1233940D01*
G01X9507087Y-1233940D02*
G01X9507087Y-1213554D01*
G01X9202287Y-1213554D02*
G01X9202287Y-1233940D01*
G01X9507087Y-949526D02*
G01X9507087Y-929140D01*
G01X9507087Y-929140D02*
G01X9202287Y-929140D01*
G01X9202287Y-929140D02*
G01X9202287Y-949526D01*
G01X9397088Y-1233940D02*
G03X9312269Y-1233940I-42409J-19736D01*
G54D14*
G01X10498399Y-1766242D02*
G01X10512993Y-1766242D01*
G01X10403400Y-1766242D02*
G01X10407568Y-1766242D01*
G01X10308407Y-1766242D02*
G01X10312572Y-1766242D01*
G01X10202992Y-1766242D02*
G01X10217576Y-1766242D01*
G01X10498399Y-1946245D02*
G01X10512993Y-1946245D01*
G01X10308407Y-1946245D02*
G01X10407571Y-1946245D01*
G01X10202992Y-1946245D02*
G01X10217579Y-1946245D01*
G01X10202992Y-1946245D02*
G01X10202992Y-1766242D01*
G01X10512993Y-1946245D02*
G01X10512993Y-1766242D01*
G36*
G01X10459587Y-1835838D02*
G02X10459587Y-1800438I-212J17700D01*
G02X10459587Y-1835838I212J-17700D01*
G37*
G01X7033610Y-1740842D02*
G01X7048205Y-1740842D01*
G01X6938612Y-1740842D02*
G01X6942780Y-1740842D01*
G01X6843618Y-1740842D02*
G01X6847784Y-1740842D01*
G01X6738203Y-1740842D02*
G01X6752788Y-1740842D01*
G01X7033610Y-1920845D02*
G01X7048205Y-1920845D01*
G01X6843618Y-1920845D02*
G01X6942782Y-1920845D01*
G01X6738203Y-1920845D02*
G01X6752790Y-1920845D01*
G01X6738203Y-1920845D02*
G01X6738203Y-1740842D01*
G01X7048205Y-1920845D02*
G01X7048205Y-1740842D01*
G36*
G01X6994799Y-1810438D02*
G02X6994799Y-1775038I-212J17700D01*
G02X6994799Y-1810438I212J-17700D01*
G37*
G54D11*
G01X10610959Y-3099481D02*
G01X11055241Y-3099481D01*
G01X11055241Y-3099481D02*
G01X11055241Y-3834719D01*
G01X11055241Y-3834719D02*
G01X10610959Y-3834719D01*
G01X10610959Y-3834719D02*
G01X10610959Y-3099481D01*
G54D12*
G01X10997545Y-4200078D02*
G01X10897545Y-4200078D01*
G01X10643260Y-4200078D02*
G01X10743260Y-4200078D01*
G01X10643260Y-4715322D02*
G01X10643260Y-4200078D01*
G01X10997545Y-4715322D02*
G01X10643260Y-4715322D01*
G01X10997545Y-4686567D02*
G01X10997545Y-4715322D01*
G01X10997545Y-4621568D02*
G01X10997545Y-4683849D01*
G01X10997545Y-4556569D02*
G01X10997545Y-4618850D01*
G01X10997545Y-4491571D02*
G01X10997545Y-4553852D01*
G01X10997545Y-4426572D02*
G01X10997545Y-4488853D01*
G01X10997545Y-4361548D02*
G01X10997545Y-4423854D01*
G01X10997545Y-4296550D02*
G01X10997545Y-4358830D01*
G01X10997545Y-4231551D02*
G01X10997545Y-4293832D01*
G01X10997545Y-4200078D02*
G01X10997545Y-4228833D01*
G01X10743260Y-4200078D02*
G03X10897578Y-4200169I77159J395D01*
G54D11*
G01X4530580Y-4612199D02*
G01X4671581Y-4612199D01*
G01X4671581Y-4431478D02*
G01X4530580Y-4431478D01*
G01X4515340Y-4446718D02*
G01X4515340Y-4596959D01*
G01X4892820Y-4612199D02*
G01X4751819Y-4612199D01*
G01X4751819Y-4431478D02*
G01X4892820Y-4431478D01*
G01X4908060Y-4446718D02*
G01X4908060Y-4596959D01*
G01X4530580Y-4431478D02*
G03X4515340Y-4446718I0J-15240D01*
G01X4515340Y-4596959D02*
G03X4530580Y-4612199I15240J0D01*
G01X4892820Y-4431478D02*
G02X4908060Y-4446718I0J-15240D01*
G01X4908060Y-4596959D02*
G02X4892820Y-4612199I-15240J0D01*
G01X4499939Y-3477032D02*
G01X4640939Y-3477032D01*
G01X4640939Y-3296311D02*
G01X4499939Y-3296311D01*
G01X4484699Y-3311551D02*
G01X4484699Y-3461792D01*
G01X4862178Y-3477032D02*
G01X4721178Y-3477032D01*
G01X4721178Y-3296311D02*
G01X4862178Y-3296311D01*
G01X4877418Y-3311551D02*
G01X4877418Y-3461792D01*
G01X4499939Y-3296311D02*
G03X4484699Y-3311551I0J-15240D01*
G01X4484699Y-3461792D02*
G03X4499939Y-3477032I15240J0D01*
G01X4862178Y-3296311D02*
G02X4877418Y-3311551I0J-15240D01*
G01X4877418Y-3461792D02*
G02X4862178Y-3477032I-15240J0D01*
G01X7402178Y-3427319D02*
G01X7261178Y-3427319D01*
G01X7261178Y-3608040D02*
G01X7402178Y-3608040D01*
G01X7417418Y-3592800D02*
G01X7417418Y-3442559D01*
G01X7039939Y-3427319D02*
G01X7180939Y-3427319D01*
G01X7180939Y-3608040D02*
G01X7039939Y-3608040D01*
G01X7024699Y-3592800D02*
G01X7024699Y-3442559D01*
G01X7402178Y-3608040D02*
G03X7417418Y-3592800I0J15240D01*
G01X7417418Y-3442559D02*
G03X7402178Y-3427319I-15240J0D01*
G01X7039939Y-3608040D02*
G02X7024699Y-3592800I0J15240D01*
G01X7024699Y-3442559D02*
G02X7039939Y-3427319I15240J0D01*
G01X7465678Y-4454683D02*
G01X7324678Y-4454683D01*
G01X7324678Y-4635404D02*
G01X7465678Y-4635404D01*
G01X7480918Y-4620164D02*
G01X7480918Y-4469923D01*
G01X7103439Y-4454683D02*
G01X7244439Y-4454683D01*
G01X7244439Y-4635404D02*
G01X7103439Y-4635404D01*
G01X7088199Y-4620164D02*
G01X7088199Y-4469923D01*
G01X7465678Y-4635404D02*
G03X7480918Y-4620164I0J15240D01*
G01X7480918Y-4469923D02*
G03X7465678Y-4454683I-15240J0D01*
G01X7103439Y-4635404D02*
G02X7088199Y-4620164I0J15240D01*
G01X7088199Y-4469923D02*
G02X7103439Y-4454683I15240J0D01*
G01X5859598Y-3368678D02*
G01X6000599Y-3368678D01*
G01X6000599Y-3187957D02*
G01X5859598Y-3187957D01*
G01X5844358Y-3203197D02*
G01X5844358Y-3353438D01*
G01X6221838Y-3368678D02*
G01X6080837Y-3368678D01*
G01X6080837Y-3187957D02*
G01X6221838Y-3187957D01*
G01X6237078Y-3203197D02*
G01X6237078Y-3353438D01*
G01X5859598Y-3187957D02*
G03X5844358Y-3203197I0J-15240D01*
G01X5844358Y-3353438D02*
G03X5859598Y-3368678I15240J0D01*
G01X6221838Y-3187957D02*
G02X6237078Y-3203197I0J-15240D01*
G01X6237078Y-3353438D02*
G02X6221838Y-3368678I-15240J0D01*
G01X4644614Y-3649894D02*
G01X4516120Y-3649894D01*
G01X4516120Y-3649894D02*
G01X4516120Y-3833313D01*
G01X4516120Y-3833313D02*
G01X4644614Y-3833313D01*
G01X4739853Y-3649894D02*
G01X4868347Y-3649894D01*
G01X4868347Y-3649894D02*
G01X4868347Y-3833313D01*
G01X4868347Y-3833313D02*
G01X4739853Y-3833313D01*
G01X4631914Y-4044930D02*
G01X4503420Y-4044930D01*
G01X4503420Y-4044930D02*
G01X4503420Y-4228349D01*
G01X4503420Y-4228349D02*
G01X4631914Y-4228349D01*
G01X4727153Y-4044930D02*
G01X4855647Y-4044930D01*
G01X4855647Y-4044930D02*
G01X4855647Y-4228349D01*
G01X4855647Y-4228349D02*
G01X4727153Y-4228349D01*
G01X5159380Y-4430129D02*
G01X5030887Y-4430129D01*
G01X5030887Y-4430129D02*
G01X5030887Y-4613548D01*
G01X5030887Y-4613548D02*
G01X5159380Y-4613548D01*
G01X5254620Y-4430129D02*
G01X5383113Y-4430129D01*
G01X5383113Y-4430129D02*
G01X5383113Y-4613548D01*
G01X5383113Y-4613548D02*
G01X5254620Y-4613548D01*
G01X5146680Y-3299829D02*
G01X5018187Y-3299829D01*
G01X5018187Y-3299829D02*
G01X5018187Y-3483248D01*
G01X5018187Y-3483248D02*
G01X5146680Y-3483248D01*
G01X5241920Y-3299829D02*
G01X5370413Y-3299829D01*
G01X5370413Y-3299829D02*
G01X5370413Y-3483248D01*
G01X5370413Y-3483248D02*
G01X5241920Y-3483248D01*
G01X5127214Y-3656572D02*
G01X4998720Y-3656572D01*
G01X4998720Y-3656572D02*
G01X4998720Y-3839991D01*
G01X4998720Y-3839991D02*
G01X5127214Y-3839991D01*
G01X5222453Y-3656572D02*
G01X5350947Y-3656572D01*
G01X5350947Y-3656572D02*
G01X5350947Y-3839991D01*
G01X5350947Y-3839991D02*
G01X5222453Y-3839991D01*
G01X5152614Y-4051608D02*
G01X5024120Y-4051608D01*
G01X5024120Y-4051608D02*
G01X5024120Y-4235027D01*
G01X5024120Y-4235027D02*
G01X5152614Y-4235027D01*
G01X5247853Y-4051608D02*
G01X5376347Y-4051608D01*
G01X5376347Y-4051608D02*
G01X5376347Y-4235027D01*
G01X5376347Y-4235027D02*
G01X5247853Y-4235027D01*
G01X7312020Y-4283348D02*
G01X7440513Y-4283348D01*
G01X7440513Y-4283348D02*
G01X7440513Y-4099929D01*
G01X7440513Y-4099929D02*
G01X7312020Y-4099929D01*
G01X7216780Y-4283348D02*
G01X7088287Y-4283348D01*
G01X7088287Y-4283348D02*
G01X7088287Y-4099929D01*
G01X7088287Y-4099929D02*
G01X7216780Y-4099929D01*
G01X7265520Y-3964321D02*
G01X7394014Y-3964321D01*
G01X7394014Y-3964321D02*
G01X7394014Y-3780903D01*
G01X7394014Y-3780903D02*
G01X7265520Y-3780903D01*
G01X7170280Y-3964321D02*
G01X7041787Y-3964321D01*
G01X7041787Y-3964321D02*
G01X7041787Y-3780903D01*
G01X7041787Y-3780903D02*
G01X7170280Y-3780903D01*
G01X6722579Y-3616079D02*
G01X6851072Y-3616079D01*
G01X6851072Y-3616079D02*
G01X6851072Y-3432661D01*
G01X6851072Y-3432661D02*
G01X6722579Y-3432661D01*
G01X6627339Y-3616079D02*
G01X6498845Y-3616079D01*
G01X6498845Y-3616079D02*
G01X6498845Y-3432661D01*
G01X6498845Y-3432661D02*
G01X6627339Y-3432661D01*
G01X6760679Y-4643443D02*
G01X6889172Y-4643443D01*
G01X6889172Y-4643443D02*
G01X6889172Y-4460025D01*
G01X6889172Y-4460025D02*
G01X6760679Y-4460025D01*
G01X6665439Y-4643443D02*
G01X6536945Y-4643443D01*
G01X6536945Y-4643443D02*
G01X6536945Y-4460025D01*
G01X6536945Y-4460025D02*
G01X6665439Y-4460025D01*
G01X6744820Y-4274463D02*
G01X6873314Y-4274463D01*
G01X6873314Y-4274463D02*
G01X6873314Y-4091044D01*
G01X6873314Y-4091044D02*
G01X6744820Y-4091044D01*
G01X6649580Y-4274463D02*
G01X6521087Y-4274463D01*
G01X6521087Y-4274463D02*
G01X6521087Y-4091044D01*
G01X6521087Y-4091044D02*
G01X6649580Y-4091044D01*
G01X6732120Y-3958299D02*
G01X6860614Y-3958299D01*
G01X6860614Y-3958299D02*
G01X6860614Y-3774880D01*
G01X6860614Y-3774880D02*
G01X6732120Y-3774880D01*
G01X6636880Y-3958299D02*
G01X6508387Y-3958299D01*
G01X6508387Y-3958299D02*
G01X6508387Y-3774880D01*
G01X6508387Y-3774880D02*
G01X6636880Y-3774880D01*
G01X5816857Y-3675317D02*
G01X6121138Y-3675317D01*
G01X6121138Y-3675317D02*
G01X6121138Y-4555559D01*
G01X6121138Y-4555559D02*
G01X5816857Y-4555559D01*
G01X5816857Y-4555559D02*
G01X5816857Y-3675317D01*
G01X4498071Y-2532657D02*
G01X4234429Y-2534658D01*
G01X4234429Y-2534658D02*
G01X4234429Y-1998972D01*
G01X4234429Y-1998972D02*
G01X4373875Y-1859526D01*
G01X4373875Y-1859526D02*
G01X4503415Y-1860865D01*
G01X4642762Y-2534039D02*
G01X4909612Y-2534709D01*
G01X4909612Y-2534709D02*
G01X4909612Y-1999089D01*
G01X4909612Y-1999089D02*
G01X4769998Y-1859476D01*
G01X4769998Y-1859476D02*
G01X4640575Y-1859476D01*
G36*
G01X4486194Y-1916593D02*
G01X4354195Y-1916593D01*
G01X4354195Y-1936392D01*
G01X4486194Y-1936392D01*
G01X4486194Y-1916593D01*
G37*
G36*
G01X4430095Y-1886892D02*
G01X4410296Y-1886892D01*
G01X4410296Y-1966092D01*
G01X4430095Y-1966092D01*
G01X4430095Y-1886892D01*
G37*
G36*
G01X4430095Y-2507292D02*
G01X4410296Y-2507292D01*
G01X4410296Y-2428093D01*
G01X4430095Y-2428093D01*
G01X4430095Y-2507292D01*
G37*
G01X3672571Y-2545357D02*
G01X3408929Y-2547358D01*
G01X3408929Y-2547358D02*
G01X3408929Y-2011672D01*
G01X3408929Y-2011672D02*
G01X3548375Y-1872226D01*
G01X3548375Y-1872226D02*
G01X3677915Y-1873565D01*
G01X3817262Y-2546739D02*
G01X4084112Y-2547409D01*
G01X4084112Y-2547409D02*
G01X4084112Y-2011789D01*
G01X4084112Y-2011789D02*
G01X3944498Y-1872176D01*
G01X3944498Y-1872176D02*
G01X3815075Y-1872176D01*
G36*
G01X3660694Y-1929293D02*
G01X3528695Y-1929293D01*
G01X3528695Y-1949092D01*
G01X3660694Y-1949092D01*
G01X3660694Y-1929293D01*
G37*
G36*
G01X3604595Y-1899592D02*
G01X3584796Y-1899592D01*
G01X3584796Y-1978792D01*
G01X3604595Y-1978792D01*
G01X3604595Y-1899592D01*
G37*
G36*
G01X3604595Y-2519992D02*
G01X3584796Y-2519992D01*
G01X3584796Y-2440793D01*
G01X3604595Y-2440793D01*
G01X3604595Y-2519992D01*
G37*
G01X3885527Y-4842319D02*
G01X3531248Y-4842319D01*
G01X3531248Y-4842319D02*
G01X3531248Y-4327080D01*
G01X3531248Y-4327080D02*
G01X3885527Y-4327080D01*
G01X3885527Y-4327080D02*
G01X3885527Y-4842319D01*
G01X3756779Y-955060D02*
G01X4422021Y-955060D01*
G01X4422021Y-955060D02*
G01X4422021Y-1229340D01*
G01X4422021Y-1229340D02*
G01X3756779Y-1229340D01*
G01X3756779Y-1229340D02*
G01X3756779Y-955060D01*
G54D12*
G01X8013700Y-3886200D02*
G01X8013700Y-4131818D01*
G01X8013700Y-4572000D02*
G01X8013700Y-4330174D01*
G01X9182100Y-4572000D02*
G01X8013700Y-4572000D01*
G01X9182100Y-3886200D02*
G01X9182100Y-4572000D01*
G01X8013700Y-3886200D02*
G01X9182100Y-3886200D01*
G01X8013700Y-4327398D02*
G03X8013700Y-4131818I0J97790D01*
G36*
G01X8042900Y-4482099D02*
G02X8150903Y-4482099I54002J370D01*
G02X8042900Y-4482099I-54002J-370D01*
G37*
G54D11*
G01X3351340Y-3755880D02*
G01X3351340Y-3896881D01*
G01X3532061Y-3896881D02*
G01X3532061Y-3755880D01*
G01X3516821Y-3740640D02*
G01X3366580Y-3740640D01*
G01X3351340Y-4118120D02*
G01X3351340Y-3977119D01*
G01X3532061Y-3977119D02*
G01X3532061Y-4118120D01*
G01X3516821Y-4133360D02*
G01X3366580Y-4133360D01*
G01X3532061Y-3755880D02*
G03X3516821Y-3740640I-15240J0D01*
G01X3366580Y-3740640D02*
G03X3351340Y-3755880I0J-15240D01*
G01X3532061Y-4118120D02*
G02X3516821Y-4133360I-15240J0D01*
G01X3366580Y-4133360D02*
G02X3351340Y-4118120I0J15240D01*
G01X4910689Y-4950823D02*
G01X4910689Y-4822330D01*
G01X4910689Y-4822330D02*
G01X4727270Y-4822330D01*
G01X4727270Y-4822330D02*
G01X4727270Y-4950823D01*
G01X4910689Y-5046063D02*
G01X4910689Y-5174557D01*
G01X4910689Y-5174557D02*
G01X4727270Y-5174557D01*
G01X4727270Y-5174557D02*
G01X4727270Y-5046063D01*
G01X5315455Y-4950823D02*
G01X5315455Y-4822330D01*
G01X5315455Y-4822330D02*
G01X5132037Y-4822330D01*
G01X5132037Y-4822330D02*
G01X5132037Y-4950823D01*
G01X5315455Y-5046063D02*
G01X5315455Y-5174557D01*
G01X5315455Y-5174557D02*
G01X5132037Y-5174557D01*
G01X5132037Y-5174557D02*
G01X5132037Y-5046063D01*
G54D12*
G01X6052558Y-2799453D02*
G01X5904550Y-2800452D01*
G01X6038550Y-2610452D02*
G01X5904550Y-2610452D01*
G01X5904550Y-2800452D02*
G01X5904550Y-2610449D01*
G01X6277562Y-2609451D02*
G01X6277562Y-2609456D01*
G01X6277562Y-2609456D02*
G01X6312555Y-2644450D01*
G01X6277562Y-2799453D02*
G01X6277562Y-2799448D01*
G01X6277562Y-2799448D02*
G01X6312555Y-2764455D01*
G01X6152558Y-2799453D02*
G01X6277562Y-2799453D01*
G01X6152558Y-2609451D02*
G01X6277562Y-2609451D01*
G01X6312555Y-2764455D02*
G01X6312555Y-2644450D01*
G01X6072551Y-2754452D02*
G01X6072551Y-2654452D01*
G01X6072551Y-2703947D02*
G01X6122551Y-2703947D01*
G54D11*
G01X6537531Y-2526873D02*
G01X6409037Y-2526873D01*
G01X6409037Y-2526873D02*
G01X6409037Y-2710292D01*
G01X6409037Y-2710292D02*
G01X6537531Y-2710292D01*
G01X6632771Y-2526873D02*
G01X6761264Y-2526873D01*
G01X6761264Y-2526873D02*
G01X6761264Y-2710292D01*
G01X6761264Y-2710292D02*
G01X6632771Y-2710292D01*
G54D12*
G01X9144000Y-5575300D02*
G01X9144000Y-5829300D01*
G01X5588000Y-5575300D02*
G01X9144000Y-5575300D01*
G01X5588000Y-5829300D02*
G01X9144000Y-5829300D01*
G01X5588000Y-5575300D02*
G01X5588000Y-5829300D01*
G54D11*
G01X3303986Y-4284553D02*
G01X3303986Y-4143553D01*
G01X3123265Y-4143553D02*
G01X3123265Y-4284553D01*
G01X3138505Y-4299793D02*
G01X3288746Y-4299793D01*
G01X3303986Y-3922314D02*
G01X3303986Y-4063314D01*
G01X3123265Y-4063314D02*
G01X3123265Y-3922314D01*
G01X3138505Y-3907074D02*
G01X3288746Y-3907074D01*
G01X3123265Y-4284553D02*
G03X3138505Y-4299793I15240J0D01*
G01X3288746Y-4299793D02*
G03X3303986Y-4284553I0J15240D01*
G01X3123265Y-3922314D02*
G02X3138505Y-3907074I15240J0D01*
G01X3288746Y-3907074D02*
G02X3303986Y-3922314I0J-15240D01*

G04 Circle Start*
G54D16*
G01X6095385Y-1224872D02*
G03X6125408Y-1224872I15011J0D01*
G03X6095385Y-1224872I-15011J0D01*
G01X9560173Y-1250272D02*
G03X9590196Y-1250272I15011J0D01*
G03X9560173Y-1250272I-15011J0D01*
G01X10671175Y-3174594D02*
G03X10701198Y-3174594I15011J0D01*
G03X10671175Y-3174594I-15011J0D01*
G01X10468991Y-3111170D02*
G03X10499014Y-3111170I15011J0D01*
G03X10468991Y-3111170I-15011J0D01*
G01X10518813Y-4167810D02*
G03X10548836Y-4167810I15011J0D01*
G03X10518813Y-4167810I-15011J0D01*
G01X5877072Y-3734438D02*
G03X5907095Y-3734438I15011J0D01*
G03X5877072Y-3734438I-15011J0D01*
G01X5677073Y-3660499D02*
G03X5707096Y-3660499I15011J0D01*
G03X5677073Y-3660499I-15011J0D01*
G01X3820389Y-4787900D02*
G03X3850411Y-4787900I15011J0D01*
G03X3820389Y-4787900I-15011J0D01*
G01X3979964Y-4874590D02*
G03X4009987Y-4874590I15011J0D01*
G03X3979964Y-4874590I-15011J0D01*
G04 Circle End*

M02*

