;TYPE=PLATED
;Layer: PTH_Through_Via
;EasyEDA Pro v2.2.46.11, 2026-04-07 11:18:45
;Gerber Generator version 0.3
M48
METRIC,LZ,0000.00000
;Hole size 1 = 0.30500 METRIC
T01C0.30500
%
G05
G90
T01
X35.687Y-42.037
X35.941Y-30.099
X37.338Y-30.861
X36.703Y-41.148
X37.973Y-40.386
X38.354Y-31.75
X39.37Y-31.877
X39.116Y-39.878
X40.513Y-39.243
X40.132Y-32.512
X41.529Y-38.608
X41.656Y-33.147
X42.545Y-37.973
X42.418Y-33.782
X43.307Y-34.417
X43.307Y-37.211
X44.45Y-36.703
X44.323Y-35.052
X89.535Y-34.925
X89.027Y-29.21
X34.671Y-29.464
X34.544Y-35.814
X33.528Y-35.179
X33.655Y-28.829
X89.662Y-28.321
X90.551Y-35.306
X91.694Y-36.195
X91.567Y-27.686
X32.766Y-28.321
X32.893Y-34.29
X31.496Y-33.782
X31.623Y-27.686
X92.71Y-26.924
X92.71Y-36.957
X93.726Y-37.465
X93.345Y-25.908
X30.607Y-27.051
X30.607Y-33.274
X29.591Y-32.67494
X29.718Y-26.416
X94.361Y-25.146
X94.742Y-37.592
X95.758Y-38.354
X95.123Y-24.257
X29.083Y-25.654
X28.829Y-31.623
X11.64567Y-21.717
X35.814Y-21.717
X25.4Y-20.574
X37.338Y-21.082
X51.689Y-21.082
X39.243Y-21.59
X107.696Y-18.542
X94.234Y-20.066
X80.137Y-22.352
X65.405Y-21.209
X40.386Y-22.098
X41.656Y-22.86
X43.688Y-18.923
X42.418Y-20.066
X112.74044Y-24.257
X99.01388Y-25.273
X93.345Y-22.606
X85.217Y-22.606
X71.628Y-37.084
X57.785Y-36.576
X46.355Y-36.576
X20.955Y-43.815
X44.45Y-43.307
M30