G04 Layer: TopSilkscreenLayer*
G04 EasyEDA Pro v2.2.46.11, 2026-04-07 11:18:45*
G04 Gerber Generator version 0.3*
G04 Scale: 100 percent, Rotated: No, Reflected: No*
G04 Dimensions in millimeters*
G04 Leading zeros omitted, absolute positions, 4 integers and 5 decimals*
G04 Generated by one-click*
%FSLAX45Y45*%
%MOMM*%
%ADD10C,0.2032*%
%ADD11C,0.1524*%
%ADD12C,0.254*%
%ADD13C,0.2*%
%ADD14C,0.9425*%
G75*


G04 Text Start*
G54D10*
G01X1381760Y-1986280D02*
G01X1399540Y-1977390D01*
G01X1426210Y-1950720D01*
G01X1426210Y-2137410D01*
G01X2749550Y-1995170D02*
G01X2749550Y-1986280D01*
G01X2758440Y-1968500D01*
G01X2767330Y-1959610D01*
G01X2785110Y-1950720D01*
G01X2820670Y-1950720D01*
G01X2838450Y-1959610D01*
G01X2847340Y-1968500D01*
G01X2856230Y-1986280D01*
G01X2856230Y-2004060D01*
G01X2847340Y-2021840D01*
G01X2829560Y-2048510D01*
G01X2740660Y-2137410D01*
G01X2865120Y-2137410D01*
G01X4166739Y-1950720D02*
G01X4264529Y-1950720D01*
G01X4211189Y-2021840D01*
G01X4237859Y-2021840D01*
G01X4255639Y-2030730D01*
G01X4264529Y-2039620D01*
G01X4273419Y-2066290D01*
G01X4273419Y-2084070D01*
G01X4264529Y-2110740D01*
G01X4246749Y-2128520D01*
G01X4220079Y-2137410D01*
G01X4193409Y-2137410D01*
G01X4166739Y-2128520D01*
G01X4157849Y-2119630D01*
G01X4148959Y-2101850D01*
G01X5572760Y-1988820D02*
G01X5483860Y-2113280D01*
G01X5617210Y-2113280D01*
G01X5572760Y-1988820D02*
G01X5572760Y-2175510D01*
G01X7025640Y-2001520D02*
G01X6936740Y-2001520D01*
G01X6927850Y-2081530D01*
G01X6936740Y-2072640D01*
G01X6963410Y-2063750D01*
G01X6990080Y-2063750D01*
G01X7016750Y-2072640D01*
G01X7034530Y-2090420D01*
G01X7043420Y-2117090D01*
G01X7043420Y-2134870D01*
G01X7034530Y-2161540D01*
G01X7016750Y-2179320D01*
G01X6990080Y-2188210D01*
G01X6963410Y-2188210D01*
G01X6936740Y-2179320D01*
G01X6927850Y-2170430D01*
G01X6918960Y-2152650D01*
G01X8384540Y-2028190D02*
G01X8375650Y-2010410D01*
G01X8348980Y-2001520D01*
G01X8331200Y-2001520D01*
G01X8304530Y-2010410D01*
G01X8286750Y-2037080D01*
G01X8277860Y-2081530D01*
G01X8277860Y-2125980D01*
G01X8286750Y-2161540D01*
G01X8304530Y-2179320D01*
G01X8331200Y-2188210D01*
G01X8340090Y-2188210D01*
G01X8366760Y-2179320D01*
G01X8384540Y-2161540D01*
G01X8393430Y-2134870D01*
G01X8393430Y-2125980D01*
G01X8384540Y-2099310D01*
G01X8366760Y-2081530D01*
G01X8340090Y-2072640D01*
G01X8331200Y-2072640D01*
G01X8304530Y-2081530D01*
G01X8286750Y-2099310D01*
G01X8277860Y-2125980D01*
G01X9786620Y-2026920D02*
G01X9697720Y-2213610D01*
G01X9662160Y-2026920D02*
G01X9786620Y-2026920D01*
G01X11040110Y-2026920D02*
G01X11013440Y-2035810D01*
G01X11004550Y-2053590D01*
G01X11004550Y-2071370D01*
G01X11013440Y-2089150D01*
G01X11031220Y-2098040D01*
G01X11066780Y-2106930D01*
G01X11093450Y-2115820D01*
G01X11111230Y-2133600D01*
G01X11120120Y-2151380D01*
G01X11120120Y-2178050D01*
G01X11111230Y-2195830D01*
G01X11102340Y-2204720D01*
G01X11075670Y-2213610D01*
G01X11040110Y-2213610D01*
G01X11013440Y-2204720D01*
G01X11004550Y-2195830D01*
G01X10995660Y-2178050D01*
G01X10995660Y-2151380D01*
G01X11004550Y-2133600D01*
G01X11022330Y-2115820D01*
G01X11049000Y-2106930D01*
G01X11084560Y-2098040D01*
G01X11102340Y-2089150D01*
G01X11111230Y-2071370D01*
G01X11111230Y-2053590D01*
G01X11102340Y-2035810D01*
G01X11075670Y-2026920D01*
G01X11040110Y-2026920D01*
G01X807720Y-2231390D02*
G01X789940Y-2213610D01*
G01X763270Y-2204720D01*
G01X727710Y-2204720D01*
G01X701040Y-2213610D01*
G01X683260Y-2231390D01*
G01X683260Y-2249170D01*
G01X692150Y-2266950D01*
G01X701040Y-2275840D01*
G01X718820Y-2284730D01*
G01X772160Y-2302510D01*
G01X789940Y-2311400D01*
G01X798830Y-2320290D01*
G01X807720Y-2338070D01*
G01X807720Y-2364740D01*
G01X789940Y-2382520D01*
G01X763270Y-2391410D01*
G01X727710Y-2391410D01*
G01X701040Y-2382520D01*
G01X683260Y-2364740D01*
G01X932942Y-2204720D02*
G01X932942Y-2391410D01*
G01X870712Y-2204720D02*
G01X995172Y-2204720D01*
G01X1058164Y-2204720D02*
G01X1058164Y-2391410D01*
G01X1121156Y-2204720D02*
G01X1121156Y-2391410D01*
G01X1121156Y-2204720D02*
G01X1192276Y-2391410D01*
G01X1263396Y-2204720D02*
G01X1192276Y-2391410D01*
G01X1263396Y-2204720D02*
G01X1263396Y-2391410D01*
G01X1525524Y-2204720D02*
G01X1525524Y-2391410D01*
G01X1525524Y-2204720D02*
G01X1605534Y-2204720D01*
G01X1632204Y-2213610D01*
G01X1641094Y-2222500D01*
G01X1649984Y-2240280D01*
G01X1649984Y-2258060D01*
G01X1641094Y-2275840D01*
G01X1632204Y-2284730D01*
G01X1605534Y-2293620D01*
G01X1525524Y-2293620D01*
G01X1587754Y-2293620D02*
G01X1649984Y-2391410D01*
G01X1775206Y-2204720D02*
G01X1775206Y-2391410D01*
G01X1712976Y-2204720D02*
G01X1837436Y-2204720D01*
G01X1900428Y-2204720D02*
G01X1900428Y-2391410D01*
G01X1900428Y-2204720D02*
G01X2024888Y-2391410D01*
G01X2024888Y-2204720D02*
G01X2024888Y-2391410D01*
G01X10484644Y-2320290D02*
G01X10466864Y-2302510D01*
G01X10440194Y-2293620D01*
G01X10404634Y-2293620D01*
G01X10377964Y-2302510D01*
G01X10360184Y-2320290D01*
G01X10360184Y-2338070D01*
G01X10369074Y-2355850D01*
G01X10377964Y-2364740D01*
G01X10395744Y-2373630D01*
G01X10449084Y-2391410D01*
G01X10466864Y-2400300D01*
G01X10475754Y-2409190D01*
G01X10484644Y-2426970D01*
G01X10484644Y-2453640D01*
G01X10466864Y-2471420D01*
G01X10440194Y-2480310D01*
G01X10404634Y-2480310D01*
G01X10377964Y-2471420D01*
G01X10360184Y-2453640D01*
G01X10609866Y-2293620D02*
G01X10609866Y-2480310D01*
G01X10547636Y-2293620D02*
G01X10672096Y-2293620D01*
G01X10735088Y-2293620D02*
G01X10735088Y-2480310D01*
G01X10798080Y-2293620D02*
G01X10798080Y-2480310D01*
G01X10798080Y-2293620D02*
G01X10869200Y-2480310D01*
G01X10940320Y-2293620D02*
G01X10869200Y-2480310D01*
G01X10940320Y-2293620D02*
G01X10940320Y-2480310D01*
G01X11202448Y-2293620D02*
G01X11202448Y-2480310D01*
G01X11202448Y-2293620D02*
G01X11282458Y-2293620D01*
G01X11309128Y-2302510D01*
G01X11318018Y-2311400D01*
G01X11326908Y-2329180D01*
G01X11326908Y-2346960D01*
G01X11318018Y-2364740D01*
G01X11309128Y-2373630D01*
G01X11282458Y-2382520D01*
G01X11202448Y-2382520D01*
G01X11264678Y-2382520D02*
G01X11326908Y-2480310D01*
G01X11452130Y-2293620D02*
G01X11452130Y-2480310D01*
G01X11389900Y-2293620D02*
G01X11514360Y-2293620D01*
G01X11577352Y-2293620D02*
G01X11577352Y-2480310D01*
G01X11577352Y-2293620D02*
G01X11701812Y-2480310D01*
G01X11701812Y-2293620D02*
G01X11701812Y-2480310D01*
G54D11*
G01X871220Y-648564D02*
G01X871220Y-713588D01*
G01X871220Y-648564D02*
G01X899160Y-648564D01*
G01X908304Y-651612D01*
G01X911352Y-654660D01*
G01X914654Y-661010D01*
G01X914654Y-670154D01*
G01X911352Y-676250D01*
G01X908304Y-679552D01*
G01X899160Y-682600D01*
G01X871220Y-682600D01*
G01X944880Y-661010D02*
G01X950976Y-657708D01*
G01X960120Y-648564D01*
G01X960120Y-713588D01*
G01X2243876Y-648564D02*
G01X2243876Y-713588D01*
G01X2243876Y-648564D02*
G01X2271816Y-648564D01*
G01X2280960Y-651612D01*
G01X2284008Y-654660D01*
G01X2287310Y-661010D01*
G01X2287310Y-670154D01*
G01X2284008Y-676250D01*
G01X2280960Y-679552D01*
G01X2271816Y-682600D01*
G01X2243876Y-682600D01*
G01X2320584Y-664058D02*
G01X2320584Y-661010D01*
G01X2323632Y-654660D01*
G01X2326680Y-651612D01*
G01X2332776Y-648564D01*
G01X2345222Y-648564D01*
G01X2351572Y-651612D01*
G01X2354620Y-654660D01*
G01X2357668Y-661010D01*
G01X2357668Y-667106D01*
G01X2354620Y-673202D01*
G01X2348270Y-682600D01*
G01X2317536Y-713588D01*
G01X2360716Y-713588D01*
G01X3616531Y-648564D02*
G01X3616531Y-713588D01*
G01X3616531Y-648564D02*
G01X3644471Y-648564D01*
G01X3653615Y-651612D01*
G01X3656663Y-654660D01*
G01X3659965Y-661010D01*
G01X3659965Y-670154D01*
G01X3656663Y-676250D01*
G01X3653615Y-679552D01*
G01X3644471Y-682600D01*
G01X3616531Y-682600D01*
G01X3696287Y-648564D02*
G01X3730323Y-648564D01*
G01X3711781Y-673202D01*
G01X3720925Y-673202D01*
G01X3727275Y-676250D01*
G01X3730323Y-679552D01*
G01X3733371Y-688696D01*
G01X3733371Y-695046D01*
G01X3730323Y-704190D01*
G01X3724227Y-710540D01*
G01X3714829Y-713588D01*
G01X3705431Y-713588D01*
G01X3696287Y-710540D01*
G01X3693239Y-707238D01*
G01X3690191Y-701142D01*
G01X4989187Y-648564D02*
G01X4989187Y-713588D01*
G01X4989187Y-648564D02*
G01X5017127Y-648564D01*
G01X5026271Y-651612D01*
G01X5029319Y-654660D01*
G01X5032621Y-661010D01*
G01X5032621Y-670154D01*
G01X5029319Y-676250D01*
G01X5026271Y-679552D01*
G01X5017127Y-682600D01*
G01X4989187Y-682600D01*
G01X5093581Y-648564D02*
G01X5062847Y-691744D01*
G01X5109075Y-691744D01*
G01X5093581Y-648564D02*
G01X5093581Y-713588D01*
G01X6361842Y-648564D02*
G01X6361842Y-713588D01*
G01X6361842Y-648564D02*
G01X6389782Y-648564D01*
G01X6398926Y-651612D01*
G01X6401974Y-654660D01*
G01X6405276Y-661010D01*
G01X6405276Y-670154D01*
G01X6401974Y-676250D01*
G01X6398926Y-679552D01*
G01X6389782Y-682600D01*
G01X6361842Y-682600D01*
G01X6472586Y-648564D02*
G01X6441598Y-648564D01*
G01X6438550Y-676250D01*
G01X6441598Y-673202D01*
G01X6450742Y-670154D01*
G01X6460140Y-670154D01*
G01X6469538Y-673202D01*
G01X6475634Y-679552D01*
G01X6478682Y-688696D01*
G01X6478682Y-695046D01*
G01X6475634Y-704190D01*
G01X6469538Y-710540D01*
G01X6460140Y-713588D01*
G01X6450742Y-713588D01*
G01X6441598Y-710540D01*
G01X6438550Y-707238D01*
G01X6435502Y-701142D01*
G01X7734498Y-648564D02*
G01X7734498Y-713588D01*
G01X7734498Y-648564D02*
G01X7762438Y-648564D01*
G01X7771582Y-651612D01*
G01X7774630Y-654660D01*
G01X7777932Y-661010D01*
G01X7777932Y-670154D01*
G01X7774630Y-676250D01*
G01X7771582Y-679552D01*
G01X7762438Y-682600D01*
G01X7734498Y-682600D01*
G01X7845242Y-657708D02*
G01X7842194Y-651612D01*
G01X7832796Y-648564D01*
G01X7826700Y-648564D01*
G01X7817302Y-651612D01*
G01X7811206Y-661010D01*
G01X7808158Y-676250D01*
G01X7808158Y-691744D01*
G01X7811206Y-704190D01*
G01X7817302Y-710540D01*
G01X7826700Y-713588D01*
G01X7829748Y-713588D01*
G01X7838892Y-710540D01*
G01X7845242Y-704190D01*
G01X7848290Y-695046D01*
G01X7848290Y-691744D01*
G01X7845242Y-682600D01*
G01X7838892Y-676250D01*
G01X7829748Y-673202D01*
G01X7826700Y-673202D01*
G01X7817302Y-676250D01*
G01X7811206Y-682600D01*
G01X7808158Y-691744D01*
G01X9107153Y-648564D02*
G01X9107153Y-713588D01*
G01X9107153Y-648564D02*
G01X9135093Y-648564D01*
G01X9144237Y-651612D01*
G01X9147285Y-654660D01*
G01X9150587Y-661010D01*
G01X9150587Y-670154D01*
G01X9147285Y-676250D01*
G01X9144237Y-679552D01*
G01X9135093Y-682600D01*
G01X9107153Y-682600D01*
G01X9223993Y-648564D02*
G01X9193005Y-713588D01*
G01X9180813Y-648564D02*
G01X9223993Y-648564D01*
G01X10479809Y-648564D02*
G01X10479809Y-713588D01*
G01X10479809Y-648564D02*
G01X10507749Y-648564D01*
G01X10516893Y-651612D01*
G01X10519941Y-654660D01*
G01X10523243Y-661010D01*
G01X10523243Y-670154D01*
G01X10519941Y-676250D01*
G01X10516893Y-679552D01*
G01X10507749Y-682600D01*
G01X10479809Y-682600D01*
G01X10568709Y-648564D02*
G01X10559565Y-651612D01*
G01X10556517Y-657708D01*
G01X10556517Y-664058D01*
G01X10559565Y-670154D01*
G01X10565661Y-673202D01*
G01X10578107Y-676250D01*
G01X10587505Y-679552D01*
G01X10593601Y-685648D01*
G01X10596649Y-691744D01*
G01X10596649Y-701142D01*
G01X10593601Y-707238D01*
G01X10590553Y-710540D01*
G01X10581155Y-713588D01*
G01X10568709Y-713588D01*
G01X10559565Y-710540D01*
G01X10556517Y-707238D01*
G01X10553469Y-701142D01*
G01X10553469Y-691744D01*
G01X10556517Y-685648D01*
G01X10562613Y-679552D01*
G01X10572011Y-676250D01*
G01X10584203Y-673202D01*
G01X10590553Y-670154D01*
G01X10593601Y-664058D01*
G01X10593601Y-657708D01*
G01X10590553Y-651612D01*
G01X10581155Y-648564D01*
G01X10568709Y-648564D01*
G01X2040776Y-2725351D02*
G01X1975752Y-2725351D01*
G01X2040776Y-2768785D02*
G01X1975752Y-2768785D01*
G01X2009788Y-2725351D02*
G01X2009788Y-2768785D01*
G01X2040776Y-2799011D02*
G01X1975752Y-2799011D01*
G01X2040776Y-2799011D02*
G01X2040776Y-2820601D01*
G01X2037728Y-2829745D01*
G01X2031632Y-2836095D01*
G01X2025282Y-2839143D01*
G01X2016138Y-2842191D01*
G01X2000644Y-2842191D01*
G01X1991246Y-2839143D01*
G01X1985150Y-2836095D01*
G01X1978800Y-2829745D01*
G01X1975752Y-2820601D01*
G01X1975752Y-2799011D01*
G01X2040776Y-2872417D02*
G01X1975752Y-2872417D01*
G01X2040776Y-2872417D02*
G01X1975752Y-2897055D01*
G01X2040776Y-2921947D02*
G01X1975752Y-2897055D01*
G01X2040776Y-2921947D02*
G01X1975752Y-2921947D01*
G01X2040776Y-2952173D02*
G01X1975752Y-2952173D01*
G01X2028330Y-2982399D02*
G01X2031632Y-2988495D01*
G01X2040776Y-2997639D01*
G01X1975752Y-2997639D01*
G01X10290924Y-4259649D02*
G01X10355948Y-4259649D01*
G01X10290924Y-4216215D02*
G01X10355948Y-4216215D01*
G01X10321912Y-4259649D02*
G01X10321912Y-4216215D01*
G01X10290924Y-4185989D02*
G01X10355948Y-4185989D01*
G01X10290924Y-4185989D02*
G01X10290924Y-4164399D01*
G01X10293972Y-4155255D01*
G01X10300068Y-4148905D01*
G01X10306418Y-4145857D01*
G01X10315562Y-4142809D01*
G01X10331056Y-4142809D01*
G01X10340454Y-4145857D01*
G01X10346550Y-4148905D01*
G01X10352900Y-4155255D01*
G01X10355948Y-4164399D01*
G01X10355948Y-4185989D01*
G01X10290924Y-4112583D02*
G01X10355948Y-4112583D01*
G01X10290924Y-4112583D02*
G01X10355948Y-4087945D01*
G01X10290924Y-4063053D02*
G01X10355948Y-4087945D01*
G01X10290924Y-4063053D02*
G01X10355948Y-4063053D01*
G01X10290924Y-4032827D02*
G01X10355948Y-4032827D01*
G01X10306418Y-3999553D02*
G01X10303370Y-3999553D01*
G01X10297020Y-3996505D01*
G01X10293972Y-3993457D01*
G01X10290924Y-3987361D01*
G01X10290924Y-3974915D01*
G01X10293972Y-3968565D01*
G01X10297020Y-3965517D01*
G01X10303370Y-3962469D01*
G01X10309466Y-3962469D01*
G01X10315562Y-3965517D01*
G01X10324960Y-3971867D01*
G01X10355948Y-4002601D01*
G01X10355948Y-3959421D01*
G04 Text End*

G04 PolygonModel Start*
G54D12*
G01X1935533Y-770738D02*
G01X1935533Y-1670736D01*
G01X885548Y-773735D02*
G01X885548Y-1673733D01*
G01X885548Y-770738D02*
G01X1935533Y-770738D01*
G01X882551Y-953719D02*
G01X1932536Y-953719D01*
G01X885548Y-830732D02*
G01X1935533Y-830732D01*
G01X885548Y-1673733D02*
G01X1935533Y-1673733D01*
G01X3308189Y-770738D02*
G01X3308189Y-1670736D01*
G01X2258204Y-773735D02*
G01X2258204Y-1673733D01*
G01X2258204Y-770738D02*
G01X3308189Y-770738D01*
G01X2255207Y-953719D02*
G01X3305192Y-953719D01*
G01X2258204Y-830732D02*
G01X3308189Y-830732D01*
G01X2258204Y-1673733D02*
G01X3308189Y-1673733D01*
G01X4680844Y-770738D02*
G01X4680844Y-1670736D01*
G01X3630859Y-773735D02*
G01X3630859Y-1673733D01*
G01X3630859Y-770738D02*
G01X4680844Y-770738D01*
G01X3627862Y-953719D02*
G01X4677847Y-953719D01*
G01X3630859Y-830732D02*
G01X4680844Y-830732D01*
G01X3630859Y-1673733D02*
G01X4680844Y-1673733D01*
G01X6053500Y-770738D02*
G01X6053500Y-1670736D01*
G01X5003515Y-773735D02*
G01X5003515Y-1673733D01*
G01X5003515Y-770738D02*
G01X6053500Y-770738D01*
G01X5000518Y-953719D02*
G01X6050503Y-953719D01*
G01X5003515Y-830732D02*
G01X6053500Y-830732D01*
G01X5003515Y-1673733D02*
G01X6053500Y-1673733D01*
G01X7426156Y-770738D02*
G01X7426156Y-1670736D01*
G01X6376170Y-773735D02*
G01X6376170Y-1673733D01*
G01X6376170Y-770738D02*
G01X7426156Y-770738D01*
G01X6373173Y-953719D02*
G01X7423158Y-953719D01*
G01X6376170Y-830732D02*
G01X7426156Y-830732D01*
G01X6376170Y-1673733D02*
G01X7426156Y-1673733D01*
G01X8798811Y-770738D02*
G01X8798811Y-1670736D01*
G01X7748826Y-773735D02*
G01X7748826Y-1673733D01*
G01X7748826Y-770738D02*
G01X8798811Y-770738D01*
G01X7745829Y-953719D02*
G01X8795814Y-953719D01*
G01X7748826Y-830732D02*
G01X8798811Y-830732D01*
G01X7748826Y-1673733D02*
G01X8798811Y-1673733D01*
G01X10171467Y-770738D02*
G01X10171467Y-1670736D01*
G01X9121481Y-773735D02*
G01X9121481Y-1673733D01*
G01X9121481Y-770738D02*
G01X10171467Y-770738D01*
G01X9118484Y-953719D02*
G01X10168469Y-953719D01*
G01X9121481Y-830732D02*
G01X10171467Y-830732D01*
G01X9121481Y-1673733D02*
G01X10171467Y-1673733D01*
G01X11544122Y-770738D02*
G01X11544122Y-1670736D01*
G01X10494137Y-773735D02*
G01X10494137Y-1673733D01*
G01X10494137Y-770738D02*
G01X11544122Y-770738D01*
G01X10491140Y-953719D02*
G01X11541125Y-953719D01*
G01X10494137Y-830732D02*
G01X11544122Y-830732D01*
G01X10494137Y-1673733D02*
G01X11544122Y-1673733D01*
G54D13*
G01X1290030Y-2767899D02*
G01X1545905Y-2767899D01*
G01X675904Y-4267901D02*
G01X675904Y-2767899D01*
G01X675904Y-2767899D02*
G01X985883Y-2767899D01*
G01X985883Y-4267901D02*
G01X675904Y-4267901D01*
G01X1555836Y-4267901D02*
G01X1290030Y-4267901D01*
G01X1885904Y-4000584D02*
G01X1885904Y-4167203D01*
G01X1885904Y-2868597D02*
G01X1885904Y-3035216D01*
G54D12*
G01X963841Y-3267913D02*
G01X1313853Y-3217901D01*
G01X1313853Y-3217901D02*
G01X1313853Y-3117901D01*
G01X1313853Y-3117901D02*
G01X963841Y-3067914D01*
G01X963841Y-3767912D02*
G01X1313853Y-3817899D01*
G01X1313853Y-3817899D02*
G01X1313853Y-3917899D01*
G01X1313853Y-3917899D02*
G01X963841Y-3967912D01*
G54D13*
G01X1253858Y-3197911D02*
G01X1253858Y-3137891D01*
G01X1253858Y-3837889D02*
G01X1253858Y-3897909D01*
G01X11041670Y-4217101D02*
G01X10785795Y-4217101D01*
G01X11655796Y-2717099D02*
G01X11655796Y-4217101D01*
G01X11655796Y-4217101D02*
G01X11345817Y-4217101D01*
G01X11345817Y-2717099D02*
G01X11655796Y-2717099D01*
G01X10775864Y-2717099D02*
G01X11041670Y-2717099D01*
G01X10445796Y-2984416D02*
G01X10445796Y-2817797D01*
G01X10445796Y-4116403D02*
G01X10445796Y-3949784D01*
G54D12*
G01X11367859Y-3717087D02*
G01X11017847Y-3767099D01*
G01X11017847Y-3767099D02*
G01X11017847Y-3867099D01*
G01X11017847Y-3867099D02*
G01X11367859Y-3917086D01*
G01X11367859Y-3217088D02*
G01X11017847Y-3167101D01*
G01X11017847Y-3167101D02*
G01X11017847Y-3067101D01*
G01X11017847Y-3067101D02*
G01X11367859Y-3017088D01*
G54D13*
G01X11077842Y-3787089D02*
G01X11077842Y-3847109D01*
G01X11077842Y-3147111D02*
G01X11077842Y-3087091D01*

M02*

