G04 Layer: TopLayer*
G04 EasyEDA Pro v2.2.46.11, 2026-04-07 11:18:45*
G04 Gerber Generator version 0.3*
G04 Scale: 100 percent, Rotated: No, Reflected: No*
G04 Dimensions in millimeters*
G04 Leading zeros omitted, absolute positions, 4 integers and 5 decimals*
G04 Generated by one-click*
%FSLAX45Y45*%
%MOMM*%
%ADD10C,2.0*%
%ADD11O,2.0X0.25001*%
%ADD12O,2.70002X1.5*%
%ADD13O,3.29997X1.5*%
%ADD14C,0.61*%
%ADD15C,0.2540*%
%ADD16C,0.254*%
G75*


G04 Pad Start*
G54D10*
G01X1164567Y-1193800D03*
G01X1665455Y-1193800D03*
G01X2537223Y-1193800D03*
G01X3038111Y-1193800D03*
G01X3909878Y-1193800D03*
G01X4410766Y-1193800D03*
G01X5282534Y-1193800D03*
G01X5783422Y-1193800D03*
G01X6655189Y-1193800D03*
G01X7156077Y-1193800D03*
G01X8027845Y-1193800D03*
G01X8528733Y-1193800D03*
G01X9400500Y-1193800D03*
G01X9901388Y-1193800D03*
G01X10773156Y-1193800D03*
G01X11274044Y-1193800D03*
G54D11*
G01X1833842Y-3517900D03*
G01X1833842Y-3567938D03*
G01X1833842Y-3617976D03*
G01X1833842Y-3668014D03*
G01X1833842Y-3717798D03*
G01X1833842Y-3767836D03*
G01X1833842Y-3817874D03*
G01X1833842Y-3867912D03*
G01X1833842Y-3917950D03*
G01X1833842Y-3967988D03*
G01X1833842Y-3467862D03*
G01X1833842Y-3417824D03*
G01X1833842Y-3368040D03*
G01X1833842Y-3318002D03*
G01X1833842Y-3267964D03*
G01X1833842Y-3217926D03*
G01X1833842Y-3167888D03*
G01X1833842Y-3117850D03*
G01X1833842Y-3067812D03*
G54D12*
G01X1137958Y-4242892D03*
G01X1137958Y-2792908D03*
G54D13*
G01X1737906Y-4242892D03*
G01X1737906Y-2792908D03*
G54D11*
G01X10497858Y-3467100D03*
G01X10497858Y-3417062D03*
G01X10497858Y-3367024D03*
G01X10497858Y-3316986D03*
G01X10497858Y-3267202D03*
G01X10497858Y-3217164D03*
G01X10497858Y-3167126D03*
G01X10497858Y-3117088D03*
G01X10497858Y-3067050D03*
G01X10497858Y-3017012D03*
G01X10497858Y-3517138D03*
G01X10497858Y-3567176D03*
G01X10497858Y-3616960D03*
G01X10497858Y-3666998D03*
G01X10497858Y-3717036D03*
G01X10497858Y-3767074D03*
G01X10497858Y-3817112D03*
G01X10497858Y-3867150D03*
G01X10497858Y-3917188D03*
G54D12*
G01X11193742Y-2742108D03*
G01X11193742Y-4192092D03*
G54D13*
G01X10593794Y-2742108D03*
G01X10593794Y-4192092D03*
G04 Pad End*

G04 Via Start*
G54D14*
G01X3568700Y-4203700D03*
G01X3594100Y-3009900D03*
G01X3733800Y-3086100D03*
G01X3670300Y-4114800D03*
G01X3797300Y-4038600D03*
G01X3835400Y-3175000D03*
G01X3937000Y-3187700D03*
G01X3911600Y-3987800D03*
G01X4051300Y-3924300D03*
G01X4013200Y-3251200D03*
G01X4152900Y-3860800D03*
G01X4165600Y-3314700D03*
G01X4254500Y-3797300D03*
G01X4241800Y-3378200D03*
G01X4330700Y-3441700D03*
G01X4330700Y-3721100D03*
G01X4445000Y-3670300D03*
G01X4432300Y-3505200D03*
G01X8953500Y-3492500D03*
G01X8902700Y-2921000D03*
G01X3467100Y-2946400D03*
G01X3454400Y-3581400D03*
G01X3352800Y-3517900D03*
G01X3365500Y-2882900D03*
G01X8966200Y-2832100D03*
G01X9055100Y-3530600D03*
G01X9169400Y-3619500D03*
G01X9156700Y-2768600D03*
G01X3276600Y-2832100D03*
G01X3289300Y-3429000D03*
G01X3149600Y-3378200D03*
G01X3162300Y-2768600D03*
G01X9271000Y-2692400D03*
G01X9271000Y-3695700D03*
G01X9372600Y-3746500D03*
G01X9334500Y-2590800D03*
G01X3060700Y-2705100D03*
G01X3060700Y-3327400D03*
G01X2959100Y-3267494D03*
G01X2971800Y-2641600D03*
G01X9436100Y-2514600D03*
G01X9474200Y-3759200D03*
G01X9575800Y-3835400D03*
G01X9512300Y-2425700D03*
G01X2908300Y-2565400D03*
G01X2882900Y-3162300D03*
G01X1164567Y-2171700D03*
G01X3581400Y-2171700D03*
G01X2540000Y-2057400D03*
G01X3733800Y-2108200D03*
G01X5168900Y-2108200D03*
G01X3924300Y-2159000D03*
G01X10769600Y-1854200D03*
G01X9423400Y-2006600D03*
G01X8013700Y-2235200D03*
G01X6540500Y-2120900D03*
G01X4038600Y-2209800D03*
G01X4165600Y-2286000D03*
G01X4368800Y-1892300D03*
G01X4241800Y-2006600D03*
G01X11274044Y-2425700D03*
G01X9901388Y-2527300D03*
G01X9334500Y-2260600D03*
G01X8521700Y-2260600D03*
G01X7162800Y-3708400D03*
G01X5778500Y-3657600D03*
G01X4635500Y-3657600D03*
G01X2095500Y-4381500D03*
G01X4445000Y-4330700D03*
G04 Via End*

G04 Track Start*
G54D16*
G01X3594100Y-3009900D02*
G01X10454289Y-3009900D01*
G01X10461904Y-3017515D01*
G01X10461904Y-3067502D02*
G01X3752398Y-3067502D01*
G01X3733800Y-3086100D01*
G01X3670300Y-4114800D02*
G01X3227979Y-4114800D01*
G01X3182440Y-4160339D01*
G01X2255339Y-4160339D01*
G01X3543300Y-4229100D02*
G01X3568700Y-4203700D01*
G01X1793596Y-3967493D02*
G01X1973593Y-3967493D01*
G01X2235200Y-4229100D01*
G01X3543300Y-4229100D01*
G01X1793596Y-3867493D02*
G01X2064093Y-3867493D01*
G01X2298700Y-4102100D02*
G01X3124200Y-4102100D01*
G01X3187700Y-4038600D01*
G01X3797300Y-4038600D01*
G01X3835400Y-3175000D02*
G01X3886200Y-3124200D01*
G01X10455219Y-3124200D02*
G01X10461904Y-3117515D01*
G01X2064093Y-3867493D02*
G01X2298700Y-4102100D01*
G01X3886200Y-3124200D02*
G01X10455219Y-3124200D01*
G01X10461904Y-3167502D02*
G01X3957198Y-3167502D01*
G01X3937000Y-3187700D01*
G01X3911600Y-3987800D02*
G01X3829090Y-3987800D01*
G01X3821490Y-3980200D01*
G01X3773110Y-3980200D01*
G01X3765510Y-3987800D01*
G01X2286000Y-3987800D01*
G01X1798790Y-3822700D02*
G01X1793596Y-3817506D01*
G01X2286000Y-3987800D02*
G01X2120900Y-3822700D01*
G01X1798790Y-3822700D01*
G01X1793596Y-3767493D02*
G01X2154593Y-3767493D01*
G01X2311400Y-3924300D01*
G01X4051300Y-3924300D01*
G01X1793596Y-3717506D02*
G01X2193506Y-3717506D01*
G01X2336800Y-3860800D02*
G01X4152900Y-3860800D01*
G01X2193506Y-3717506D02*
G01X2336800Y-3860800D01*
G01X4013200Y-3251200D02*
G01X8648700Y-3251200D01*
G01X8682385Y-3217515D01*
G01X10461904Y-3217515D01*
G01X10461904Y-3267502D02*
G01X8695898Y-3267502D01*
G01X8648700Y-3314700D01*
G01X4165600Y-3314700D01*
G01X1793596Y-3667493D02*
G01X2206993Y-3667493D01*
G01X2336800Y-3797300D01*
G01X4254500Y-3797300D01*
G01X4241800Y-3378200D02*
G01X8674100Y-3378200D01*
G01X8737600Y-3314700D01*
G01X10459090Y-3314700D01*
G01X10461904Y-3317514D01*
G01X10461904Y-3367502D02*
G01X8773698Y-3367502D01*
G01X8699500Y-3441700D02*
G01X4330700Y-3441700D01*
G01X4330700Y-3721100D02*
G01X2310946Y-3721100D01*
G01X8773698Y-3367502D02*
G01X8699500Y-3441700D01*
G01X1793596Y-3567493D02*
G01X2246694Y-3567493D01*
G01X4298910Y-3670300D02*
G01X4306510Y-3662700D01*
G01X4354890Y-3662700D01*
G01X4362490Y-3670300D01*
G01X4445000Y-3670300D01*
G01X2349500Y-3670300D02*
G01X4298910Y-3670300D01*
G01X4432300Y-3505200D02*
G01X8737600Y-3505200D01*
G01X8826500Y-3416300D01*
G01X10460690Y-3416300D01*
G01X10461904Y-3417514D01*
G01X2246694Y-3567493D02*
G01X2349500Y-3670300D01*
G01X10461904Y-3467501D02*
G01X8978499Y-3467501D01*
G01X8953500Y-3492500D01*
G01X8902700Y-2921000D02*
G01X3492500Y-2921000D01*
G01X3467100Y-2946400D01*
G01X3454400Y-3581400D02*
G01X2387600Y-3581400D01*
G01X2323706Y-3517506D02*
G01X1793596Y-3517506D01*
G01X2387600Y-3581400D02*
G01X2323706Y-3517506D01*
G01X1793596Y-3467494D02*
G01X2362594Y-3467494D01*
G01X2413000Y-3517900D02*
G01X3352800Y-3517900D01*
G01X3365500Y-2882900D02*
G01X3416300Y-2832100D01*
G01X9055100Y-3530600D02*
G01X9144000Y-3530600D01*
G01X9156700Y-3517900D01*
G01X10461518Y-3517900D01*
G01X10461904Y-3517514D01*
G01X2362594Y-3467494D02*
G01X2413000Y-3517900D01*
G01X3416300Y-2832100D02*
G01X8966200Y-2832100D01*
G01X9221399Y-3567501D02*
G01X9169400Y-3619500D01*
G01X9156700Y-2768600D02*
G01X3340100Y-2768600D01*
G01X3276600Y-2832100D01*
G01X10461904Y-3567501D02*
G01X9221399Y-3567501D01*
G01X3251200Y-3467100D02*
G01X2451100Y-3467100D01*
G01X3289300Y-3429000D02*
G01X3251200Y-3467100D01*
G01X2451100Y-3467100D02*
G01X2401507Y-3417506D01*
G01X1793596Y-3417506D01*
G01X2310946Y-3721100D02*
G01X2207352Y-3617506D01*
G01X1793596Y-3617506D01*
G01X2255339Y-4160339D02*
G01X2006600Y-3911600D01*
G01X1828800Y-3911600D01*
G01X1793596Y-3367494D02*
G01X2427694Y-3367494D01*
G01X2463800Y-3403600D01*
G01X3124200Y-3403600D01*
G01X3149600Y-3378200D01*
G01X3162300Y-2768600D02*
G01X3238500Y-2692400D01*
G01X9271000Y-3695700D02*
G01X9347200Y-3619500D01*
G01X10459918Y-3619500D02*
G01X10461904Y-3617514D01*
G01X3238500Y-2692400D02*
G01X9271000Y-2692400D01*
G01X9347200Y-3619500D02*
G01X10459918Y-3619500D01*
G01X10461904Y-3667526D02*
G01X9410700Y-3667526D01*
G01X9372600Y-3705626D01*
G01X9372600Y-3746500D01*
G01X9334500Y-2590800D02*
G01X3175000Y-2590800D01*
G01X3060700Y-2705100D01*
G01X1793596Y-3267494D02*
G01X2959100Y-3267494D01*
G01X2971800Y-2641600D02*
G01X3098800Y-2514600D01*
G01X9436100Y-2514600D01*
G01X9474200Y-3759200D02*
G01X9499600Y-3759200D01*
G01X9550400Y-3708400D01*
G01X10353322Y-3708400D01*
G01X10355348Y-3710426D01*
G01X10454817Y-3710426D01*
G01X10461904Y-3717514D01*
G01X10461904Y-3767526D02*
G01X9613900Y-3767526D01*
G01X9575800Y-3805626D01*
G01X9575800Y-3835400D01*
G01X9512300Y-2425700D02*
G01X3048000Y-2425700D01*
G01X2908300Y-2565400D01*
G01X2876550Y-3155950D02*
G01X2851150Y-3155950D01*
G01X2787650Y-3219450D01*
G01X1895008Y-3219450D01*
G01X1893802Y-3218244D01*
G01X1794358Y-3218244D01*
G01X1793596Y-3217481D01*
G01X2882900Y-3162300D02*
G01X2876550Y-3155950D01*
G01X3060700Y-3327400D02*
G01X1968500Y-3327400D01*
G01X1958581Y-3317481D01*
G01X1793596Y-3317481D01*
G01X1164567Y-2171700D02*
G01X3581400Y-2171700D01*
G01X2540000Y-2057400D02*
G01X3683000Y-2057400D01*
G01X3733800Y-2108200D01*
G01X5168900Y-2108200D02*
G01X3975100Y-2108200D01*
G01X3924300Y-2159000D01*
G01X10731500Y-1892300D02*
G01X10769600Y-1854200D01*
G01X7962900Y-2286000D02*
G01X8013700Y-2235200D01*
G01X6540500Y-2120900D02*
G01X6451600Y-2209800D01*
G01X4368800Y-1892300D02*
G01X10731500Y-1892300D01*
G01X4241800Y-2006600D02*
G01X9423400Y-2006600D01*
G01X4165600Y-2286000D02*
G01X7962900Y-2286000D01*
G01X6451600Y-2209800D02*
G01X4038600Y-2209800D01*
G01X11274044Y-2425700D02*
G01X9512300Y-2425700D01*
G01X9901388Y-2527300D02*
G01X9448800Y-2527300D01*
G01X9436100Y-2514600D01*
G01X9334500Y-2260600D02*
G01X8521700Y-2260600D01*
G01X9271000Y-3695700D02*
G01X7175500Y-3695700D01*
G01X7162800Y-3708400D01*
G01X9131300Y-3657600D02*
G01X9169400Y-3619500D01*
G01X5778500Y-3657600D02*
G01X7131010Y-3657600D01*
G01X7138610Y-3650000D01*
G01X7186990Y-3650000D01*
G01X7194590Y-3657600D01*
G01X9131300Y-3657600D01*
G01X5695910Y-3657600D02*
G01X4635500Y-3657600D01*
G01X9055100Y-3530600D02*
G01X8986500Y-3599200D01*
G01X5754310Y-3599200D01*
G01X5695910Y-3657600D01*
G01X2095500Y-4381500D02*
G01X4394200Y-4381500D01*
G01X4445000Y-4330700D01*
G04 Track End*

M02*

