G04 Layer: BottomLayer*
G04 EasyEDA Pro v2.2.46.11, 2026-04-07 11:18:45*
G04 Gerber Generator version 0.3*
G04 Scale: 100 percent, Rotated: No, Reflected: No*
G04 Dimensions in millimeters*
G04 Leading zeros omitted, absolute positions, 4 integers and 5 decimals*
G04 Generated by one-click*
%FSLAX45Y45*%
%MOMM*%
%ADD10C,2.0*%
%ADD11O,2.70002X1.5*%
%ADD12O,3.29997X1.5*%
%ADD13C,0.61*%
%ADD14C,0.254*%
%ADD15C,0.5395*%
G75*


G04 Pad Start*
G54D10*
G01X1164567Y-1193800D03*
G01X1665455Y-1193800D03*
G01X2537223Y-1193800D03*
G01X3038111Y-1193800D03*
G01X3909878Y-1193800D03*
G01X4410766Y-1193800D03*
G01X5282534Y-1193800D03*
G01X5783422Y-1193800D03*
G01X6655189Y-1193800D03*
G01X7156077Y-1193800D03*
G01X8027845Y-1193800D03*
G01X8528733Y-1193800D03*
G01X9400500Y-1193800D03*
G01X9901388Y-1193800D03*
G01X10773156Y-1193800D03*
G01X11274044Y-1193800D03*
G54D11*
G01X1137958Y-4242892D03*
G01X1137958Y-2792908D03*
G54D12*
G01X1737906Y-4242892D03*
G01X1737906Y-2792908D03*
G54D11*
G01X11193742Y-2742108D03*
G01X11193742Y-4192092D03*
G54D12*
G01X10593794Y-2742108D03*
G01X10593794Y-4192092D03*
G04 Pad End*

G04 Via Start*
G54D13*
G01X3568700Y-4203700D03*
G01X3594100Y-3009900D03*
G01X3733800Y-3086100D03*
G01X3670300Y-4114800D03*
G01X3797300Y-4038600D03*
G01X3835400Y-3175000D03*
G01X3937000Y-3187700D03*
G01X3911600Y-3987800D03*
G01X4051300Y-3924300D03*
G01X4013200Y-3251200D03*
G01X4152900Y-3860800D03*
G01X4165600Y-3314700D03*
G01X4254500Y-3797300D03*
G01X4241800Y-3378200D03*
G01X4330700Y-3441700D03*
G01X4330700Y-3721100D03*
G01X4445000Y-3670300D03*
G01X4432300Y-3505200D03*
G01X8953500Y-3492500D03*
G01X8902700Y-2921000D03*
G01X3467100Y-2946400D03*
G01X3454400Y-3581400D03*
G01X3352800Y-3517900D03*
G01X3365500Y-2882900D03*
G01X8966200Y-2832100D03*
G01X9055100Y-3530600D03*
G01X9169400Y-3619500D03*
G01X9156700Y-2768600D03*
G01X3276600Y-2832100D03*
G01X3289300Y-3429000D03*
G01X3149600Y-3378200D03*
G01X3162300Y-2768600D03*
G01X9271000Y-2692400D03*
G01X9271000Y-3695700D03*
G01X9372600Y-3746500D03*
G01X9334500Y-2590800D03*
G01X3060700Y-2705100D03*
G01X3060700Y-3327400D03*
G01X2959100Y-3267494D03*
G01X2971800Y-2641600D03*
G01X9436100Y-2514600D03*
G01X9474200Y-3759200D03*
G01X9575800Y-3835400D03*
G01X9512300Y-2425700D03*
G01X2908300Y-2565400D03*
G01X2882900Y-3162300D03*
G01X1164567Y-2171700D03*
G01X3581400Y-2171700D03*
G01X2540000Y-2057400D03*
G01X3733800Y-2108200D03*
G01X5168900Y-2108200D03*
G01X3924300Y-2159000D03*
G01X10769600Y-1854200D03*
G01X9423400Y-2006600D03*
G01X8013700Y-2235200D03*
G01X6540500Y-2120900D03*
G01X4038600Y-2209800D03*
G01X4165600Y-2286000D03*
G01X4368800Y-1892300D03*
G01X4241800Y-2006600D03*
G01X11274044Y-2425700D03*
G01X9901388Y-2527300D03*
G01X9334500Y-2260600D03*
G01X8521700Y-2260600D03*
G01X7162800Y-3708400D03*
G01X5778500Y-3657600D03*
G01X4635500Y-3657600D03*
G01X2095500Y-4381500D03*
G01X4445000Y-4330700D03*
G04 Via End*

G04 Track Start*
G54D14*
G01X3568700Y-4203700D02*
G01X3568700Y-3035300D01*
G01X3594100Y-3009900D01*
G01X3733800Y-3086100D02*
G01X3733800Y-4051300D01*
G01X3670300Y-4114800D01*
G01X3797300Y-4038600D02*
G01X3797300Y-3213100D01*
G01X3835400Y-3175000D01*
G01X3937000Y-3187700D02*
G01X3937000Y-3962400D01*
G01X3911600Y-3987800D01*
G01X4051300Y-3924300D02*
G01X4013200Y-3886200D01*
G01X4013200Y-3251200D01*
G01X4152900Y-3860800D02*
G01X4152900Y-3327400D01*
G01X4165600Y-3314700D01*
G01X4254500Y-3797300D02*
G01X4254500Y-3390900D01*
G01X4241800Y-3378200D01*
G01X4330700Y-3441700D02*
G01X4330700Y-3721100D01*
G01X4445000Y-3670300D02*
G01X4445000Y-3517900D01*
G01X4432300Y-3505200D01*
G01X8953500Y-3492500D02*
G01X8902700Y-3441700D01*
G01X8902700Y-2921000D01*
G01X3467100Y-2946400D02*
G01X3467100Y-3568700D01*
G01X3454400Y-3581400D01*
G01X3352800Y-3517900D02*
G01X3352800Y-2895600D01*
G01X3365500Y-2882900D01*
G01X8966200Y-2832100D02*
G01X8966200Y-3422610D01*
G01X9011900Y-3468310D01*
G01X9011900Y-3487400D01*
G01X9055100Y-3530600D01*
G01X9169400Y-3619500D02*
G01X9169400Y-2781300D01*
G01X9156700Y-2768600D01*
G01X3276600Y-2832100D02*
G01X3276600Y-3416300D01*
G01X3289300Y-3429000D01*
G01X3149600Y-3378200D02*
G01X3149600Y-2781300D01*
G01X3162300Y-2768600D01*
G01X9271000Y-2692400D02*
G01X9271000Y-3695700D01*
G01X9372600Y-3746500D02*
G01X9372600Y-2628900D01*
G01X9334500Y-2590800D01*
G01X3060700Y-2705100D02*
G01X3060700Y-3327400D01*
G01X2959100Y-3267494D02*
G01X2959100Y-2654300D01*
G01X2971800Y-2641600D01*
G01X9436100Y-2514600D02*
G01X9474200Y-2552700D01*
G01X9474200Y-3759200D01*
G01X9575800Y-3835400D02*
G01X9575800Y-2489200D01*
G01X9512300Y-2425700D01*
G01X2908300Y-2565400D02*
G01X2908300Y-3136900D01*
G01X2882900Y-3162300D01*
G01X1164567Y-1193800D02*
G01X1164567Y-2171700D01*
G01X3581400Y-2171700D02*
G01X3581400Y-2997200D01*
G01X3594100Y-3009900D01*
G01X2537223Y-1193800D02*
G01X2537223Y-2054623D01*
G01X2540000Y-2057400D01*
G01X3733800Y-2108200D02*
G01X3733800Y-3086100D01*
G01X3909878Y-1193800D02*
G01X3909878Y-2046422D01*
G01X3835400Y-2120900D02*
G01X3835400Y-3175000D01*
G01X3909878Y-2046422D02*
G01X3835400Y-2120900D01*
G01X5282534Y-1193800D02*
G01X5282534Y-1994566D01*
G01X5168900Y-2108200D01*
G01X3924300Y-2159000D02*
G01X3924300Y-3175000D01*
G01X3937000Y-3187700D01*
G01X4038600Y-3225800D02*
G01X4013200Y-3251200D01*
G01X9423400Y-1216700D02*
G01X9400500Y-1193800D01*
G01X10769600Y-1197356D02*
G01X10773156Y-1193800D01*
G01X10769600Y-1854200D02*
G01X10769600Y-1197356D01*
G01X9423400Y-2006600D02*
G01X9423400Y-1216700D01*
G01X8027845Y-2221055D02*
G01X8027845Y-1193800D01*
G01X8013700Y-2235200D02*
G01X8027845Y-2221055D01*
G01X6655189Y-2006211D02*
G01X6540500Y-2120900D01*
G01X6655189Y-1193800D02*
G01X6655189Y-2006211D01*
G01X4330700Y-1930400D02*
G01X4368800Y-1892300D01*
G01X4330700Y-3441700D02*
G01X4330700Y-1930400D01*
G01X4241800Y-3378200D02*
G01X4241800Y-2006600D01*
G01X4165600Y-3314700D02*
G01X4165600Y-2286000D01*
G01X4038600Y-2209800D02*
G01X4038600Y-3225800D01*
G01X11274044Y-1193800D02*
G01X11274044Y-2425700D01*
G01X9901388Y-1193800D02*
G01X9901388Y-2527300D01*
G01X9334500Y-2590800D02*
G01X9334500Y-2260600D01*
G01X8521700Y-2260600D02*
G01X8521700Y-1200833D01*
G01X8528733Y-1193800D01*
G01X7162800Y-3708400D02*
G01X7162800Y-1200523D01*
G01X7156077Y-1193800D01*
G01X5783422Y-1193800D02*
G01X5783422Y-3652678D01*
G01X5778500Y-3657600D01*
G01X4635500Y-3657600D02*
G01X4635500Y-1866900D01*
G01X4521200Y-1752600D01*
G01X4521200Y-1304234D01*
G01X4410766Y-1193800D01*
G01X3038111Y-1193800D02*
G01X3038111Y-2225311D01*
G01X3098800Y-2286000D02*
G01X3467100Y-2286000D01*
G01X3485061Y-2303961D01*
G01X3485061Y-2928439D01*
G01X3467100Y-2946400D01*
G01X3038111Y-2225311D02*
G01X3098800Y-2286000D01*
G01X1665455Y-1193800D02*
G01X2095500Y-1623845D01*
G01X2095500Y-4381500D01*
G01X4445000Y-4330700D02*
G01X4445000Y-3670300D01*
G04 Track End*

M02*

