G04 Layer: TopSolderMaskLayer*
G04 EasyEDA Pro v2.2.46.11, 2026-04-07 11:18:45*
G04 Gerber Generator version 0.3*
G04 Scale: 100 percent, Rotated: No, Reflected: No*
G04 Dimensions in millimeters*
G04 Leading zeros omitted, absolute positions, 4 integers and 5 decimals*
G04 Generated by one-click*
%FSLAX45Y45*%
%MOMM*%
%ADD10C,2.1016*%
%ADD11O,2.1016X0.35161*%
%ADD12O,2.80162X1.6016*%
%ADD13O,3.40157X1.6016*%
%ADD14C,0.5963*%
G75*


G04 Pad Start*
G54D10*
G01X1164567Y-1193800D03*
G01X1665455Y-1193800D03*
G01X2537223Y-1193800D03*
G01X3038111Y-1193800D03*
G01X3909878Y-1193800D03*
G01X4410766Y-1193800D03*
G01X5282534Y-1193800D03*
G01X5783422Y-1193800D03*
G01X6655189Y-1193800D03*
G01X7156077Y-1193800D03*
G01X8027845Y-1193800D03*
G01X8528733Y-1193800D03*
G01X9400500Y-1193800D03*
G01X9901388Y-1193800D03*
G01X10773156Y-1193800D03*
G01X11274044Y-1193800D03*
G54D11*
G01X1833842Y-3517900D03*
G01X1833842Y-3567938D03*
G01X1833842Y-3617976D03*
G01X1833842Y-3668014D03*
G01X1833842Y-3717798D03*
G01X1833842Y-3767836D03*
G01X1833842Y-3817874D03*
G01X1833842Y-3867912D03*
G01X1833842Y-3917950D03*
G01X1833842Y-3967988D03*
G01X1833842Y-3467862D03*
G01X1833842Y-3417824D03*
G01X1833842Y-3368040D03*
G01X1833842Y-3318002D03*
G01X1833842Y-3267964D03*
G01X1833842Y-3217926D03*
G01X1833842Y-3167888D03*
G01X1833842Y-3117850D03*
G01X1833842Y-3067812D03*
G54D12*
G01X1137958Y-4242892D03*
G01X1137958Y-2792908D03*
G54D13*
G01X1737906Y-4242892D03*
G01X1737906Y-2792908D03*
G54D11*
G01X10497858Y-3467100D03*
G01X10497858Y-3417062D03*
G01X10497858Y-3367024D03*
G01X10497858Y-3316986D03*
G01X10497858Y-3267202D03*
G01X10497858Y-3217164D03*
G01X10497858Y-3167126D03*
G01X10497858Y-3117088D03*
G01X10497858Y-3067050D03*
G01X10497858Y-3017012D03*
G01X10497858Y-3517138D03*
G01X10497858Y-3567176D03*
G01X10497858Y-3616960D03*
G01X10497858Y-3666998D03*
G01X10497858Y-3717036D03*
G01X10497858Y-3767074D03*
G01X10497858Y-3817112D03*
G01X10497858Y-3867150D03*
G01X10497858Y-3917188D03*
G54D12*
G01X11193742Y-2742108D03*
G01X11193742Y-4192092D03*
G54D13*
G01X10593794Y-2742108D03*
G01X10593794Y-4192092D03*
G04 Pad End*

M02*

