M48
;GenerationSoftware,Autodesk,EAGLE,9.7.0*%
;CreationDate,2024-11-22T20:01:42Z*%
FMAT,2
ICI,OFF
METRIC,TZ,000.000
T5C0.300
T4C0.700
T3C1.300
T2C4.500
T1C16.500
%
G90
M71
T1
X92400Y71300
X92400Y14300
X35400Y14300
X92400Y33300
X35400Y33300
X92400Y52300
X35400Y52300
X35400Y71300
T2
X-5000Y-5000
X132800Y-5000
X-5000Y90500
X132800Y90500
T3
X-3109Y34391
X-3109Y48891
X-8009Y33791
X-8009Y49491
T4
X70600Y70030
X57400Y51030
X13400Y72570
X57400Y72570
X57400Y70030
X13400Y51030
X13400Y53570
X13400Y32030
X13400Y34570
X13400Y13030
X13400Y15570
X13400Y70030
X70600Y72570
X70600Y51030
X70600Y53570
X70600Y32030
X70600Y34570
X70600Y13030
X70600Y15570
X57400Y53570
X114600Y13030
X57400Y34570
X57400Y32030
X57400Y15570
X57400Y13030
X114600Y72570
X114600Y70030
X114600Y53080
X114600Y50540
X114600Y34620
X114600Y32080
X114600Y15570
T5
X3089Y42926
X1565Y42418
X8423Y43434
X-4529Y44577
X3427Y44958
X7366Y39497
X5334Y40386
M30